%TF.GenerationSoftware,KiCad,Pcbnew,10.0.6-10.0.6~ubuntu24.04.1*%
%TF.CreationDate,2026-10-10T12:11:59+02:00*%
%TF.ProjectId,TireTempSensor_v2.0,54697265-5465-46d7-9053-656e736f725f,rev?*%
%TF.SameCoordinates,Original*%
%TF.FileFunction,Paste,Top*%
%TF.FilePolarity,Positive*%
%FSLAX45Y45*%
G04 Gerber Fmt 4.5, Leading zero omitted, Abs format (unit mm)*
G04 Created by KiCad (PCBNEW 10.0.6-10.0.6~ubuntu24.04.1) date 2026-10-10 12:11:59*
%MOMM*%
%LPD*%
G01*
G04 APERTURE LIST*
G04 Aperture macros list*
%AMRoundRect*
0 Rectangle with rounded corners*
0 $1 Rounding radius*
0 $2 $3 $4 $5 $6 $7 $8 $9 X,Y pos of 4 corners*
0 Add a 4 corners polygon primitive as box body*
4,1,4,$2,$3,$4,$5,$6,$7,$8,$9,$2,$3,0*
0 Add four circle primitives for the rounded corners*
1,1,$1+$1,$2,$3*
1,1,$1+$1,$4,$5*
1,1,$1+$1,$6,$7*
1,1,$1+$1,$8,$9*
0 Add four rect primitives between the rounded corners*
20,1,$1+$1,$2,$3,$4,$5,0*
20,1,$1+$1,$4,$5,$6,$7,0*
20,1,$1+$1,$6,$7,$8,$9,0*
20,1,$1+$1,$8,$9,$2,$3,0*%
G04 Aperture macros list end*
%ADD10RoundRect,0.225000X-0.225000X-0.250000X0.225000X-0.250000X0.225000X0.250000X-0.225000X0.250000X0*%
%ADD11RoundRect,0.250000X0.475000X-0.337500X0.475000X0.337500X-0.475000X0.337500X-0.475000X-0.337500X0*%
%ADD12RoundRect,0.250000X-0.275000X-0.350000X0.275000X-0.350000X0.275000X0.350000X-0.275000X0.350000X0*%
%ADD13RoundRect,0.237500X0.250000X0.237500X-0.250000X0.237500X-0.250000X-0.237500X0.250000X-0.237500X0*%
%ADD14RoundRect,0.237500X-0.287500X-0.237500X0.287500X-0.237500X0.287500X0.237500X-0.287500X0.237500X0*%
%ADD15RoundRect,0.237500X0.237500X-0.250000X0.237500X0.250000X-0.237500X0.250000X-0.237500X-0.250000X0*%
%ADD16RoundRect,0.250000X-0.475000X0.337500X-0.475000X-0.337500X0.475000X-0.337500X0.475000X0.337500X0*%
%ADD17R,1.900000X0.800000*%
%ADD18RoundRect,0.218750X-0.256250X0.218750X-0.256250X-0.218750X0.256250X-0.218750X0.256250X0.218750X0*%
%ADD19RoundRect,0.237500X0.237500X-0.287500X0.237500X0.287500X-0.237500X0.287500X-0.237500X-0.287500X0*%
%ADD20RoundRect,0.200000X0.200000X0.275000X-0.200000X0.275000X-0.200000X-0.275000X0.200000X-0.275000X0*%
%ADD21R,1.150000X0.600000*%
%ADD22RoundRect,0.135000X0.226274X0.035355X0.035355X0.226274X-0.226274X-0.035355X-0.035355X-0.226274X0*%
%ADD23RoundRect,0.250000X0.337500X0.475000X-0.337500X0.475000X-0.337500X-0.475000X0.337500X-0.475000X0*%
%ADD24RoundRect,0.237500X-0.237500X0.300000X-0.237500X-0.300000X0.237500X-0.300000X0.237500X0.300000X0*%
%ADD25RoundRect,0.125000X0.530330X-0.353553X-0.353553X0.530330X-0.530330X0.353553X0.353553X-0.530330X0*%
%ADD26RoundRect,0.125000X0.530330X0.353553X0.353553X0.530330X-0.530330X-0.353553X-0.353553X-0.530330X0*%
%ADD27RoundRect,0.200000X0.275000X-0.200000X0.275000X0.200000X-0.275000X0.200000X-0.275000X-0.200000X0*%
%ADD28RoundRect,0.218750X-0.218750X-0.256250X0.218750X-0.256250X0.218750X0.256250X-0.218750X0.256250X0*%
%ADD29RoundRect,0.237500X-0.250000X-0.237500X0.250000X-0.237500X0.250000X0.237500X-0.250000X0.237500X0*%
%ADD30R,2.790000X0.740000*%
%ADD31RoundRect,0.150000X0.150000X-0.512500X0.150000X0.512500X-0.150000X0.512500X-0.150000X-0.512500X0*%
%ADD32RoundRect,0.250000X-0.337500X-0.475000X0.337500X-0.475000X0.337500X0.475000X-0.337500X0.475000X0*%
%ADD33RoundRect,0.237500X0.287500X0.237500X-0.287500X0.237500X-0.287500X-0.237500X0.287500X-0.237500X0*%
%ADD34RoundRect,0.150000X0.875000X0.150000X-0.875000X0.150000X-0.875000X-0.150000X0.875000X-0.150000X0*%
%ADD35RoundRect,0.237500X-0.237500X0.250000X-0.237500X-0.250000X0.237500X-0.250000X0.237500X0.250000X0*%
%ADD36RoundRect,0.237500X-0.237500X0.287500X-0.237500X-0.287500X0.237500X-0.287500X0.237500X0.287500X0*%
%ADD37RoundRect,0.225000X0.017678X-0.335876X0.335876X-0.017678X-0.017678X0.335876X-0.335876X0.017678X0*%
%ADD38R,3.600000X1.150000*%
%ADD39R,1.560000X0.650000*%
%ADD40R,1.400000X1.200000*%
%ADD41RoundRect,0.237500X0.237500X-0.300000X0.237500X0.300000X-0.237500X0.300000X-0.237500X-0.300000X0*%
%ADD42R,0.475000X0.450000*%
%ADD43RoundRect,0.225000X-0.250000X0.225000X-0.250000X-0.225000X0.250000X-0.225000X0.250000X0.225000X0*%
%ADD44R,2.200000X1.200000*%
%ADD45RoundRect,0.225000X-0.375000X0.225000X-0.375000X-0.225000X0.375000X-0.225000X0.375000X0.225000X0*%
%ADD46RoundRect,0.225000X0.250000X-0.225000X0.250000X0.225000X-0.250000X0.225000X-0.250000X-0.225000X0*%
%ADD47RoundRect,0.237500X-0.300000X-0.237500X0.300000X-0.237500X0.300000X0.237500X-0.300000X0.237500X0*%
G04 APERTURE END LIST*
D10*
%TO.C,C17*%
X15602500Y-9560000D03*
X15757500Y-9560000D03*
%TD*%
D11*
%TO.C,C43*%
X13970000Y-9413750D03*
X13970000Y-9206250D03*
%TD*%
D12*
%TO.C,FB5*%
X10725000Y-10480000D03*
X10955000Y-10480000D03*
%TD*%
D11*
%TO.C,C48*%
X14124000Y-10413750D03*
X14124000Y-10206250D03*
%TD*%
D13*
%TO.C,R22*%
X13781250Y-10090000D03*
X13598750Y-10090000D03*
%TD*%
D14*
%TO.C,F4*%
X13752500Y-10242500D03*
X13927500Y-10242500D03*
%TD*%
D15*
%TO.C,R14*%
X13592000Y-10766250D03*
X13592000Y-10583750D03*
%TD*%
D16*
%TO.C,C41*%
X13160000Y-9280000D03*
X13160000Y-9487500D03*
%TD*%
D17*
%TO.C,D9*%
X11120000Y-9755000D03*
X11120000Y-9565000D03*
X10820000Y-9660000D03*
%TD*%
D18*
%TO.C,FB3*%
X15380000Y-9071250D03*
X15380000Y-9228750D03*
%TD*%
D19*
%TO.C,F5*%
X12770000Y-9467500D03*
X12770000Y-9292500D03*
%TD*%
D11*
%TO.C,C47*%
X14110000Y-10793750D03*
X14110000Y-10586250D03*
%TD*%
D20*
%TO.C,R6*%
X16442500Y-9500000D03*
X16277500Y-9500000D03*
%TD*%
D21*
%TO.C,D8*%
X15330000Y-10265000D03*
X15330000Y-10360000D03*
X15330000Y-10455000D03*
X15590000Y-10455000D03*
X15590000Y-10360000D03*
X15590000Y-10265000D03*
%TD*%
D16*
%TO.C,C46*%
X12940000Y-10336250D03*
X12940000Y-10543750D03*
%TD*%
D22*
%TO.C,R3*%
X15366062Y-9907062D03*
X15293938Y-9834938D03*
%TD*%
D23*
%TO.C,C44*%
X9443750Y-9876250D03*
X9236250Y-9876250D03*
%TD*%
D10*
%TO.C,C2*%
X15182500Y-10058000D03*
X15337500Y-10058000D03*
%TD*%
D24*
%TO.C,C40*%
X13340000Y-9393750D03*
X13340000Y-9566250D03*
%TD*%
D20*
%TO.C,R4*%
X14912500Y-10630000D03*
X14747500Y-10630000D03*
%TD*%
D25*
%TO.C,U1*%
X14814160Y-10103207D03*
X14870728Y-10046638D03*
X14927297Y-9990070D03*
X14983866Y-9933501D03*
X15040434Y-9876933D03*
X15097003Y-9820364D03*
X15153571Y-9763796D03*
X15210140Y-9707227D03*
D26*
X15210140Y-9512773D03*
X15153571Y-9456204D03*
X15097003Y-9399636D03*
X15040434Y-9343067D03*
X14983866Y-9286499D03*
X14927297Y-9229930D03*
X14870728Y-9173362D03*
X14814160Y-9116793D03*
D25*
X14619706Y-9116793D03*
X14563137Y-9173362D03*
X14506568Y-9229930D03*
X14450000Y-9286499D03*
X14393431Y-9343067D03*
X14336863Y-9399636D03*
X14280294Y-9456204D03*
X14223726Y-9512773D03*
D26*
X14223726Y-9707227D03*
X14280294Y-9763796D03*
X14336863Y-9820364D03*
X14393431Y-9876933D03*
X14450000Y-9933501D03*
X14506568Y-9990070D03*
X14563137Y-10046638D03*
X14619706Y-10103207D03*
%TD*%
D24*
%TO.C,C28*%
X13240000Y-9733750D03*
X13240000Y-9906250D03*
%TD*%
D23*
%TO.C,C51*%
X9443750Y-10080000D03*
X9236250Y-10080000D03*
%TD*%
D27*
%TO.C,R11*%
X15400000Y-9652500D03*
X15400000Y-9487500D03*
%TD*%
D21*
%TO.C,D7*%
X15330000Y-10640000D03*
X15330000Y-10735000D03*
X15330000Y-10830000D03*
X15590000Y-10830000D03*
X15590000Y-10735000D03*
X15590000Y-10640000D03*
%TD*%
D28*
%TO.C,D2*%
X14452750Y-10630000D03*
X14610250Y-10630000D03*
%TD*%
D29*
%TO.C,R21*%
X10978750Y-9400000D03*
X11161250Y-9400000D03*
%TD*%
D20*
%TO.C,R9*%
X14912500Y-10780000D03*
X14747500Y-10780000D03*
%TD*%
D30*
%TO.C,J3*%
X16273500Y-10831000D03*
X15866500Y-10831000D03*
X16273500Y-10704000D03*
X15866500Y-10704000D03*
X16273500Y-10577000D03*
X15866500Y-10577000D03*
X16273500Y-10450000D03*
X15866500Y-10450000D03*
X16273500Y-10323000D03*
X15866500Y-10323000D03*
X16273500Y-10196000D03*
X15866500Y-10196000D03*
X16273500Y-10069000D03*
X15866500Y-10069000D03*
%TD*%
D31*
%TO.C,U2*%
X13745000Y-10636250D03*
X13840000Y-10636250D03*
X13935000Y-10636250D03*
X13935000Y-10408750D03*
X13745000Y-10408750D03*
%TD*%
D24*
%TO.C,C30*%
X16260000Y-9073750D03*
X16260000Y-9246250D03*
%TD*%
D11*
%TO.C,C45*%
X13420000Y-10753750D03*
X13420000Y-10546250D03*
%TD*%
D28*
%TO.C,D6*%
X14454000Y-10330000D03*
X14611500Y-10330000D03*
%TD*%
%TO.C,D4*%
X14454000Y-10480000D03*
X14611500Y-10480000D03*
%TD*%
D12*
%TO.C,FB7*%
X12525000Y-10240000D03*
X12755000Y-10240000D03*
%TD*%
D16*
%TO.C,C35*%
X11140000Y-10306250D03*
X11140000Y-10513750D03*
%TD*%
D11*
%TO.C,C38*%
X12760000Y-9883750D03*
X12760000Y-9676250D03*
%TD*%
D32*
%TO.C,C50*%
X9236250Y-9670000D03*
X9443750Y-9670000D03*
%TD*%
D20*
%TO.C,R7*%
X14915000Y-10480000D03*
X14750000Y-10480000D03*
%TD*%
D12*
%TO.C,FB6*%
X10725000Y-10310000D03*
X10955000Y-10310000D03*
%TD*%
D33*
%TO.C,F3*%
X13927500Y-10800000D03*
X13752500Y-10800000D03*
%TD*%
D11*
%TO.C,C33*%
X12540000Y-10623750D03*
X12540000Y-10416250D03*
%TD*%
D34*
%TO.C,U7*%
X12310000Y-10481500D03*
X12310000Y-10354500D03*
X12310000Y-10227500D03*
X12310000Y-10100500D03*
X12310000Y-9973500D03*
X12310000Y-9846500D03*
X12310000Y-9719500D03*
X12310000Y-9592500D03*
X12310000Y-9465500D03*
X12310000Y-9338500D03*
X11380000Y-9338500D03*
X11380000Y-9465500D03*
X11380000Y-9592500D03*
X11380000Y-9719500D03*
X11380000Y-9846500D03*
X11380000Y-9973500D03*
X11380000Y-10100500D03*
X11380000Y-10227500D03*
X11380000Y-10354500D03*
X11380000Y-10481500D03*
%TD*%
D35*
%TO.C,R25*%
X9610000Y-9958750D03*
X9610000Y-10141250D03*
%TD*%
D16*
%TO.C,C34*%
X11140000Y-9920000D03*
X11140000Y-10127500D03*
%TD*%
D28*
%TO.C,D5*%
X14453750Y-10780000D03*
X14611250Y-10780000D03*
%TD*%
D11*
%TO.C,C26*%
X13060000Y-9863750D03*
X13060000Y-9656250D03*
%TD*%
D36*
%TO.C,D16*%
X13450000Y-10202500D03*
X13450000Y-10377500D03*
%TD*%
D20*
%TO.C,R10*%
X14915250Y-10330000D03*
X14750250Y-10330000D03*
%TD*%
D37*
%TO.C,C3*%
X14285199Y-9194801D03*
X14394801Y-9085199D03*
%TD*%
D38*
%TO.C,L4*%
X13640000Y-9567500D03*
X13640000Y-9272500D03*
%TD*%
D35*
%TO.C,R26*%
X9610000Y-9623750D03*
X9610000Y-9806250D03*
%TD*%
D39*
%TO.C,IC4*%
X13490000Y-9735000D03*
X13490000Y-9830000D03*
X13490000Y-9925000D03*
X13760000Y-9925000D03*
X13760000Y-9830000D03*
X13760000Y-9735000D03*
%TD*%
D40*
%TO.C,Y1*%
X15655000Y-9210000D03*
X15875000Y-9210000D03*
X15875000Y-9050000D03*
X15655000Y-9050000D03*
%TD*%
D41*
%TO.C,C39*%
X12580000Y-9886250D03*
X12580000Y-9713750D03*
%TD*%
D42*
%TO.C,IC1*%
X13168800Y-10185000D03*
X13168800Y-10120000D03*
X13168800Y-10055000D03*
X12951200Y-10055000D03*
X12951200Y-10185000D03*
%TD*%
D24*
%TO.C,C36*%
X10560000Y-10303750D03*
X10560000Y-10476250D03*
%TD*%
D43*
%TO.C,C11*%
X15540000Y-9802500D03*
X15540000Y-9957500D03*
%TD*%
D44*
%TO.C,FL2*%
X9830000Y-9725000D03*
X9830000Y-9975000D03*
X10570000Y-9975000D03*
X10570000Y-9725000D03*
%TD*%
D14*
%TO.C,F6*%
X13122500Y-10380000D03*
X13297500Y-10380000D03*
%TD*%
D15*
%TO.C,R23*%
X13940000Y-10091250D03*
X13940000Y-9908750D03*
%TD*%
D45*
%TO.C,D1*%
X13200000Y-10535000D03*
X13200000Y-10865000D03*
%TD*%
D12*
%TO.C,FB8*%
X12525000Y-10060000D03*
X12755000Y-10060000D03*
%TD*%
D41*
%TO.C,C37*%
X10960000Y-10092500D03*
X10960000Y-9920000D03*
%TD*%
D46*
%TO.C,C31*%
X13300000Y-10227500D03*
X13300000Y-10072500D03*
%TD*%
D47*
%TO.C,C29*%
X16333750Y-9840000D03*
X16506250Y-9840000D03*
%TD*%
D36*
%TO.C,D13*%
X13596000Y-10252500D03*
X13596000Y-10427500D03*
%TD*%
D43*
%TO.C,C1*%
X15093000Y-10203500D03*
X15093000Y-10358500D03*
%TD*%
D15*
%TO.C,R24*%
X13980000Y-9760000D03*
X13980000Y-9577500D03*
%TD*%
D27*
%TO.C,R5*%
X15920000Y-9862500D03*
X15920000Y-9697500D03*
%TD*%
D11*
%TO.C,C32*%
X12740000Y-10623750D03*
X12740000Y-10416250D03*
%TD*%
D16*
%TO.C,C42*%
X12950000Y-9276250D03*
X12950000Y-9483750D03*
%TD*%
M02*
