%TF.GenerationSoftware,KiCad,Pcbnew,10.0.6-10.0.6~ubuntu24.04.1*%
%TF.CreationDate,2026-10-10T12:11:59+02:00*%
%TF.ProjectId,TireTempSensor_v2.0,54697265-5465-46d7-9053-656e736f725f,rev?*%
%TF.SameCoordinates,Original*%
%TF.FileFunction,Legend,Top*%
%TF.FilePolarity,Positive*%
%FSLAX45Y45*%
G04 Gerber Fmt 4.5, Leading zero omitted, Abs format (unit mm)*
G04 Created by KiCad (PCBNEW 10.0.6-10.0.6~ubuntu24.04.1) date 2026-10-10 12:11:59*
%MOMM*%
%LPD*%
G01*
G04 APERTURE LIST*
%ADD10C,0.150000*%
%ADD11C,0.050000*%
%ADD12C,0.100000*%
%ADD13C,0.125000*%
%ADD14C,0.254000*%
%ADD15C,0.120000*%
%ADD16C,0.200000*%
%ADD17C,0.000000*%
G04 APERTURE END LIST*
D10*
X9640000Y-9950000D02*
X9800000Y-9950000D01*
X14970000Y-10410000D02*
X15030000Y-10370000D01*
X14970000Y-10417805D02*
X15010000Y-10480000D01*
X14970000Y-10417805D02*
G75*
G02*
X15062195Y-10510000I0J-92195D01*
G01*
X15355000Y-9840850D02*
X15355000Y-9810000D01*
X15356000Y-9839000D02*
X15386000Y-9839000D01*
X15359850Y-9836000D02*
X15355000Y-9840850D01*
X15384000Y-9811850D02*
X15359850Y-9836000D01*
D11*
X15400432Y-9761472D02*
X15400432Y-9731472D01*
X15400432Y-9742901D02*
X15403289Y-9741472D01*
X15403289Y-9741472D02*
X15409004Y-9741472D01*
X15409004Y-9741472D02*
X15411861Y-9742901D01*
X15411861Y-9742901D02*
X15413289Y-9744329D01*
X15413289Y-9744329D02*
X15414718Y-9747186D01*
X15414718Y-9747186D02*
X15414718Y-9755758D01*
X15414718Y-9755758D02*
X15413289Y-9758615D01*
X15413289Y-9758615D02*
X15411861Y-9760043D01*
X15411861Y-9760043D02*
X15409004Y-9761472D01*
X15409004Y-9761472D02*
X15403289Y-9761472D01*
X15403289Y-9761472D02*
X15400432Y-9760043D01*
X15427575Y-9761472D02*
X15427575Y-9741472D01*
X15427575Y-9747186D02*
X15429004Y-9744329D01*
X15429004Y-9744329D02*
X15430432Y-9742901D01*
X15430432Y-9742901D02*
X15433289Y-9741472D01*
X15433289Y-9741472D02*
X15436146Y-9741472D01*
X15446146Y-9761472D02*
X15446146Y-9741472D01*
X15446146Y-9731472D02*
X15444718Y-9732901D01*
X15444718Y-9732901D02*
X15446146Y-9734329D01*
X15446146Y-9734329D02*
X15447575Y-9732901D01*
X15447575Y-9732901D02*
X15446146Y-9731472D01*
X15446146Y-9731472D02*
X15446146Y-9734329D01*
X15473289Y-9761472D02*
X15473289Y-9731472D01*
X15473289Y-9760043D02*
X15470432Y-9761472D01*
X15470432Y-9761472D02*
X15464718Y-9761472D01*
X15464718Y-9761472D02*
X15461861Y-9760043D01*
X15461861Y-9760043D02*
X15460432Y-9758615D01*
X15460432Y-9758615D02*
X15459004Y-9755758D01*
X15459004Y-9755758D02*
X15459004Y-9747186D01*
X15459004Y-9747186D02*
X15460432Y-9744329D01*
X15460432Y-9744329D02*
X15461861Y-9742901D01*
X15461861Y-9742901D02*
X15464718Y-9741472D01*
X15464718Y-9741472D02*
X15470432Y-9741472D01*
X15470432Y-9741472D02*
X15473289Y-9742901D01*
X15500432Y-9741472D02*
X15500432Y-9765758D01*
X15500432Y-9765758D02*
X15499004Y-9768615D01*
X15499004Y-9768615D02*
X15497575Y-9770043D01*
X15497575Y-9770043D02*
X15494718Y-9771472D01*
X15494718Y-9771472D02*
X15490432Y-9771472D01*
X15490432Y-9771472D02*
X15487575Y-9770043D01*
X15500432Y-9760043D02*
X15497575Y-9761472D01*
X15497575Y-9761472D02*
X15491861Y-9761472D01*
X15491861Y-9761472D02*
X15489004Y-9760043D01*
X15489004Y-9760043D02*
X15487575Y-9758615D01*
X15487575Y-9758615D02*
X15486146Y-9755758D01*
X15486146Y-9755758D02*
X15486146Y-9747186D01*
X15486146Y-9747186D02*
X15487575Y-9744329D01*
X15487575Y-9744329D02*
X15489004Y-9742901D01*
X15489004Y-9742901D02*
X15491861Y-9741472D01*
X15491861Y-9741472D02*
X15497575Y-9741472D01*
X15497575Y-9741472D02*
X15500432Y-9742901D01*
X15526147Y-9760043D02*
X15523289Y-9761472D01*
X15523289Y-9761472D02*
X15517575Y-9761472D01*
X15517575Y-9761472D02*
X15514718Y-9760043D01*
X15514718Y-9760043D02*
X15513289Y-9757186D01*
X15513289Y-9757186D02*
X15513289Y-9745758D01*
X15513289Y-9745758D02*
X15514718Y-9742901D01*
X15514718Y-9742901D02*
X15517575Y-9741472D01*
X15517575Y-9741472D02*
X15523289Y-9741472D01*
X15523289Y-9741472D02*
X15526147Y-9742901D01*
X15526147Y-9742901D02*
X15527575Y-9745758D01*
X15527575Y-9745758D02*
X15527575Y-9748615D01*
X15527575Y-9748615D02*
X15513289Y-9751472D01*
X15396146Y-9789770D02*
X15407575Y-9789770D01*
X15400432Y-9779770D02*
X15400432Y-9805485D01*
X15400432Y-9805485D02*
X15401861Y-9808342D01*
X15401861Y-9808342D02*
X15404718Y-9809770D01*
X15404718Y-9809770D02*
X15407575Y-9809770D01*
X15421861Y-9809770D02*
X15419004Y-9808342D01*
X15419004Y-9808342D02*
X15417575Y-9806913D01*
X15417575Y-9806913D02*
X15416146Y-9804056D01*
X15416146Y-9804056D02*
X15416146Y-9795485D01*
X15416146Y-9795485D02*
X15417575Y-9792627D01*
X15417575Y-9792627D02*
X15419004Y-9791199D01*
X15419004Y-9791199D02*
X15421861Y-9789770D01*
X15421861Y-9789770D02*
X15426146Y-9789770D01*
X15426146Y-9789770D02*
X15429004Y-9791199D01*
X15429004Y-9791199D02*
X15430432Y-9792627D01*
X15430432Y-9792627D02*
X15431861Y-9795485D01*
X15431861Y-9795485D02*
X15431861Y-9804056D01*
X15431861Y-9804056D02*
X15430432Y-9806913D01*
X15430432Y-9806913D02*
X15429004Y-9808342D01*
X15429004Y-9808342D02*
X15426146Y-9809770D01*
X15426146Y-9809770D02*
X15421861Y-9809770D01*
X15400432Y-9858069D02*
X15400432Y-9838069D01*
X15400432Y-9843783D02*
X15401861Y-9840926D01*
X15401861Y-9840926D02*
X15403289Y-9839497D01*
X15403289Y-9839497D02*
X15406146Y-9838069D01*
X15406146Y-9838069D02*
X15409004Y-9838069D01*
X15417575Y-9856640D02*
X15420432Y-9858069D01*
X15420432Y-9858069D02*
X15426146Y-9858069D01*
X15426146Y-9858069D02*
X15429004Y-9856640D01*
X15429004Y-9856640D02*
X15430432Y-9853783D01*
X15430432Y-9853783D02*
X15430432Y-9852354D01*
X15430432Y-9852354D02*
X15429004Y-9849497D01*
X15429004Y-9849497D02*
X15426146Y-9848069D01*
X15426146Y-9848069D02*
X15421861Y-9848069D01*
X15421861Y-9848069D02*
X15419004Y-9846640D01*
X15419004Y-9846640D02*
X15417575Y-9843783D01*
X15417575Y-9843783D02*
X15417575Y-9842354D01*
X15417575Y-9842354D02*
X15419004Y-9839497D01*
X15419004Y-9839497D02*
X15421861Y-9838069D01*
X15421861Y-9838069D02*
X15426146Y-9838069D01*
X15426146Y-9838069D02*
X15429004Y-9839497D01*
X15439004Y-9838069D02*
X15450432Y-9838069D01*
X15443289Y-9828069D02*
X15443289Y-9853783D01*
X15443289Y-9853783D02*
X15444718Y-9856640D01*
X15444718Y-9856640D02*
X15447575Y-9858069D01*
X15447575Y-9858069D02*
X15450432Y-9858069D01*
D12*
X14988484Y-10621869D02*
X14988484Y-10588536D01*
X14988484Y-10593298D02*
X14990865Y-10590917D01*
X14990865Y-10590917D02*
X14995626Y-10588536D01*
X14995626Y-10588536D02*
X15002769Y-10588536D01*
X15002769Y-10588536D02*
X15007531Y-10590917D01*
X15007531Y-10590917D02*
X15009912Y-10595679D01*
X15009912Y-10595679D02*
X15009912Y-10621869D01*
X15009912Y-10595679D02*
X15012293Y-10590917D01*
X15012293Y-10590917D02*
X15017055Y-10588536D01*
X15017055Y-10588536D02*
X15024198Y-10588536D01*
X15024198Y-10588536D02*
X15028960Y-10590917D01*
X15028960Y-10590917D02*
X15031341Y-10595679D01*
X15031341Y-10595679D02*
X15031341Y-10621869D01*
X15062293Y-10621869D02*
X15057531Y-10619488D01*
X15057531Y-10619488D02*
X15055150Y-10617107D01*
X15055150Y-10617107D02*
X15052769Y-10612346D01*
X15052769Y-10612346D02*
X15052769Y-10598060D01*
X15052769Y-10598060D02*
X15055150Y-10593298D01*
X15055150Y-10593298D02*
X15057531Y-10590917D01*
X15057531Y-10590917D02*
X15062293Y-10588536D01*
X15062293Y-10588536D02*
X15069436Y-10588536D01*
X15069436Y-10588536D02*
X15074198Y-10590917D01*
X15074198Y-10590917D02*
X15076579Y-10593298D01*
X15076579Y-10593298D02*
X15078960Y-10598060D01*
X15078960Y-10598060D02*
X15078960Y-10612346D01*
X15078960Y-10612346D02*
X15076579Y-10617107D01*
X15076579Y-10617107D02*
X15074198Y-10619488D01*
X15074198Y-10619488D02*
X15069436Y-10621869D01*
X15069436Y-10621869D02*
X15062293Y-10621869D01*
X15100388Y-10621869D02*
X15100388Y-10588536D01*
X15100388Y-10598060D02*
X15102769Y-10593298D01*
X15102769Y-10593298D02*
X15105150Y-10590917D01*
X15105150Y-10590917D02*
X15109912Y-10588536D01*
X15109912Y-10588536D02*
X15114674Y-10588536D01*
X15128960Y-10619488D02*
X15133722Y-10621869D01*
X15133722Y-10621869D02*
X15143246Y-10621869D01*
X15143246Y-10621869D02*
X15148007Y-10619488D01*
X15148007Y-10619488D02*
X15150388Y-10614726D01*
X15150388Y-10614726D02*
X15150388Y-10612346D01*
X15150388Y-10612346D02*
X15148007Y-10607584D01*
X15148007Y-10607584D02*
X15143246Y-10605203D01*
X15143246Y-10605203D02*
X15136103Y-10605203D01*
X15136103Y-10605203D02*
X15131341Y-10602822D01*
X15131341Y-10602822D02*
X15128960Y-10598060D01*
X15128960Y-10598060D02*
X15128960Y-10595679D01*
X15128960Y-10595679D02*
X15131341Y-10590917D01*
X15131341Y-10590917D02*
X15136103Y-10588536D01*
X15136103Y-10588536D02*
X15143246Y-10588536D01*
X15143246Y-10588536D02*
X15148007Y-10590917D01*
X15190865Y-10619488D02*
X15186103Y-10621869D01*
X15186103Y-10621869D02*
X15176579Y-10621869D01*
X15176579Y-10621869D02*
X15171817Y-10619488D01*
X15171817Y-10619488D02*
X15169436Y-10614726D01*
X15169436Y-10614726D02*
X15169436Y-10595679D01*
X15169436Y-10595679D02*
X15171817Y-10590917D01*
X15171817Y-10590917D02*
X15176579Y-10588536D01*
X15176579Y-10588536D02*
X15186103Y-10588536D01*
X15186103Y-10588536D02*
X15190865Y-10590917D01*
X15190865Y-10590917D02*
X15193246Y-10595679D01*
X15193246Y-10595679D02*
X15193246Y-10600441D01*
X15193246Y-10600441D02*
X15169436Y-10605203D01*
X15007531Y-10699986D02*
X15002769Y-10702367D01*
X15002769Y-10702367D02*
X14993245Y-10702367D01*
X14993245Y-10702367D02*
X14988484Y-10699986D01*
X14988484Y-10699986D02*
X14986103Y-10695224D01*
X14986103Y-10695224D02*
X14986103Y-10676176D01*
X14986103Y-10676176D02*
X14988484Y-10671414D01*
X14988484Y-10671414D02*
X14993245Y-10669033D01*
X14993245Y-10669033D02*
X15002769Y-10669033D01*
X15002769Y-10669033D02*
X15007531Y-10671414D01*
X15007531Y-10671414D02*
X15009912Y-10676176D01*
X15009912Y-10676176D02*
X15009912Y-10680938D01*
X15009912Y-10680938D02*
X14986103Y-10685700D01*
X15031341Y-10702367D02*
X15031341Y-10669033D01*
X15031341Y-10673795D02*
X15033722Y-10671414D01*
X15033722Y-10671414D02*
X15038484Y-10669033D01*
X15038484Y-10669033D02*
X15045626Y-10669033D01*
X15045626Y-10669033D02*
X15050388Y-10671414D01*
X15050388Y-10671414D02*
X15052769Y-10676176D01*
X15052769Y-10676176D02*
X15052769Y-10702367D01*
X15052769Y-10676176D02*
X15055150Y-10671414D01*
X15055150Y-10671414D02*
X15059912Y-10669033D01*
X15059912Y-10669033D02*
X15067055Y-10669033D01*
X15067055Y-10669033D02*
X15071817Y-10671414D01*
X15071817Y-10671414D02*
X15074198Y-10676176D01*
X15074198Y-10676176D02*
X15074198Y-10702367D01*
X15098007Y-10702367D02*
X15098007Y-10669033D01*
X15098007Y-10652367D02*
X15095626Y-10654748D01*
X15095626Y-10654748D02*
X15098007Y-10657128D01*
X15098007Y-10657128D02*
X15100388Y-10654748D01*
X15100388Y-10654748D02*
X15098007Y-10652367D01*
X15098007Y-10652367D02*
X15098007Y-10657128D01*
X15114674Y-10669033D02*
X15133722Y-10669033D01*
X15121817Y-10652367D02*
X15121817Y-10695224D01*
X15121817Y-10695224D02*
X15124198Y-10699986D01*
X15124198Y-10699986D02*
X15128960Y-10702367D01*
X15128960Y-10702367D02*
X15133722Y-10702367D01*
X15169436Y-10699986D02*
X15164674Y-10702367D01*
X15164674Y-10702367D02*
X15155150Y-10702367D01*
X15155150Y-10702367D02*
X15150388Y-10699986D01*
X15150388Y-10699986D02*
X15148007Y-10695224D01*
X15148007Y-10695224D02*
X15148007Y-10676176D01*
X15148007Y-10676176D02*
X15150388Y-10671414D01*
X15150388Y-10671414D02*
X15155150Y-10669033D01*
X15155150Y-10669033D02*
X15164674Y-10669033D01*
X15164674Y-10669033D02*
X15169436Y-10671414D01*
X15169436Y-10671414D02*
X15171817Y-10676176D01*
X15171817Y-10676176D02*
X15171817Y-10680938D01*
X15171817Y-10680938D02*
X15148007Y-10685700D01*
X15214674Y-10702367D02*
X15214674Y-10652367D01*
X15214674Y-10699986D02*
X15209912Y-10702367D01*
X15209912Y-10702367D02*
X15200388Y-10702367D01*
X15200388Y-10702367D02*
X15195626Y-10699986D01*
X15195626Y-10699986D02*
X15193245Y-10697605D01*
X15193245Y-10697605D02*
X15190864Y-10692843D01*
X15190864Y-10692843D02*
X15190864Y-10678557D01*
X15190864Y-10678557D02*
X15193245Y-10673795D01*
X15193245Y-10673795D02*
X15195626Y-10671414D01*
X15195626Y-10671414D02*
X15200388Y-10669033D01*
X15200388Y-10669033D02*
X15209912Y-10669033D01*
X15209912Y-10669033D02*
X15214674Y-10671414D01*
X15009912Y-10782864D02*
X15009912Y-10732864D01*
X15009912Y-10780483D02*
X15005150Y-10782864D01*
X15005150Y-10782864D02*
X14995626Y-10782864D01*
X14995626Y-10782864D02*
X14990865Y-10780483D01*
X14990865Y-10780483D02*
X14988484Y-10778102D01*
X14988484Y-10778102D02*
X14986103Y-10773340D01*
X14986103Y-10773340D02*
X14986103Y-10759054D01*
X14986103Y-10759054D02*
X14988484Y-10754292D01*
X14988484Y-10754292D02*
X14990865Y-10751911D01*
X14990865Y-10751911D02*
X14995626Y-10749530D01*
X14995626Y-10749530D02*
X15005150Y-10749530D01*
X15005150Y-10749530D02*
X15009912Y-10751911D01*
X15052769Y-10780483D02*
X15048007Y-10782864D01*
X15048007Y-10782864D02*
X15038484Y-10782864D01*
X15038484Y-10782864D02*
X15033722Y-10780483D01*
X15033722Y-10780483D02*
X15031341Y-10775721D01*
X15031341Y-10775721D02*
X15031341Y-10756673D01*
X15031341Y-10756673D02*
X15033722Y-10751911D01*
X15033722Y-10751911D02*
X15038484Y-10749530D01*
X15038484Y-10749530D02*
X15048007Y-10749530D01*
X15048007Y-10749530D02*
X15052769Y-10751911D01*
X15052769Y-10751911D02*
X15055150Y-10756673D01*
X15055150Y-10756673D02*
X15055150Y-10761435D01*
X15055150Y-10761435D02*
X15031341Y-10766197D01*
X15071817Y-10749530D02*
X15083722Y-10782864D01*
X15083722Y-10782864D02*
X15095626Y-10749530D01*
X15114674Y-10782864D02*
X15114674Y-10749530D01*
X15114674Y-10732864D02*
X15112293Y-10735245D01*
X15112293Y-10735245D02*
X15114674Y-10737626D01*
X15114674Y-10737626D02*
X15117055Y-10735245D01*
X15117055Y-10735245D02*
X15114674Y-10732864D01*
X15114674Y-10732864D02*
X15114674Y-10737626D01*
X15159912Y-10780483D02*
X15155150Y-10782864D01*
X15155150Y-10782864D02*
X15145626Y-10782864D01*
X15145626Y-10782864D02*
X15140864Y-10780483D01*
X15140864Y-10780483D02*
X15138483Y-10778102D01*
X15138483Y-10778102D02*
X15136103Y-10773340D01*
X15136103Y-10773340D02*
X15136103Y-10759054D01*
X15136103Y-10759054D02*
X15138483Y-10754292D01*
X15138483Y-10754292D02*
X15140864Y-10751911D01*
X15140864Y-10751911D02*
X15145626Y-10749530D01*
X15145626Y-10749530D02*
X15155150Y-10749530D01*
X15155150Y-10749530D02*
X15159912Y-10751911D01*
X15200388Y-10780483D02*
X15195626Y-10782864D01*
X15195626Y-10782864D02*
X15186102Y-10782864D01*
X15186102Y-10782864D02*
X15181341Y-10780483D01*
X15181341Y-10780483D02*
X15178960Y-10775721D01*
X15178960Y-10775721D02*
X15178960Y-10756673D01*
X15178960Y-10756673D02*
X15181341Y-10751911D01*
X15181341Y-10751911D02*
X15186102Y-10749530D01*
X15186102Y-10749530D02*
X15195626Y-10749530D01*
X15195626Y-10749530D02*
X15200388Y-10751911D01*
X15200388Y-10751911D02*
X15202769Y-10756673D01*
X15202769Y-10756673D02*
X15202769Y-10761435D01*
X15202769Y-10761435D02*
X15178960Y-10766197D01*
X14988484Y-10863361D02*
X14988484Y-10830028D01*
X14988484Y-10813361D02*
X14986103Y-10815742D01*
X14986103Y-10815742D02*
X14988484Y-10818123D01*
X14988484Y-10818123D02*
X14990865Y-10815742D01*
X14990865Y-10815742D02*
X14988484Y-10813361D01*
X14988484Y-10813361D02*
X14988484Y-10818123D01*
X15033722Y-10863361D02*
X15033722Y-10813361D01*
X15033722Y-10860980D02*
X15028960Y-10863361D01*
X15028960Y-10863361D02*
X15019436Y-10863361D01*
X15019436Y-10863361D02*
X15014674Y-10860980D01*
X15014674Y-10860980D02*
X15012293Y-10858599D01*
X15012293Y-10858599D02*
X15009912Y-10853837D01*
X15009912Y-10853837D02*
X15009912Y-10839551D01*
X15009912Y-10839551D02*
X15012293Y-10834790D01*
X15012293Y-10834790D02*
X15014674Y-10832409D01*
X15014674Y-10832409D02*
X15019436Y-10830028D01*
X15019436Y-10830028D02*
X15028960Y-10830028D01*
X15028960Y-10830028D02*
X15033722Y-10832409D01*
D10*
X11630821Y-9127458D02*
X11626059Y-9132220D01*
X11626059Y-9132220D02*
X11611773Y-9136982D01*
X11611773Y-9136982D02*
X11602249Y-9136982D01*
X11602249Y-9136982D02*
X11587964Y-9132220D01*
X11587964Y-9132220D02*
X11578440Y-9122696D01*
X11578440Y-9122696D02*
X11573678Y-9113172D01*
X11573678Y-9113172D02*
X11568916Y-9094125D01*
X11568916Y-9094125D02*
X11568916Y-9079839D01*
X11568916Y-9079839D02*
X11573678Y-9060791D01*
X11573678Y-9060791D02*
X11578440Y-9051268D01*
X11578440Y-9051268D02*
X11587964Y-9041744D01*
X11587964Y-9041744D02*
X11602249Y-9036982D01*
X11602249Y-9036982D02*
X11611773Y-9036982D01*
X11611773Y-9036982D02*
X11626059Y-9041744D01*
X11626059Y-9041744D02*
X11630821Y-9046506D01*
X11668916Y-9108410D02*
X11716535Y-9108410D01*
X11659392Y-9136982D02*
X11692725Y-9036982D01*
X11692725Y-9036982D02*
X11726059Y-9136982D01*
X11759392Y-9136982D02*
X11759392Y-9036982D01*
X11759392Y-9036982D02*
X11816535Y-9136982D01*
X11816535Y-9136982D02*
X11816535Y-9036982D01*
X11940345Y-9136982D02*
X11940345Y-9036982D01*
X11983202Y-9132220D02*
X11992725Y-9136982D01*
X11992725Y-9136982D02*
X12011773Y-9136982D01*
X12011773Y-9136982D02*
X12021297Y-9132220D01*
X12021297Y-9132220D02*
X12026059Y-9122696D01*
X12026059Y-9122696D02*
X12026059Y-9117934D01*
X12026059Y-9117934D02*
X12021297Y-9108410D01*
X12021297Y-9108410D02*
X12011773Y-9103649D01*
X12011773Y-9103649D02*
X11997487Y-9103649D01*
X11997487Y-9103649D02*
X11987964Y-9098887D01*
X11987964Y-9098887D02*
X11983202Y-9089363D01*
X11983202Y-9089363D02*
X11983202Y-9084601D01*
X11983202Y-9084601D02*
X11987964Y-9075077D01*
X11987964Y-9075077D02*
X11997487Y-9070315D01*
X11997487Y-9070315D02*
X12011773Y-9070315D01*
X12011773Y-9070315D02*
X12021297Y-9075077D01*
X12083202Y-9136982D02*
X12073678Y-9132220D01*
X12073678Y-9132220D02*
X12068916Y-9127458D01*
X12068916Y-9127458D02*
X12064154Y-9117934D01*
X12064154Y-9117934D02*
X12064154Y-9089363D01*
X12064154Y-9089363D02*
X12068916Y-9079839D01*
X12068916Y-9079839D02*
X12073678Y-9075077D01*
X12073678Y-9075077D02*
X12083202Y-9070315D01*
X12083202Y-9070315D02*
X12097487Y-9070315D01*
X12097487Y-9070315D02*
X12107011Y-9075077D01*
X12107011Y-9075077D02*
X12111773Y-9079839D01*
X12111773Y-9079839D02*
X12116535Y-9089363D01*
X12116535Y-9089363D02*
X12116535Y-9117934D01*
X12116535Y-9117934D02*
X12111773Y-9127458D01*
X12111773Y-9127458D02*
X12107011Y-9132220D01*
X12107011Y-9132220D02*
X12097487Y-9136982D01*
X12097487Y-9136982D02*
X12083202Y-9136982D01*
D12*
X15645357Y-9467849D02*
X15642976Y-9470230D01*
X15642976Y-9470230D02*
X15635833Y-9472611D01*
X15635833Y-9472611D02*
X15631071Y-9472611D01*
X15631071Y-9472611D02*
X15623929Y-9470230D01*
X15623929Y-9470230D02*
X15619167Y-9465468D01*
X15619167Y-9465468D02*
X15616786Y-9460706D01*
X15616786Y-9460706D02*
X15614405Y-9451182D01*
X15614405Y-9451182D02*
X15614405Y-9444040D01*
X15614405Y-9444040D02*
X15616786Y-9434516D01*
X15616786Y-9434516D02*
X15619167Y-9429754D01*
X15619167Y-9429754D02*
X15623929Y-9424992D01*
X15623929Y-9424992D02*
X15631071Y-9422611D01*
X15631071Y-9422611D02*
X15635833Y-9422611D01*
X15635833Y-9422611D02*
X15642976Y-9424992D01*
X15642976Y-9424992D02*
X15645357Y-9427373D01*
X15692976Y-9472611D02*
X15664405Y-9472611D01*
X15678690Y-9472611D02*
X15678690Y-9422611D01*
X15678690Y-9422611D02*
X15673929Y-9429754D01*
X15673929Y-9429754D02*
X15669167Y-9434516D01*
X15669167Y-9434516D02*
X15664405Y-9436897D01*
X15709643Y-9422611D02*
X15742976Y-9422611D01*
X15742976Y-9422611D02*
X15721548Y-9472611D01*
D13*
X13934857Y-9106719D02*
X13932476Y-9109100D01*
X13932476Y-9109100D02*
X13925333Y-9111481D01*
X13925333Y-9111481D02*
X13920571Y-9111481D01*
X13920571Y-9111481D02*
X13913429Y-9109100D01*
X13913429Y-9109100D02*
X13908667Y-9104338D01*
X13908667Y-9104338D02*
X13906286Y-9099576D01*
X13906286Y-9099576D02*
X13903905Y-9090052D01*
X13903905Y-9090052D02*
X13903905Y-9082910D01*
X13903905Y-9082910D02*
X13906286Y-9073386D01*
X13906286Y-9073386D02*
X13908667Y-9068624D01*
X13908667Y-9068624D02*
X13913429Y-9063862D01*
X13913429Y-9063862D02*
X13920571Y-9061481D01*
X13920571Y-9061481D02*
X13925333Y-9061481D01*
X13925333Y-9061481D02*
X13932476Y-9063862D01*
X13932476Y-9063862D02*
X13934857Y-9066243D01*
X13977714Y-9078148D02*
X13977714Y-9111481D01*
X13965809Y-9059100D02*
X13953905Y-9094814D01*
X13953905Y-9094814D02*
X13984857Y-9094814D01*
X13999143Y-9061481D02*
X14030095Y-9061481D01*
X14030095Y-9061481D02*
X14013428Y-9080529D01*
X14013428Y-9080529D02*
X14020571Y-9080529D01*
X14020571Y-9080529D02*
X14025333Y-9082910D01*
X14025333Y-9082910D02*
X14027714Y-9085290D01*
X14027714Y-9085290D02*
X14030095Y-9090052D01*
X14030095Y-9090052D02*
X14030095Y-9101957D01*
X14030095Y-9101957D02*
X14027714Y-9106719D01*
X14027714Y-9106719D02*
X14025333Y-9109100D01*
X14025333Y-9109100D02*
X14020571Y-9111481D01*
X14020571Y-9111481D02*
X14006286Y-9111481D01*
X14006286Y-9111481D02*
X14001524Y-9109100D01*
X14001524Y-9109100D02*
X13999143Y-9106719D01*
D12*
X10798333Y-10636420D02*
X10781667Y-10636420D01*
X10781667Y-10662611D02*
X10781667Y-10612611D01*
X10781667Y-10612611D02*
X10805476Y-10612611D01*
X10841191Y-10636420D02*
X10848333Y-10638801D01*
X10848333Y-10638801D02*
X10850714Y-10641182D01*
X10850714Y-10641182D02*
X10853095Y-10645944D01*
X10853095Y-10645944D02*
X10853095Y-10653087D01*
X10853095Y-10653087D02*
X10850714Y-10657849D01*
X10850714Y-10657849D02*
X10848333Y-10660230D01*
X10848333Y-10660230D02*
X10843571Y-10662611D01*
X10843571Y-10662611D02*
X10824524Y-10662611D01*
X10824524Y-10662611D02*
X10824524Y-10612611D01*
X10824524Y-10612611D02*
X10841191Y-10612611D01*
X10841191Y-10612611D02*
X10845952Y-10614992D01*
X10845952Y-10614992D02*
X10848333Y-10617373D01*
X10848333Y-10617373D02*
X10850714Y-10622135D01*
X10850714Y-10622135D02*
X10850714Y-10626897D01*
X10850714Y-10626897D02*
X10848333Y-10631659D01*
X10848333Y-10631659D02*
X10845952Y-10634040D01*
X10845952Y-10634040D02*
X10841191Y-10636420D01*
X10841191Y-10636420D02*
X10824524Y-10636420D01*
X10898333Y-10612611D02*
X10874524Y-10612611D01*
X10874524Y-10612611D02*
X10872143Y-10636420D01*
X10872143Y-10636420D02*
X10874524Y-10634040D01*
X10874524Y-10634040D02*
X10879286Y-10631659D01*
X10879286Y-10631659D02*
X10891191Y-10631659D01*
X10891191Y-10631659D02*
X10895952Y-10634040D01*
X10895952Y-10634040D02*
X10898333Y-10636420D01*
X10898333Y-10636420D02*
X10900714Y-10641182D01*
X10900714Y-10641182D02*
X10900714Y-10653087D01*
X10900714Y-10653087D02*
X10898333Y-10657849D01*
X10898333Y-10657849D02*
X10895952Y-10660230D01*
X10895952Y-10660230D02*
X10891191Y-10662611D01*
X10891191Y-10662611D02*
X10879286Y-10662611D01*
X10879286Y-10662611D02*
X10874524Y-10660230D01*
X10874524Y-10660230D02*
X10872143Y-10657849D01*
X14091857Y-10328849D02*
X14089476Y-10331230D01*
X14089476Y-10331230D02*
X14082333Y-10333611D01*
X14082333Y-10333611D02*
X14077571Y-10333611D01*
X14077571Y-10333611D02*
X14070429Y-10331230D01*
X14070429Y-10331230D02*
X14065667Y-10326468D01*
X14065667Y-10326468D02*
X14063286Y-10321706D01*
X14063286Y-10321706D02*
X14060905Y-10312182D01*
X14060905Y-10312182D02*
X14060905Y-10305040D01*
X14060905Y-10305040D02*
X14063286Y-10295516D01*
X14063286Y-10295516D02*
X14065667Y-10290754D01*
X14065667Y-10290754D02*
X14070429Y-10285992D01*
X14070429Y-10285992D02*
X14077571Y-10283611D01*
X14077571Y-10283611D02*
X14082333Y-10283611D01*
X14082333Y-10283611D02*
X14089476Y-10285992D01*
X14089476Y-10285992D02*
X14091857Y-10288373D01*
X14134714Y-10300278D02*
X14134714Y-10333611D01*
X14122809Y-10281230D02*
X14110905Y-10316944D01*
X14110905Y-10316944D02*
X14141857Y-10316944D01*
X14168048Y-10305040D02*
X14163286Y-10302659D01*
X14163286Y-10302659D02*
X14160905Y-10300278D01*
X14160905Y-10300278D02*
X14158524Y-10295516D01*
X14158524Y-10295516D02*
X14158524Y-10293135D01*
X14158524Y-10293135D02*
X14160905Y-10288373D01*
X14160905Y-10288373D02*
X14163286Y-10285992D01*
X14163286Y-10285992D02*
X14168048Y-10283611D01*
X14168048Y-10283611D02*
X14177571Y-10283611D01*
X14177571Y-10283611D02*
X14182333Y-10285992D01*
X14182333Y-10285992D02*
X14184714Y-10288373D01*
X14184714Y-10288373D02*
X14187095Y-10293135D01*
X14187095Y-10293135D02*
X14187095Y-10295516D01*
X14187095Y-10295516D02*
X14184714Y-10300278D01*
X14184714Y-10300278D02*
X14182333Y-10302659D01*
X14182333Y-10302659D02*
X14177571Y-10305040D01*
X14177571Y-10305040D02*
X14168048Y-10305040D01*
X14168048Y-10305040D02*
X14163286Y-10307420D01*
X14163286Y-10307420D02*
X14160905Y-10309801D01*
X14160905Y-10309801D02*
X14158524Y-10314563D01*
X14158524Y-10314563D02*
X14158524Y-10324087D01*
X14158524Y-10324087D02*
X14160905Y-10328849D01*
X14160905Y-10328849D02*
X14163286Y-10331230D01*
X14163286Y-10331230D02*
X14168048Y-10333611D01*
X14168048Y-10333611D02*
X14177571Y-10333611D01*
X14177571Y-10333611D02*
X14182333Y-10331230D01*
X14182333Y-10331230D02*
X14184714Y-10328849D01*
X14184714Y-10328849D02*
X14187095Y-10324087D01*
X14187095Y-10324087D02*
X14187095Y-10314563D01*
X14187095Y-10314563D02*
X14184714Y-10309801D01*
X14184714Y-10309801D02*
X14182333Y-10307420D01*
X14182333Y-10307420D02*
X14177571Y-10305040D01*
X13771857Y-10023611D02*
X13755190Y-9999801D01*
X13743286Y-10023611D02*
X13743286Y-9973611D01*
X13743286Y-9973611D02*
X13762333Y-9973611D01*
X13762333Y-9973611D02*
X13767095Y-9975992D01*
X13767095Y-9975992D02*
X13769476Y-9978373D01*
X13769476Y-9978373D02*
X13771857Y-9983135D01*
X13771857Y-9983135D02*
X13771857Y-9990278D01*
X13771857Y-9990278D02*
X13769476Y-9995040D01*
X13769476Y-9995040D02*
X13767095Y-9997420D01*
X13767095Y-9997420D02*
X13762333Y-9999801D01*
X13762333Y-9999801D02*
X13743286Y-9999801D01*
X13790905Y-9978373D02*
X13793286Y-9975992D01*
X13793286Y-9975992D02*
X13798048Y-9973611D01*
X13798048Y-9973611D02*
X13809952Y-9973611D01*
X13809952Y-9973611D02*
X13814714Y-9975992D01*
X13814714Y-9975992D02*
X13817095Y-9978373D01*
X13817095Y-9978373D02*
X13819476Y-9983135D01*
X13819476Y-9983135D02*
X13819476Y-9987897D01*
X13819476Y-9987897D02*
X13817095Y-9995040D01*
X13817095Y-9995040D02*
X13788524Y-10023611D01*
X13788524Y-10023611D02*
X13819476Y-10023611D01*
X13838524Y-9978373D02*
X13840905Y-9975992D01*
X13840905Y-9975992D02*
X13845667Y-9973611D01*
X13845667Y-9973611D02*
X13857571Y-9973611D01*
X13857571Y-9973611D02*
X13862333Y-9975992D01*
X13862333Y-9975992D02*
X13864714Y-9978373D01*
X13864714Y-9978373D02*
X13867095Y-9983135D01*
X13867095Y-9983135D02*
X13867095Y-9987897D01*
X13867095Y-9987897D02*
X13864714Y-9995040D01*
X13864714Y-9995040D02*
X13836143Y-10023611D01*
X13836143Y-10023611D02*
X13867095Y-10023611D01*
X13846420Y-10342667D02*
X13846420Y-10359333D01*
X13872611Y-10359333D02*
X13822611Y-10359333D01*
X13822611Y-10359333D02*
X13822611Y-10335524D01*
X13839278Y-10295048D02*
X13872611Y-10295048D01*
X13820230Y-10306952D02*
X13855944Y-10318857D01*
X13855944Y-10318857D02*
X13855944Y-10287905D01*
X13560857Y-10910611D02*
X13544190Y-10886801D01*
X13532286Y-10910611D02*
X13532286Y-10860611D01*
X13532286Y-10860611D02*
X13551333Y-10860611D01*
X13551333Y-10860611D02*
X13556095Y-10862992D01*
X13556095Y-10862992D02*
X13558476Y-10865373D01*
X13558476Y-10865373D02*
X13560857Y-10870135D01*
X13560857Y-10870135D02*
X13560857Y-10877278D01*
X13560857Y-10877278D02*
X13558476Y-10882040D01*
X13558476Y-10882040D02*
X13556095Y-10884420D01*
X13556095Y-10884420D02*
X13551333Y-10886801D01*
X13551333Y-10886801D02*
X13532286Y-10886801D01*
X13608476Y-10910611D02*
X13579905Y-10910611D01*
X13594190Y-10910611D02*
X13594190Y-10860611D01*
X13594190Y-10860611D02*
X13589429Y-10867754D01*
X13589429Y-10867754D02*
X13584667Y-10872516D01*
X13584667Y-10872516D02*
X13579905Y-10874897D01*
X13651333Y-10877278D02*
X13651333Y-10910611D01*
X13639428Y-10858230D02*
X13627524Y-10893944D01*
X13627524Y-10893944D02*
X13658476Y-10893944D01*
X13097857Y-9187849D02*
X13095476Y-9190230D01*
X13095476Y-9190230D02*
X13088333Y-9192611D01*
X13088333Y-9192611D02*
X13083571Y-9192611D01*
X13083571Y-9192611D02*
X13076429Y-9190230D01*
X13076429Y-9190230D02*
X13071667Y-9185468D01*
X13071667Y-9185468D02*
X13069286Y-9180706D01*
X13069286Y-9180706D02*
X13066905Y-9171182D01*
X13066905Y-9171182D02*
X13066905Y-9164040D01*
X13066905Y-9164040D02*
X13069286Y-9154516D01*
X13069286Y-9154516D02*
X13071667Y-9149754D01*
X13071667Y-9149754D02*
X13076429Y-9144992D01*
X13076429Y-9144992D02*
X13083571Y-9142611D01*
X13083571Y-9142611D02*
X13088333Y-9142611D01*
X13088333Y-9142611D02*
X13095476Y-9144992D01*
X13095476Y-9144992D02*
X13097857Y-9147373D01*
X13140714Y-9159278D02*
X13140714Y-9192611D01*
X13128809Y-9140230D02*
X13116905Y-9175944D01*
X13116905Y-9175944D02*
X13147857Y-9175944D01*
X13193095Y-9192611D02*
X13164524Y-9192611D01*
X13178809Y-9192611D02*
X13178809Y-9142611D01*
X13178809Y-9142611D02*
X13174048Y-9149754D01*
X13174048Y-9149754D02*
X13169286Y-9154516D01*
X13169286Y-9154516D02*
X13164524Y-9156897D01*
X10779095Y-9546611D02*
X10779095Y-9496611D01*
X10779095Y-9496611D02*
X10791000Y-9496611D01*
X10791000Y-9496611D02*
X10798143Y-9498992D01*
X10798143Y-9498992D02*
X10802905Y-9503754D01*
X10802905Y-9503754D02*
X10805286Y-9508516D01*
X10805286Y-9508516D02*
X10807667Y-9518040D01*
X10807667Y-9518040D02*
X10807667Y-9525182D01*
X10807667Y-9525182D02*
X10805286Y-9534706D01*
X10805286Y-9534706D02*
X10802905Y-9539468D01*
X10802905Y-9539468D02*
X10798143Y-9544230D01*
X10798143Y-9544230D02*
X10791000Y-9546611D01*
X10791000Y-9546611D02*
X10779095Y-9546611D01*
X10831476Y-9546611D02*
X10841000Y-9546611D01*
X10841000Y-9546611D02*
X10845762Y-9544230D01*
X10845762Y-9544230D02*
X10848143Y-9541849D01*
X10848143Y-9541849D02*
X10852905Y-9534706D01*
X10852905Y-9534706D02*
X10855286Y-9525182D01*
X10855286Y-9525182D02*
X10855286Y-9506135D01*
X10855286Y-9506135D02*
X10852905Y-9501373D01*
X10852905Y-9501373D02*
X10850524Y-9498992D01*
X10850524Y-9498992D02*
X10845762Y-9496611D01*
X10845762Y-9496611D02*
X10836238Y-9496611D01*
X10836238Y-9496611D02*
X10831476Y-9498992D01*
X10831476Y-9498992D02*
X10829095Y-9501373D01*
X10829095Y-9501373D02*
X10826714Y-9506135D01*
X10826714Y-9506135D02*
X10826714Y-9518040D01*
X10826714Y-9518040D02*
X10829095Y-9522801D01*
X10829095Y-9522801D02*
X10831476Y-9525182D01*
X10831476Y-9525182D02*
X10836238Y-9527563D01*
X10836238Y-9527563D02*
X10845762Y-9527563D01*
X10845762Y-9527563D02*
X10850524Y-9525182D01*
X10850524Y-9525182D02*
X10852905Y-9522801D01*
X10852905Y-9522801D02*
X10855286Y-9518040D01*
X15335333Y-8971420D02*
X15318667Y-8971420D01*
X15318667Y-8997611D02*
X15318667Y-8947611D01*
X15318667Y-8947611D02*
X15342476Y-8947611D01*
X15378190Y-8971420D02*
X15385333Y-8973801D01*
X15385333Y-8973801D02*
X15387714Y-8976182D01*
X15387714Y-8976182D02*
X15390095Y-8980944D01*
X15390095Y-8980944D02*
X15390095Y-8988087D01*
X15390095Y-8988087D02*
X15387714Y-8992849D01*
X15387714Y-8992849D02*
X15385333Y-8995230D01*
X15385333Y-8995230D02*
X15380571Y-8997611D01*
X15380571Y-8997611D02*
X15361524Y-8997611D01*
X15361524Y-8997611D02*
X15361524Y-8947611D01*
X15361524Y-8947611D02*
X15378190Y-8947611D01*
X15378190Y-8947611D02*
X15382952Y-8949992D01*
X15382952Y-8949992D02*
X15385333Y-8952373D01*
X15385333Y-8952373D02*
X15387714Y-8957135D01*
X15387714Y-8957135D02*
X15387714Y-8961897D01*
X15387714Y-8961897D02*
X15385333Y-8966659D01*
X15385333Y-8966659D02*
X15382952Y-8969040D01*
X15382952Y-8969040D02*
X15378190Y-8971420D01*
X15378190Y-8971420D02*
X15361524Y-8971420D01*
X15406762Y-8947611D02*
X15437714Y-8947611D01*
X15437714Y-8947611D02*
X15421048Y-8966659D01*
X15421048Y-8966659D02*
X15428190Y-8966659D01*
X15428190Y-8966659D02*
X15432952Y-8969040D01*
X15432952Y-8969040D02*
X15435333Y-8971420D01*
X15435333Y-8971420D02*
X15437714Y-8976182D01*
X15437714Y-8976182D02*
X15437714Y-8988087D01*
X15437714Y-8988087D02*
X15435333Y-8992849D01*
X15435333Y-8992849D02*
X15432952Y-8995230D01*
X15432952Y-8995230D02*
X15428190Y-8997611D01*
X15428190Y-8997611D02*
X15413905Y-8997611D01*
X15413905Y-8997611D02*
X15409143Y-8995230D01*
X15409143Y-8995230D02*
X15406762Y-8992849D01*
X12743333Y-9166420D02*
X12726667Y-9166420D01*
X12726667Y-9192611D02*
X12726667Y-9142611D01*
X12726667Y-9142611D02*
X12750476Y-9142611D01*
X12793333Y-9142611D02*
X12769524Y-9142611D01*
X12769524Y-9142611D02*
X12767143Y-9166420D01*
X12767143Y-9166420D02*
X12769524Y-9164040D01*
X12769524Y-9164040D02*
X12774286Y-9161659D01*
X12774286Y-9161659D02*
X12786190Y-9161659D01*
X12786190Y-9161659D02*
X12790952Y-9164040D01*
X12790952Y-9164040D02*
X12793333Y-9166420D01*
X12793333Y-9166420D02*
X12795714Y-9171182D01*
X12795714Y-9171182D02*
X12795714Y-9183087D01*
X12795714Y-9183087D02*
X12793333Y-9187849D01*
X12793333Y-9187849D02*
X12790952Y-9190230D01*
X12790952Y-9190230D02*
X12786190Y-9192611D01*
X12786190Y-9192611D02*
X12774286Y-9192611D01*
X12774286Y-9192611D02*
X12769524Y-9190230D01*
X12769524Y-9190230D02*
X12767143Y-9187849D01*
X14065857Y-10915849D02*
X14063476Y-10918230D01*
X14063476Y-10918230D02*
X14056333Y-10920611D01*
X14056333Y-10920611D02*
X14051571Y-10920611D01*
X14051571Y-10920611D02*
X14044429Y-10918230D01*
X14044429Y-10918230D02*
X14039667Y-10913468D01*
X14039667Y-10913468D02*
X14037286Y-10908706D01*
X14037286Y-10908706D02*
X14034905Y-10899182D01*
X14034905Y-10899182D02*
X14034905Y-10892040D01*
X14034905Y-10892040D02*
X14037286Y-10882516D01*
X14037286Y-10882516D02*
X14039667Y-10877754D01*
X14039667Y-10877754D02*
X14044429Y-10872992D01*
X14044429Y-10872992D02*
X14051571Y-10870611D01*
X14051571Y-10870611D02*
X14056333Y-10870611D01*
X14056333Y-10870611D02*
X14063476Y-10872992D01*
X14063476Y-10872992D02*
X14065857Y-10875373D01*
X14108714Y-10887278D02*
X14108714Y-10920611D01*
X14096809Y-10868230D02*
X14084905Y-10903944D01*
X14084905Y-10903944D02*
X14115857Y-10903944D01*
X14130143Y-10870611D02*
X14163476Y-10870611D01*
X14163476Y-10870611D02*
X14142048Y-10920611D01*
X16267667Y-9434611D02*
X16251000Y-9410801D01*
X16239095Y-9434611D02*
X16239095Y-9384611D01*
X16239095Y-9384611D02*
X16258143Y-9384611D01*
X16258143Y-9384611D02*
X16262905Y-9386992D01*
X16262905Y-9386992D02*
X16265286Y-9389373D01*
X16265286Y-9389373D02*
X16267667Y-9394135D01*
X16267667Y-9394135D02*
X16267667Y-9401278D01*
X16267667Y-9401278D02*
X16265286Y-9406040D01*
X16265286Y-9406040D02*
X16262905Y-9408420D01*
X16262905Y-9408420D02*
X16258143Y-9410801D01*
X16258143Y-9410801D02*
X16239095Y-9410801D01*
X16310524Y-9384611D02*
X16301000Y-9384611D01*
X16301000Y-9384611D02*
X16296238Y-9386992D01*
X16296238Y-9386992D02*
X16293857Y-9389373D01*
X16293857Y-9389373D02*
X16289095Y-9396516D01*
X16289095Y-9396516D02*
X16286714Y-9406040D01*
X16286714Y-9406040D02*
X16286714Y-9425087D01*
X16286714Y-9425087D02*
X16289095Y-9429849D01*
X16289095Y-9429849D02*
X16291476Y-9432230D01*
X16291476Y-9432230D02*
X16296238Y-9434611D01*
X16296238Y-9434611D02*
X16305762Y-9434611D01*
X16305762Y-9434611D02*
X16310524Y-9432230D01*
X16310524Y-9432230D02*
X16312905Y-9429849D01*
X16312905Y-9429849D02*
X16315286Y-9425087D01*
X16315286Y-9425087D02*
X16315286Y-9413182D01*
X16315286Y-9413182D02*
X16312905Y-9408420D01*
X16312905Y-9408420D02*
X16310524Y-9406040D01*
X16310524Y-9406040D02*
X16305762Y-9403659D01*
X16305762Y-9403659D02*
X16296238Y-9403659D01*
X16296238Y-9403659D02*
X16291476Y-9406040D01*
X16291476Y-9406040D02*
X16289095Y-9408420D01*
X16289095Y-9408420D02*
X16286714Y-9413182D01*
X12907857Y-10697849D02*
X12905476Y-10700230D01*
X12905476Y-10700230D02*
X12898333Y-10702611D01*
X12898333Y-10702611D02*
X12893571Y-10702611D01*
X12893571Y-10702611D02*
X12886429Y-10700230D01*
X12886429Y-10700230D02*
X12881667Y-10695468D01*
X12881667Y-10695468D02*
X12879286Y-10690706D01*
X12879286Y-10690706D02*
X12876905Y-10681182D01*
X12876905Y-10681182D02*
X12876905Y-10674040D01*
X12876905Y-10674040D02*
X12879286Y-10664516D01*
X12879286Y-10664516D02*
X12881667Y-10659754D01*
X12881667Y-10659754D02*
X12886429Y-10654992D01*
X12886429Y-10654992D02*
X12893571Y-10652611D01*
X12893571Y-10652611D02*
X12898333Y-10652611D01*
X12898333Y-10652611D02*
X12905476Y-10654992D01*
X12905476Y-10654992D02*
X12907857Y-10657373D01*
X12950714Y-10669278D02*
X12950714Y-10702611D01*
X12938809Y-10650230D02*
X12926905Y-10685944D01*
X12926905Y-10685944D02*
X12957857Y-10685944D01*
X12998333Y-10652611D02*
X12988809Y-10652611D01*
X12988809Y-10652611D02*
X12984048Y-10654992D01*
X12984048Y-10654992D02*
X12981667Y-10657373D01*
X12981667Y-10657373D02*
X12976905Y-10664516D01*
X12976905Y-10664516D02*
X12974524Y-10674040D01*
X12974524Y-10674040D02*
X12974524Y-10693087D01*
X12974524Y-10693087D02*
X12976905Y-10697849D01*
X12976905Y-10697849D02*
X12979286Y-10700230D01*
X12979286Y-10700230D02*
X12984048Y-10702611D01*
X12984048Y-10702611D02*
X12993571Y-10702611D01*
X12993571Y-10702611D02*
X12998333Y-10700230D01*
X12998333Y-10700230D02*
X13000714Y-10697849D01*
X13000714Y-10697849D02*
X13003095Y-10693087D01*
X13003095Y-10693087D02*
X13003095Y-10681182D01*
X13003095Y-10681182D02*
X13000714Y-10676420D01*
X13000714Y-10676420D02*
X12998333Y-10674040D01*
X12998333Y-10674040D02*
X12993571Y-10671659D01*
X12993571Y-10671659D02*
X12984048Y-10671659D01*
X12984048Y-10671659D02*
X12979286Y-10674040D01*
X12979286Y-10674040D02*
X12976905Y-10676420D01*
X12976905Y-10676420D02*
X12974524Y-10681182D01*
X9037857Y-9887849D02*
X9035476Y-9890230D01*
X9035476Y-9890230D02*
X9028333Y-9892611D01*
X9028333Y-9892611D02*
X9023571Y-9892611D01*
X9023571Y-9892611D02*
X9016429Y-9890230D01*
X9016429Y-9890230D02*
X9011667Y-9885468D01*
X9011667Y-9885468D02*
X9009286Y-9880706D01*
X9009286Y-9880706D02*
X9006905Y-9871182D01*
X9006905Y-9871182D02*
X9006905Y-9864040D01*
X9006905Y-9864040D02*
X9009286Y-9854516D01*
X9009286Y-9854516D02*
X9011667Y-9849754D01*
X9011667Y-9849754D02*
X9016429Y-9844992D01*
X9016429Y-9844992D02*
X9023571Y-9842611D01*
X9023571Y-9842611D02*
X9028333Y-9842611D01*
X9028333Y-9842611D02*
X9035476Y-9844992D01*
X9035476Y-9844992D02*
X9037857Y-9847373D01*
X9080714Y-9859278D02*
X9080714Y-9892611D01*
X9068810Y-9840230D02*
X9056905Y-9875944D01*
X9056905Y-9875944D02*
X9087857Y-9875944D01*
X9128333Y-9859278D02*
X9128333Y-9892611D01*
X9116429Y-9840230D02*
X9104524Y-9875944D01*
X9104524Y-9875944D02*
X9135476Y-9875944D01*
X15253667Y-9966849D02*
X15251286Y-9969230D01*
X15251286Y-9969230D02*
X15244143Y-9971611D01*
X15244143Y-9971611D02*
X15239381Y-9971611D01*
X15239381Y-9971611D02*
X15232238Y-9969230D01*
X15232238Y-9969230D02*
X15227476Y-9964468D01*
X15227476Y-9964468D02*
X15225095Y-9959706D01*
X15225095Y-9959706D02*
X15222714Y-9950182D01*
X15222714Y-9950182D02*
X15222714Y-9943040D01*
X15222714Y-9943040D02*
X15225095Y-9933516D01*
X15225095Y-9933516D02*
X15227476Y-9928754D01*
X15227476Y-9928754D02*
X15232238Y-9923992D01*
X15232238Y-9923992D02*
X15239381Y-9921611D01*
X15239381Y-9921611D02*
X15244143Y-9921611D01*
X15244143Y-9921611D02*
X15251286Y-9923992D01*
X15251286Y-9923992D02*
X15253667Y-9926373D01*
X15272714Y-9926373D02*
X15275095Y-9923992D01*
X15275095Y-9923992D02*
X15279857Y-9921611D01*
X15279857Y-9921611D02*
X15291762Y-9921611D01*
X15291762Y-9921611D02*
X15296524Y-9923992D01*
X15296524Y-9923992D02*
X15298905Y-9926373D01*
X15298905Y-9926373D02*
X15301286Y-9931135D01*
X15301286Y-9931135D02*
X15301286Y-9935897D01*
X15301286Y-9935897D02*
X15298905Y-9943040D01*
X15298905Y-9943040D02*
X15270333Y-9971611D01*
X15270333Y-9971611D02*
X15301286Y-9971611D01*
X13307857Y-9187849D02*
X13305476Y-9190230D01*
X13305476Y-9190230D02*
X13298333Y-9192611D01*
X13298333Y-9192611D02*
X13293571Y-9192611D01*
X13293571Y-9192611D02*
X13286429Y-9190230D01*
X13286429Y-9190230D02*
X13281667Y-9185468D01*
X13281667Y-9185468D02*
X13279286Y-9180706D01*
X13279286Y-9180706D02*
X13276905Y-9171182D01*
X13276905Y-9171182D02*
X13276905Y-9164040D01*
X13276905Y-9164040D02*
X13279286Y-9154516D01*
X13279286Y-9154516D02*
X13281667Y-9149754D01*
X13281667Y-9149754D02*
X13286429Y-9144992D01*
X13286429Y-9144992D02*
X13293571Y-9142611D01*
X13293571Y-9142611D02*
X13298333Y-9142611D01*
X13298333Y-9142611D02*
X13305476Y-9144992D01*
X13305476Y-9144992D02*
X13307857Y-9147373D01*
X13350714Y-9159278D02*
X13350714Y-9192611D01*
X13338809Y-9140230D02*
X13326905Y-9175944D01*
X13326905Y-9175944D02*
X13357857Y-9175944D01*
X13386428Y-9142611D02*
X13391190Y-9142611D01*
X13391190Y-9142611D02*
X13395952Y-9144992D01*
X13395952Y-9144992D02*
X13398333Y-9147373D01*
X13398333Y-9147373D02*
X13400714Y-9152135D01*
X13400714Y-9152135D02*
X13403095Y-9161659D01*
X13403095Y-9161659D02*
X13403095Y-9173563D01*
X13403095Y-9173563D02*
X13400714Y-9183087D01*
X13400714Y-9183087D02*
X13398333Y-9187849D01*
X13398333Y-9187849D02*
X13395952Y-9190230D01*
X13395952Y-9190230D02*
X13391190Y-9192611D01*
X13391190Y-9192611D02*
X13386428Y-9192611D01*
X13386428Y-9192611D02*
X13381667Y-9190230D01*
X13381667Y-9190230D02*
X13379286Y-9187849D01*
X13379286Y-9187849D02*
X13376905Y-9183087D01*
X13376905Y-9183087D02*
X13374524Y-9173563D01*
X13374524Y-9173563D02*
X13374524Y-9161659D01*
X13374524Y-9161659D02*
X13376905Y-9152135D01*
X13376905Y-9152135D02*
X13379286Y-9147373D01*
X13379286Y-9147373D02*
X13381667Y-9144992D01*
X13381667Y-9144992D02*
X13386428Y-9142611D01*
X16371905Y-9372611D02*
X16371905Y-9322611D01*
X16371905Y-9346420D02*
X16400476Y-9346420D01*
X16400476Y-9372611D02*
X16400476Y-9322611D01*
X16445714Y-9339278D02*
X16445714Y-9372611D01*
X16433809Y-9320230D02*
X16421905Y-9355944D01*
X16421905Y-9355944D02*
X16452857Y-9355944D01*
X14775167Y-11013611D02*
X14758500Y-10989801D01*
X14746595Y-11013611D02*
X14746595Y-10963611D01*
X14746595Y-10963611D02*
X14765643Y-10963611D01*
X14765643Y-10963611D02*
X14770405Y-10965992D01*
X14770405Y-10965992D02*
X14772786Y-10968373D01*
X14772786Y-10968373D02*
X14775167Y-10973135D01*
X14775167Y-10973135D02*
X14775167Y-10980278D01*
X14775167Y-10980278D02*
X14772786Y-10985040D01*
X14772786Y-10985040D02*
X14770405Y-10987420D01*
X14770405Y-10987420D02*
X14765643Y-10989801D01*
X14765643Y-10989801D02*
X14746595Y-10989801D01*
X14818024Y-10980278D02*
X14818024Y-11013611D01*
X14806119Y-10961230D02*
X14794214Y-10996944D01*
X14794214Y-10996944D02*
X14825167Y-10996944D01*
D10*
X14282675Y-9915575D02*
X14225433Y-9972817D01*
X14225433Y-9972817D02*
X14222066Y-9982919D01*
X14222066Y-9982919D02*
X14222066Y-9989653D01*
X14222066Y-9989653D02*
X14225433Y-9999754D01*
X14225433Y-9999754D02*
X14238902Y-10013223D01*
X14238902Y-10013223D02*
X14249003Y-10016590D01*
X14249003Y-10016590D02*
X14255738Y-10016590D01*
X14255738Y-10016590D02*
X14265839Y-10013223D01*
X14265839Y-10013223D02*
X14323081Y-9955981D01*
X14323081Y-10097403D02*
X14282675Y-10056996D01*
X14302878Y-10077199D02*
X14373589Y-10006489D01*
X14373589Y-10006489D02*
X14356753Y-10009856D01*
X14356753Y-10009856D02*
X14343284Y-10009856D01*
X14343284Y-10009856D02*
X14333183Y-10006489D01*
X10422982Y-9093333D02*
X10494411Y-9093333D01*
X10494411Y-9093333D02*
X10508696Y-9098095D01*
X10508696Y-9098095D02*
X10518220Y-9107619D01*
X10518220Y-9107619D02*
X10522982Y-9121905D01*
X10522982Y-9121905D02*
X10522982Y-9131429D01*
X10422982Y-8998095D02*
X10422982Y-9045714D01*
X10422982Y-9045714D02*
X10470601Y-9050476D01*
X10470601Y-9050476D02*
X10465839Y-9045714D01*
X10465839Y-9045714D02*
X10461077Y-9036190D01*
X10461077Y-9036190D02*
X10461077Y-9012381D01*
X10461077Y-9012381D02*
X10465839Y-9002857D01*
X10465839Y-9002857D02*
X10470601Y-8998095D01*
X10470601Y-8998095D02*
X10480125Y-8993333D01*
X10480125Y-8993333D02*
X10503934Y-8993333D01*
X10503934Y-8993333D02*
X10513458Y-8998095D01*
X10513458Y-8998095D02*
X10518220Y-9002857D01*
X10518220Y-9002857D02*
X10522982Y-9012381D01*
X10522982Y-9012381D02*
X10522982Y-9036190D01*
X10522982Y-9036190D02*
X10518220Y-9045714D01*
X10518220Y-9045714D02*
X10513458Y-9050476D01*
D12*
X13187857Y-9612849D02*
X13185476Y-9615230D01*
X13185476Y-9615230D02*
X13178333Y-9617611D01*
X13178333Y-9617611D02*
X13173571Y-9617611D01*
X13173571Y-9617611D02*
X13166429Y-9615230D01*
X13166429Y-9615230D02*
X13161667Y-9610468D01*
X13161667Y-9610468D02*
X13159286Y-9605706D01*
X13159286Y-9605706D02*
X13156905Y-9596182D01*
X13156905Y-9596182D02*
X13156905Y-9589040D01*
X13156905Y-9589040D02*
X13159286Y-9579516D01*
X13159286Y-9579516D02*
X13161667Y-9574754D01*
X13161667Y-9574754D02*
X13166429Y-9569992D01*
X13166429Y-9569992D02*
X13173571Y-9567611D01*
X13173571Y-9567611D02*
X13178333Y-9567611D01*
X13178333Y-9567611D02*
X13185476Y-9569992D01*
X13185476Y-9569992D02*
X13187857Y-9572373D01*
X13206905Y-9572373D02*
X13209286Y-9569992D01*
X13209286Y-9569992D02*
X13214048Y-9567611D01*
X13214048Y-9567611D02*
X13225952Y-9567611D01*
X13225952Y-9567611D02*
X13230714Y-9569992D01*
X13230714Y-9569992D02*
X13233095Y-9572373D01*
X13233095Y-9572373D02*
X13235476Y-9577135D01*
X13235476Y-9577135D02*
X13235476Y-9581897D01*
X13235476Y-9581897D02*
X13233095Y-9589040D01*
X13233095Y-9589040D02*
X13204524Y-9617611D01*
X13204524Y-9617611D02*
X13235476Y-9617611D01*
X13264048Y-9589040D02*
X13259286Y-9586659D01*
X13259286Y-9586659D02*
X13256905Y-9584278D01*
X13256905Y-9584278D02*
X13254524Y-9579516D01*
X13254524Y-9579516D02*
X13254524Y-9577135D01*
X13254524Y-9577135D02*
X13256905Y-9572373D01*
X13256905Y-9572373D02*
X13259286Y-9569992D01*
X13259286Y-9569992D02*
X13264048Y-9567611D01*
X13264048Y-9567611D02*
X13273571Y-9567611D01*
X13273571Y-9567611D02*
X13278333Y-9569992D01*
X13278333Y-9569992D02*
X13280714Y-9572373D01*
X13280714Y-9572373D02*
X13283095Y-9577135D01*
X13283095Y-9577135D02*
X13283095Y-9579516D01*
X13283095Y-9579516D02*
X13280714Y-9584278D01*
X13280714Y-9584278D02*
X13278333Y-9586659D01*
X13278333Y-9586659D02*
X13273571Y-9589040D01*
X13273571Y-9589040D02*
X13264048Y-9589040D01*
X13264048Y-9589040D02*
X13259286Y-9591420D01*
X13259286Y-9591420D02*
X13256905Y-9593801D01*
X13256905Y-9593801D02*
X13254524Y-9598563D01*
X13254524Y-9598563D02*
X13254524Y-9608087D01*
X13254524Y-9608087D02*
X13256905Y-9612849D01*
X13256905Y-9612849D02*
X13259286Y-9615230D01*
X13259286Y-9615230D02*
X13264048Y-9617611D01*
X13264048Y-9617611D02*
X13273571Y-9617611D01*
X13273571Y-9617611D02*
X13278333Y-9615230D01*
X13278333Y-9615230D02*
X13280714Y-9612849D01*
X13280714Y-9612849D02*
X13283095Y-9608087D01*
X13283095Y-9608087D02*
X13283095Y-9598563D01*
X13283095Y-9598563D02*
X13280714Y-9593801D01*
X13280714Y-9593801D02*
X13278333Y-9591420D01*
X13278333Y-9591420D02*
X13273571Y-9589040D01*
X9017857Y-10097849D02*
X9015476Y-10100230D01*
X9015476Y-10100230D02*
X9008333Y-10102611D01*
X9008333Y-10102611D02*
X9003571Y-10102611D01*
X9003571Y-10102611D02*
X8996429Y-10100230D01*
X8996429Y-10100230D02*
X8991667Y-10095468D01*
X8991667Y-10095468D02*
X8989286Y-10090706D01*
X8989286Y-10090706D02*
X8986905Y-10081182D01*
X8986905Y-10081182D02*
X8986905Y-10074040D01*
X8986905Y-10074040D02*
X8989286Y-10064516D01*
X8989286Y-10064516D02*
X8991667Y-10059754D01*
X8991667Y-10059754D02*
X8996429Y-10054992D01*
X8996429Y-10054992D02*
X9003571Y-10052611D01*
X9003571Y-10052611D02*
X9008333Y-10052611D01*
X9008333Y-10052611D02*
X9015476Y-10054992D01*
X9015476Y-10054992D02*
X9017857Y-10057373D01*
X9063095Y-10052611D02*
X9039286Y-10052611D01*
X9039286Y-10052611D02*
X9036905Y-10076420D01*
X9036905Y-10076420D02*
X9039286Y-10074040D01*
X9039286Y-10074040D02*
X9044048Y-10071659D01*
X9044048Y-10071659D02*
X9055952Y-10071659D01*
X9055952Y-10071659D02*
X9060714Y-10074040D01*
X9060714Y-10074040D02*
X9063095Y-10076420D01*
X9063095Y-10076420D02*
X9065476Y-10081182D01*
X9065476Y-10081182D02*
X9065476Y-10093087D01*
X9065476Y-10093087D02*
X9063095Y-10097849D01*
X9063095Y-10097849D02*
X9060714Y-10100230D01*
X9060714Y-10100230D02*
X9055952Y-10102611D01*
X9055952Y-10102611D02*
X9044048Y-10102611D01*
X9044048Y-10102611D02*
X9039286Y-10100230D01*
X9039286Y-10100230D02*
X9036905Y-10097849D01*
X9113095Y-10102611D02*
X9084524Y-10102611D01*
X9098810Y-10102611D02*
X9098810Y-10052611D01*
X9098810Y-10052611D02*
X9094048Y-10059754D01*
X9094048Y-10059754D02*
X9089286Y-10064516D01*
X9089286Y-10064516D02*
X9084524Y-10066897D01*
X15267857Y-9332611D02*
X15251190Y-9308801D01*
X15239286Y-9332611D02*
X15239286Y-9282611D01*
X15239286Y-9282611D02*
X15258333Y-9282611D01*
X15258333Y-9282611D02*
X15263095Y-9284992D01*
X15263095Y-9284992D02*
X15265476Y-9287373D01*
X15265476Y-9287373D02*
X15267857Y-9292135D01*
X15267857Y-9292135D02*
X15267857Y-9299278D01*
X15267857Y-9299278D02*
X15265476Y-9304040D01*
X15265476Y-9304040D02*
X15263095Y-9306420D01*
X15263095Y-9306420D02*
X15258333Y-9308801D01*
X15258333Y-9308801D02*
X15239286Y-9308801D01*
X15315476Y-9332611D02*
X15286905Y-9332611D01*
X15301190Y-9332611D02*
X15301190Y-9282611D01*
X15301190Y-9282611D02*
X15296429Y-9289754D01*
X15296429Y-9289754D02*
X15291667Y-9294516D01*
X15291667Y-9294516D02*
X15286905Y-9296897D01*
X15363095Y-9332611D02*
X15334524Y-9332611D01*
X15348809Y-9332611D02*
X15348809Y-9282611D01*
X15348809Y-9282611D02*
X15344048Y-9289754D01*
X15344048Y-9289754D02*
X15339286Y-9294516D01*
X15339286Y-9294516D02*
X15334524Y-9296897D01*
X14283595Y-10647611D02*
X14283595Y-10597611D01*
X14283595Y-10597611D02*
X14295500Y-10597611D01*
X14295500Y-10597611D02*
X14302643Y-10599992D01*
X14302643Y-10599992D02*
X14307405Y-10604754D01*
X14307405Y-10604754D02*
X14309786Y-10609516D01*
X14309786Y-10609516D02*
X14312167Y-10619040D01*
X14312167Y-10619040D02*
X14312167Y-10626182D01*
X14312167Y-10626182D02*
X14309786Y-10635706D01*
X14309786Y-10635706D02*
X14307405Y-10640468D01*
X14307405Y-10640468D02*
X14302643Y-10645230D01*
X14302643Y-10645230D02*
X14295500Y-10647611D01*
X14295500Y-10647611D02*
X14283595Y-10647611D01*
X14331214Y-10602373D02*
X14333595Y-10599992D01*
X14333595Y-10599992D02*
X14338357Y-10597611D01*
X14338357Y-10597611D02*
X14350262Y-10597611D01*
X14350262Y-10597611D02*
X14355024Y-10599992D01*
X14355024Y-10599992D02*
X14357405Y-10602373D01*
X14357405Y-10602373D02*
X14359786Y-10607135D01*
X14359786Y-10607135D02*
X14359786Y-10611897D01*
X14359786Y-10611897D02*
X14357405Y-10619040D01*
X14357405Y-10619040D02*
X14328833Y-10647611D01*
X14328833Y-10647611D02*
X14359786Y-10647611D01*
X11067857Y-9292611D02*
X11051191Y-9268801D01*
X11039286Y-9292611D02*
X11039286Y-9242611D01*
X11039286Y-9242611D02*
X11058333Y-9242611D01*
X11058333Y-9242611D02*
X11063095Y-9244992D01*
X11063095Y-9244992D02*
X11065476Y-9247373D01*
X11065476Y-9247373D02*
X11067857Y-9252135D01*
X11067857Y-9252135D02*
X11067857Y-9259278D01*
X11067857Y-9259278D02*
X11065476Y-9264040D01*
X11065476Y-9264040D02*
X11063095Y-9266420D01*
X11063095Y-9266420D02*
X11058333Y-9268801D01*
X11058333Y-9268801D02*
X11039286Y-9268801D01*
X11086905Y-9247373D02*
X11089286Y-9244992D01*
X11089286Y-9244992D02*
X11094048Y-9242611D01*
X11094048Y-9242611D02*
X11105952Y-9242611D01*
X11105952Y-9242611D02*
X11110714Y-9244992D01*
X11110714Y-9244992D02*
X11113095Y-9247373D01*
X11113095Y-9247373D02*
X11115476Y-9252135D01*
X11115476Y-9252135D02*
X11115476Y-9256897D01*
X11115476Y-9256897D02*
X11113095Y-9264040D01*
X11113095Y-9264040D02*
X11084524Y-9292611D01*
X11084524Y-9292611D02*
X11115476Y-9292611D01*
X11163095Y-9292611D02*
X11134524Y-9292611D01*
X11148810Y-9292611D02*
X11148810Y-9242611D01*
X11148810Y-9242611D02*
X11144048Y-9249754D01*
X11144048Y-9249754D02*
X11139286Y-9254516D01*
X11139286Y-9254516D02*
X11134524Y-9256897D01*
X14776167Y-11059611D02*
X14759500Y-11035801D01*
X14747595Y-11059611D02*
X14747595Y-11009611D01*
X14747595Y-11009611D02*
X14766643Y-11009611D01*
X14766643Y-11009611D02*
X14771405Y-11011992D01*
X14771405Y-11011992D02*
X14773786Y-11014373D01*
X14773786Y-11014373D02*
X14776167Y-11019135D01*
X14776167Y-11019135D02*
X14776167Y-11026278D01*
X14776167Y-11026278D02*
X14773786Y-11031040D01*
X14773786Y-11031040D02*
X14771405Y-11033420D01*
X14771405Y-11033420D02*
X14766643Y-11035801D01*
X14766643Y-11035801D02*
X14747595Y-11035801D01*
X14799976Y-11059611D02*
X14809500Y-11059611D01*
X14809500Y-11059611D02*
X14814262Y-11057230D01*
X14814262Y-11057230D02*
X14816643Y-11054849D01*
X14816643Y-11054849D02*
X14821405Y-11047706D01*
X14821405Y-11047706D02*
X14823786Y-11038182D01*
X14823786Y-11038182D02*
X14823786Y-11019135D01*
X14823786Y-11019135D02*
X14821405Y-11014373D01*
X14821405Y-11014373D02*
X14819024Y-11011992D01*
X14819024Y-11011992D02*
X14814262Y-11009611D01*
X14814262Y-11009611D02*
X14804738Y-11009611D01*
X14804738Y-11009611D02*
X14799976Y-11011992D01*
X14799976Y-11011992D02*
X14797595Y-11014373D01*
X14797595Y-11014373D02*
X14795214Y-11019135D01*
X14795214Y-11019135D02*
X14795214Y-11031040D01*
X14795214Y-11031040D02*
X14797595Y-11035801D01*
X14797595Y-11035801D02*
X14799976Y-11038182D01*
X14799976Y-11038182D02*
X14804738Y-11040563D01*
X14804738Y-11040563D02*
X14814262Y-11040563D01*
X14814262Y-11040563D02*
X14819024Y-11038182D01*
X14819024Y-11038182D02*
X14821405Y-11035801D01*
X14821405Y-11035801D02*
X14823786Y-11031040D01*
X15800333Y-9978111D02*
X15800333Y-10013825D01*
X15800333Y-10013825D02*
X15797952Y-10020968D01*
X15797952Y-10020968D02*
X15793190Y-10025730D01*
X15793190Y-10025730D02*
X15786048Y-10028111D01*
X15786048Y-10028111D02*
X15781286Y-10028111D01*
X15819381Y-9978111D02*
X15850333Y-9978111D01*
X15850333Y-9978111D02*
X15833667Y-9997158D01*
X15833667Y-9997158D02*
X15840809Y-9997158D01*
X15840809Y-9997158D02*
X15845571Y-9999539D01*
X15845571Y-9999539D02*
X15847952Y-10001920D01*
X15847952Y-10001920D02*
X15850333Y-10006682D01*
X15850333Y-10006682D02*
X15850333Y-10018587D01*
X15850333Y-10018587D02*
X15847952Y-10023349D01*
X15847952Y-10023349D02*
X15845571Y-10025730D01*
X15845571Y-10025730D02*
X15840809Y-10028111D01*
X15840809Y-10028111D02*
X15826524Y-10028111D01*
X15826524Y-10028111D02*
X15821762Y-10025730D01*
X15821762Y-10025730D02*
X15819381Y-10023349D01*
X13891905Y-10492611D02*
X13891905Y-10533087D01*
X13891905Y-10533087D02*
X13894286Y-10537849D01*
X13894286Y-10537849D02*
X13896667Y-10540230D01*
X13896667Y-10540230D02*
X13901428Y-10542611D01*
X13901428Y-10542611D02*
X13910952Y-10542611D01*
X13910952Y-10542611D02*
X13915714Y-10540230D01*
X13915714Y-10540230D02*
X13918095Y-10537849D01*
X13918095Y-10537849D02*
X13920476Y-10533087D01*
X13920476Y-10533087D02*
X13920476Y-10492611D01*
X13941905Y-10497373D02*
X13944286Y-10494992D01*
X13944286Y-10494992D02*
X13949048Y-10492611D01*
X13949048Y-10492611D02*
X13960952Y-10492611D01*
X13960952Y-10492611D02*
X13965714Y-10494992D01*
X13965714Y-10494992D02*
X13968095Y-10497373D01*
X13968095Y-10497373D02*
X13970476Y-10502135D01*
X13970476Y-10502135D02*
X13970476Y-10506897D01*
X13970476Y-10506897D02*
X13968095Y-10514040D01*
X13968095Y-10514040D02*
X13939524Y-10542611D01*
X13939524Y-10542611D02*
X13970476Y-10542611D01*
X16234857Y-8981849D02*
X16232476Y-8984230D01*
X16232476Y-8984230D02*
X16225333Y-8986611D01*
X16225333Y-8986611D02*
X16220571Y-8986611D01*
X16220571Y-8986611D02*
X16213429Y-8984230D01*
X16213429Y-8984230D02*
X16208667Y-8979468D01*
X16208667Y-8979468D02*
X16206286Y-8974706D01*
X16206286Y-8974706D02*
X16203905Y-8965182D01*
X16203905Y-8965182D02*
X16203905Y-8958040D01*
X16203905Y-8958040D02*
X16206286Y-8948516D01*
X16206286Y-8948516D02*
X16208667Y-8943754D01*
X16208667Y-8943754D02*
X16213429Y-8938992D01*
X16213429Y-8938992D02*
X16220571Y-8936611D01*
X16220571Y-8936611D02*
X16225333Y-8936611D01*
X16225333Y-8936611D02*
X16232476Y-8938992D01*
X16232476Y-8938992D02*
X16234857Y-8941373D01*
X16251524Y-8936611D02*
X16282476Y-8936611D01*
X16282476Y-8936611D02*
X16265809Y-8955659D01*
X16265809Y-8955659D02*
X16272952Y-8955659D01*
X16272952Y-8955659D02*
X16277714Y-8958040D01*
X16277714Y-8958040D02*
X16280095Y-8960420D01*
X16280095Y-8960420D02*
X16282476Y-8965182D01*
X16282476Y-8965182D02*
X16282476Y-8977087D01*
X16282476Y-8977087D02*
X16280095Y-8981849D01*
X16280095Y-8981849D02*
X16277714Y-8984230D01*
X16277714Y-8984230D02*
X16272952Y-8986611D01*
X16272952Y-8986611D02*
X16258667Y-8986611D01*
X16258667Y-8986611D02*
X16253905Y-8984230D01*
X16253905Y-8984230D02*
X16251524Y-8981849D01*
X16313428Y-8936611D02*
X16318190Y-8936611D01*
X16318190Y-8936611D02*
X16322952Y-8938992D01*
X16322952Y-8938992D02*
X16325333Y-8941373D01*
X16325333Y-8941373D02*
X16327714Y-8946135D01*
X16327714Y-8946135D02*
X16330095Y-8955659D01*
X16330095Y-8955659D02*
X16330095Y-8967563D01*
X16330095Y-8967563D02*
X16327714Y-8977087D01*
X16327714Y-8977087D02*
X16325333Y-8981849D01*
X16325333Y-8981849D02*
X16322952Y-8984230D01*
X16322952Y-8984230D02*
X16318190Y-8986611D01*
X16318190Y-8986611D02*
X16313428Y-8986611D01*
X16313428Y-8986611D02*
X16308667Y-8984230D01*
X16308667Y-8984230D02*
X16306286Y-8981849D01*
X16306286Y-8981849D02*
X16303905Y-8977087D01*
X16303905Y-8977087D02*
X16301524Y-8967563D01*
X16301524Y-8967563D02*
X16301524Y-8955659D01*
X16301524Y-8955659D02*
X16303905Y-8946135D01*
X16303905Y-8946135D02*
X16306286Y-8941373D01*
X16306286Y-8941373D02*
X16308667Y-8938992D01*
X16308667Y-8938992D02*
X16313428Y-8936611D01*
X13385857Y-10899849D02*
X13383476Y-10902230D01*
X13383476Y-10902230D02*
X13376333Y-10904611D01*
X13376333Y-10904611D02*
X13371571Y-10904611D01*
X13371571Y-10904611D02*
X13364429Y-10902230D01*
X13364429Y-10902230D02*
X13359667Y-10897468D01*
X13359667Y-10897468D02*
X13357286Y-10892706D01*
X13357286Y-10892706D02*
X13354905Y-10883182D01*
X13354905Y-10883182D02*
X13354905Y-10876040D01*
X13354905Y-10876040D02*
X13357286Y-10866516D01*
X13357286Y-10866516D02*
X13359667Y-10861754D01*
X13359667Y-10861754D02*
X13364429Y-10856992D01*
X13364429Y-10856992D02*
X13371571Y-10854611D01*
X13371571Y-10854611D02*
X13376333Y-10854611D01*
X13376333Y-10854611D02*
X13383476Y-10856992D01*
X13383476Y-10856992D02*
X13385857Y-10859373D01*
X13428714Y-10871278D02*
X13428714Y-10904611D01*
X13416809Y-10852230D02*
X13404905Y-10887944D01*
X13404905Y-10887944D02*
X13435857Y-10887944D01*
X13478714Y-10854611D02*
X13454905Y-10854611D01*
X13454905Y-10854611D02*
X13452524Y-10878420D01*
X13452524Y-10878420D02*
X13454905Y-10876040D01*
X13454905Y-10876040D02*
X13459667Y-10873659D01*
X13459667Y-10873659D02*
X13471571Y-10873659D01*
X13471571Y-10873659D02*
X13476333Y-10876040D01*
X13476333Y-10876040D02*
X13478714Y-10878420D01*
X13478714Y-10878420D02*
X13481095Y-10883182D01*
X13481095Y-10883182D02*
X13481095Y-10895087D01*
X13481095Y-10895087D02*
X13478714Y-10899849D01*
X13478714Y-10899849D02*
X13476333Y-10902230D01*
X13476333Y-10902230D02*
X13471571Y-10904611D01*
X13471571Y-10904611D02*
X13459667Y-10904611D01*
X13459667Y-10904611D02*
X13454905Y-10902230D01*
X13454905Y-10902230D02*
X13452524Y-10899849D01*
X14282595Y-10351611D02*
X14282595Y-10301611D01*
X14282595Y-10301611D02*
X14294500Y-10301611D01*
X14294500Y-10301611D02*
X14301643Y-10303992D01*
X14301643Y-10303992D02*
X14306405Y-10308754D01*
X14306405Y-10308754D02*
X14308786Y-10313516D01*
X14308786Y-10313516D02*
X14311167Y-10323040D01*
X14311167Y-10323040D02*
X14311167Y-10330182D01*
X14311167Y-10330182D02*
X14308786Y-10339706D01*
X14308786Y-10339706D02*
X14306405Y-10344468D01*
X14306405Y-10344468D02*
X14301643Y-10349230D01*
X14301643Y-10349230D02*
X14294500Y-10351611D01*
X14294500Y-10351611D02*
X14282595Y-10351611D01*
X14354024Y-10301611D02*
X14344500Y-10301611D01*
X14344500Y-10301611D02*
X14339738Y-10303992D01*
X14339738Y-10303992D02*
X14337357Y-10306373D01*
X14337357Y-10306373D02*
X14332595Y-10313516D01*
X14332595Y-10313516D02*
X14330214Y-10323040D01*
X14330214Y-10323040D02*
X14330214Y-10342087D01*
X14330214Y-10342087D02*
X14332595Y-10346849D01*
X14332595Y-10346849D02*
X14334976Y-10349230D01*
X14334976Y-10349230D02*
X14339738Y-10351611D01*
X14339738Y-10351611D02*
X14349262Y-10351611D01*
X14349262Y-10351611D02*
X14354024Y-10349230D01*
X14354024Y-10349230D02*
X14356405Y-10346849D01*
X14356405Y-10346849D02*
X14358786Y-10342087D01*
X14358786Y-10342087D02*
X14358786Y-10330182D01*
X14358786Y-10330182D02*
X14356405Y-10325420D01*
X14356405Y-10325420D02*
X14354024Y-10323040D01*
X14354024Y-10323040D02*
X14349262Y-10320659D01*
X14349262Y-10320659D02*
X14339738Y-10320659D01*
X14339738Y-10320659D02*
X14334976Y-10323040D01*
X14334976Y-10323040D02*
X14332595Y-10325420D01*
X14332595Y-10325420D02*
X14330214Y-10330182D01*
X14285595Y-10496611D02*
X14285595Y-10446611D01*
X14285595Y-10446611D02*
X14297500Y-10446611D01*
X14297500Y-10446611D02*
X14304643Y-10448992D01*
X14304643Y-10448992D02*
X14309405Y-10453754D01*
X14309405Y-10453754D02*
X14311786Y-10458516D01*
X14311786Y-10458516D02*
X14314167Y-10468040D01*
X14314167Y-10468040D02*
X14314167Y-10475182D01*
X14314167Y-10475182D02*
X14311786Y-10484706D01*
X14311786Y-10484706D02*
X14309405Y-10489468D01*
X14309405Y-10489468D02*
X14304643Y-10494230D01*
X14304643Y-10494230D02*
X14297500Y-10496611D01*
X14297500Y-10496611D02*
X14285595Y-10496611D01*
X14357024Y-10463278D02*
X14357024Y-10496611D01*
X14345119Y-10444230D02*
X14333214Y-10479944D01*
X14333214Y-10479944D02*
X14364167Y-10479944D01*
X12868333Y-10236420D02*
X12851667Y-10236420D01*
X12851667Y-10262611D02*
X12851667Y-10212611D01*
X12851667Y-10212611D02*
X12875476Y-10212611D01*
X12911190Y-10236420D02*
X12918333Y-10238801D01*
X12918333Y-10238801D02*
X12920714Y-10241182D01*
X12920714Y-10241182D02*
X12923095Y-10245944D01*
X12923095Y-10245944D02*
X12923095Y-10253087D01*
X12923095Y-10253087D02*
X12920714Y-10257849D01*
X12920714Y-10257849D02*
X12918333Y-10260230D01*
X12918333Y-10260230D02*
X12913571Y-10262611D01*
X12913571Y-10262611D02*
X12894524Y-10262611D01*
X12894524Y-10262611D02*
X12894524Y-10212611D01*
X12894524Y-10212611D02*
X12911190Y-10212611D01*
X12911190Y-10212611D02*
X12915952Y-10214992D01*
X12915952Y-10214992D02*
X12918333Y-10217373D01*
X12918333Y-10217373D02*
X12920714Y-10222135D01*
X12920714Y-10222135D02*
X12920714Y-10226897D01*
X12920714Y-10226897D02*
X12918333Y-10231659D01*
X12918333Y-10231659D02*
X12915952Y-10234040D01*
X12915952Y-10234040D02*
X12911190Y-10236420D01*
X12911190Y-10236420D02*
X12894524Y-10236420D01*
X12939762Y-10212611D02*
X12973095Y-10212611D01*
X12973095Y-10212611D02*
X12951667Y-10262611D01*
X16441905Y-10422611D02*
X16441905Y-10372611D01*
X16441905Y-10396420D02*
X16470476Y-10396420D01*
X16470476Y-10422611D02*
X16470476Y-10372611D01*
X16491905Y-10377373D02*
X16494286Y-10374992D01*
X16494286Y-10374992D02*
X16499048Y-10372611D01*
X16499048Y-10372611D02*
X16510952Y-10372611D01*
X16510952Y-10372611D02*
X16515714Y-10374992D01*
X16515714Y-10374992D02*
X16518095Y-10377373D01*
X16518095Y-10377373D02*
X16520476Y-10382135D01*
X16520476Y-10382135D02*
X16520476Y-10386897D01*
X16520476Y-10386897D02*
X16518095Y-10394040D01*
X16518095Y-10394040D02*
X16489524Y-10422611D01*
X16489524Y-10422611D02*
X16520476Y-10422611D01*
D10*
X10462982Y-10693333D02*
X10534411Y-10693333D01*
X10534411Y-10693333D02*
X10548696Y-10698095D01*
X10548696Y-10698095D02*
X10558220Y-10707619D01*
X10558220Y-10707619D02*
X10562982Y-10721905D01*
X10562982Y-10721905D02*
X10562982Y-10731429D01*
X10562982Y-10593333D02*
X10562982Y-10650476D01*
X10562982Y-10621905D02*
X10462982Y-10621905D01*
X10462982Y-10621905D02*
X10477268Y-10631429D01*
X10477268Y-10631429D02*
X10486792Y-10640952D01*
X10486792Y-10640952D02*
X10491553Y-10650476D01*
D12*
X11107857Y-10657849D02*
X11105476Y-10660230D01*
X11105476Y-10660230D02*
X11098333Y-10662611D01*
X11098333Y-10662611D02*
X11093571Y-10662611D01*
X11093571Y-10662611D02*
X11086429Y-10660230D01*
X11086429Y-10660230D02*
X11081667Y-10655468D01*
X11081667Y-10655468D02*
X11079286Y-10650706D01*
X11079286Y-10650706D02*
X11076905Y-10641182D01*
X11076905Y-10641182D02*
X11076905Y-10634040D01*
X11076905Y-10634040D02*
X11079286Y-10624516D01*
X11079286Y-10624516D02*
X11081667Y-10619754D01*
X11081667Y-10619754D02*
X11086429Y-10614992D01*
X11086429Y-10614992D02*
X11093571Y-10612611D01*
X11093571Y-10612611D02*
X11098333Y-10612611D01*
X11098333Y-10612611D02*
X11105476Y-10614992D01*
X11105476Y-10614992D02*
X11107857Y-10617373D01*
X11124524Y-10612611D02*
X11155476Y-10612611D01*
X11155476Y-10612611D02*
X11138810Y-10631659D01*
X11138810Y-10631659D02*
X11145952Y-10631659D01*
X11145952Y-10631659D02*
X11150714Y-10634040D01*
X11150714Y-10634040D02*
X11153095Y-10636420D01*
X11153095Y-10636420D02*
X11155476Y-10641182D01*
X11155476Y-10641182D02*
X11155476Y-10653087D01*
X11155476Y-10653087D02*
X11153095Y-10657849D01*
X11153095Y-10657849D02*
X11150714Y-10660230D01*
X11150714Y-10660230D02*
X11145952Y-10662611D01*
X11145952Y-10662611D02*
X11131667Y-10662611D01*
X11131667Y-10662611D02*
X11126905Y-10660230D01*
X11126905Y-10660230D02*
X11124524Y-10657849D01*
X11200714Y-10612611D02*
X11176905Y-10612611D01*
X11176905Y-10612611D02*
X11174524Y-10636420D01*
X11174524Y-10636420D02*
X11176905Y-10634040D01*
X11176905Y-10634040D02*
X11181667Y-10631659D01*
X11181667Y-10631659D02*
X11193571Y-10631659D01*
X11193571Y-10631659D02*
X11198333Y-10634040D01*
X11198333Y-10634040D02*
X11200714Y-10636420D01*
X11200714Y-10636420D02*
X11203095Y-10641182D01*
X11203095Y-10641182D02*
X11203095Y-10653087D01*
X11203095Y-10653087D02*
X11200714Y-10657849D01*
X11200714Y-10657849D02*
X11198333Y-10660230D01*
X11198333Y-10660230D02*
X11193571Y-10662611D01*
X11193571Y-10662611D02*
X11181667Y-10662611D01*
X11181667Y-10662611D02*
X11176905Y-10660230D01*
X11176905Y-10660230D02*
X11174524Y-10657849D01*
X12757857Y-9597849D02*
X12755476Y-9600230D01*
X12755476Y-9600230D02*
X12748333Y-9602611D01*
X12748333Y-9602611D02*
X12743571Y-9602611D01*
X12743571Y-9602611D02*
X12736429Y-9600230D01*
X12736429Y-9600230D02*
X12731667Y-9595468D01*
X12731667Y-9595468D02*
X12729286Y-9590706D01*
X12729286Y-9590706D02*
X12726905Y-9581182D01*
X12726905Y-9581182D02*
X12726905Y-9574040D01*
X12726905Y-9574040D02*
X12729286Y-9564516D01*
X12729286Y-9564516D02*
X12731667Y-9559754D01*
X12731667Y-9559754D02*
X12736429Y-9554992D01*
X12736429Y-9554992D02*
X12743571Y-9552611D01*
X12743571Y-9552611D02*
X12748333Y-9552611D01*
X12748333Y-9552611D02*
X12755476Y-9554992D01*
X12755476Y-9554992D02*
X12757857Y-9557373D01*
X12774524Y-9552611D02*
X12805476Y-9552611D01*
X12805476Y-9552611D02*
X12788809Y-9571659D01*
X12788809Y-9571659D02*
X12795952Y-9571659D01*
X12795952Y-9571659D02*
X12800714Y-9574040D01*
X12800714Y-9574040D02*
X12803095Y-9576420D01*
X12803095Y-9576420D02*
X12805476Y-9581182D01*
X12805476Y-9581182D02*
X12805476Y-9593087D01*
X12805476Y-9593087D02*
X12803095Y-9597849D01*
X12803095Y-9597849D02*
X12800714Y-9600230D01*
X12800714Y-9600230D02*
X12795952Y-9602611D01*
X12795952Y-9602611D02*
X12781667Y-9602611D01*
X12781667Y-9602611D02*
X12776905Y-9600230D01*
X12776905Y-9600230D02*
X12774524Y-9597849D01*
X12834048Y-9574040D02*
X12829286Y-9571659D01*
X12829286Y-9571659D02*
X12826905Y-9569278D01*
X12826905Y-9569278D02*
X12824524Y-9564516D01*
X12824524Y-9564516D02*
X12824524Y-9562135D01*
X12824524Y-9562135D02*
X12826905Y-9557373D01*
X12826905Y-9557373D02*
X12829286Y-9554992D01*
X12829286Y-9554992D02*
X12834048Y-9552611D01*
X12834048Y-9552611D02*
X12843571Y-9552611D01*
X12843571Y-9552611D02*
X12848333Y-9554992D01*
X12848333Y-9554992D02*
X12850714Y-9557373D01*
X12850714Y-9557373D02*
X12853095Y-9562135D01*
X12853095Y-9562135D02*
X12853095Y-9564516D01*
X12853095Y-9564516D02*
X12850714Y-9569278D01*
X12850714Y-9569278D02*
X12848333Y-9571659D01*
X12848333Y-9571659D02*
X12843571Y-9574040D01*
X12843571Y-9574040D02*
X12834048Y-9574040D01*
X12834048Y-9574040D02*
X12829286Y-9576420D01*
X12829286Y-9576420D02*
X12826905Y-9578801D01*
X12826905Y-9578801D02*
X12824524Y-9583563D01*
X12824524Y-9583563D02*
X12824524Y-9593087D01*
X12824524Y-9593087D02*
X12826905Y-9597849D01*
X12826905Y-9597849D02*
X12829286Y-9600230D01*
X12829286Y-9600230D02*
X12834048Y-9602611D01*
X12834048Y-9602611D02*
X12843571Y-9602611D01*
X12843571Y-9602611D02*
X12848333Y-9600230D01*
X12848333Y-9600230D02*
X12850714Y-9597849D01*
X12850714Y-9597849D02*
X12853095Y-9593087D01*
X12853095Y-9593087D02*
X12853095Y-9583563D01*
X12853095Y-9583563D02*
X12850714Y-9578801D01*
X12850714Y-9578801D02*
X12848333Y-9576420D01*
X12848333Y-9576420D02*
X12843571Y-9574040D01*
X9027857Y-9687849D02*
X9025476Y-9690230D01*
X9025476Y-9690230D02*
X9018333Y-9692611D01*
X9018333Y-9692611D02*
X9013571Y-9692611D01*
X9013571Y-9692611D02*
X9006429Y-9690230D01*
X9006429Y-9690230D02*
X9001667Y-9685468D01*
X9001667Y-9685468D02*
X8999286Y-9680706D01*
X8999286Y-9680706D02*
X8996905Y-9671182D01*
X8996905Y-9671182D02*
X8996905Y-9664040D01*
X8996905Y-9664040D02*
X8999286Y-9654516D01*
X8999286Y-9654516D02*
X9001667Y-9649754D01*
X9001667Y-9649754D02*
X9006429Y-9644992D01*
X9006429Y-9644992D02*
X9013571Y-9642611D01*
X9013571Y-9642611D02*
X9018333Y-9642611D01*
X9018333Y-9642611D02*
X9025476Y-9644992D01*
X9025476Y-9644992D02*
X9027857Y-9647373D01*
X9073095Y-9642611D02*
X9049286Y-9642611D01*
X9049286Y-9642611D02*
X9046905Y-9666420D01*
X9046905Y-9666420D02*
X9049286Y-9664040D01*
X9049286Y-9664040D02*
X9054048Y-9661659D01*
X9054048Y-9661659D02*
X9065952Y-9661659D01*
X9065952Y-9661659D02*
X9070714Y-9664040D01*
X9070714Y-9664040D02*
X9073095Y-9666420D01*
X9073095Y-9666420D02*
X9075476Y-9671182D01*
X9075476Y-9671182D02*
X9075476Y-9683087D01*
X9075476Y-9683087D02*
X9073095Y-9687849D01*
X9073095Y-9687849D02*
X9070714Y-9690230D01*
X9070714Y-9690230D02*
X9065952Y-9692611D01*
X9065952Y-9692611D02*
X9054048Y-9692611D01*
X9054048Y-9692611D02*
X9049286Y-9690230D01*
X9049286Y-9690230D02*
X9046905Y-9687849D01*
X9106429Y-9642611D02*
X9111190Y-9642611D01*
X9111190Y-9642611D02*
X9115952Y-9644992D01*
X9115952Y-9644992D02*
X9118333Y-9647373D01*
X9118333Y-9647373D02*
X9120714Y-9652135D01*
X9120714Y-9652135D02*
X9123095Y-9661659D01*
X9123095Y-9661659D02*
X9123095Y-9673563D01*
X9123095Y-9673563D02*
X9120714Y-9683087D01*
X9120714Y-9683087D02*
X9118333Y-9687849D01*
X9118333Y-9687849D02*
X9115952Y-9690230D01*
X9115952Y-9690230D02*
X9111190Y-9692611D01*
X9111190Y-9692611D02*
X9106429Y-9692611D01*
X9106429Y-9692611D02*
X9101667Y-9690230D01*
X9101667Y-9690230D02*
X9099286Y-9687849D01*
X9099286Y-9687849D02*
X9096905Y-9683087D01*
X9096905Y-9683087D02*
X9094524Y-9673563D01*
X9094524Y-9673563D02*
X9094524Y-9661659D01*
X9094524Y-9661659D02*
X9096905Y-9652135D01*
X9096905Y-9652135D02*
X9099286Y-9647373D01*
X9099286Y-9647373D02*
X9101667Y-9644992D01*
X9101667Y-9644992D02*
X9106429Y-9642611D01*
X14772917Y-10950611D02*
X14756250Y-10926801D01*
X14744345Y-10950611D02*
X14744345Y-10900611D01*
X14744345Y-10900611D02*
X14763393Y-10900611D01*
X14763393Y-10900611D02*
X14768155Y-10902992D01*
X14768155Y-10902992D02*
X14770536Y-10905373D01*
X14770536Y-10905373D02*
X14772917Y-10910135D01*
X14772917Y-10910135D02*
X14772917Y-10917278D01*
X14772917Y-10917278D02*
X14770536Y-10922040D01*
X14770536Y-10922040D02*
X14768155Y-10924420D01*
X14768155Y-10924420D02*
X14763393Y-10926801D01*
X14763393Y-10926801D02*
X14744345Y-10926801D01*
X14789583Y-10900611D02*
X14822917Y-10900611D01*
X14822917Y-10900611D02*
X14801488Y-10950611D01*
X10798333Y-10196420D02*
X10781667Y-10196420D01*
X10781667Y-10222611D02*
X10781667Y-10172611D01*
X10781667Y-10172611D02*
X10805476Y-10172611D01*
X10841191Y-10196420D02*
X10848333Y-10198801D01*
X10848333Y-10198801D02*
X10850714Y-10201182D01*
X10850714Y-10201182D02*
X10853095Y-10205944D01*
X10853095Y-10205944D02*
X10853095Y-10213087D01*
X10853095Y-10213087D02*
X10850714Y-10217849D01*
X10850714Y-10217849D02*
X10848333Y-10220230D01*
X10848333Y-10220230D02*
X10843571Y-10222611D01*
X10843571Y-10222611D02*
X10824524Y-10222611D01*
X10824524Y-10222611D02*
X10824524Y-10172611D01*
X10824524Y-10172611D02*
X10841191Y-10172611D01*
X10841191Y-10172611D02*
X10845952Y-10174992D01*
X10845952Y-10174992D02*
X10848333Y-10177373D01*
X10848333Y-10177373D02*
X10850714Y-10182135D01*
X10850714Y-10182135D02*
X10850714Y-10186897D01*
X10850714Y-10186897D02*
X10848333Y-10191659D01*
X10848333Y-10191659D02*
X10845952Y-10194040D01*
X10845952Y-10194040D02*
X10841191Y-10196420D01*
X10841191Y-10196420D02*
X10824524Y-10196420D01*
X10895952Y-10172611D02*
X10886429Y-10172611D01*
X10886429Y-10172611D02*
X10881667Y-10174992D01*
X10881667Y-10174992D02*
X10879286Y-10177373D01*
X10879286Y-10177373D02*
X10874524Y-10184516D01*
X10874524Y-10184516D02*
X10872143Y-10194040D01*
X10872143Y-10194040D02*
X10872143Y-10213087D01*
X10872143Y-10213087D02*
X10874524Y-10217849D01*
X10874524Y-10217849D02*
X10876905Y-10220230D01*
X10876905Y-10220230D02*
X10881667Y-10222611D01*
X10881667Y-10222611D02*
X10891191Y-10222611D01*
X10891191Y-10222611D02*
X10895952Y-10220230D01*
X10895952Y-10220230D02*
X10898333Y-10217849D01*
X10898333Y-10217849D02*
X10900714Y-10213087D01*
X10900714Y-10213087D02*
X10900714Y-10201182D01*
X10900714Y-10201182D02*
X10898333Y-10196420D01*
X10898333Y-10196420D02*
X10895952Y-10194040D01*
X10895952Y-10194040D02*
X10891191Y-10191659D01*
X10891191Y-10191659D02*
X10881667Y-10191659D01*
X10881667Y-10191659D02*
X10876905Y-10194040D01*
X10876905Y-10194040D02*
X10874524Y-10196420D01*
X10874524Y-10196420D02*
X10872143Y-10201182D01*
X13741333Y-10906420D02*
X13724667Y-10906420D01*
X13724667Y-10932611D02*
X13724667Y-10882611D01*
X13724667Y-10882611D02*
X13748476Y-10882611D01*
X13762762Y-10882611D02*
X13793714Y-10882611D01*
X13793714Y-10882611D02*
X13777048Y-10901659D01*
X13777048Y-10901659D02*
X13784190Y-10901659D01*
X13784190Y-10901659D02*
X13788952Y-10904040D01*
X13788952Y-10904040D02*
X13791333Y-10906420D01*
X13791333Y-10906420D02*
X13793714Y-10911182D01*
X13793714Y-10911182D02*
X13793714Y-10923087D01*
X13793714Y-10923087D02*
X13791333Y-10927849D01*
X13791333Y-10927849D02*
X13788952Y-10930230D01*
X13788952Y-10930230D02*
X13784190Y-10932611D01*
X13784190Y-10932611D02*
X13769905Y-10932611D01*
X13769905Y-10932611D02*
X13765143Y-10930230D01*
X13765143Y-10930230D02*
X13762762Y-10927849D01*
X12517857Y-10777849D02*
X12515476Y-10780230D01*
X12515476Y-10780230D02*
X12508333Y-10782611D01*
X12508333Y-10782611D02*
X12503571Y-10782611D01*
X12503571Y-10782611D02*
X12496429Y-10780230D01*
X12496429Y-10780230D02*
X12491667Y-10775468D01*
X12491667Y-10775468D02*
X12489286Y-10770706D01*
X12489286Y-10770706D02*
X12486905Y-10761182D01*
X12486905Y-10761182D02*
X12486905Y-10754040D01*
X12486905Y-10754040D02*
X12489286Y-10744516D01*
X12489286Y-10744516D02*
X12491667Y-10739754D01*
X12491667Y-10739754D02*
X12496429Y-10734992D01*
X12496429Y-10734992D02*
X12503571Y-10732611D01*
X12503571Y-10732611D02*
X12508333Y-10732611D01*
X12508333Y-10732611D02*
X12515476Y-10734992D01*
X12515476Y-10734992D02*
X12517857Y-10737373D01*
X12534524Y-10732611D02*
X12565476Y-10732611D01*
X12565476Y-10732611D02*
X12548809Y-10751659D01*
X12548809Y-10751659D02*
X12555952Y-10751659D01*
X12555952Y-10751659D02*
X12560714Y-10754040D01*
X12560714Y-10754040D02*
X12563095Y-10756420D01*
X12563095Y-10756420D02*
X12565476Y-10761182D01*
X12565476Y-10761182D02*
X12565476Y-10773087D01*
X12565476Y-10773087D02*
X12563095Y-10777849D01*
X12563095Y-10777849D02*
X12560714Y-10780230D01*
X12560714Y-10780230D02*
X12555952Y-10782611D01*
X12555952Y-10782611D02*
X12541667Y-10782611D01*
X12541667Y-10782611D02*
X12536905Y-10780230D01*
X12536905Y-10780230D02*
X12534524Y-10777849D01*
X12582143Y-10732611D02*
X12613095Y-10732611D01*
X12613095Y-10732611D02*
X12596428Y-10751659D01*
X12596428Y-10751659D02*
X12603571Y-10751659D01*
X12603571Y-10751659D02*
X12608333Y-10754040D01*
X12608333Y-10754040D02*
X12610714Y-10756420D01*
X12610714Y-10756420D02*
X12613095Y-10761182D01*
X12613095Y-10761182D02*
X12613095Y-10773087D01*
X12613095Y-10773087D02*
X12610714Y-10777849D01*
X12610714Y-10777849D02*
X12608333Y-10780230D01*
X12608333Y-10780230D02*
X12603571Y-10782611D01*
X12603571Y-10782611D02*
X12589286Y-10782611D01*
X12589286Y-10782611D02*
X12584524Y-10780230D01*
X12584524Y-10780230D02*
X12582143Y-10777849D01*
D10*
X11788809Y-10620482D02*
X11788809Y-10701434D01*
X11788809Y-10701434D02*
X11793571Y-10710958D01*
X11793571Y-10710958D02*
X11798333Y-10715720D01*
X11798333Y-10715720D02*
X11807857Y-10720482D01*
X11807857Y-10720482D02*
X11826905Y-10720482D01*
X11826905Y-10720482D02*
X11836428Y-10715720D01*
X11836428Y-10715720D02*
X11841190Y-10710958D01*
X11841190Y-10710958D02*
X11845952Y-10701434D01*
X11845952Y-10701434D02*
X11845952Y-10620482D01*
X11884048Y-10620482D02*
X11950714Y-10620482D01*
X11950714Y-10620482D02*
X11907857Y-10720482D01*
D12*
X9577857Y-10298861D02*
X9561191Y-10275051D01*
X9549286Y-10298861D02*
X9549286Y-10248861D01*
X9549286Y-10248861D02*
X9568333Y-10248861D01*
X9568333Y-10248861D02*
X9573095Y-10251242D01*
X9573095Y-10251242D02*
X9575476Y-10253623D01*
X9575476Y-10253623D02*
X9577857Y-10258385D01*
X9577857Y-10258385D02*
X9577857Y-10265528D01*
X9577857Y-10265528D02*
X9575476Y-10270290D01*
X9575476Y-10270290D02*
X9573095Y-10272670D01*
X9573095Y-10272670D02*
X9568333Y-10275051D01*
X9568333Y-10275051D02*
X9549286Y-10275051D01*
X9596905Y-10253623D02*
X9599286Y-10251242D01*
X9599286Y-10251242D02*
X9604048Y-10248861D01*
X9604048Y-10248861D02*
X9615952Y-10248861D01*
X9615952Y-10248861D02*
X9620714Y-10251242D01*
X9620714Y-10251242D02*
X9623095Y-10253623D01*
X9623095Y-10253623D02*
X9625476Y-10258385D01*
X9625476Y-10258385D02*
X9625476Y-10263147D01*
X9625476Y-10263147D02*
X9623095Y-10270290D01*
X9623095Y-10270290D02*
X9594524Y-10298861D01*
X9594524Y-10298861D02*
X9625476Y-10298861D01*
X9670714Y-10248861D02*
X9646905Y-10248861D01*
X9646905Y-10248861D02*
X9644524Y-10272670D01*
X9644524Y-10272670D02*
X9646905Y-10270290D01*
X9646905Y-10270290D02*
X9651667Y-10267909D01*
X9651667Y-10267909D02*
X9663571Y-10267909D01*
X9663571Y-10267909D02*
X9668333Y-10270290D01*
X9668333Y-10270290D02*
X9670714Y-10272670D01*
X9670714Y-10272670D02*
X9673095Y-10277432D01*
X9673095Y-10277432D02*
X9673095Y-10289337D01*
X9673095Y-10289337D02*
X9670714Y-10294099D01*
X9670714Y-10294099D02*
X9668333Y-10296480D01*
X9668333Y-10296480D02*
X9663571Y-10298861D01*
X9663571Y-10298861D02*
X9651667Y-10298861D01*
X9651667Y-10298861D02*
X9646905Y-10296480D01*
X9646905Y-10296480D02*
X9644524Y-10294099D01*
X10757857Y-10087849D02*
X10755476Y-10090230D01*
X10755476Y-10090230D02*
X10748333Y-10092611D01*
X10748333Y-10092611D02*
X10743571Y-10092611D01*
X10743571Y-10092611D02*
X10736429Y-10090230D01*
X10736429Y-10090230D02*
X10731667Y-10085468D01*
X10731667Y-10085468D02*
X10729286Y-10080706D01*
X10729286Y-10080706D02*
X10726905Y-10071182D01*
X10726905Y-10071182D02*
X10726905Y-10064040D01*
X10726905Y-10064040D02*
X10729286Y-10054516D01*
X10729286Y-10054516D02*
X10731667Y-10049754D01*
X10731667Y-10049754D02*
X10736429Y-10044992D01*
X10736429Y-10044992D02*
X10743571Y-10042611D01*
X10743571Y-10042611D02*
X10748333Y-10042611D01*
X10748333Y-10042611D02*
X10755476Y-10044992D01*
X10755476Y-10044992D02*
X10757857Y-10047373D01*
X10774524Y-10042611D02*
X10805476Y-10042611D01*
X10805476Y-10042611D02*
X10788810Y-10061659D01*
X10788810Y-10061659D02*
X10795952Y-10061659D01*
X10795952Y-10061659D02*
X10800714Y-10064040D01*
X10800714Y-10064040D02*
X10803095Y-10066420D01*
X10803095Y-10066420D02*
X10805476Y-10071182D01*
X10805476Y-10071182D02*
X10805476Y-10083087D01*
X10805476Y-10083087D02*
X10803095Y-10087849D01*
X10803095Y-10087849D02*
X10800714Y-10090230D01*
X10800714Y-10090230D02*
X10795952Y-10092611D01*
X10795952Y-10092611D02*
X10781667Y-10092611D01*
X10781667Y-10092611D02*
X10776905Y-10090230D01*
X10776905Y-10090230D02*
X10774524Y-10087849D01*
X10848333Y-10059278D02*
X10848333Y-10092611D01*
X10836429Y-10040230D02*
X10824524Y-10075944D01*
X10824524Y-10075944D02*
X10855476Y-10075944D01*
X14293095Y-10796611D02*
X14293095Y-10746611D01*
X14293095Y-10746611D02*
X14305000Y-10746611D01*
X14305000Y-10746611D02*
X14312143Y-10748992D01*
X14312143Y-10748992D02*
X14316905Y-10753754D01*
X14316905Y-10753754D02*
X14319286Y-10758516D01*
X14319286Y-10758516D02*
X14321667Y-10768040D01*
X14321667Y-10768040D02*
X14321667Y-10775182D01*
X14321667Y-10775182D02*
X14319286Y-10784706D01*
X14319286Y-10784706D02*
X14316905Y-10789468D01*
X14316905Y-10789468D02*
X14312143Y-10794230D01*
X14312143Y-10794230D02*
X14305000Y-10796611D01*
X14305000Y-10796611D02*
X14293095Y-10796611D01*
X14366905Y-10746611D02*
X14343095Y-10746611D01*
X14343095Y-10746611D02*
X14340714Y-10770420D01*
X14340714Y-10770420D02*
X14343095Y-10768040D01*
X14343095Y-10768040D02*
X14347857Y-10765659D01*
X14347857Y-10765659D02*
X14359762Y-10765659D01*
X14359762Y-10765659D02*
X14364524Y-10768040D01*
X14364524Y-10768040D02*
X14366905Y-10770420D01*
X14366905Y-10770420D02*
X14369286Y-10775182D01*
X14369286Y-10775182D02*
X14369286Y-10787087D01*
X14369286Y-10787087D02*
X14366905Y-10791849D01*
X14366905Y-10791849D02*
X14364524Y-10794230D01*
X14364524Y-10794230D02*
X14359762Y-10796611D01*
X14359762Y-10796611D02*
X14347857Y-10796611D01*
X14347857Y-10796611D02*
X14343095Y-10794230D01*
X14343095Y-10794230D02*
X14340714Y-10791849D01*
D10*
X10422982Y-9393333D02*
X10494411Y-9393333D01*
X10494411Y-9393333D02*
X10508696Y-9398095D01*
X10508696Y-9398095D02*
X10518220Y-9407619D01*
X10518220Y-9407619D02*
X10522982Y-9421905D01*
X10522982Y-9421905D02*
X10522982Y-9431429D01*
X10456315Y-9302857D02*
X10522982Y-9302857D01*
X10418220Y-9326667D02*
X10489649Y-9350476D01*
X10489649Y-9350476D02*
X10489649Y-9288571D01*
D12*
X13027857Y-9557849D02*
X13025476Y-9560230D01*
X13025476Y-9560230D02*
X13018333Y-9562611D01*
X13018333Y-9562611D02*
X13013571Y-9562611D01*
X13013571Y-9562611D02*
X13006429Y-9560230D01*
X13006429Y-9560230D02*
X13001667Y-9555468D01*
X13001667Y-9555468D02*
X12999286Y-9550706D01*
X12999286Y-9550706D02*
X12996905Y-9541182D01*
X12996905Y-9541182D02*
X12996905Y-9534040D01*
X12996905Y-9534040D02*
X12999286Y-9524516D01*
X12999286Y-9524516D02*
X13001667Y-9519754D01*
X13001667Y-9519754D02*
X13006429Y-9514992D01*
X13006429Y-9514992D02*
X13013571Y-9512611D01*
X13013571Y-9512611D02*
X13018333Y-9512611D01*
X13018333Y-9512611D02*
X13025476Y-9514992D01*
X13025476Y-9514992D02*
X13027857Y-9517373D01*
X13046905Y-9517373D02*
X13049286Y-9514992D01*
X13049286Y-9514992D02*
X13054048Y-9512611D01*
X13054048Y-9512611D02*
X13065952Y-9512611D01*
X13065952Y-9512611D02*
X13070714Y-9514992D01*
X13070714Y-9514992D02*
X13073095Y-9517373D01*
X13073095Y-9517373D02*
X13075476Y-9522135D01*
X13075476Y-9522135D02*
X13075476Y-9526897D01*
X13075476Y-9526897D02*
X13073095Y-9534040D01*
X13073095Y-9534040D02*
X13044524Y-9562611D01*
X13044524Y-9562611D02*
X13075476Y-9562611D01*
X13118333Y-9512611D02*
X13108809Y-9512611D01*
X13108809Y-9512611D02*
X13104048Y-9514992D01*
X13104048Y-9514992D02*
X13101667Y-9517373D01*
X13101667Y-9517373D02*
X13096905Y-9524516D01*
X13096905Y-9524516D02*
X13094524Y-9534040D01*
X13094524Y-9534040D02*
X13094524Y-9553087D01*
X13094524Y-9553087D02*
X13096905Y-9557849D01*
X13096905Y-9557849D02*
X13099286Y-9560230D01*
X13099286Y-9560230D02*
X13104048Y-9562611D01*
X13104048Y-9562611D02*
X13113571Y-9562611D01*
X13113571Y-9562611D02*
X13118333Y-9560230D01*
X13118333Y-9560230D02*
X13120714Y-9557849D01*
X13120714Y-9557849D02*
X13123095Y-9553087D01*
X13123095Y-9553087D02*
X13123095Y-9541182D01*
X13123095Y-9541182D02*
X13120714Y-9536420D01*
X13120714Y-9536420D02*
X13118333Y-9534040D01*
X13118333Y-9534040D02*
X13113571Y-9531659D01*
X13113571Y-9531659D02*
X13104048Y-9531659D01*
X13104048Y-9531659D02*
X13099286Y-9534040D01*
X13099286Y-9534040D02*
X13096905Y-9536420D01*
X13096905Y-9536420D02*
X13094524Y-9541182D01*
X13385286Y-10108611D02*
X13385286Y-10058611D01*
X13385286Y-10058611D02*
X13397190Y-10058611D01*
X13397190Y-10058611D02*
X13404333Y-10060992D01*
X13404333Y-10060992D02*
X13409095Y-10065754D01*
X13409095Y-10065754D02*
X13411476Y-10070516D01*
X13411476Y-10070516D02*
X13413857Y-10080040D01*
X13413857Y-10080040D02*
X13413857Y-10087182D01*
X13413857Y-10087182D02*
X13411476Y-10096706D01*
X13411476Y-10096706D02*
X13409095Y-10101468D01*
X13409095Y-10101468D02*
X13404333Y-10106230D01*
X13404333Y-10106230D02*
X13397190Y-10108611D01*
X13397190Y-10108611D02*
X13385286Y-10108611D01*
X13461476Y-10108611D02*
X13432905Y-10108611D01*
X13447190Y-10108611D02*
X13447190Y-10058611D01*
X13447190Y-10058611D02*
X13442429Y-10065754D01*
X13442429Y-10065754D02*
X13437667Y-10070516D01*
X13437667Y-10070516D02*
X13432905Y-10072897D01*
X13504333Y-10058611D02*
X13494809Y-10058611D01*
X13494809Y-10058611D02*
X13490048Y-10060992D01*
X13490048Y-10060992D02*
X13487667Y-10063373D01*
X13487667Y-10063373D02*
X13482905Y-10070516D01*
X13482905Y-10070516D02*
X13480524Y-10080040D01*
X13480524Y-10080040D02*
X13480524Y-10099087D01*
X13480524Y-10099087D02*
X13482905Y-10103849D01*
X13482905Y-10103849D02*
X13485286Y-10106230D01*
X13485286Y-10106230D02*
X13490048Y-10108611D01*
X13490048Y-10108611D02*
X13499571Y-10108611D01*
X13499571Y-10108611D02*
X13504333Y-10106230D01*
X13504333Y-10106230D02*
X13506714Y-10103849D01*
X13506714Y-10103849D02*
X13509095Y-10099087D01*
X13509095Y-10099087D02*
X13509095Y-10087182D01*
X13509095Y-10087182D02*
X13506714Y-10082420D01*
X13506714Y-10082420D02*
X13504333Y-10080040D01*
X13504333Y-10080040D02*
X13499571Y-10077659D01*
X13499571Y-10077659D02*
X13490048Y-10077659D01*
X13490048Y-10077659D02*
X13485286Y-10080040D01*
X13485286Y-10080040D02*
X13482905Y-10082420D01*
X13482905Y-10082420D02*
X13480524Y-10087182D01*
X14615357Y-10953611D02*
X14598690Y-10929801D01*
X14586786Y-10953611D02*
X14586786Y-10903611D01*
X14586786Y-10903611D02*
X14605833Y-10903611D01*
X14605833Y-10903611D02*
X14610595Y-10905992D01*
X14610595Y-10905992D02*
X14612976Y-10908373D01*
X14612976Y-10908373D02*
X14615357Y-10913135D01*
X14615357Y-10913135D02*
X14615357Y-10920278D01*
X14615357Y-10920278D02*
X14612976Y-10925040D01*
X14612976Y-10925040D02*
X14610595Y-10927420D01*
X14610595Y-10927420D02*
X14605833Y-10929801D01*
X14605833Y-10929801D02*
X14586786Y-10929801D01*
X14662976Y-10953611D02*
X14634405Y-10953611D01*
X14648690Y-10953611D02*
X14648690Y-10903611D01*
X14648690Y-10903611D02*
X14643929Y-10910754D01*
X14643929Y-10910754D02*
X14639167Y-10915516D01*
X14639167Y-10915516D02*
X14634405Y-10917897D01*
X14693928Y-10903611D02*
X14698690Y-10903611D01*
X14698690Y-10903611D02*
X14703452Y-10905992D01*
X14703452Y-10905992D02*
X14705833Y-10908373D01*
X14705833Y-10908373D02*
X14708214Y-10913135D01*
X14708214Y-10913135D02*
X14710595Y-10922659D01*
X14710595Y-10922659D02*
X14710595Y-10934563D01*
X14710595Y-10934563D02*
X14708214Y-10944087D01*
X14708214Y-10944087D02*
X14705833Y-10948849D01*
X14705833Y-10948849D02*
X14703452Y-10951230D01*
X14703452Y-10951230D02*
X14698690Y-10953611D01*
X14698690Y-10953611D02*
X14693928Y-10953611D01*
X14693928Y-10953611D02*
X14689167Y-10951230D01*
X14689167Y-10951230D02*
X14686786Y-10948849D01*
X14686786Y-10948849D02*
X14684405Y-10944087D01*
X14684405Y-10944087D02*
X14682024Y-10934563D01*
X14682024Y-10934563D02*
X14682024Y-10922659D01*
X14682024Y-10922659D02*
X14684405Y-10913135D01*
X14684405Y-10913135D02*
X14686786Y-10908373D01*
X14686786Y-10908373D02*
X14689167Y-10905992D01*
X14689167Y-10905992D02*
X14693928Y-10903611D01*
X14296667Y-9014849D02*
X14294286Y-9017230D01*
X14294286Y-9017230D02*
X14287143Y-9019611D01*
X14287143Y-9019611D02*
X14282381Y-9019611D01*
X14282381Y-9019611D02*
X14275238Y-9017230D01*
X14275238Y-9017230D02*
X14270476Y-9012468D01*
X14270476Y-9012468D02*
X14268095Y-9007706D01*
X14268095Y-9007706D02*
X14265714Y-8998182D01*
X14265714Y-8998182D02*
X14265714Y-8991040D01*
X14265714Y-8991040D02*
X14268095Y-8981516D01*
X14268095Y-8981516D02*
X14270476Y-8976754D01*
X14270476Y-8976754D02*
X14275238Y-8971992D01*
X14275238Y-8971992D02*
X14282381Y-8969611D01*
X14282381Y-8969611D02*
X14287143Y-8969611D01*
X14287143Y-8969611D02*
X14294286Y-8971992D01*
X14294286Y-8971992D02*
X14296667Y-8974373D01*
X14313333Y-8969611D02*
X14344286Y-8969611D01*
X14344286Y-8969611D02*
X14327619Y-8988659D01*
X14327619Y-8988659D02*
X14334762Y-8988659D01*
X14334762Y-8988659D02*
X14339524Y-8991040D01*
X14339524Y-8991040D02*
X14341905Y-8993420D01*
X14341905Y-8993420D02*
X14344286Y-8998182D01*
X14344286Y-8998182D02*
X14344286Y-9010087D01*
X14344286Y-9010087D02*
X14341905Y-9014849D01*
X14341905Y-9014849D02*
X14339524Y-9017230D01*
X14339524Y-9017230D02*
X14334762Y-9019611D01*
X14334762Y-9019611D02*
X14320476Y-9019611D01*
X14320476Y-9019611D02*
X14315714Y-9017230D01*
X14315714Y-9017230D02*
X14313333Y-9014849D01*
X13701667Y-9192611D02*
X13677857Y-9192611D01*
X13677857Y-9192611D02*
X13677857Y-9142611D01*
X13739762Y-9159278D02*
X13739762Y-9192611D01*
X13727857Y-9140230D02*
X13715952Y-9175944D01*
X13715952Y-9175944D02*
X13746905Y-9175944D01*
X9587857Y-9532611D02*
X9571191Y-9508801D01*
X9559286Y-9532611D02*
X9559286Y-9482611D01*
X9559286Y-9482611D02*
X9578333Y-9482611D01*
X9578333Y-9482611D02*
X9583095Y-9484992D01*
X9583095Y-9484992D02*
X9585476Y-9487373D01*
X9585476Y-9487373D02*
X9587857Y-9492135D01*
X9587857Y-9492135D02*
X9587857Y-9499278D01*
X9587857Y-9499278D02*
X9585476Y-9504040D01*
X9585476Y-9504040D02*
X9583095Y-9506420D01*
X9583095Y-9506420D02*
X9578333Y-9508801D01*
X9578333Y-9508801D02*
X9559286Y-9508801D01*
X9606905Y-9487373D02*
X9609286Y-9484992D01*
X9609286Y-9484992D02*
X9614048Y-9482611D01*
X9614048Y-9482611D02*
X9625952Y-9482611D01*
X9625952Y-9482611D02*
X9630714Y-9484992D01*
X9630714Y-9484992D02*
X9633095Y-9487373D01*
X9633095Y-9487373D02*
X9635476Y-9492135D01*
X9635476Y-9492135D02*
X9635476Y-9496897D01*
X9635476Y-9496897D02*
X9633095Y-9504040D01*
X9633095Y-9504040D02*
X9604524Y-9532611D01*
X9604524Y-9532611D02*
X9635476Y-9532611D01*
X9678333Y-9482611D02*
X9668810Y-9482611D01*
X9668810Y-9482611D02*
X9664048Y-9484992D01*
X9664048Y-9484992D02*
X9661667Y-9487373D01*
X9661667Y-9487373D02*
X9656905Y-9494516D01*
X9656905Y-9494516D02*
X9654524Y-9504040D01*
X9654524Y-9504040D02*
X9654524Y-9523087D01*
X9654524Y-9523087D02*
X9656905Y-9527849D01*
X9656905Y-9527849D02*
X9659286Y-9530230D01*
X9659286Y-9530230D02*
X9664048Y-9532611D01*
X9664048Y-9532611D02*
X9673571Y-9532611D01*
X9673571Y-9532611D02*
X9678333Y-9530230D01*
X9678333Y-9530230D02*
X9680714Y-9527849D01*
X9680714Y-9527849D02*
X9683095Y-9523087D01*
X9683095Y-9523087D02*
X9683095Y-9511182D01*
X9683095Y-9511182D02*
X9680714Y-9506420D01*
X9680714Y-9506420D02*
X9678333Y-9504040D01*
X9678333Y-9504040D02*
X9673571Y-9501659D01*
X9673571Y-9501659D02*
X9664048Y-9501659D01*
X9664048Y-9501659D02*
X9659286Y-9504040D01*
X9659286Y-9504040D02*
X9656905Y-9506420D01*
X9656905Y-9506420D02*
X9654524Y-9511182D01*
X13581190Y-9862611D02*
X13581190Y-9812611D01*
X13633571Y-9857849D02*
X13631190Y-9860230D01*
X13631190Y-9860230D02*
X13624048Y-9862611D01*
X13624048Y-9862611D02*
X13619286Y-9862611D01*
X13619286Y-9862611D02*
X13612143Y-9860230D01*
X13612143Y-9860230D02*
X13607381Y-9855468D01*
X13607381Y-9855468D02*
X13605000Y-9850706D01*
X13605000Y-9850706D02*
X13602619Y-9841182D01*
X13602619Y-9841182D02*
X13602619Y-9834040D01*
X13602619Y-9834040D02*
X13605000Y-9824516D01*
X13605000Y-9824516D02*
X13607381Y-9819754D01*
X13607381Y-9819754D02*
X13612143Y-9814992D01*
X13612143Y-9814992D02*
X13619286Y-9812611D01*
X13619286Y-9812611D02*
X13624048Y-9812611D01*
X13624048Y-9812611D02*
X13631190Y-9814992D01*
X13631190Y-9814992D02*
X13633571Y-9817373D01*
X13676429Y-9829278D02*
X13676429Y-9862611D01*
X13664524Y-9810230D02*
X13652619Y-9845944D01*
X13652619Y-9845944D02*
X13683571Y-9845944D01*
X15991190Y-8998801D02*
X15991190Y-9022611D01*
X15974524Y-8972611D02*
X15991190Y-8998801D01*
X15991190Y-8998801D02*
X16007857Y-8972611D01*
X16050714Y-9022611D02*
X16022143Y-9022611D01*
X16036429Y-9022611D02*
X16036429Y-8972611D01*
X16036429Y-8972611D02*
X16031667Y-8979754D01*
X16031667Y-8979754D02*
X16026905Y-8984516D01*
X16026905Y-8984516D02*
X16022143Y-8986897D01*
X12537857Y-9607849D02*
X12535476Y-9610230D01*
X12535476Y-9610230D02*
X12528333Y-9612611D01*
X12528333Y-9612611D02*
X12523571Y-9612611D01*
X12523571Y-9612611D02*
X12516429Y-9610230D01*
X12516429Y-9610230D02*
X12511667Y-9605468D01*
X12511667Y-9605468D02*
X12509286Y-9600706D01*
X12509286Y-9600706D02*
X12506905Y-9591182D01*
X12506905Y-9591182D02*
X12506905Y-9584040D01*
X12506905Y-9584040D02*
X12509286Y-9574516D01*
X12509286Y-9574516D02*
X12511667Y-9569754D01*
X12511667Y-9569754D02*
X12516429Y-9564992D01*
X12516429Y-9564992D02*
X12523571Y-9562611D01*
X12523571Y-9562611D02*
X12528333Y-9562611D01*
X12528333Y-9562611D02*
X12535476Y-9564992D01*
X12535476Y-9564992D02*
X12537857Y-9567373D01*
X12554524Y-9562611D02*
X12585476Y-9562611D01*
X12585476Y-9562611D02*
X12568809Y-9581659D01*
X12568809Y-9581659D02*
X12575952Y-9581659D01*
X12575952Y-9581659D02*
X12580714Y-9584040D01*
X12580714Y-9584040D02*
X12583095Y-9586420D01*
X12583095Y-9586420D02*
X12585476Y-9591182D01*
X12585476Y-9591182D02*
X12585476Y-9603087D01*
X12585476Y-9603087D02*
X12583095Y-9607849D01*
X12583095Y-9607849D02*
X12580714Y-9610230D01*
X12580714Y-9610230D02*
X12575952Y-9612611D01*
X12575952Y-9612611D02*
X12561667Y-9612611D01*
X12561667Y-9612611D02*
X12556905Y-9610230D01*
X12556905Y-9610230D02*
X12554524Y-9607849D01*
X12609286Y-9612611D02*
X12618809Y-9612611D01*
X12618809Y-9612611D02*
X12623571Y-9610230D01*
X12623571Y-9610230D02*
X12625952Y-9607849D01*
X12625952Y-9607849D02*
X12630714Y-9600706D01*
X12630714Y-9600706D02*
X12633095Y-9591182D01*
X12633095Y-9591182D02*
X12633095Y-9572135D01*
X12633095Y-9572135D02*
X12630714Y-9567373D01*
X12630714Y-9567373D02*
X12628333Y-9564992D01*
X12628333Y-9564992D02*
X12623571Y-9562611D01*
X12623571Y-9562611D02*
X12614048Y-9562611D01*
X12614048Y-9562611D02*
X12609286Y-9564992D01*
X12609286Y-9564992D02*
X12606905Y-9567373D01*
X12606905Y-9567373D02*
X12604524Y-9572135D01*
X12604524Y-9572135D02*
X12604524Y-9584040D01*
X12604524Y-9584040D02*
X12606905Y-9588801D01*
X12606905Y-9588801D02*
X12609286Y-9591182D01*
X12609286Y-9591182D02*
X12614048Y-9593563D01*
X12614048Y-9593563D02*
X12623571Y-9593563D01*
X12623571Y-9593563D02*
X12628333Y-9591182D01*
X12628333Y-9591182D02*
X12630714Y-9588801D01*
X12630714Y-9588801D02*
X12633095Y-9584040D01*
D10*
X10462982Y-10433333D02*
X10534411Y-10433333D01*
X10534411Y-10433333D02*
X10548696Y-10438095D01*
X10548696Y-10438095D02*
X10558220Y-10447619D01*
X10558220Y-10447619D02*
X10562982Y-10461905D01*
X10562982Y-10461905D02*
X10562982Y-10471429D01*
X10472506Y-10390476D02*
X10467744Y-10385714D01*
X10467744Y-10385714D02*
X10462982Y-10376190D01*
X10462982Y-10376190D02*
X10462982Y-10352381D01*
X10462982Y-10352381D02*
X10467744Y-10342857D01*
X10467744Y-10342857D02*
X10472506Y-10338095D01*
X10472506Y-10338095D02*
X10482030Y-10333333D01*
X10482030Y-10333333D02*
X10491553Y-10333333D01*
X10491553Y-10333333D02*
X10505839Y-10338095D01*
X10505839Y-10338095D02*
X10562982Y-10395238D01*
X10562982Y-10395238D02*
X10562982Y-10333333D01*
D12*
X10527857Y-10617849D02*
X10525476Y-10620230D01*
X10525476Y-10620230D02*
X10518333Y-10622611D01*
X10518333Y-10622611D02*
X10513571Y-10622611D01*
X10513571Y-10622611D02*
X10506429Y-10620230D01*
X10506429Y-10620230D02*
X10501667Y-10615468D01*
X10501667Y-10615468D02*
X10499286Y-10610706D01*
X10499286Y-10610706D02*
X10496905Y-10601182D01*
X10496905Y-10601182D02*
X10496905Y-10594040D01*
X10496905Y-10594040D02*
X10499286Y-10584516D01*
X10499286Y-10584516D02*
X10501667Y-10579754D01*
X10501667Y-10579754D02*
X10506429Y-10574992D01*
X10506429Y-10574992D02*
X10513571Y-10572611D01*
X10513571Y-10572611D02*
X10518333Y-10572611D01*
X10518333Y-10572611D02*
X10525476Y-10574992D01*
X10525476Y-10574992D02*
X10527857Y-10577373D01*
X10544524Y-10572611D02*
X10575476Y-10572611D01*
X10575476Y-10572611D02*
X10558810Y-10591659D01*
X10558810Y-10591659D02*
X10565952Y-10591659D01*
X10565952Y-10591659D02*
X10570714Y-10594040D01*
X10570714Y-10594040D02*
X10573095Y-10596420D01*
X10573095Y-10596420D02*
X10575476Y-10601182D01*
X10575476Y-10601182D02*
X10575476Y-10613087D01*
X10575476Y-10613087D02*
X10573095Y-10617849D01*
X10573095Y-10617849D02*
X10570714Y-10620230D01*
X10570714Y-10620230D02*
X10565952Y-10622611D01*
X10565952Y-10622611D02*
X10551667Y-10622611D01*
X10551667Y-10622611D02*
X10546905Y-10620230D01*
X10546905Y-10620230D02*
X10544524Y-10617849D01*
X10618333Y-10572611D02*
X10608810Y-10572611D01*
X10608810Y-10572611D02*
X10604048Y-10574992D01*
X10604048Y-10574992D02*
X10601667Y-10577373D01*
X10601667Y-10577373D02*
X10596905Y-10584516D01*
X10596905Y-10584516D02*
X10594524Y-10594040D01*
X10594524Y-10594040D02*
X10594524Y-10613087D01*
X10594524Y-10613087D02*
X10596905Y-10617849D01*
X10596905Y-10617849D02*
X10599286Y-10620230D01*
X10599286Y-10620230D02*
X10604048Y-10622611D01*
X10604048Y-10622611D02*
X10613571Y-10622611D01*
X10613571Y-10622611D02*
X10618333Y-10620230D01*
X10618333Y-10620230D02*
X10620714Y-10617849D01*
X10620714Y-10617849D02*
X10623095Y-10613087D01*
X10623095Y-10613087D02*
X10623095Y-10601182D01*
X10623095Y-10601182D02*
X10620714Y-10596420D01*
X10620714Y-10596420D02*
X10618333Y-10594040D01*
X10618333Y-10594040D02*
X10613571Y-10591659D01*
X10613571Y-10591659D02*
X10604048Y-10591659D01*
X10604048Y-10591659D02*
X10599286Y-10594040D01*
X10599286Y-10594040D02*
X10596905Y-10596420D01*
X10596905Y-10596420D02*
X10594524Y-10601182D01*
X8961905Y-9422611D02*
X8961905Y-9372611D01*
X8961905Y-9396420D02*
X8990476Y-9396420D01*
X8990476Y-9422611D02*
X8990476Y-9372611D01*
X9009524Y-9372611D02*
X9040476Y-9372611D01*
X9040476Y-9372611D02*
X9023810Y-9391659D01*
X9023810Y-9391659D02*
X9030952Y-9391659D01*
X9030952Y-9391659D02*
X9035714Y-9394040D01*
X9035714Y-9394040D02*
X9038095Y-9396420D01*
X9038095Y-9396420D02*
X9040476Y-9401182D01*
X9040476Y-9401182D02*
X9040476Y-9413087D01*
X9040476Y-9413087D02*
X9038095Y-9417849D01*
X9038095Y-9417849D02*
X9035714Y-9420230D01*
X9035714Y-9420230D02*
X9030952Y-9422611D01*
X9030952Y-9422611D02*
X9016667Y-9422611D01*
X9016667Y-9422611D02*
X9011905Y-9420230D01*
X9011905Y-9420230D02*
X9009524Y-9417849D01*
X15632857Y-9875849D02*
X15630476Y-9878230D01*
X15630476Y-9878230D02*
X15623333Y-9880611D01*
X15623333Y-9880611D02*
X15618571Y-9880611D01*
X15618571Y-9880611D02*
X15611429Y-9878230D01*
X15611429Y-9878230D02*
X15606667Y-9873468D01*
X15606667Y-9873468D02*
X15604286Y-9868706D01*
X15604286Y-9868706D02*
X15601905Y-9859182D01*
X15601905Y-9859182D02*
X15601905Y-9852040D01*
X15601905Y-9852040D02*
X15604286Y-9842516D01*
X15604286Y-9842516D02*
X15606667Y-9837754D01*
X15606667Y-9837754D02*
X15611429Y-9832992D01*
X15611429Y-9832992D02*
X15618571Y-9830611D01*
X15618571Y-9830611D02*
X15623333Y-9830611D01*
X15623333Y-9830611D02*
X15630476Y-9832992D01*
X15630476Y-9832992D02*
X15632857Y-9835373D01*
X15680476Y-9880611D02*
X15651905Y-9880611D01*
X15666190Y-9880611D02*
X15666190Y-9830611D01*
X15666190Y-9830611D02*
X15661429Y-9837754D01*
X15661429Y-9837754D02*
X15656667Y-9842516D01*
X15656667Y-9842516D02*
X15651905Y-9844897D01*
X15728095Y-9880611D02*
X15699524Y-9880611D01*
X15713809Y-9880611D02*
X15713809Y-9830611D01*
X15713809Y-9830611D02*
X15709048Y-9837754D01*
X15709048Y-9837754D02*
X15704286Y-9842516D01*
X15704286Y-9842516D02*
X15699524Y-9844897D01*
D14*
X10081262Y-9840908D02*
X10038929Y-9840908D01*
X10038929Y-9907432D02*
X10038929Y-9780432D01*
X10038929Y-9780432D02*
X10099405Y-9780432D01*
X10208262Y-9907432D02*
X10147786Y-9907432D01*
X10147786Y-9907432D02*
X10147786Y-9780432D01*
X10244548Y-9792527D02*
X10250595Y-9786479D01*
X10250595Y-9786479D02*
X10262690Y-9780432D01*
X10262690Y-9780432D02*
X10292929Y-9780432D01*
X10292929Y-9780432D02*
X10305024Y-9786479D01*
X10305024Y-9786479D02*
X10311071Y-9792527D01*
X10311071Y-9792527D02*
X10317119Y-9804622D01*
X10317119Y-9804622D02*
X10317119Y-9816718D01*
X10317119Y-9816718D02*
X10311071Y-9834860D01*
X10311071Y-9834860D02*
X10238500Y-9907432D01*
X10238500Y-9907432D02*
X10317119Y-9907432D01*
D12*
X13303333Y-10299420D02*
X13286667Y-10299420D01*
X13286667Y-10325611D02*
X13286667Y-10275611D01*
X13286667Y-10275611D02*
X13310476Y-10275611D01*
X13350952Y-10275611D02*
X13341429Y-10275611D01*
X13341429Y-10275611D02*
X13336667Y-10277992D01*
X13336667Y-10277992D02*
X13334286Y-10280373D01*
X13334286Y-10280373D02*
X13329524Y-10287516D01*
X13329524Y-10287516D02*
X13327143Y-10297040D01*
X13327143Y-10297040D02*
X13327143Y-10316087D01*
X13327143Y-10316087D02*
X13329524Y-10320849D01*
X13329524Y-10320849D02*
X13331905Y-10323230D01*
X13331905Y-10323230D02*
X13336667Y-10325611D01*
X13336667Y-10325611D02*
X13346190Y-10325611D01*
X13346190Y-10325611D02*
X13350952Y-10323230D01*
X13350952Y-10323230D02*
X13353333Y-10320849D01*
X13353333Y-10320849D02*
X13355714Y-10316087D01*
X13355714Y-10316087D02*
X13355714Y-10304182D01*
X13355714Y-10304182D02*
X13353333Y-10299420D01*
X13353333Y-10299420D02*
X13350952Y-10297040D01*
X13350952Y-10297040D02*
X13346190Y-10294659D01*
X13346190Y-10294659D02*
X13336667Y-10294659D01*
X13336667Y-10294659D02*
X13331905Y-10297040D01*
X13331905Y-10297040D02*
X13329524Y-10299420D01*
X13329524Y-10299420D02*
X13327143Y-10304182D01*
X14072611Y-10020143D02*
X14048801Y-10036809D01*
X14072611Y-10048714D02*
X14022611Y-10048714D01*
X14022611Y-10048714D02*
X14022611Y-10029667D01*
X14022611Y-10029667D02*
X14024992Y-10024905D01*
X14024992Y-10024905D02*
X14027373Y-10022524D01*
X14027373Y-10022524D02*
X14032135Y-10020143D01*
X14032135Y-10020143D02*
X14039278Y-10020143D01*
X14039278Y-10020143D02*
X14044039Y-10022524D01*
X14044039Y-10022524D02*
X14046420Y-10024905D01*
X14046420Y-10024905D02*
X14048801Y-10029667D01*
X14048801Y-10029667D02*
X14048801Y-10048714D01*
X14027373Y-10001095D02*
X14024992Y-9998714D01*
X14024992Y-9998714D02*
X14022611Y-9993952D01*
X14022611Y-9993952D02*
X14022611Y-9982048D01*
X14022611Y-9982048D02*
X14024992Y-9977286D01*
X14024992Y-9977286D02*
X14027373Y-9974905D01*
X14027373Y-9974905D02*
X14032135Y-9972524D01*
X14032135Y-9972524D02*
X14036897Y-9972524D01*
X14036897Y-9972524D02*
X14044039Y-9974905D01*
X14044039Y-9974905D02*
X14072611Y-10003476D01*
X14072611Y-10003476D02*
X14072611Y-9972524D01*
X14022611Y-9955857D02*
X14022611Y-9924905D01*
X14022611Y-9924905D02*
X14041658Y-9941571D01*
X14041658Y-9941571D02*
X14041658Y-9934429D01*
X14041658Y-9934429D02*
X14044039Y-9929667D01*
X14044039Y-9929667D02*
X14046420Y-9927286D01*
X14046420Y-9927286D02*
X14051182Y-9924905D01*
X14051182Y-9924905D02*
X14063087Y-9924905D01*
X14063087Y-9924905D02*
X14067849Y-9927286D01*
X14067849Y-9927286D02*
X14070230Y-9929667D01*
X14070230Y-9929667D02*
X14072611Y-9934429D01*
X14072611Y-9934429D02*
X14072611Y-9948714D01*
X14072611Y-9948714D02*
X14070230Y-9953476D01*
X14070230Y-9953476D02*
X14067849Y-9955857D01*
X13074611Y-10905905D02*
X13024611Y-10905905D01*
X13024611Y-10905905D02*
X13024611Y-10894000D01*
X13024611Y-10894000D02*
X13026992Y-10886857D01*
X13026992Y-10886857D02*
X13031754Y-10882095D01*
X13031754Y-10882095D02*
X13036516Y-10879714D01*
X13036516Y-10879714D02*
X13046039Y-10877333D01*
X13046039Y-10877333D02*
X13053182Y-10877333D01*
X13053182Y-10877333D02*
X13062706Y-10879714D01*
X13062706Y-10879714D02*
X13067468Y-10882095D01*
X13067468Y-10882095D02*
X13072230Y-10886857D01*
X13072230Y-10886857D02*
X13074611Y-10894000D01*
X13074611Y-10894000D02*
X13074611Y-10905905D01*
X13074611Y-10829714D02*
X13074611Y-10858286D01*
X13074611Y-10844000D02*
X13024611Y-10844000D01*
X13024611Y-10844000D02*
X13031754Y-10848762D01*
X13031754Y-10848762D02*
X13036516Y-10853524D01*
X13036516Y-10853524D02*
X13038897Y-10858286D01*
X12848333Y-9966420D02*
X12831667Y-9966420D01*
X12831667Y-9992611D02*
X12831667Y-9942611D01*
X12831667Y-9942611D02*
X12855476Y-9942611D01*
X12891190Y-9966420D02*
X12898333Y-9968801D01*
X12898333Y-9968801D02*
X12900714Y-9971182D01*
X12900714Y-9971182D02*
X12903095Y-9975944D01*
X12903095Y-9975944D02*
X12903095Y-9983087D01*
X12903095Y-9983087D02*
X12900714Y-9987849D01*
X12900714Y-9987849D02*
X12898333Y-9990230D01*
X12898333Y-9990230D02*
X12893571Y-9992611D01*
X12893571Y-9992611D02*
X12874524Y-9992611D01*
X12874524Y-9992611D02*
X12874524Y-9942611D01*
X12874524Y-9942611D02*
X12891190Y-9942611D01*
X12891190Y-9942611D02*
X12895952Y-9944992D01*
X12895952Y-9944992D02*
X12898333Y-9947373D01*
X12898333Y-9947373D02*
X12900714Y-9952135D01*
X12900714Y-9952135D02*
X12900714Y-9956897D01*
X12900714Y-9956897D02*
X12898333Y-9961659D01*
X12898333Y-9961659D02*
X12895952Y-9964040D01*
X12895952Y-9964040D02*
X12891190Y-9966420D01*
X12891190Y-9966420D02*
X12874524Y-9966420D01*
X12931667Y-9964040D02*
X12926905Y-9961659D01*
X12926905Y-9961659D02*
X12924524Y-9959278D01*
X12924524Y-9959278D02*
X12922143Y-9954516D01*
X12922143Y-9954516D02*
X12922143Y-9952135D01*
X12922143Y-9952135D02*
X12924524Y-9947373D01*
X12924524Y-9947373D02*
X12926905Y-9944992D01*
X12926905Y-9944992D02*
X12931667Y-9942611D01*
X12931667Y-9942611D02*
X12941190Y-9942611D01*
X12941190Y-9942611D02*
X12945952Y-9944992D01*
X12945952Y-9944992D02*
X12948333Y-9947373D01*
X12948333Y-9947373D02*
X12950714Y-9952135D01*
X12950714Y-9952135D02*
X12950714Y-9954516D01*
X12950714Y-9954516D02*
X12948333Y-9959278D01*
X12948333Y-9959278D02*
X12945952Y-9961659D01*
X12945952Y-9961659D02*
X12941190Y-9964040D01*
X12941190Y-9964040D02*
X12931667Y-9964040D01*
X12931667Y-9964040D02*
X12926905Y-9966420D01*
X12926905Y-9966420D02*
X12924524Y-9968801D01*
X12924524Y-9968801D02*
X12922143Y-9973563D01*
X12922143Y-9973563D02*
X12922143Y-9983087D01*
X12922143Y-9983087D02*
X12924524Y-9987849D01*
X12924524Y-9987849D02*
X12926905Y-9990230D01*
X12926905Y-9990230D02*
X12931667Y-9992611D01*
X12931667Y-9992611D02*
X12941190Y-9992611D01*
X12941190Y-9992611D02*
X12945952Y-9990230D01*
X12945952Y-9990230D02*
X12948333Y-9987849D01*
X12948333Y-9987849D02*
X12950714Y-9983087D01*
X12950714Y-9983087D02*
X12950714Y-9973563D01*
X12950714Y-9973563D02*
X12948333Y-9968801D01*
X12948333Y-9968801D02*
X12945952Y-9966420D01*
X12945952Y-9966420D02*
X12941190Y-9964040D01*
X10597857Y-10097849D02*
X10595476Y-10100230D01*
X10595476Y-10100230D02*
X10588333Y-10102611D01*
X10588333Y-10102611D02*
X10583571Y-10102611D01*
X10583571Y-10102611D02*
X10576429Y-10100230D01*
X10576429Y-10100230D02*
X10571667Y-10095468D01*
X10571667Y-10095468D02*
X10569286Y-10090706D01*
X10569286Y-10090706D02*
X10566905Y-10081182D01*
X10566905Y-10081182D02*
X10566905Y-10074040D01*
X10566905Y-10074040D02*
X10569286Y-10064516D01*
X10569286Y-10064516D02*
X10571667Y-10059754D01*
X10571667Y-10059754D02*
X10576429Y-10054992D01*
X10576429Y-10054992D02*
X10583571Y-10052611D01*
X10583571Y-10052611D02*
X10588333Y-10052611D01*
X10588333Y-10052611D02*
X10595476Y-10054992D01*
X10595476Y-10054992D02*
X10597857Y-10057373D01*
X10614524Y-10052611D02*
X10645476Y-10052611D01*
X10645476Y-10052611D02*
X10628810Y-10071659D01*
X10628810Y-10071659D02*
X10635952Y-10071659D01*
X10635952Y-10071659D02*
X10640714Y-10074040D01*
X10640714Y-10074040D02*
X10643095Y-10076420D01*
X10643095Y-10076420D02*
X10645476Y-10081182D01*
X10645476Y-10081182D02*
X10645476Y-10093087D01*
X10645476Y-10093087D02*
X10643095Y-10097849D01*
X10643095Y-10097849D02*
X10640714Y-10100230D01*
X10640714Y-10100230D02*
X10635952Y-10102611D01*
X10635952Y-10102611D02*
X10621667Y-10102611D01*
X10621667Y-10102611D02*
X10616905Y-10100230D01*
X10616905Y-10100230D02*
X10614524Y-10097849D01*
X10662143Y-10052611D02*
X10695476Y-10052611D01*
X10695476Y-10052611D02*
X10674048Y-10102611D01*
X16387857Y-9967849D02*
X16385476Y-9970230D01*
X16385476Y-9970230D02*
X16378333Y-9972611D01*
X16378333Y-9972611D02*
X16373571Y-9972611D01*
X16373571Y-9972611D02*
X16366429Y-9970230D01*
X16366429Y-9970230D02*
X16361667Y-9965468D01*
X16361667Y-9965468D02*
X16359286Y-9960706D01*
X16359286Y-9960706D02*
X16356905Y-9951182D01*
X16356905Y-9951182D02*
X16356905Y-9944040D01*
X16356905Y-9944040D02*
X16359286Y-9934516D01*
X16359286Y-9934516D02*
X16361667Y-9929754D01*
X16361667Y-9929754D02*
X16366429Y-9924992D01*
X16366429Y-9924992D02*
X16373571Y-9922611D01*
X16373571Y-9922611D02*
X16378333Y-9922611D01*
X16378333Y-9922611D02*
X16385476Y-9924992D01*
X16385476Y-9924992D02*
X16387857Y-9927373D01*
X16406905Y-9927373D02*
X16409286Y-9924992D01*
X16409286Y-9924992D02*
X16414048Y-9922611D01*
X16414048Y-9922611D02*
X16425952Y-9922611D01*
X16425952Y-9922611D02*
X16430714Y-9924992D01*
X16430714Y-9924992D02*
X16433095Y-9927373D01*
X16433095Y-9927373D02*
X16435476Y-9932135D01*
X16435476Y-9932135D02*
X16435476Y-9936897D01*
X16435476Y-9936897D02*
X16433095Y-9944040D01*
X16433095Y-9944040D02*
X16404524Y-9972611D01*
X16404524Y-9972611D02*
X16435476Y-9972611D01*
X16459286Y-9972611D02*
X16468809Y-9972611D01*
X16468809Y-9972611D02*
X16473571Y-9970230D01*
X16473571Y-9970230D02*
X16475952Y-9967849D01*
X16475952Y-9967849D02*
X16480714Y-9960706D01*
X16480714Y-9960706D02*
X16483095Y-9951182D01*
X16483095Y-9951182D02*
X16483095Y-9932135D01*
X16483095Y-9932135D02*
X16480714Y-9927373D01*
X16480714Y-9927373D02*
X16478333Y-9924992D01*
X16478333Y-9924992D02*
X16473571Y-9922611D01*
X16473571Y-9922611D02*
X16464048Y-9922611D01*
X16464048Y-9922611D02*
X16459286Y-9924992D01*
X16459286Y-9924992D02*
X16456905Y-9927373D01*
X16456905Y-9927373D02*
X16454524Y-9932135D01*
X16454524Y-9932135D02*
X16454524Y-9944040D01*
X16454524Y-9944040D02*
X16456905Y-9948801D01*
X16456905Y-9948801D02*
X16459286Y-9951182D01*
X16459286Y-9951182D02*
X16464048Y-9953563D01*
X16464048Y-9953563D02*
X16473571Y-9953563D01*
X16473571Y-9953563D02*
X16478333Y-9951182D01*
X16478333Y-9951182D02*
X16480714Y-9948801D01*
X16480714Y-9948801D02*
X16483095Y-9944040D01*
X13535286Y-10196611D02*
X13535286Y-10146611D01*
X13535286Y-10146611D02*
X13547190Y-10146611D01*
X13547190Y-10146611D02*
X13554333Y-10148992D01*
X13554333Y-10148992D02*
X13559095Y-10153754D01*
X13559095Y-10153754D02*
X13561476Y-10158516D01*
X13561476Y-10158516D02*
X13563857Y-10168040D01*
X13563857Y-10168040D02*
X13563857Y-10175182D01*
X13563857Y-10175182D02*
X13561476Y-10184706D01*
X13561476Y-10184706D02*
X13559095Y-10189468D01*
X13559095Y-10189468D02*
X13554333Y-10194230D01*
X13554333Y-10194230D02*
X13547190Y-10196611D01*
X13547190Y-10196611D02*
X13535286Y-10196611D01*
X13611476Y-10196611D02*
X13582905Y-10196611D01*
X13597190Y-10196611D02*
X13597190Y-10146611D01*
X13597190Y-10146611D02*
X13592429Y-10153754D01*
X13592429Y-10153754D02*
X13587667Y-10158516D01*
X13587667Y-10158516D02*
X13582905Y-10160897D01*
X13628143Y-10146611D02*
X13659095Y-10146611D01*
X13659095Y-10146611D02*
X13642428Y-10165659D01*
X13642428Y-10165659D02*
X13649571Y-10165659D01*
X13649571Y-10165659D02*
X13654333Y-10168040D01*
X13654333Y-10168040D02*
X13656714Y-10170420D01*
X13656714Y-10170420D02*
X13659095Y-10175182D01*
X13659095Y-10175182D02*
X13659095Y-10187087D01*
X13659095Y-10187087D02*
X13656714Y-10191849D01*
X13656714Y-10191849D02*
X13654333Y-10194230D01*
X13654333Y-10194230D02*
X13649571Y-10196611D01*
X13649571Y-10196611D02*
X13635286Y-10196611D01*
X13635286Y-10196611D02*
X13630524Y-10194230D01*
X13630524Y-10194230D02*
X13628143Y-10191849D01*
X15200667Y-10296849D02*
X15198286Y-10299230D01*
X15198286Y-10299230D02*
X15191143Y-10301611D01*
X15191143Y-10301611D02*
X15186381Y-10301611D01*
X15186381Y-10301611D02*
X15179238Y-10299230D01*
X15179238Y-10299230D02*
X15174476Y-10294468D01*
X15174476Y-10294468D02*
X15172095Y-10289706D01*
X15172095Y-10289706D02*
X15169714Y-10280182D01*
X15169714Y-10280182D02*
X15169714Y-10273040D01*
X15169714Y-10273040D02*
X15172095Y-10263516D01*
X15172095Y-10263516D02*
X15174476Y-10258754D01*
X15174476Y-10258754D02*
X15179238Y-10253992D01*
X15179238Y-10253992D02*
X15186381Y-10251611D01*
X15186381Y-10251611D02*
X15191143Y-10251611D01*
X15191143Y-10251611D02*
X15198286Y-10253992D01*
X15198286Y-10253992D02*
X15200667Y-10256373D01*
X15248286Y-10301611D02*
X15219714Y-10301611D01*
X15234000Y-10301611D02*
X15234000Y-10251611D01*
X15234000Y-10251611D02*
X15229238Y-10258754D01*
X15229238Y-10258754D02*
X15224476Y-10263516D01*
X15224476Y-10263516D02*
X15219714Y-10265897D01*
X14104611Y-9702143D02*
X14080801Y-9718809D01*
X14104611Y-9730714D02*
X14054611Y-9730714D01*
X14054611Y-9730714D02*
X14054611Y-9711667D01*
X14054611Y-9711667D02*
X14056992Y-9706905D01*
X14056992Y-9706905D02*
X14059373Y-9704524D01*
X14059373Y-9704524D02*
X14064135Y-9702143D01*
X14064135Y-9702143D02*
X14071278Y-9702143D01*
X14071278Y-9702143D02*
X14076039Y-9704524D01*
X14076039Y-9704524D02*
X14078420Y-9706905D01*
X14078420Y-9706905D02*
X14080801Y-9711667D01*
X14080801Y-9711667D02*
X14080801Y-9730714D01*
X14059373Y-9683095D02*
X14056992Y-9680714D01*
X14056992Y-9680714D02*
X14054611Y-9675952D01*
X14054611Y-9675952D02*
X14054611Y-9664048D01*
X14054611Y-9664048D02*
X14056992Y-9659286D01*
X14056992Y-9659286D02*
X14059373Y-9656905D01*
X14059373Y-9656905D02*
X14064135Y-9654524D01*
X14064135Y-9654524D02*
X14068897Y-9654524D01*
X14068897Y-9654524D02*
X14076039Y-9656905D01*
X14076039Y-9656905D02*
X14104611Y-9685476D01*
X14104611Y-9685476D02*
X14104611Y-9654524D01*
X14071278Y-9611667D02*
X14104611Y-9611667D01*
X14052230Y-9623571D02*
X14087944Y-9635476D01*
X14087944Y-9635476D02*
X14087944Y-9604524D01*
X15842909Y-9863994D02*
X15819099Y-9880660D01*
X15842909Y-9892565D02*
X15792909Y-9892565D01*
X15792909Y-9892565D02*
X15792909Y-9873518D01*
X15792909Y-9873518D02*
X15795290Y-9868756D01*
X15795290Y-9868756D02*
X15797671Y-9866375D01*
X15797671Y-9866375D02*
X15802433Y-9863994D01*
X15802433Y-9863994D02*
X15809575Y-9863994D01*
X15809575Y-9863994D02*
X15814337Y-9866375D01*
X15814337Y-9866375D02*
X15816718Y-9868756D01*
X15816718Y-9868756D02*
X15819099Y-9873518D01*
X15819099Y-9873518D02*
X15819099Y-9892565D01*
X15792909Y-9818756D02*
X15792909Y-9842565D01*
X15792909Y-9842565D02*
X15816718Y-9844946D01*
X15816718Y-9844946D02*
X15814337Y-9842565D01*
X15814337Y-9842565D02*
X15811956Y-9837803D01*
X15811956Y-9837803D02*
X15811956Y-9825898D01*
X15811956Y-9825898D02*
X15814337Y-9821137D01*
X15814337Y-9821137D02*
X15816718Y-9818756D01*
X15816718Y-9818756D02*
X15821480Y-9816375D01*
X15821480Y-9816375D02*
X15833385Y-9816375D01*
X15833385Y-9816375D02*
X15838147Y-9818756D01*
X15838147Y-9818756D02*
X15840528Y-9821137D01*
X15840528Y-9821137D02*
X15842909Y-9825898D01*
X15842909Y-9825898D02*
X15842909Y-9837803D01*
X15842909Y-9837803D02*
X15840528Y-9842565D01*
X15840528Y-9842565D02*
X15838147Y-9844946D01*
X12717857Y-10777849D02*
X12715476Y-10780230D01*
X12715476Y-10780230D02*
X12708333Y-10782611D01*
X12708333Y-10782611D02*
X12703571Y-10782611D01*
X12703571Y-10782611D02*
X12696429Y-10780230D01*
X12696429Y-10780230D02*
X12691667Y-10775468D01*
X12691667Y-10775468D02*
X12689286Y-10770706D01*
X12689286Y-10770706D02*
X12686905Y-10761182D01*
X12686905Y-10761182D02*
X12686905Y-10754040D01*
X12686905Y-10754040D02*
X12689286Y-10744516D01*
X12689286Y-10744516D02*
X12691667Y-10739754D01*
X12691667Y-10739754D02*
X12696429Y-10734992D01*
X12696429Y-10734992D02*
X12703571Y-10732611D01*
X12703571Y-10732611D02*
X12708333Y-10732611D01*
X12708333Y-10732611D02*
X12715476Y-10734992D01*
X12715476Y-10734992D02*
X12717857Y-10737373D01*
X12734524Y-10732611D02*
X12765476Y-10732611D01*
X12765476Y-10732611D02*
X12748809Y-10751659D01*
X12748809Y-10751659D02*
X12755952Y-10751659D01*
X12755952Y-10751659D02*
X12760714Y-10754040D01*
X12760714Y-10754040D02*
X12763095Y-10756420D01*
X12763095Y-10756420D02*
X12765476Y-10761182D01*
X12765476Y-10761182D02*
X12765476Y-10773087D01*
X12765476Y-10773087D02*
X12763095Y-10777849D01*
X12763095Y-10777849D02*
X12760714Y-10780230D01*
X12760714Y-10780230D02*
X12755952Y-10782611D01*
X12755952Y-10782611D02*
X12741667Y-10782611D01*
X12741667Y-10782611D02*
X12736905Y-10780230D01*
X12736905Y-10780230D02*
X12734524Y-10777849D01*
X12784524Y-10737373D02*
X12786905Y-10734992D01*
X12786905Y-10734992D02*
X12791667Y-10732611D01*
X12791667Y-10732611D02*
X12803571Y-10732611D01*
X12803571Y-10732611D02*
X12808333Y-10734992D01*
X12808333Y-10734992D02*
X12810714Y-10737373D01*
X12810714Y-10737373D02*
X12813095Y-10742135D01*
X12813095Y-10742135D02*
X12813095Y-10746897D01*
X12813095Y-10746897D02*
X12810714Y-10754040D01*
X12810714Y-10754040D02*
X12782143Y-10782611D01*
X12782143Y-10782611D02*
X12813095Y-10782611D01*
X9001905Y-10402611D02*
X9001905Y-10352611D01*
X9001905Y-10376420D02*
X9030476Y-10376420D01*
X9030476Y-10402611D02*
X9030476Y-10352611D01*
X9080476Y-10402611D02*
X9051905Y-10402611D01*
X9066191Y-10402611D02*
X9066191Y-10352611D01*
X9066191Y-10352611D02*
X9061429Y-10359754D01*
X9061429Y-10359754D02*
X9056667Y-10364516D01*
X9056667Y-10364516D02*
X9051905Y-10366897D01*
X12907857Y-9177849D02*
X12905476Y-9180230D01*
X12905476Y-9180230D02*
X12898333Y-9182611D01*
X12898333Y-9182611D02*
X12893571Y-9182611D01*
X12893571Y-9182611D02*
X12886429Y-9180230D01*
X12886429Y-9180230D02*
X12881667Y-9175468D01*
X12881667Y-9175468D02*
X12879286Y-9170706D01*
X12879286Y-9170706D02*
X12876905Y-9161182D01*
X12876905Y-9161182D02*
X12876905Y-9154040D01*
X12876905Y-9154040D02*
X12879286Y-9144516D01*
X12879286Y-9144516D02*
X12881667Y-9139754D01*
X12881667Y-9139754D02*
X12886429Y-9134992D01*
X12886429Y-9134992D02*
X12893571Y-9132611D01*
X12893571Y-9132611D02*
X12898333Y-9132611D01*
X12898333Y-9132611D02*
X12905476Y-9134992D01*
X12905476Y-9134992D02*
X12907857Y-9137373D01*
X12950714Y-9149278D02*
X12950714Y-9182611D01*
X12938809Y-9130230D02*
X12926905Y-9165944D01*
X12926905Y-9165944D02*
X12957857Y-9165944D01*
X12974524Y-9137373D02*
X12976905Y-9134992D01*
X12976905Y-9134992D02*
X12981667Y-9132611D01*
X12981667Y-9132611D02*
X12993571Y-9132611D01*
X12993571Y-9132611D02*
X12998333Y-9134992D01*
X12998333Y-9134992D02*
X13000714Y-9137373D01*
X13000714Y-9137373D02*
X13003095Y-9142135D01*
X13003095Y-9142135D02*
X13003095Y-9146897D01*
X13003095Y-9146897D02*
X13000714Y-9154040D01*
X13000714Y-9154040D02*
X12972143Y-9182611D01*
X12972143Y-9182611D02*
X13003095Y-9182611D01*
%TO.C,C17*%
D15*
X15665942Y-9509000D02*
X15694058Y-9509000D01*
X15665942Y-9611000D02*
X15694058Y-9611000D01*
%TO.C,C43*%
X13896500Y-9336125D02*
X13896500Y-9283875D01*
X14043500Y-9336125D02*
X14043500Y-9283875D01*
%TO.C,FB5*%
X10798976Y-10424000D02*
X10881024Y-10424000D01*
X10798976Y-10536000D02*
X10881024Y-10536000D01*
%TO.C,C48*%
X14050500Y-10336125D02*
X14050500Y-10283875D01*
X14197500Y-10336125D02*
X14197500Y-10283875D01*
%TO.C,R22*%
X13715472Y-10037750D02*
X13664528Y-10037750D01*
X13715472Y-10142250D02*
X13664528Y-10142250D01*
%TO.C,F4*%
X13822873Y-10191500D02*
X13857127Y-10191500D01*
X13822873Y-10293500D02*
X13857127Y-10293500D01*
%TO.C,R14*%
X13539750Y-10700472D02*
X13539750Y-10649528D01*
X13644250Y-10700472D02*
X13644250Y-10649528D01*
%TO.C,C41*%
X13086500Y-9357625D02*
X13086500Y-9409875D01*
X13233500Y-9357625D02*
X13233500Y-9409875D01*
%TO.C,D9*%
X10894000Y-9502000D02*
X10894000Y-9595000D01*
X10894000Y-9502000D02*
X11040000Y-9502000D01*
X10894000Y-9818000D02*
X10894000Y-9725000D01*
X10894000Y-9818000D02*
X11210000Y-9818000D01*
%TO.C,FB3*%
X15329000Y-9133722D02*
X15329000Y-9166278D01*
X15431000Y-9133722D02*
X15431000Y-9166278D01*
%TO.C,F5*%
X12719000Y-9397127D02*
X12719000Y-9362873D01*
X12821000Y-9397127D02*
X12821000Y-9362873D01*
%TO.C,C47*%
X14036500Y-10716125D02*
X14036500Y-10663875D01*
X14183500Y-10716125D02*
X14183500Y-10663875D01*
%TO.C,R6*%
X16383726Y-9447750D02*
X16336274Y-9447750D01*
X16383726Y-9552250D02*
X16336274Y-9552250D01*
%TO.C,D8*%
D16*
X15272500Y-10200000D02*
X15387500Y-10200000D01*
X15422500Y-10210000D02*
X15497500Y-10210000D01*
X15422500Y-10510000D02*
X15422500Y-10210000D01*
X15497500Y-10210000D02*
X15497500Y-10510000D01*
X15497500Y-10510000D02*
X15422500Y-10510000D01*
%TO.C,C46*%
D15*
X12866500Y-10413875D02*
X12866500Y-10466125D01*
X13013500Y-10413875D02*
X13013500Y-10466125D01*
%TO.C,R3*%
X15313994Y-9908734D02*
X15292266Y-9887006D01*
X15367734Y-9854994D02*
X15346006Y-9833266D01*
%TO.C,C44*%
X9366125Y-9802750D02*
X9313875Y-9802750D01*
X9366125Y-9949750D02*
X9313875Y-9949750D01*
%TO.C,C2*%
X15245942Y-10007000D02*
X15274058Y-10007000D01*
X15245942Y-10109000D02*
X15274058Y-10109000D01*
%TO.C,C40*%
X13289000Y-9465373D02*
X13289000Y-9494627D01*
X13391000Y-9465373D02*
X13391000Y-9494627D01*
%TO.C,R4*%
X14853726Y-10577750D02*
X14806274Y-10577750D01*
X14853726Y-10682250D02*
X14806274Y-10682250D01*
%TO.C,U1*%
X14206402Y-9610000D02*
X14227615Y-9588787D01*
X14227615Y-9631213D02*
X14206402Y-9610000D01*
X14695720Y-10099318D02*
X14716933Y-10120531D01*
X14716933Y-9099469D02*
X14695720Y-9120682D01*
X14716933Y-10120531D02*
X14738146Y-10099318D01*
X14738146Y-9120682D02*
X14716933Y-9099469D01*
X15206251Y-9588787D02*
X15227464Y-9610000D01*
X15227464Y-9610000D02*
X15206251Y-9631213D01*
X14780749Y-10141921D02*
X14771557Y-10199197D01*
X14723473Y-10151114D01*
X14780749Y-10141921D01*
G36*
X14771557Y-10199197D02*
G01*
X14723473Y-10151114D01*
X14780749Y-10141921D01*
X14771557Y-10199197D01*
G37*
%TO.C,J5*%
X10171500Y-8999000D02*
X9738500Y-8999000D01*
X10171500Y-9121000D02*
X9738500Y-9121000D01*
%TO.C,C28*%
X13189000Y-9805373D02*
X13189000Y-9834627D01*
X13291000Y-9805373D02*
X13291000Y-9834627D01*
%TO.C,C51*%
X9366125Y-10006500D02*
X9313875Y-10006500D01*
X9366125Y-10153500D02*
X9313875Y-10153500D01*
%TO.C,R11*%
X15347750Y-9593726D02*
X15347750Y-9546274D01*
X15452250Y-9593726D02*
X15452250Y-9546274D01*
%TO.C,D7*%
D16*
X15272500Y-10575000D02*
X15387500Y-10575000D01*
X15422500Y-10585000D02*
X15497500Y-10585000D01*
X15422500Y-10885000D02*
X15422500Y-10585000D01*
X15497500Y-10585000D02*
X15497500Y-10885000D01*
X15497500Y-10885000D02*
X15422500Y-10885000D01*
%TO.C,D2*%
D15*
X14383000Y-10556500D02*
X14383000Y-10703500D01*
X14383000Y-10703500D02*
X14611500Y-10703500D01*
X14611500Y-10556500D02*
X14383000Y-10556500D01*
%TO.C,R21*%
X11044528Y-9347750D02*
X11095472Y-9347750D01*
X11044528Y-9452250D02*
X11095472Y-9452250D01*
%TO.C,R9*%
X14853726Y-10727750D02*
X14806274Y-10727750D01*
X14853726Y-10832250D02*
X14806274Y-10832250D01*
%TO.C,J3*%
D12*
X15898500Y-10005500D02*
X16241500Y-10005500D01*
X16241500Y-10894500D02*
X15898500Y-10894500D01*
D16*
X16453500Y-10836000D02*
G75*
G02*
X16443500Y-10836000I-5000J0D01*
G01*
X16443500Y-10836000D02*
G75*
G02*
X16453500Y-10836000I5000J0D01*
G01*
%TO.C,U2*%
D15*
X13684000Y-10522500D02*
X13684000Y-10442500D01*
X13684000Y-10522500D02*
X13684000Y-10702500D01*
X13996000Y-10522500D02*
X13996000Y-10442500D01*
X13996000Y-10522500D02*
X13996000Y-10602500D01*
%TO.C,C30*%
X16209000Y-9145373D02*
X16209000Y-9174627D01*
X16311000Y-9145373D02*
X16311000Y-9174627D01*
%TO.C,C45*%
X13346500Y-10676125D02*
X13346500Y-10623875D01*
X13493500Y-10676125D02*
X13493500Y-10623875D01*
%TO.C,D6*%
X14384250Y-10256500D02*
X14384250Y-10403500D01*
X14384250Y-10403500D02*
X14612750Y-10403500D01*
X14612750Y-10256500D02*
X14384250Y-10256500D01*
%TO.C,D4*%
X14384250Y-10406500D02*
X14384250Y-10553500D01*
X14384250Y-10553500D02*
X14612750Y-10553500D01*
X14612750Y-10406500D02*
X14384250Y-10406500D01*
%TO.C,FB7*%
X12598976Y-10184000D02*
X12681024Y-10184000D01*
X12598976Y-10296000D02*
X12681024Y-10296000D01*
%TO.C,J1*%
X10211500Y-10599000D02*
X9778500Y-10599000D01*
X10211500Y-10721000D02*
X9778500Y-10721000D01*
%TO.C,C35*%
X11066500Y-10383875D02*
X11066500Y-10436125D01*
X11213500Y-10383875D02*
X11213500Y-10436125D01*
%TO.C,C38*%
X12686500Y-9806125D02*
X12686500Y-9753875D01*
X12833500Y-9806125D02*
X12833500Y-9753875D01*
%TO.C,C50*%
X9313875Y-9596500D02*
X9366125Y-9596500D01*
X9313875Y-9743500D02*
X9366125Y-9743500D01*
%TO.C,R7*%
X14856226Y-10427750D02*
X14808774Y-10427750D01*
X14856226Y-10532250D02*
X14808774Y-10532250D01*
%TO.C,FB6*%
X10798976Y-10254000D02*
X10881024Y-10254000D01*
X10798976Y-10366000D02*
X10881024Y-10366000D01*
%TO.C,F3*%
X13857127Y-10749000D02*
X13822873Y-10749000D01*
X13857127Y-10851000D02*
X13822873Y-10851000D01*
%TO.C,C33*%
X12466500Y-10546125D02*
X12466500Y-10493875D01*
X12613500Y-10546125D02*
X12613500Y-10493875D01*
%TO.C,U7*%
X11459000Y-9259000D02*
X11459000Y-9282500D01*
X11459000Y-10561000D02*
X11459000Y-10537500D01*
X11845000Y-9259000D02*
X11459000Y-9259000D01*
X11845000Y-9259000D02*
X12231000Y-9259000D01*
X11845000Y-10561000D02*
X11459000Y-10561000D01*
X11845000Y-10561000D02*
X12231000Y-10561000D01*
X12231000Y-9259000D02*
X12231000Y-9282500D01*
X12231000Y-10561000D02*
X12231000Y-10537500D01*
X12316250Y-10537500D02*
X12350250Y-10584500D01*
X12282250Y-10584500D01*
X12316250Y-10537500D01*
G36*
X12350250Y-10584500D02*
G01*
X12282250Y-10584500D01*
X12316250Y-10537500D01*
X12350250Y-10584500D01*
G37*
%TO.C,R25*%
X9557750Y-10024528D02*
X9557750Y-10075472D01*
X9662250Y-10024528D02*
X9662250Y-10075472D01*
%TO.C,C34*%
X11066500Y-9997625D02*
X11066500Y-10049875D01*
X11213500Y-9997625D02*
X11213500Y-10049875D01*
%TO.C,D5*%
X14384000Y-10706500D02*
X14384000Y-10853500D01*
X14384000Y-10853500D02*
X14612500Y-10853500D01*
X14612500Y-10706500D02*
X14384000Y-10706500D01*
%TO.C,J4*%
X10171500Y-9299000D02*
X9738500Y-9299000D01*
X10171500Y-9421000D02*
X9738500Y-9421000D01*
%TO.C,C26*%
X12986500Y-9786125D02*
X12986500Y-9733875D01*
X13133500Y-9786125D02*
X13133500Y-9733875D01*
%TO.C,D16*%
X13376500Y-10124000D02*
X13376500Y-10370000D01*
X13523500Y-10124000D02*
X13376500Y-10124000D01*
X13523500Y-10370000D02*
X13523500Y-10124000D01*
%TO.C,R10*%
X14856476Y-10277750D02*
X14809024Y-10277750D01*
X14856476Y-10382250D02*
X14809024Y-10382250D01*
%TO.C,C3*%
X14293997Y-9113878D02*
X14313878Y-9093997D01*
X14366122Y-9186003D02*
X14386003Y-9166122D01*
%TO.C,L4*%
X13429000Y-9620000D02*
X13429000Y-9220000D01*
X13851000Y-9220000D02*
X13851000Y-9620000D01*
%TO.C,R26*%
X9557750Y-9689528D02*
X9557750Y-9740472D01*
X9662250Y-9689528D02*
X9662250Y-9740472D01*
%TO.C,IC4*%
X13535000Y-9991000D02*
X13715000Y-9991000D01*
X13715000Y-9669000D02*
X13420000Y-9669000D01*
%TO.C,Y1*%
D12*
X15525000Y-9210000D02*
X15525000Y-9210000D01*
X15535000Y-9210000D02*
X15535000Y-9210000D01*
D16*
X15745000Y-9005000D02*
X15785000Y-9005000D01*
X15745000Y-9255000D02*
X15785000Y-9255000D01*
D12*
X15525000Y-9210000D02*
G75*
G02*
X15535000Y-9210000I5000J0D01*
G01*
X15535000Y-9210000D02*
G75*
G02*
X15525000Y-9210000I-5000J0D01*
G01*
%TO.C,C39*%
D15*
X12529000Y-9814627D02*
X12529000Y-9785373D01*
X12631000Y-9814627D02*
X12631000Y-9785373D01*
%TO.C,J2*%
X10211500Y-10339000D02*
X9778500Y-10339000D01*
X10211500Y-10461000D02*
X9778500Y-10461000D01*
%TO.C,IC1*%
D16*
X13010000Y-10020000D02*
X13110000Y-10020000D01*
X13010000Y-10220000D02*
X13010000Y-10020000D01*
X13110000Y-10020000D02*
X13110000Y-10220000D01*
X13110000Y-10220000D02*
X13010000Y-10220000D01*
X13192500Y-10232500D02*
X13145000Y-10232500D01*
%TO.C,C36*%
D15*
X10509000Y-10375373D02*
X10509000Y-10404627D01*
X10611000Y-10375373D02*
X10611000Y-10404627D01*
%TO.C,C11*%
X15489000Y-9865942D02*
X15489000Y-9894058D01*
X15591000Y-9865942D02*
X15591000Y-9894058D01*
%TO.C,FL2*%
D16*
X9680000Y-9720000D02*
X9680000Y-9720000D01*
X9680000Y-9740000D02*
X9680000Y-9740000D01*
D12*
X9835000Y-9580000D02*
X10565000Y-9580000D01*
X9835000Y-10120000D02*
X10565000Y-10120000D01*
D16*
X9680000Y-9720000D02*
G75*
G02*
X9680000Y-9740000I0J-10000D01*
G01*
X9680000Y-9740000D02*
G75*
G02*
X9680000Y-9720000I0J10000D01*
G01*
%TO.C,F6*%
D15*
X13192873Y-10329000D02*
X13227127Y-10329000D01*
X13192873Y-10431000D02*
X13227127Y-10431000D01*
%TO.C,R23*%
X13887750Y-10025472D02*
X13887750Y-9974528D01*
X13992250Y-10025472D02*
X13992250Y-9974528D01*
%TO.C,D1*%
X13100000Y-10464000D02*
X13100000Y-10865000D01*
X13300000Y-10464000D02*
X13100000Y-10464000D01*
X13300000Y-10464000D02*
X13300000Y-10865000D01*
%TO.C,FB8*%
X12598976Y-10004000D02*
X12681024Y-10004000D01*
X12598976Y-10116000D02*
X12681024Y-10116000D01*
%TO.C,C37*%
X10909000Y-10020877D02*
X10909000Y-9991623D01*
X11011000Y-10020877D02*
X11011000Y-9991623D01*
%TO.C,C31*%
X13249000Y-10164058D02*
X13249000Y-10135942D01*
X13351000Y-10164058D02*
X13351000Y-10135942D01*
%TO.C,C29*%
X16405373Y-9789000D02*
X16434627Y-9789000D01*
X16405373Y-9891000D02*
X16434627Y-9891000D01*
%TO.C,D13*%
X13522500Y-10174000D02*
X13522500Y-10420000D01*
X13669500Y-10174000D02*
X13522500Y-10174000D01*
X13669500Y-10420000D02*
X13669500Y-10174000D01*
%TO.C,C1*%
X15042000Y-10266942D02*
X15042000Y-10295058D01*
X15144000Y-10266942D02*
X15144000Y-10295058D01*
D17*
%TO.C,G\u002A\u002A\u002A*%
G36*
X16574234Y-9911443D02*
G01*
X16573829Y-9911848D01*
X16573425Y-9911443D01*
X16573829Y-9911039D01*
X16574234Y-9911443D01*
G37*
G36*
X16583944Y-9863702D02*
G01*
X16583539Y-9864106D01*
X16583135Y-9863702D01*
X16583539Y-9863297D01*
X16583944Y-9863702D01*
G37*
G36*
X16624403Y-9940573D02*
G01*
X16623998Y-9940978D01*
X16623593Y-9940573D01*
X16623998Y-9940169D01*
X16624403Y-9940573D01*
G37*
G36*
X16628448Y-9947047D02*
G01*
X16628044Y-9947451D01*
X16627639Y-9947047D01*
X16628044Y-9946642D01*
X16628448Y-9947047D01*
G37*
G36*
X16642204Y-9937337D02*
G01*
X16641800Y-9937741D01*
X16641395Y-9937337D01*
X16641800Y-9936932D01*
X16642204Y-9937337D01*
G37*
G36*
X16656770Y-9793304D02*
G01*
X16656365Y-9793708D01*
X16655960Y-9793304D01*
X16656365Y-9792899D01*
X16656770Y-9793304D01*
G37*
G36*
X16661625Y-9951093D02*
G01*
X16661220Y-9951497D01*
X16660815Y-9951093D01*
X16661220Y-9950688D01*
X16661625Y-9951093D01*
G37*
G36*
X16669716Y-9875839D02*
G01*
X16669312Y-9876244D01*
X16668907Y-9875839D01*
X16669312Y-9875435D01*
X16669716Y-9875839D01*
G37*
G36*
X16679426Y-10000452D02*
G01*
X16679022Y-10000857D01*
X16678617Y-10000452D01*
X16679022Y-10000048D01*
X16679426Y-10000452D01*
G37*
G36*
X16681854Y-9861274D02*
G01*
X16681449Y-9861679D01*
X16681045Y-9861274D01*
X16681449Y-9860870D01*
X16681854Y-9861274D01*
G37*
G36*
X16681854Y-9927627D02*
G01*
X16681449Y-9928031D01*
X16681045Y-9927627D01*
X16681449Y-9927222D01*
X16681854Y-9927627D01*
G37*
G36*
X16685091Y-9792494D02*
G01*
X16684686Y-9792899D01*
X16684281Y-9792494D01*
X16684686Y-9792090D01*
X16685091Y-9792494D01*
G37*
G36*
X16685091Y-9975368D02*
G01*
X16684686Y-9975773D01*
X16684281Y-9975368D01*
X16684686Y-9974963D01*
X16685091Y-9975368D01*
G37*
G36*
X16687518Y-9792494D02*
G01*
X16687114Y-9792899D01*
X16686709Y-9792494D01*
X16687114Y-9792090D01*
X16687518Y-9792494D01*
G37*
G36*
X16689137Y-9932482D02*
G01*
X16688732Y-9932886D01*
X16688327Y-9932482D01*
X16688732Y-9932077D01*
X16689137Y-9932482D01*
G37*
G36*
X16697228Y-10002880D02*
G01*
X16696824Y-10003285D01*
X16696419Y-10002880D01*
X16696824Y-10002475D01*
X16697228Y-10002880D01*
G37*
G36*
X16698037Y-9883122D02*
G01*
X16697633Y-9883527D01*
X16697228Y-9883122D01*
X16697633Y-9882717D01*
X16698037Y-9883122D01*
G37*
G36*
X16706938Y-10012590D02*
G01*
X16706534Y-10012995D01*
X16706129Y-10012590D01*
X16706534Y-10012185D01*
X16706938Y-10012590D01*
G37*
G36*
X16707748Y-10008544D02*
G01*
X16707343Y-10008949D01*
X16706938Y-10008544D01*
X16707343Y-10008140D01*
X16707748Y-10008544D01*
G37*
G36*
X16710984Y-9965658D02*
G01*
X16710580Y-9966062D01*
X16710175Y-9965658D01*
X16710580Y-9965253D01*
X16710984Y-9965658D01*
G37*
G36*
X16714221Y-9968085D02*
G01*
X16713816Y-9968490D01*
X16713412Y-9968085D01*
X16713816Y-9967681D01*
X16714221Y-9968085D01*
G37*
G36*
X16720694Y-9988315D02*
G01*
X16720290Y-9988719D01*
X16719885Y-9988315D01*
X16720290Y-9987910D01*
X16720694Y-9988315D01*
G37*
G36*
X16723122Y-9805441D02*
G01*
X16722717Y-9805846D01*
X16722313Y-9805441D01*
X16722717Y-9805037D01*
X16723122Y-9805441D01*
G37*
G36*
X16724740Y-9986696D02*
G01*
X16724336Y-9987101D01*
X16723931Y-9986696D01*
X16724336Y-9986292D01*
X16724740Y-9986696D01*
G37*
G36*
X16731214Y-10015018D02*
G01*
X16730809Y-10015422D01*
X16730404Y-10015018D01*
X16730809Y-10014613D01*
X16731214Y-10015018D01*
G37*
G36*
X16740924Y-9998025D02*
G01*
X16740519Y-9998429D01*
X16740115Y-9998025D01*
X16740519Y-9997620D01*
X16740924Y-9998025D01*
G37*
G36*
X16745779Y-10013399D02*
G01*
X16745374Y-10013804D01*
X16744970Y-10013399D01*
X16745374Y-10012995D01*
X16745779Y-10013399D01*
G37*
G36*
X16757107Y-9908206D02*
G01*
X16756703Y-9908611D01*
X16756298Y-9908206D01*
X16756703Y-9907802D01*
X16757107Y-9908206D01*
G37*
G36*
X16759535Y-9992361D02*
G01*
X16759130Y-9992765D01*
X16758726Y-9992361D01*
X16759130Y-9991956D01*
X16759535Y-9992361D01*
G37*
G36*
X16766008Y-9991551D02*
G01*
X16765604Y-9991956D01*
X16765199Y-9991551D01*
X16765604Y-9991147D01*
X16766008Y-9991551D01*
G37*
G36*
X16770863Y-9881504D02*
G01*
X16770459Y-9881908D01*
X16770054Y-9881504D01*
X16770459Y-9881099D01*
X16770863Y-9881504D01*
G37*
G36*
X16791902Y-9899306D02*
G01*
X16791497Y-9899710D01*
X16791093Y-9899306D01*
X16791497Y-9898901D01*
X16791902Y-9899306D01*
G37*
G36*
X16795139Y-9797350D02*
G01*
X16794734Y-9797754D01*
X16794329Y-9797350D01*
X16794734Y-9796945D01*
X16795139Y-9797350D01*
G37*
G36*
X16799994Y-9935718D02*
G01*
X16799589Y-9936123D01*
X16799184Y-9935718D01*
X16799589Y-9935314D01*
X16799994Y-9935718D01*
G37*
G36*
X16800803Y-9955948D02*
G01*
X16800398Y-9956352D01*
X16799994Y-9955948D01*
X16800398Y-9955543D01*
X16800803Y-9955948D01*
G37*
G36*
X16805658Y-9821625D02*
G01*
X16805253Y-9822029D01*
X16804849Y-9821625D01*
X16805253Y-9821220D01*
X16805658Y-9821625D01*
G37*
G36*
X16812131Y-9881504D02*
G01*
X16811727Y-9881908D01*
X16811322Y-9881504D01*
X16811727Y-9881099D01*
X16812131Y-9881504D01*
G37*
G36*
X16826696Y-9955948D02*
G01*
X16826292Y-9956352D01*
X16825887Y-9955948D01*
X16826292Y-9955543D01*
X16826696Y-9955948D01*
G37*
G36*
X16861491Y-9790876D02*
G01*
X16861086Y-9791281D01*
X16860682Y-9790876D01*
X16861086Y-9790472D01*
X16861491Y-9790876D01*
G37*
G36*
X16877674Y-9873412D02*
G01*
X16877270Y-9873817D01*
X16876865Y-9873412D01*
X16877270Y-9873007D01*
X16877674Y-9873412D01*
G37*
G36*
X16724471Y-10010837D02*
G01*
X16724567Y-10011797D01*
X16724471Y-10011916D01*
X16723989Y-10011805D01*
X16723931Y-10011376D01*
X16724227Y-10010710D01*
X16724471Y-10010837D01*
G37*
G36*
X16857175Y-9893506D02*
G01*
X16857272Y-9894467D01*
X16857175Y-9894585D01*
X16856694Y-9894474D01*
X16856636Y-9894046D01*
X16856932Y-9893380D01*
X16857175Y-9893506D01*
G37*
G36*
X16888017Y-9911882D02*
G01*
X16892421Y-9911931D01*
X16896162Y-9912015D01*
X16898955Y-9912137D01*
X16900515Y-9912296D01*
X16900670Y-9912339D01*
X16901523Y-9913241D01*
X16901907Y-9915285D01*
X16901950Y-9916789D01*
X16901950Y-9920749D01*
X16882732Y-9920736D01*
X16877264Y-9920702D01*
X16872300Y-9920612D01*
X16868081Y-9920477D01*
X16864847Y-9920304D01*
X16862840Y-9920102D01*
X16862317Y-9919967D01*
X16861595Y-9918701D01*
X16861363Y-9916606D01*
X16861597Y-9914389D01*
X16862271Y-9912755D01*
X16862581Y-9912467D01*
X16863642Y-9912291D01*
X16866035Y-9912144D01*
X16869476Y-9912027D01*
X16873680Y-9911942D01*
X16878361Y-9911888D01*
X16883235Y-9911868D01*
X16888017Y-9911882D01*
G37*
G36*
X16719076Y-9987983D02*
G01*
X16718760Y-9989086D01*
X16718267Y-9989124D01*
X16717630Y-9989372D01*
X16717458Y-9990290D01*
X16717952Y-9991645D01*
X16718671Y-9991956D01*
X16719748Y-9992393D01*
X16719885Y-9992765D01*
X16719244Y-9993409D01*
X16717806Y-9993548D01*
X16716301Y-9993215D01*
X16715502Y-9992563D01*
X16714971Y-9991968D01*
X16714558Y-9992563D01*
X16713604Y-9993333D01*
X16712212Y-9993554D01*
X16711151Y-9993183D01*
X16710984Y-9992765D01*
X16711547Y-9991979D01*
X16711722Y-9991956D01*
X16712243Y-9991353D01*
X16712140Y-9990078D01*
X16711547Y-9989013D01*
X16711001Y-9987877D01*
X16711921Y-9987212D01*
X16713055Y-9987101D01*
X16714498Y-9987351D01*
X16714518Y-9988112D01*
X16714300Y-9988716D01*
X16715077Y-9988238D01*
X16717230Y-9986950D01*
X16718609Y-9986882D01*
X16719076Y-9987983D01*
G37*
G36*
X16574592Y-9899177D02*
G01*
X16575020Y-9899226D01*
X16578439Y-9899627D01*
X16582153Y-9900055D01*
X16583337Y-9900189D01*
X16585887Y-9900592D01*
X16587777Y-9901101D01*
X16588354Y-9901403D01*
X16589587Y-9901859D01*
X16591750Y-9902116D01*
X16592602Y-9902138D01*
X16594805Y-9902326D01*
X16595989Y-9902816D01*
X16596081Y-9903033D01*
X16596672Y-9903568D01*
X16597326Y-9903452D01*
X16598633Y-9903625D01*
X16599029Y-9904170D01*
X16599791Y-9904981D01*
X16600212Y-9904917D01*
X16600619Y-9905378D01*
X16600882Y-9907042D01*
X16600936Y-9908563D01*
X16600797Y-9910887D01*
X16600440Y-9912370D01*
X16600153Y-9912657D01*
X16599707Y-9913250D01*
X16599835Y-9913871D01*
X16600035Y-9914921D01*
X16599896Y-9915084D01*
X16599297Y-9914449D01*
X16599026Y-9913871D01*
X16598263Y-9913153D01*
X16596478Y-9912770D01*
X16593410Y-9912657D01*
X16590653Y-9912576D01*
X16588579Y-9912364D01*
X16587705Y-9912102D01*
X16586038Y-9911152D01*
X16583314Y-9910298D01*
X16580094Y-9909679D01*
X16576938Y-9909433D01*
X16576911Y-9909432D01*
X16574435Y-9909279D01*
X16572681Y-9908900D01*
X16572203Y-9908598D01*
X16571233Y-9908131D01*
X16570941Y-9908241D01*
X16570257Y-9908064D01*
X16570175Y-9907647D01*
X16569952Y-9907117D01*
X16569379Y-9907802D01*
X16568903Y-9908068D01*
X16568648Y-9906942D01*
X16568582Y-9904867D01*
X16568812Y-9901718D01*
X16569708Y-9899879D01*
X16571544Y-9899113D01*
X16574592Y-9899177D01*
G37*
G36*
X16580035Y-9863642D02*
G01*
X16581345Y-9864012D01*
X16581516Y-9864203D01*
X16582181Y-9864902D01*
X16583130Y-9865319D01*
X16585057Y-9866303D01*
X16585873Y-9866960D01*
X16587414Y-9867777D01*
X16589669Y-9868265D01*
X16589923Y-9868286D01*
X16591832Y-9868537D01*
X16592811Y-9868904D01*
X16592845Y-9868983D01*
X16593514Y-9869556D01*
X16595182Y-9870476D01*
X16597340Y-9871507D01*
X16599476Y-9872410D01*
X16601081Y-9872948D01*
X16601476Y-9873007D01*
X16602647Y-9873494D01*
X16604049Y-9874518D01*
X16605252Y-9876095D01*
X16605748Y-9878401D01*
X16605792Y-9879778D01*
X16605792Y-9883527D01*
X16600936Y-9883527D01*
X16598350Y-9883404D01*
X16596597Y-9883083D01*
X16596081Y-9882717D01*
X16595404Y-9882060D01*
X16594463Y-9881908D01*
X16593149Y-9881534D01*
X16592845Y-9881013D01*
X16592266Y-9880446D01*
X16591747Y-9880538D01*
X16590369Y-9880417D01*
X16588506Y-9879552D01*
X16588358Y-9879457D01*
X16586633Y-9878548D01*
X16585475Y-9878331D01*
X16585410Y-9878361D01*
X16584790Y-9878169D01*
X16584753Y-9877910D01*
X16584094Y-9877160D01*
X16583481Y-9877053D01*
X16581901Y-9876516D01*
X16580956Y-9875800D01*
X16579232Y-9874705D01*
X16577373Y-9874080D01*
X16575715Y-9873565D01*
X16575043Y-9873001D01*
X16574371Y-9872328D01*
X16573425Y-9871964D01*
X16572285Y-9871244D01*
X16571839Y-9869595D01*
X16571806Y-9868575D01*
X16572221Y-9865738D01*
X16573590Y-9864070D01*
X16576102Y-9863411D01*
X16577855Y-9863410D01*
X16580035Y-9863642D01*
G37*
G36*
X16895656Y-9870204D02*
G01*
X16895815Y-9870262D01*
X16896612Y-9871259D01*
X16897067Y-9873139D01*
X16897172Y-9875348D01*
X16896921Y-9877331D01*
X16896306Y-9878533D01*
X16895927Y-9878672D01*
X16894495Y-9879058D01*
X16892471Y-9880008D01*
X16892084Y-9880227D01*
X16889877Y-9881335D01*
X16887983Y-9882009D01*
X16887789Y-9882047D01*
X16885879Y-9882770D01*
X16885094Y-9883332D01*
X16883837Y-9883978D01*
X16883273Y-9883891D01*
X16882631Y-9884108D01*
X16882529Y-9884667D01*
X16882003Y-9885530D01*
X16881344Y-9885449D01*
X16880070Y-9885623D01*
X16878159Y-9886498D01*
X16876213Y-9887725D01*
X16874829Y-9888959D01*
X16874573Y-9889364D01*
X16873647Y-9889895D01*
X16872752Y-9890000D01*
X16871448Y-9890604D01*
X16871201Y-9891618D01*
X16870629Y-9892971D01*
X16869583Y-9893237D01*
X16868268Y-9893607D01*
X16867964Y-9894121D01*
X16867197Y-9894635D01*
X16864991Y-9894786D01*
X16863513Y-9894728D01*
X16860975Y-9894709D01*
X16859220Y-9894959D01*
X16858721Y-9895260D01*
X16858526Y-9894997D01*
X16858376Y-9893475D01*
X16858318Y-9891748D01*
X16858415Y-9888973D01*
X16858920Y-9887234D01*
X16860004Y-9885968D01*
X16860075Y-9885909D01*
X16861747Y-9884790D01*
X16862965Y-9884363D01*
X16864441Y-9883819D01*
X16865091Y-9883324D01*
X16866582Y-9882091D01*
X16867964Y-9881099D01*
X16869779Y-9879770D01*
X16870867Y-9878844D01*
X16872110Y-9877976D01*
X16873927Y-9877024D01*
X16875801Y-9876215D01*
X16877217Y-9875775D01*
X16877674Y-9875861D01*
X16878153Y-9875783D01*
X16878803Y-9875265D01*
X16879578Y-9874125D01*
X16879565Y-9873614D01*
X16880041Y-9873240D01*
X16881674Y-9873027D01*
X16882482Y-9873007D01*
X16884526Y-9872859D01*
X16885675Y-9872487D01*
X16885766Y-9872328D01*
X16886492Y-9871318D01*
X16888338Y-9870499D01*
X16890811Y-9869972D01*
X16893415Y-9869840D01*
X16895656Y-9870204D01*
G37*
G36*
X16640129Y-9777387D02*
G01*
X16642941Y-9777555D01*
X16645106Y-9777849D01*
X16646196Y-9778263D01*
X16646250Y-9778391D01*
X16646939Y-9778969D01*
X16648152Y-9779143D01*
X16650657Y-9779482D01*
X16653926Y-9780377D01*
X16657174Y-9781596D01*
X16658731Y-9782190D01*
X16661290Y-9783087D01*
X16664310Y-9784097D01*
X16664457Y-9784145D01*
X16667262Y-9785097D01*
X16669412Y-9785895D01*
X16670488Y-9786383D01*
X16670526Y-9786413D01*
X16671687Y-9787124D01*
X16674108Y-9788253D01*
X16677239Y-9789562D01*
X16679468Y-9790237D01*
X16681159Y-9790472D01*
X16682740Y-9791173D01*
X16683238Y-9792090D01*
X16684314Y-9793443D01*
X16685697Y-9793708D01*
X16687751Y-9794303D01*
X16689220Y-9795422D01*
X16690681Y-9796532D01*
X16691877Y-9796687D01*
X16693134Y-9796897D01*
X16693495Y-9797401D01*
X16694499Y-9798115D01*
X16696427Y-9798507D01*
X16698650Y-9798560D01*
X16700539Y-9798257D01*
X16701457Y-9797609D01*
X16702477Y-9797027D01*
X16704935Y-9796815D01*
X16706380Y-9796842D01*
X16709237Y-9796810D01*
X16710769Y-9796451D01*
X16710984Y-9796141D01*
X16711582Y-9795803D01*
X16713440Y-9795599D01*
X16716657Y-9795526D01*
X16721330Y-9795582D01*
X16724943Y-9795677D01*
X16734143Y-9795977D01*
X16741770Y-9796272D01*
X16747870Y-9796566D01*
X16752487Y-9796861D01*
X16755668Y-9797160D01*
X16757456Y-9797466D01*
X16757916Y-9797728D01*
X16758645Y-9798187D01*
X16760517Y-9798631D01*
X16762165Y-9798857D01*
X16767389Y-9799459D01*
X16771113Y-9800025D01*
X16773451Y-9800577D01*
X16774464Y-9801074D01*
X16775755Y-9801582D01*
X16777803Y-9801800D01*
X16777855Y-9801800D01*
X16779813Y-9802027D01*
X16780956Y-9802577D01*
X16780978Y-9802609D01*
X16782085Y-9803219D01*
X16783598Y-9803418D01*
X16785551Y-9803176D01*
X16788012Y-9802577D01*
X16790314Y-9801818D01*
X16791790Y-9801092D01*
X16791902Y-9800995D01*
X16793403Y-9799954D01*
X16795432Y-9799006D01*
X16797091Y-9798565D01*
X16797151Y-9798563D01*
X16798240Y-9798236D01*
X16798382Y-9797956D01*
X16799055Y-9797215D01*
X16800632Y-9796322D01*
X16802467Y-9795589D01*
X16803796Y-9795327D01*
X16804765Y-9794804D01*
X16804849Y-9794470D01*
X16805344Y-9793986D01*
X16805658Y-9794113D01*
X16806407Y-9794129D01*
X16806467Y-9793896D01*
X16807158Y-9793498D01*
X16808826Y-9793526D01*
X16808895Y-9793536D01*
X16810689Y-9793538D01*
X16811322Y-9792991D01*
X16811980Y-9792202D01*
X16812594Y-9792090D01*
X16814197Y-9791552D01*
X16815045Y-9790910D01*
X16816490Y-9790126D01*
X16817332Y-9790156D01*
X16818631Y-9790051D01*
X16818975Y-9789718D01*
X16820075Y-9789135D01*
X16822054Y-9788857D01*
X16822319Y-9788853D01*
X16824308Y-9788585D01*
X16825469Y-9787928D01*
X16825525Y-9787822D01*
X16826640Y-9787133D01*
X16829165Y-9787047D01*
X16829343Y-9787061D01*
X16831370Y-9787140D01*
X16831976Y-9786905D01*
X16831551Y-9786457D01*
X16831491Y-9786091D01*
X16832629Y-9785878D01*
X16835092Y-9785809D01*
X16839005Y-9785877D01*
X16840452Y-9785922D01*
X16845856Y-9786130D01*
X16849880Y-9786369D01*
X16852759Y-9786680D01*
X16854732Y-9787103D01*
X16856036Y-9787679D01*
X16856908Y-9788448D01*
X16857169Y-9788791D01*
X16858312Y-9789907D01*
X16859119Y-9790033D01*
X16859765Y-9790248D01*
X16859873Y-9790828D01*
X16860487Y-9791932D01*
X16861061Y-9792090D01*
X16861870Y-9792605D01*
X16861733Y-9793436D01*
X16861619Y-9794350D01*
X16862163Y-9794198D01*
X16862974Y-9794257D01*
X16863109Y-9794874D01*
X16863532Y-9795981D01*
X16863918Y-9796136D01*
X16864527Y-9796828D01*
X16864728Y-9798159D01*
X16865005Y-9799679D01*
X16865537Y-9800182D01*
X16866047Y-9800899D01*
X16866327Y-9802687D01*
X16866346Y-9803371D01*
X16866534Y-9805525D01*
X16867001Y-9806906D01*
X16867155Y-9807060D01*
X16867536Y-9808052D01*
X16867821Y-9810236D01*
X16867959Y-9813183D01*
X16867964Y-9813938D01*
X16867868Y-9817002D01*
X16867614Y-9819403D01*
X16867250Y-9820712D01*
X16867155Y-9820816D01*
X16866737Y-9821827D01*
X16866445Y-9823972D01*
X16866346Y-9826528D01*
X16866231Y-9829257D01*
X16865926Y-9831124D01*
X16865537Y-9831739D01*
X16865075Y-9832467D01*
X16864782Y-9834328D01*
X16864728Y-9835785D01*
X16864582Y-9838093D01*
X16864210Y-9839558D01*
X16863918Y-9839831D01*
X16863346Y-9840533D01*
X16863109Y-9842211D01*
X16862860Y-9844080D01*
X16862300Y-9845091D01*
X16861668Y-9846209D01*
X16861491Y-9847518D01*
X16861185Y-9849213D01*
X16860682Y-9849946D01*
X16860120Y-9851029D01*
X16859873Y-9852962D01*
X16859873Y-9853052D01*
X16859277Y-9855648D01*
X16858254Y-9856824D01*
X16857000Y-9858125D01*
X16856636Y-9859062D01*
X16856103Y-9860317D01*
X16854801Y-9861964D01*
X16854608Y-9862162D01*
X16853138Y-9863370D01*
X16851487Y-9863936D01*
X16849030Y-9864038D01*
X16848135Y-9864009D01*
X16843689Y-9863830D01*
X16843689Y-9860731D01*
X16843876Y-9858756D01*
X16844341Y-9857692D01*
X16844498Y-9857633D01*
X16845107Y-9856941D01*
X16845307Y-9855610D01*
X16845584Y-9854089D01*
X16846117Y-9853587D01*
X16846834Y-9852932D01*
X16846926Y-9852373D01*
X16847346Y-9851296D01*
X16847703Y-9851160D01*
X16848978Y-9850521D01*
X16850406Y-9849014D01*
X16851492Y-9847250D01*
X16851781Y-9846152D01*
X16852151Y-9844922D01*
X16852590Y-9844686D01*
X16853162Y-9843984D01*
X16853399Y-9842306D01*
X16853649Y-9840438D01*
X16854208Y-9839427D01*
X16854840Y-9838308D01*
X16855017Y-9836999D01*
X16855323Y-9835305D01*
X16855827Y-9834572D01*
X16856277Y-9833544D01*
X16856571Y-9831437D01*
X16856636Y-9829669D01*
X16856786Y-9827045D01*
X16857192Y-9825519D01*
X16857514Y-9825266D01*
X16858007Y-9824488D01*
X16858181Y-9822221D01*
X16858121Y-9820072D01*
X16858082Y-9817442D01*
X16858245Y-9815620D01*
X16858558Y-9815014D01*
X16859437Y-9814521D01*
X16859637Y-9814140D01*
X16859473Y-9813228D01*
X16859131Y-9813128D01*
X16858582Y-9812409D01*
X16858277Y-9810599D01*
X16858254Y-9809844D01*
X16858084Y-9807793D01*
X16857622Y-9807011D01*
X16857445Y-9807060D01*
X16856830Y-9806789D01*
X16856636Y-9805684D01*
X16855992Y-9803787D01*
X16855017Y-9802797D01*
X16853743Y-9801542D01*
X16853399Y-9800598D01*
X16852710Y-9799244D01*
X16851010Y-9797876D01*
X16848854Y-9796897D01*
X16848112Y-9796725D01*
X16846116Y-9796118D01*
X16844754Y-9795489D01*
X16842424Y-9794734D01*
X16839721Y-9794565D01*
X16837347Y-9794971D01*
X16836255Y-9795594D01*
X16834853Y-9796343D01*
X16834139Y-9796324D01*
X16832805Y-9796320D01*
X16830749Y-9796720D01*
X16828535Y-9797358D01*
X16826729Y-9798069D01*
X16825895Y-9798689D01*
X16825887Y-9798740D01*
X16825176Y-9799161D01*
X16823432Y-9799368D01*
X16823103Y-9799372D01*
X16821087Y-9799587D01*
X16819873Y-9800110D01*
X16819818Y-9800182D01*
X16818677Y-9800861D01*
X16817748Y-9800991D01*
X16816459Y-9801339D01*
X16816177Y-9801800D01*
X16815474Y-9802368D01*
X16813780Y-9802609D01*
X16813750Y-9802609D01*
X16812045Y-9802844D01*
X16811322Y-9803408D01*
X16811322Y-9803418D01*
X16810635Y-9804045D01*
X16809460Y-9804228D01*
X16807551Y-9804521D01*
X16805479Y-9805235D01*
X16803843Y-9806114D01*
X16803237Y-9806857D01*
X16802558Y-9807365D01*
X16801749Y-9807464D01*
X16800307Y-9808119D01*
X16799192Y-9809474D01*
X16797879Y-9811141D01*
X16796627Y-9811956D01*
X16795391Y-9812626D01*
X16795139Y-9813053D01*
X16794421Y-9813926D01*
X16792621Y-9814760D01*
X16790265Y-9815365D01*
X16788222Y-9815556D01*
X16786366Y-9815350D01*
X16785449Y-9814845D01*
X16785428Y-9814747D01*
X16784753Y-9814083D01*
X16783858Y-9813938D01*
X16782309Y-9813566D01*
X16781787Y-9813128D01*
X16780711Y-9812581D01*
X16778750Y-9812322D01*
X16778503Y-9812319D01*
X16776650Y-9812091D01*
X16775738Y-9811532D01*
X16775718Y-9811425D01*
X16774981Y-9810878D01*
X16772942Y-9810802D01*
X16772482Y-9810840D01*
X16770187Y-9810859D01*
X16769275Y-9810315D01*
X16769245Y-9810115D01*
X16768470Y-9809384D01*
X16766171Y-9809089D01*
X16765651Y-9809083D01*
X16763364Y-9808915D01*
X16761829Y-9808493D01*
X16761558Y-9808273D01*
X16760416Y-9807594D01*
X16759487Y-9807464D01*
X16758498Y-9807722D01*
X16758033Y-9808767D01*
X16757916Y-9811008D01*
X16757916Y-9811058D01*
X16758084Y-9813345D01*
X16758506Y-9814880D01*
X16758726Y-9815151D01*
X16759240Y-9816211D01*
X16759518Y-9818228D01*
X16759535Y-9818888D01*
X16759708Y-9820915D01*
X16760174Y-9821674D01*
X16760344Y-9821625D01*
X16760775Y-9822100D01*
X16761050Y-9824067D01*
X16761153Y-9827407D01*
X16761153Y-9827646D01*
X16761059Y-9830869D01*
X16760802Y-9833136D01*
X16760420Y-9834143D01*
X16760344Y-9834167D01*
X16759683Y-9834843D01*
X16759535Y-9835757D01*
X16758805Y-9837460D01*
X16756889Y-9838636D01*
X16754490Y-9839022D01*
X16752004Y-9838627D01*
X16749812Y-9837630D01*
X16748435Y-9836318D01*
X16748213Y-9835583D01*
X16747863Y-9834381D01*
X16747479Y-9834167D01*
X16747147Y-9834008D01*
X16746854Y-9833372D01*
X16746553Y-9832020D01*
X16746200Y-9829717D01*
X16745752Y-9826222D01*
X16745321Y-9822636D01*
X16744913Y-9820140D01*
X16744425Y-9818451D01*
X16744060Y-9817983D01*
X16743637Y-9817264D01*
X16743412Y-9815442D01*
X16743378Y-9813019D01*
X16743528Y-9810497D01*
X16743858Y-9808378D01*
X16744189Y-9807411D01*
X16744544Y-9806506D01*
X16744142Y-9806041D01*
X16742667Y-9805874D01*
X16740750Y-9805858D01*
X16738459Y-9805970D01*
X16737409Y-9806259D01*
X16737518Y-9806533D01*
X16738086Y-9807281D01*
X16738107Y-9808735D01*
X16737624Y-9811174D01*
X16736933Y-9813790D01*
X16736246Y-9815909D01*
X16735973Y-9816556D01*
X16735661Y-9817952D01*
X16735418Y-9820524D01*
X16735279Y-9823830D01*
X16735260Y-9825660D01*
X16735179Y-9829289D01*
X16734954Y-9831897D01*
X16734612Y-9833234D01*
X16734450Y-9833358D01*
X16733703Y-9833999D01*
X16733641Y-9834397D01*
X16733005Y-9835477D01*
X16731452Y-9836726D01*
X16731248Y-9836850D01*
X16729408Y-9837737D01*
X16727831Y-9837734D01*
X16726154Y-9837135D01*
X16723929Y-9835957D01*
X16722385Y-9834407D01*
X16721409Y-9832194D01*
X16720885Y-9829029D01*
X16720701Y-9824621D01*
X16720694Y-9823272D01*
X16720768Y-9819374D01*
X16720974Y-9816536D01*
X16721292Y-9814979D01*
X16721504Y-9814747D01*
X16721986Y-9814024D01*
X16722276Y-9812194D01*
X16722313Y-9811105D01*
X16722473Y-9808934D01*
X16722880Y-9807631D01*
X16723122Y-9807464D01*
X16723779Y-9806786D01*
X16723931Y-9805846D01*
X16723689Y-9804829D01*
X16722689Y-9804352D01*
X16720516Y-9804228D01*
X16720338Y-9804228D01*
X16718051Y-9804395D01*
X16716515Y-9804817D01*
X16716244Y-9805037D01*
X16715183Y-9805554D01*
X16713170Y-9805831D01*
X16712555Y-9805846D01*
X16710546Y-9806028D01*
X16709440Y-9806482D01*
X16709366Y-9806655D01*
X16709982Y-9807441D01*
X16710175Y-9807464D01*
X16710824Y-9808136D01*
X16710963Y-9809798D01*
X16710639Y-9811919D01*
X16709895Y-9813970D01*
X16709569Y-9814537D01*
X16708008Y-9817472D01*
X16706786Y-9820766D01*
X16706170Y-9823668D01*
X16706141Y-9824207D01*
X16705800Y-9825840D01*
X16705320Y-9826480D01*
X16704853Y-9827516D01*
X16704561Y-9829601D01*
X16704511Y-9831026D01*
X16704369Y-9833441D01*
X16703976Y-9834561D01*
X16703702Y-9834572D01*
X16703048Y-9834801D01*
X16702893Y-9835608D01*
X16702175Y-9837052D01*
X16700379Y-9838281D01*
X16698044Y-9838969D01*
X16697228Y-9839022D01*
X16694865Y-9838597D01*
X16692829Y-9837536D01*
X16691665Y-9836165D01*
X16691564Y-9835655D01*
X16691199Y-9834413D01*
X16690755Y-9834167D01*
X16690325Y-9833429D01*
X16690033Y-9831498D01*
X16689946Y-9829264D01*
X16690065Y-9826480D01*
X16690755Y-9826480D01*
X16691159Y-9826884D01*
X16691564Y-9826480D01*
X16691159Y-9826075D01*
X16690755Y-9826480D01*
X16690065Y-9826480D01*
X16690065Y-9826475D01*
X16690402Y-9825008D01*
X16690755Y-9824861D01*
X16691223Y-9824424D01*
X16691505Y-9822538D01*
X16691576Y-9820256D01*
X16691663Y-9817471D01*
X16691919Y-9816201D01*
X16692364Y-9816351D01*
X16692373Y-9816365D01*
X16692943Y-9816940D01*
X16693155Y-9816107D01*
X16693170Y-9815489D01*
X16693377Y-9813702D01*
X16693743Y-9812838D01*
X16694330Y-9811686D01*
X16694552Y-9810296D01*
X16695610Y-9810296D01*
X16696015Y-9810701D01*
X16696419Y-9810296D01*
X16696015Y-9809892D01*
X16695610Y-9810296D01*
X16694552Y-9810296D01*
X16694565Y-9810215D01*
X16694365Y-9809193D01*
X16694148Y-9809083D01*
X16693071Y-9809588D01*
X16692580Y-9810009D01*
X16691033Y-9810461D01*
X16688694Y-9809638D01*
X16685684Y-9807599D01*
X16683041Y-9805292D01*
X16680056Y-9802764D01*
X16677263Y-9800922D01*
X16674963Y-9799934D01*
X16673457Y-9799966D01*
X16673443Y-9799974D01*
X16673071Y-9799910D01*
X16673223Y-9799590D01*
X16672806Y-9798941D01*
X16671309Y-9798042D01*
X16669202Y-9797104D01*
X16666956Y-9796336D01*
X16665064Y-9795951D01*
X16664120Y-9795496D01*
X16664052Y-9795278D01*
X16663410Y-9794519D01*
X16662796Y-9794209D01*
X16661961Y-9794152D01*
X16662035Y-9794527D01*
X16661962Y-9795266D01*
X16661672Y-9795327D01*
X16660871Y-9794688D01*
X16660807Y-9794315D01*
X16660083Y-9793702D01*
X16658156Y-9792785D01*
X16655387Y-9791690D01*
X16655373Y-9791685D01*
X16681854Y-9791685D01*
X16682259Y-9792090D01*
X16682663Y-9791685D01*
X16682259Y-9791281D01*
X16681854Y-9791685D01*
X16655373Y-9791685D01*
X16652133Y-9790539D01*
X16648754Y-9789456D01*
X16645609Y-9788564D01*
X16643057Y-9787987D01*
X16642002Y-9787847D01*
X16640385Y-9787534D01*
X16639777Y-9787058D01*
X16639098Y-9786544D01*
X16638159Y-9786426D01*
X16636844Y-9786765D01*
X16636540Y-9787235D01*
X16635822Y-9787742D01*
X16634029Y-9788023D01*
X16633303Y-9788044D01*
X16631277Y-9788223D01*
X16630149Y-9788672D01*
X16630067Y-9788853D01*
X16629365Y-9789426D01*
X16627685Y-9789662D01*
X16625300Y-9790273D01*
X16624174Y-9791276D01*
X16623135Y-9792309D01*
X16622509Y-9792354D01*
X16622043Y-9792490D01*
X16621975Y-9792990D01*
X16621373Y-9794333D01*
X16620357Y-9795327D01*
X16619092Y-9796801D01*
X16618738Y-9797980D01*
X16618396Y-9798982D01*
X16617929Y-9798968D01*
X16617379Y-9799310D01*
X16617126Y-9800958D01*
X16617120Y-9801348D01*
X16616920Y-9803238D01*
X16616427Y-9804198D01*
X16616311Y-9804228D01*
X16615946Y-9805001D01*
X16615679Y-9807185D01*
X16615528Y-9810571D01*
X16615502Y-9813128D01*
X16615572Y-9817145D01*
X16615770Y-9820084D01*
X16616078Y-9821739D01*
X16616311Y-9822029D01*
X16616687Y-9822799D01*
X16616958Y-9824951D01*
X16617103Y-9828254D01*
X16617120Y-9830121D01*
X16617197Y-9833880D01*
X16617412Y-9836598D01*
X16617742Y-9838041D01*
X16617929Y-9838213D01*
X16618433Y-9838931D01*
X16618716Y-9840729D01*
X16618738Y-9841497D01*
X16618909Y-9843548D01*
X16619370Y-9844330D01*
X16619548Y-9844282D01*
X16620240Y-9844465D01*
X16620357Y-9845043D01*
X16619680Y-9846084D01*
X16618738Y-9846305D01*
X16617423Y-9846643D01*
X16617120Y-9847114D01*
X16616402Y-9847620D01*
X16614609Y-9847902D01*
X16613883Y-9847923D01*
X16611758Y-9847783D01*
X16610821Y-9847228D01*
X16610647Y-9846352D01*
X16610275Y-9844803D01*
X16609837Y-9844282D01*
X16609489Y-9843300D01*
X16609217Y-9841058D01*
X16609057Y-9837912D01*
X16609028Y-9835738D01*
X16608951Y-9831994D01*
X16608735Y-9829290D01*
X16608403Y-9827859D01*
X16608219Y-9827694D01*
X16607913Y-9826902D01*
X16607674Y-9824599D01*
X16607509Y-9820887D01*
X16607422Y-9815871D01*
X16607410Y-9812724D01*
X16607453Y-9807060D01*
X16607577Y-9802645D01*
X16607778Y-9799583D01*
X16608049Y-9797978D01*
X16608219Y-9797754D01*
X16608787Y-9797051D01*
X16609028Y-9795357D01*
X16609028Y-9795327D01*
X16609263Y-9793622D01*
X16609827Y-9792899D01*
X16609837Y-9792899D01*
X16610495Y-9792221D01*
X16610647Y-9791281D01*
X16610985Y-9789966D01*
X16611456Y-9789662D01*
X16612134Y-9788992D01*
X16612265Y-9788190D01*
X16612841Y-9786703D01*
X16614253Y-9784997D01*
X16614490Y-9784783D01*
X16615930Y-9783600D01*
X16616683Y-9783116D01*
X16616715Y-9783137D01*
X16617368Y-9783151D01*
X16618536Y-9782849D01*
X16619947Y-9782122D01*
X16620357Y-9781516D01*
X16621037Y-9780909D01*
X16622023Y-9780761D01*
X16623142Y-9780450D01*
X16623189Y-9779952D01*
X16623571Y-9779437D01*
X16625328Y-9779168D01*
X16626346Y-9779143D01*
X16628773Y-9778932D01*
X16630563Y-9778400D01*
X16630944Y-9778132D01*
X16632076Y-9777719D01*
X16634269Y-9777462D01*
X16637095Y-9777354D01*
X16640129Y-9777387D01*
G37*
G36*
X16665433Y-9858478D02*
G01*
X16667688Y-9858698D01*
X16668934Y-9859073D01*
X16669042Y-9859206D01*
X16669931Y-9859648D01*
X16671950Y-9860002D01*
X16673965Y-9860154D01*
X16676465Y-9860366D01*
X16678154Y-9860726D01*
X16678617Y-9861056D01*
X16679121Y-9861410D01*
X16679426Y-9861274D01*
X16680173Y-9861307D01*
X16680236Y-9861577D01*
X16680905Y-9862433D01*
X16681888Y-9862904D01*
X16683413Y-9863779D01*
X16685457Y-9865436D01*
X16687658Y-9867513D01*
X16689650Y-9869646D01*
X16691072Y-9871472D01*
X16691564Y-9872571D01*
X16691991Y-9873668D01*
X16692373Y-9873817D01*
X16692941Y-9874520D01*
X16693182Y-9876214D01*
X16693182Y-9876244D01*
X16693417Y-9877949D01*
X16693982Y-9878671D01*
X16693992Y-9878672D01*
X16694709Y-9879327D01*
X16694801Y-9879885D01*
X16695238Y-9880962D01*
X16695610Y-9881099D01*
X16696260Y-9881779D01*
X16696419Y-9882775D01*
X16696974Y-9884733D01*
X16697640Y-9885673D01*
X16698400Y-9887010D01*
X16698317Y-9887775D01*
X16698358Y-9888312D01*
X16699161Y-9888124D01*
X16700108Y-9887998D01*
X16700015Y-9888456D01*
X16700187Y-9889499D01*
X16701186Y-9890515D01*
X16702627Y-9892477D01*
X16702905Y-9894294D01*
X16703020Y-9895901D01*
X16703403Y-9896054D01*
X16703702Y-9895664D01*
X16704239Y-9895191D01*
X16704471Y-9896099D01*
X16704498Y-9897080D01*
X16704725Y-9898871D01*
X16705259Y-9899703D01*
X16705320Y-9899710D01*
X16705956Y-9900396D01*
X16706142Y-9901531D01*
X16706269Y-9902713D01*
X16706745Y-9902422D01*
X16706938Y-9902138D01*
X16707274Y-9902338D01*
X16707518Y-9904125D01*
X16707671Y-9907509D01*
X16707734Y-9912498D01*
X16707735Y-9913264D01*
X16707689Y-9918271D01*
X16707544Y-9922083D01*
X16707309Y-9924566D01*
X16706993Y-9925585D01*
X16706938Y-9925604D01*
X16706222Y-9926260D01*
X16706129Y-9926828D01*
X16705569Y-9928908D01*
X16704149Y-9931314D01*
X16702690Y-9932973D01*
X16701576Y-9934403D01*
X16701274Y-9935314D01*
X16700727Y-9936554D01*
X16699463Y-9937881D01*
X16698050Y-9938804D01*
X16697124Y-9938891D01*
X16696460Y-9939051D01*
X16696419Y-9939312D01*
X16695742Y-9940008D01*
X16694801Y-9940169D01*
X16693485Y-9940469D01*
X16693182Y-9940884D01*
X16692676Y-9941568D01*
X16691029Y-9942310D01*
X16688054Y-9943186D01*
X16686304Y-9943627D01*
X16683840Y-9944038D01*
X16680376Y-9944369D01*
X16676263Y-9944614D01*
X16671855Y-9944765D01*
X16667504Y-9944816D01*
X16663561Y-9944762D01*
X16660380Y-9944594D01*
X16658313Y-9944307D01*
X16657864Y-9944151D01*
X16656015Y-9943580D01*
X16654842Y-9943661D01*
X16653974Y-9943666D01*
X16654065Y-9942960D01*
X16653894Y-9942004D01*
X16652810Y-9941787D01*
X16651449Y-9941495D01*
X16651105Y-9941057D01*
X16650425Y-9940314D01*
X16648777Y-9939516D01*
X16648678Y-9939481D01*
X16646995Y-9938655D01*
X16646252Y-9937817D01*
X16646250Y-9937783D01*
X16645573Y-9937092D01*
X16644632Y-9936932D01*
X16643317Y-9936593D01*
X16643014Y-9936123D01*
X16642367Y-9935385D01*
X16641920Y-9935314D01*
X16640696Y-9934791D01*
X16638939Y-9933479D01*
X16638286Y-9932886D01*
X16636681Y-9931408D01*
X16635633Y-9930548D01*
X16635465Y-9930459D01*
X16678617Y-9930459D01*
X16678852Y-9932163D01*
X16679416Y-9932886D01*
X16679426Y-9932886D01*
X16680137Y-9933545D01*
X16680236Y-9934148D01*
X16680628Y-9934985D01*
X16681045Y-9934909D01*
X16681790Y-9934973D01*
X16681854Y-9935266D01*
X16682572Y-9935803D01*
X16684365Y-9936101D01*
X16685091Y-9936123D01*
X16687341Y-9935923D01*
X16688269Y-9935258D01*
X16688327Y-9934909D01*
X16688764Y-9933832D01*
X16689137Y-9933695D01*
X16689869Y-9933076D01*
X16689907Y-9931563D01*
X16689346Y-9929675D01*
X16688281Y-9927932D01*
X16688028Y-9927659D01*
X16686085Y-9926279D01*
X16683890Y-9925506D01*
X16681893Y-9925389D01*
X16680548Y-9925975D01*
X16680236Y-9926818D01*
X16679799Y-9927894D01*
X16679426Y-9928031D01*
X16678858Y-9928734D01*
X16678617Y-9930429D01*
X16678617Y-9930459D01*
X16635465Y-9930459D01*
X16635273Y-9931184D01*
X16635102Y-9933027D01*
X16635041Y-9934247D01*
X16635051Y-9936347D01*
X16635238Y-9937477D01*
X16635400Y-9937533D01*
X16636216Y-9937693D01*
X16637520Y-9938689D01*
X16638833Y-9940059D01*
X16639678Y-9941342D01*
X16639777Y-9941750D01*
X16640464Y-9942577D01*
X16642201Y-9942721D01*
X16642407Y-9942692D01*
X16643001Y-9943198D01*
X16643014Y-9943351D01*
X16643601Y-9944015D01*
X16644888Y-9944696D01*
X16646164Y-9945088D01*
X16646713Y-9944940D01*
X16647176Y-9945032D01*
X16648090Y-9945944D01*
X16649007Y-9947152D01*
X16649481Y-9948130D01*
X16649487Y-9948203D01*
X16650148Y-9948808D01*
X16651553Y-9949115D01*
X16652830Y-9948961D01*
X16652984Y-9948868D01*
X16653673Y-9949208D01*
X16654667Y-9950089D01*
X16656009Y-9951008D01*
X16656835Y-9951052D01*
X16657514Y-9951220D01*
X16657579Y-9951584D01*
X16657876Y-9952192D01*
X16658082Y-9952073D01*
X16659020Y-9952129D01*
X16660899Y-9952806D01*
X16662505Y-9953557D01*
X16665020Y-9954686D01*
X16667170Y-9955406D01*
X16668023Y-9955543D01*
X16669584Y-9955909D01*
X16670121Y-9956352D01*
X16671170Y-9956847D01*
X16673218Y-9957133D01*
X16674167Y-9957162D01*
X16676438Y-9957331D01*
X16677956Y-9957758D01*
X16678213Y-9957971D01*
X16679261Y-9958462D01*
X16681312Y-9958749D01*
X16682306Y-9958780D01*
X16684461Y-9958943D01*
X16685744Y-9959354D01*
X16685900Y-9959589D01*
X16686644Y-9960011D01*
X16688618Y-9960300D01*
X16691219Y-9960398D01*
X16698301Y-9961120D01*
X16704794Y-9963234D01*
X16710499Y-9966663D01*
X16713034Y-9968886D01*
X16715467Y-9971198D01*
X16717253Y-9972546D01*
X16718820Y-9973179D01*
X16720596Y-9973345D01*
X16720730Y-9973345D01*
X16722744Y-9973164D01*
X16723855Y-9972711D01*
X16723931Y-9972536D01*
X16724608Y-9971876D01*
X16725530Y-9971727D01*
X16727264Y-9971317D01*
X16729440Y-9970310D01*
X16729778Y-9970111D01*
X16732884Y-9968889D01*
X16737014Y-9968493D01*
X16737080Y-9968493D01*
X16739581Y-9968364D01*
X16741270Y-9968032D01*
X16741733Y-9967681D01*
X16742506Y-9967315D01*
X16744688Y-9967048D01*
X16748070Y-9966898D01*
X16750586Y-9966872D01*
X16754362Y-9966942D01*
X16757393Y-9967136D01*
X16759359Y-9967425D01*
X16759939Y-9967681D01*
X16761043Y-9968438D01*
X16762252Y-9968241D01*
X16762771Y-9967292D01*
X16763469Y-9966275D01*
X16764997Y-9965624D01*
X16767201Y-9964994D01*
X16768627Y-9964395D01*
X16770325Y-9963903D01*
X16772753Y-9963646D01*
X16773328Y-9963635D01*
X16775266Y-9963493D01*
X16776208Y-9963137D01*
X16776211Y-9962969D01*
X16776696Y-9962564D01*
X16778382Y-9962238D01*
X16779958Y-9962112D01*
X16782508Y-9961902D01*
X16784413Y-9961574D01*
X16784975Y-9961369D01*
X16787186Y-9960332D01*
X16790111Y-9959404D01*
X16792853Y-9958849D01*
X16793675Y-9958792D01*
X16795467Y-9958511D01*
X16796352Y-9957971D01*
X16797468Y-9957344D01*
X16798821Y-9957162D01*
X16800780Y-9956529D01*
X16801800Y-9955543D01*
X16803516Y-9954204D01*
X16805101Y-9953925D01*
X16807252Y-9953496D01*
X16808645Y-9952671D01*
X16810370Y-9951577D01*
X16812229Y-9950952D01*
X16813887Y-9950408D01*
X16814559Y-9949778D01*
X16815219Y-9949157D01*
X16815830Y-9949070D01*
X16817231Y-9948642D01*
X16818457Y-9947682D01*
X16818975Y-9946674D01*
X16818836Y-9946334D01*
X16819069Y-9945919D01*
X16819886Y-9945807D01*
X16821683Y-9945341D01*
X16823358Y-9944291D01*
X16824244Y-9943099D01*
X16824269Y-9942904D01*
X16824880Y-9941964D01*
X16825966Y-9941117D01*
X16827067Y-9940149D01*
X16827156Y-9939550D01*
X16826022Y-9938978D01*
X16824783Y-9938908D01*
X16824269Y-9939333D01*
X16823602Y-9940049D01*
X16821982Y-9940919D01*
X16821841Y-9940978D01*
X16820169Y-9941931D01*
X16819417Y-9942874D01*
X16819414Y-9942924D01*
X16818720Y-9943575D01*
X16817201Y-9943767D01*
X16815184Y-9944042D01*
X16813978Y-9944679D01*
X16812431Y-9945326D01*
X16811336Y-9945262D01*
X16810039Y-9945228D01*
X16809704Y-9945609D01*
X16808999Y-9946538D01*
X16807272Y-9947451D01*
X16805098Y-9948099D01*
X16803597Y-9948261D01*
X16802096Y-9948612D01*
X16801613Y-9949272D01*
X16801228Y-9949674D01*
X16799949Y-9949939D01*
X16797591Y-9950079D01*
X16793968Y-9950105D01*
X16789476Y-9950041D01*
X16785032Y-9949903D01*
X16781386Y-9949694D01*
X16778779Y-9949435D01*
X16777454Y-9949145D01*
X16777337Y-9949029D01*
X16776609Y-9948591D01*
X16774748Y-9948312D01*
X16773291Y-9948261D01*
X16770983Y-9948115D01*
X16769518Y-9947743D01*
X16769245Y-9947451D01*
X16768546Y-9946867D01*
X16766996Y-9946642D01*
X16764736Y-9946026D01*
X16763581Y-9945024D01*
X16762127Y-9943760D01*
X16760974Y-9943406D01*
X16759764Y-9942846D01*
X16759535Y-9942192D01*
X16759098Y-9941115D01*
X16758726Y-9940978D01*
X16758075Y-9940298D01*
X16757916Y-9939312D01*
X16757636Y-9938171D01*
X16757192Y-9938094D01*
X16756341Y-9937870D01*
X16755984Y-9937281D01*
X16755274Y-9936387D01*
X16754888Y-9936401D01*
X16754678Y-9935790D01*
X16754614Y-9934909D01*
X16791902Y-9934909D01*
X16792306Y-9935314D01*
X16792422Y-9935199D01*
X16793520Y-9935199D01*
X16793756Y-9937390D01*
X16794353Y-9938704D01*
X16794532Y-9938824D01*
X16797314Y-9939248D01*
X16799672Y-9938269D01*
X16800218Y-9937732D01*
X16801295Y-9935886D01*
X16801612Y-9934495D01*
X16801977Y-9933186D01*
X16802479Y-9932886D01*
X16802701Y-9932435D01*
X16802132Y-9931673D01*
X16800032Y-9930586D01*
X16797669Y-9930772D01*
X16796229Y-9931680D01*
X16794949Y-9932473D01*
X16794264Y-9932441D01*
X16793803Y-9932853D01*
X16793542Y-9934438D01*
X16793520Y-9935199D01*
X16792422Y-9935199D01*
X16792711Y-9934909D01*
X16792306Y-9934505D01*
X16791902Y-9934909D01*
X16754614Y-9934909D01*
X16754537Y-9933848D01*
X16754476Y-9930863D01*
X16754506Y-9927121D01*
X16754522Y-9926338D01*
X16754672Y-9922363D01*
X16754902Y-9919109D01*
X16755185Y-9916861D01*
X16755493Y-9915908D01*
X16755534Y-9915894D01*
X16756010Y-9915175D01*
X16756277Y-9913377D01*
X16756298Y-9912609D01*
X16756469Y-9910558D01*
X16756930Y-9909777D01*
X16757107Y-9909825D01*
X16757682Y-9909510D01*
X16757916Y-9907941D01*
X16757916Y-9907874D01*
X16758322Y-9905533D01*
X16759320Y-9902945D01*
X16759535Y-9902542D01*
X16759861Y-9901842D01*
X16774085Y-9901842D01*
X16774430Y-9904152D01*
X16775206Y-9906023D01*
X16775582Y-9906464D01*
X16776938Y-9907268D01*
X16777734Y-9907197D01*
X16778020Y-9907177D01*
X16777809Y-9907622D01*
X16777808Y-9908961D01*
X16779070Y-9910240D01*
X16781244Y-9911251D01*
X16783983Y-9911785D01*
X16784822Y-9911821D01*
X16787063Y-9911989D01*
X16788448Y-9912388D01*
X16788665Y-9912657D01*
X16789343Y-9913314D01*
X16790284Y-9913466D01*
X16791598Y-9913127D01*
X16791902Y-9912657D01*
X16792650Y-9912241D01*
X16794651Y-9911954D01*
X16797518Y-9911848D01*
X16800389Y-9911739D01*
X16802578Y-9911454D01*
X16803626Y-9911052D01*
X16803635Y-9911039D01*
X16804750Y-9910412D01*
X16806110Y-9910229D01*
X16807608Y-9909930D01*
X16808085Y-9909372D01*
X16808572Y-9908869D01*
X16808829Y-9908975D01*
X16809964Y-9908891D01*
X16810669Y-9908416D01*
X16812225Y-9907391D01*
X16812908Y-9907145D01*
X16814295Y-9906371D01*
X16815412Y-9905324D01*
X16816686Y-9904134D01*
X16817461Y-9903756D01*
X16818532Y-9903134D01*
X16819983Y-9901612D01*
X16821411Y-9899709D01*
X16822414Y-9897941D01*
X16822649Y-9897080D01*
X16823032Y-9895879D01*
X16823460Y-9895664D01*
X16824094Y-9895004D01*
X16824251Y-9893452D01*
X16823971Y-9891647D01*
X16823294Y-9890230D01*
X16823103Y-9890040D01*
X16822307Y-9888737D01*
X16822341Y-9888022D01*
X16822063Y-9886894D01*
X16821432Y-9886469D01*
X16820558Y-9885672D01*
X16820618Y-9885160D01*
X16820475Y-9884703D01*
X16819658Y-9884879D01*
X16818722Y-9885046D01*
X16818768Y-9884773D01*
X16818912Y-9883882D01*
X16817807Y-9882790D01*
X16815349Y-9881427D01*
X16811437Y-9879725D01*
X16811082Y-9879582D01*
X16808646Y-9878965D01*
X16805455Y-9878657D01*
X16801865Y-9878627D01*
X16798232Y-9878847D01*
X16794911Y-9879286D01*
X16792259Y-9879916D01*
X16790631Y-9880706D01*
X16790290Y-9881301D01*
X16789625Y-9881839D01*
X16789059Y-9881908D01*
X16787339Y-9882421D01*
X16785078Y-9883734D01*
X16782696Y-9885512D01*
X16780614Y-9887418D01*
X16779254Y-9889118D01*
X16778955Y-9889973D01*
X16778501Y-9890787D01*
X16778348Y-9890816D01*
X16777574Y-9891502D01*
X16776688Y-9893131D01*
X16775976Y-9895077D01*
X16775718Y-9896587D01*
X16775306Y-9898068D01*
X16774909Y-9898496D01*
X16774227Y-9899741D01*
X16774085Y-9901842D01*
X16759861Y-9901842D01*
X16760581Y-9900300D01*
X16761129Y-9898383D01*
X16761153Y-9898067D01*
X16761497Y-9896766D01*
X16761962Y-9896473D01*
X16762564Y-9895779D01*
X16762771Y-9894393D01*
X16763129Y-9892617D01*
X16763973Y-9891129D01*
X16764957Y-9890408D01*
X16765507Y-9890578D01*
X16765929Y-9890378D01*
X16766008Y-9889730D01*
X16766407Y-9888570D01*
X16766817Y-9888382D01*
X16767535Y-9887726D01*
X16767627Y-9887168D01*
X16768063Y-9886091D01*
X16768436Y-9885954D01*
X16769154Y-9885299D01*
X16769245Y-9884740D01*
X16769618Y-9883663D01*
X16769934Y-9883527D01*
X16770976Y-9882981D01*
X16772553Y-9881660D01*
X16774185Y-9880034D01*
X16775387Y-9878576D01*
X16775718Y-9877871D01*
X16776410Y-9877137D01*
X16777944Y-9876552D01*
X16779883Y-9875938D01*
X16781003Y-9875371D01*
X16782392Y-9874740D01*
X16783967Y-9874336D01*
X16786250Y-9873706D01*
X16787679Y-9873102D01*
X16789132Y-9872631D01*
X16789773Y-9872766D01*
X16790253Y-9872681D01*
X16790284Y-9872422D01*
X16791074Y-9871618D01*
X16793389Y-9871009D01*
X16797147Y-9870606D01*
X16802265Y-9870422D01*
X16804849Y-9870412D01*
X16810760Y-9870525D01*
X16815639Y-9870799D01*
X16819344Y-9871216D01*
X16821730Y-9871760D01*
X16822656Y-9872414D01*
X16822663Y-9872475D01*
X16822998Y-9872736D01*
X16823460Y-9872198D01*
X16824114Y-9871540D01*
X16824256Y-9871996D01*
X16824934Y-9872854D01*
X16825685Y-9873010D01*
X16827286Y-9873418D01*
X16829390Y-9874416D01*
X16829750Y-9874629D01*
X16831719Y-9875684D01*
X16833192Y-9876225D01*
X16833370Y-9876244D01*
X16834370Y-9876800D01*
X16836076Y-9878262D01*
X16838124Y-9880317D01*
X16838206Y-9880404D01*
X16840390Y-9882933D01*
X16841586Y-9884881D01*
X16842048Y-9886708D01*
X16842083Y-9887485D01*
X16842194Y-9889267D01*
X16842550Y-9889589D01*
X16842880Y-9889191D01*
X16843366Y-9888889D01*
X16843618Y-9889974D01*
X16843677Y-9891821D01*
X16843837Y-9894062D01*
X16844230Y-9895447D01*
X16844498Y-9895664D01*
X16844886Y-9896428D01*
X16845163Y-9898543D01*
X16845298Y-9901742D01*
X16845307Y-9902947D01*
X16845223Y-9906436D01*
X16844988Y-9908926D01*
X16844632Y-9910149D01*
X16844498Y-9910229D01*
X16843963Y-9910941D01*
X16843696Y-9912690D01*
X16843689Y-9913062D01*
X16843486Y-9914933D01*
X16842986Y-9915869D01*
X16842880Y-9915894D01*
X16842307Y-9916596D01*
X16842071Y-9918273D01*
X16841821Y-9920142D01*
X16841262Y-9921153D01*
X16840613Y-9922280D01*
X16840452Y-9923450D01*
X16839831Y-9925311D01*
X16838834Y-9926413D01*
X16837569Y-9927883D01*
X16837216Y-9929057D01*
X16836565Y-9930432D01*
X16834980Y-9931802D01*
X16834793Y-9931912D01*
X16832915Y-9933139D01*
X16832555Y-9933888D01*
X16833720Y-9934257D01*
X16834958Y-9934332D01*
X16836564Y-9934264D01*
X16836684Y-9933887D01*
X16836374Y-9933659D01*
X16836212Y-9933199D01*
X16837563Y-9932953D01*
X16839441Y-9932899D01*
X16841814Y-9933031D01*
X16843356Y-9933383D01*
X16843689Y-9933695D01*
X16844400Y-9934231D01*
X16846149Y-9934498D01*
X16846515Y-9934505D01*
X16849819Y-9935146D01*
X16852094Y-9937012D01*
X16853259Y-9940017D01*
X16853399Y-9941841D01*
X16853295Y-9944224D01*
X16852770Y-9945588D01*
X16851503Y-9946530D01*
X16850647Y-9946955D01*
X16848206Y-9947844D01*
X16845956Y-9948257D01*
X16845792Y-9948261D01*
X16844233Y-9948528D01*
X16843689Y-9949070D01*
X16842992Y-9949622D01*
X16841281Y-9949849D01*
X16839127Y-9949755D01*
X16837101Y-9949344D01*
X16836318Y-9949022D01*
X16835080Y-9948671D01*
X16833835Y-9949258D01*
X16832405Y-9950641D01*
X16830749Y-9952189D01*
X16829420Y-9953052D01*
X16829147Y-9953116D01*
X16827986Y-9953546D01*
X16826041Y-9954648D01*
X16824673Y-9955543D01*
X16822524Y-9956917D01*
X16820853Y-9957797D01*
X16820279Y-9957971D01*
X16819449Y-9958553D01*
X16819414Y-9958780D01*
X16818736Y-9959437D01*
X16817795Y-9959589D01*
X16816481Y-9959928D01*
X16816177Y-9960398D01*
X16815518Y-9961107D01*
X16814906Y-9961207D01*
X16813290Y-9961745D01*
X16812492Y-9962349D01*
X16810827Y-9963106D01*
X16809718Y-9963064D01*
X16808411Y-9963077D01*
X16808085Y-9963541D01*
X16807409Y-9964274D01*
X16806467Y-9964444D01*
X16805152Y-9964783D01*
X16804849Y-9965253D01*
X16804174Y-9965920D01*
X16803298Y-9966062D01*
X16801882Y-9966408D01*
X16801477Y-9966828D01*
X16800582Y-9967315D01*
X16798612Y-9967685D01*
X16797364Y-9967789D01*
X16795122Y-9968065D01*
X16793737Y-9968548D01*
X16793520Y-9968844D01*
X16792831Y-9969588D01*
X16791700Y-9969895D01*
X16787125Y-9970438D01*
X16784083Y-9970956D01*
X16782490Y-9971464D01*
X16782192Y-9971808D01*
X16781469Y-9972245D01*
X16779643Y-9972504D01*
X16778598Y-9972536D01*
X16776311Y-9972703D01*
X16774775Y-9973126D01*
X16774504Y-9973345D01*
X16773355Y-9974042D01*
X16772551Y-9974154D01*
X16771749Y-9974386D01*
X16771281Y-9975310D01*
X16771041Y-9977270D01*
X16770953Y-9979414D01*
X16770996Y-9982504D01*
X16771312Y-9984291D01*
X16771682Y-9984674D01*
X16771764Y-9985156D01*
X16770866Y-9986350D01*
X16770532Y-9986696D01*
X16768922Y-9988057D01*
X16767659Y-9988710D01*
X16767556Y-9988719D01*
X16766371Y-9989280D01*
X16765092Y-9990462D01*
X16764036Y-9991412D01*
X16763581Y-9991292D01*
X16763581Y-9991271D01*
X16762863Y-9990641D01*
X16761064Y-9990343D01*
X16760749Y-9990338D01*
X16758685Y-9990584D01*
X16757932Y-9991396D01*
X16757916Y-9991599D01*
X16757524Y-9992437D01*
X16757107Y-9992361D01*
X16756470Y-9992608D01*
X16756298Y-9993527D01*
X16755968Y-9994867D01*
X16755489Y-9995193D01*
X16754881Y-9995885D01*
X16754680Y-9997216D01*
X16754403Y-9998736D01*
X16753871Y-9999239D01*
X16753098Y-9999865D01*
X16753061Y-10000128D01*
X16752515Y-10001199D01*
X16751152Y-10002780D01*
X16750634Y-10003285D01*
X16749103Y-10004921D01*
X16748262Y-10006221D01*
X16748206Y-10006468D01*
X16747674Y-10007536D01*
X16746320Y-10009220D01*
X16745401Y-10010189D01*
X16743923Y-10011589D01*
X16742628Y-10012424D01*
X16741035Y-10012838D01*
X16738660Y-10012980D01*
X16736143Y-10012995D01*
X16732897Y-10012891D01*
X16730463Y-10012610D01*
X16729217Y-10012199D01*
X16729157Y-10012130D01*
X16728050Y-10011592D01*
X16727516Y-10011690D01*
X16726463Y-10011786D01*
X16725834Y-10010883D01*
X16725484Y-10008713D01*
X16725414Y-10007801D01*
X16725173Y-10005831D01*
X16724561Y-10005060D01*
X16723194Y-10005066D01*
X16722952Y-10005100D01*
X16721150Y-10005038D01*
X16720694Y-10004358D01*
X16720038Y-10003590D01*
X16718566Y-10003299D01*
X16717020Y-10003528D01*
X16716244Y-10004094D01*
X16715197Y-10004582D01*
X16713141Y-10004870D01*
X16712092Y-10004903D01*
X16708837Y-10005316D01*
X16706888Y-10006606D01*
X16706143Y-10008845D01*
X16706129Y-10009296D01*
X16705891Y-10010844D01*
X16705414Y-10011376D01*
X16704659Y-10012050D01*
X16704276Y-10012995D01*
X16703905Y-10013801D01*
X16703082Y-10014285D01*
X16701462Y-10014528D01*
X16698700Y-10014608D01*
X16697272Y-10014613D01*
X16690691Y-10014613D01*
X16689501Y-10013399D01*
X16702893Y-10013399D01*
X16703297Y-10013804D01*
X16703702Y-10013399D01*
X16703297Y-10012995D01*
X16702893Y-10013399D01*
X16689501Y-10013399D01*
X16687510Y-10011368D01*
X16685611Y-10009623D01*
X16684058Y-10008534D01*
X16683395Y-10008334D01*
X16682383Y-10007883D01*
X16682096Y-10007330D01*
X16681920Y-10006527D01*
X16682408Y-10007077D01*
X16682589Y-10007330D01*
X16683235Y-10007988D01*
X16683449Y-10007225D01*
X16683460Y-10006724D01*
X16683226Y-10005302D01*
X16682826Y-10004903D01*
X16682151Y-10004212D01*
X16681346Y-10002530D01*
X16680639Y-10000447D01*
X16680255Y-9998552D01*
X16680236Y-9998170D01*
X16679840Y-9997003D01*
X16679426Y-9996811D01*
X16678813Y-9996120D01*
X16678617Y-9994836D01*
X16678319Y-9993123D01*
X16677808Y-9992361D01*
X16677298Y-9991306D01*
X16677001Y-9989272D01*
X16676973Y-9988469D01*
X16676580Y-9985486D01*
X16675574Y-9983300D01*
X16674142Y-9982278D01*
X16673818Y-9982246D01*
X16672345Y-9981628D01*
X16671007Y-9980255D01*
X16670526Y-9979019D01*
X16670033Y-9978482D01*
X16669716Y-9978605D01*
X16669285Y-9978130D01*
X16669010Y-9976163D01*
X16668908Y-9972822D01*
X16668907Y-9972584D01*
X16668901Y-9971942D01*
X16678827Y-9971942D01*
X16680100Y-9972840D01*
X16681045Y-9973224D01*
X16682732Y-9974143D01*
X16683471Y-9975199D01*
X16683472Y-9975238D01*
X16684158Y-9976321D01*
X16685293Y-9976861D01*
X16686208Y-9977197D01*
X16686728Y-9977873D01*
X16686936Y-9979252D01*
X16686917Y-9981695D01*
X16686843Y-9983535D01*
X16686810Y-9987259D01*
X16687085Y-9989572D01*
X16687491Y-9990321D01*
X16688292Y-9991516D01*
X16688540Y-9992636D01*
X16688895Y-9994022D01*
X16689309Y-9994384D01*
X16689788Y-9995077D01*
X16689946Y-9996407D01*
X16690223Y-9997927D01*
X16690755Y-9998429D01*
X16691426Y-9999103D01*
X16691564Y-9999949D01*
X16692255Y-10001583D01*
X16693930Y-10003086D01*
X16695995Y-10003976D01*
X16696621Y-10004051D01*
X16697709Y-10003569D01*
X16698037Y-10001851D01*
X16698037Y-10001828D01*
X16698600Y-9999261D01*
X16700248Y-9997866D01*
X16701793Y-9997620D01*
X16703442Y-9997296D01*
X16704106Y-9996811D01*
X16705167Y-9996294D01*
X16707180Y-9996017D01*
X16707795Y-9996002D01*
X16709804Y-9995820D01*
X16710910Y-9995366D01*
X16710984Y-9995193D01*
X16711753Y-9994815D01*
X16713901Y-9994543D01*
X16717192Y-9994400D01*
X16718977Y-9994384D01*
X16722983Y-9994448D01*
X16725650Y-9994667D01*
X16727251Y-9995076D01*
X16727970Y-9995588D01*
X16729109Y-9996389D01*
X16729687Y-9996350D01*
X16730350Y-9996523D01*
X16730404Y-9996850D01*
X16730988Y-9997441D01*
X16731577Y-9997343D01*
X16732386Y-9997365D01*
X16732249Y-9998199D01*
X16732157Y-9999078D01*
X16732694Y-9998919D01*
X16733442Y-9999049D01*
X16733641Y-10000318D01*
X16734111Y-10002136D01*
X16735623Y-10002876D01*
X16737941Y-10002702D01*
X16739721Y-10001855D01*
X16740115Y-10000763D01*
X16740472Y-9999500D01*
X16740924Y-9999239D01*
X16741581Y-9998561D01*
X16741733Y-9997620D01*
X16742072Y-9996305D01*
X16742542Y-9996002D01*
X16743260Y-9995347D01*
X16743351Y-9994788D01*
X16743788Y-9993711D01*
X16744160Y-9993574D01*
X16744878Y-9992919D01*
X16744970Y-9992361D01*
X16745407Y-9991284D01*
X16745779Y-9991147D01*
X16746436Y-9990469D01*
X16746588Y-9989529D01*
X16746927Y-9988214D01*
X16747397Y-9987910D01*
X16748055Y-9987232D01*
X16748206Y-9986292D01*
X16748601Y-9984978D01*
X16749150Y-9984674D01*
X16749698Y-9984352D01*
X16749568Y-9984147D01*
X16749528Y-9983304D01*
X16750700Y-9982455D01*
X16752689Y-9981781D01*
X16755099Y-9981467D01*
X16755344Y-9981463D01*
X16757929Y-9981162D01*
X16759806Y-9980428D01*
X16760055Y-9980223D01*
X16760675Y-9979281D01*
X16760402Y-9979009D01*
X16759698Y-9978332D01*
X16759535Y-9977391D01*
X16759432Y-9976683D01*
X16758939Y-9976218D01*
X16757774Y-9975945D01*
X16755658Y-9975815D01*
X16752311Y-9975775D01*
X16750634Y-9975773D01*
X16746618Y-9975843D01*
X16743679Y-9976041D01*
X16742024Y-9976349D01*
X16741733Y-9976582D01*
X16741055Y-9977239D01*
X16740115Y-9977391D01*
X16738800Y-9977730D01*
X16738496Y-9978200D01*
X16737793Y-9978768D01*
X16736099Y-9979009D01*
X16736069Y-9979009D01*
X16734364Y-9979244D01*
X16733641Y-9979808D01*
X16733641Y-9979818D01*
X16732963Y-9980476D01*
X16732023Y-9980628D01*
X16730708Y-9980966D01*
X16730404Y-9981437D01*
X16729692Y-9981967D01*
X16727936Y-9982237D01*
X16727515Y-9982246D01*
X16725244Y-9982553D01*
X16723579Y-9983300D01*
X16723480Y-9983391D01*
X16721822Y-9984084D01*
X16719288Y-9984129D01*
X16716483Y-9983536D01*
X16715839Y-9983300D01*
X16713990Y-9982724D01*
X16713042Y-9982509D01*
X16711521Y-9981990D01*
X16711019Y-9981619D01*
X16709912Y-9980930D01*
X16709366Y-9980765D01*
X16707906Y-9979868D01*
X16707496Y-9979332D01*
X16706561Y-9978557D01*
X16706089Y-9978630D01*
X16705695Y-9978422D01*
X16705863Y-9977635D01*
X16706032Y-9976696D01*
X16705764Y-9976739D01*
X16704946Y-9976541D01*
X16703666Y-9975461D01*
X16702356Y-9973967D01*
X16701447Y-9972525D01*
X16701274Y-9971890D01*
X16700711Y-9971383D01*
X16698945Y-9970903D01*
X16695864Y-9970433D01*
X16691356Y-9969955D01*
X16687316Y-9969607D01*
X16683964Y-9969461D01*
X16682178Y-9969692D01*
X16681854Y-9970042D01*
X16681177Y-9970753D01*
X16680236Y-9970918D01*
X16678842Y-9971216D01*
X16678827Y-9971942D01*
X16668901Y-9971942D01*
X16668874Y-9969344D01*
X16668720Y-9967398D01*
X16668366Y-9966421D01*
X16667730Y-9966088D01*
X16667289Y-9966062D01*
X16665975Y-9965682D01*
X16665670Y-9965152D01*
X16664973Y-9964596D01*
X16663243Y-9964727D01*
X16661465Y-9964873D01*
X16660834Y-9964262D01*
X16660815Y-9964019D01*
X16660142Y-9963052D01*
X16659197Y-9962826D01*
X16657882Y-9962487D01*
X16657579Y-9962017D01*
X16656870Y-9961470D01*
X16655140Y-9961211D01*
X16654899Y-9961207D01*
X16652226Y-9960652D01*
X16650483Y-9959589D01*
X16648490Y-9958380D01*
X16646689Y-9957971D01*
X16645152Y-9957698D01*
X16644632Y-9957162D01*
X16643975Y-9956448D01*
X16643393Y-9956352D01*
X16642041Y-9955698D01*
X16641690Y-9955143D01*
X16640928Y-9954322D01*
X16640501Y-9954382D01*
X16639816Y-9954294D01*
X16639777Y-9954074D01*
X16639077Y-9953404D01*
X16637391Y-9952841D01*
X16637349Y-9952832D01*
X16635555Y-9952104D01*
X16634922Y-9951113D01*
X16634222Y-9950055D01*
X16632366Y-9949694D01*
X16631578Y-9949751D01*
X16631194Y-9949148D01*
X16631173Y-9948431D01*
X16630819Y-9947352D01*
X16630318Y-9947233D01*
X16629337Y-9946726D01*
X16628844Y-9945805D01*
X16628144Y-9944708D01*
X16627581Y-9944655D01*
X16627036Y-9944326D01*
X16626830Y-9943001D01*
X16626604Y-9941601D01*
X16626113Y-9941326D01*
X16625375Y-9941040D01*
X16624975Y-9940160D01*
X16624536Y-9939276D01*
X16623546Y-9938787D01*
X16621618Y-9938583D01*
X16619342Y-9938551D01*
X16615274Y-9938229D01*
X16612563Y-9937203D01*
X16611068Y-9935382D01*
X16610647Y-9932916D01*
X16611246Y-9930207D01*
X16612796Y-9927239D01*
X16614924Y-9924684D01*
X16615472Y-9924213D01*
X16616784Y-9923725D01*
X16618979Y-9923392D01*
X16621568Y-9923226D01*
X16624064Y-9923241D01*
X16625979Y-9923450D01*
X16626823Y-9923864D01*
X16626830Y-9923914D01*
X16627421Y-9924447D01*
X16628686Y-9924312D01*
X16629841Y-9923609D01*
X16629887Y-9923300D01*
X16629460Y-9923499D01*
X16628600Y-9923454D01*
X16628448Y-9922772D01*
X16628068Y-9921898D01*
X16627639Y-9921962D01*
X16626947Y-9921779D01*
X16626830Y-9921201D01*
X16626293Y-9919727D01*
X16625212Y-9918321D01*
X16624002Y-9916594D01*
X16623593Y-9915171D01*
X16623060Y-9913676D01*
X16622442Y-9913198D01*
X16621651Y-9912148D01*
X16621704Y-9911179D01*
X16621663Y-9909651D01*
X16621236Y-9909059D01*
X16620861Y-9907996D01*
X16620587Y-9905362D01*
X16620418Y-9901202D01*
X16620357Y-9895561D01*
X16620357Y-9895164D01*
X16620404Y-9889706D01*
X16620503Y-9886859D01*
X16631685Y-9886859D01*
X16632184Y-9887298D01*
X16632494Y-9887168D01*
X16632979Y-9887585D01*
X16633255Y-9889425D01*
X16633303Y-9891166D01*
X16633435Y-9893618D01*
X16633775Y-9895252D01*
X16634113Y-9895664D01*
X16634821Y-9896324D01*
X16634922Y-9896936D01*
X16635460Y-9898528D01*
X16636136Y-9899421D01*
X16637112Y-9900107D01*
X16637349Y-9899644D01*
X16637778Y-9899440D01*
X16638810Y-9900338D01*
X16638817Y-9900345D01*
X16640309Y-9901702D01*
X16641427Y-9902290D01*
X16643000Y-9903041D01*
X16643666Y-9903561D01*
X16644934Y-9904207D01*
X16645506Y-9904120D01*
X16646193Y-9904275D01*
X16646250Y-9904599D01*
X16646686Y-9905073D01*
X16648111Y-9905199D01*
X16650702Y-9904968D01*
X16654635Y-9904372D01*
X16656163Y-9904110D01*
X16658109Y-9903600D01*
X16659145Y-9903000D01*
X16659197Y-9902858D01*
X16659876Y-9902273D01*
X16660815Y-9902138D01*
X16662130Y-9901799D01*
X16662434Y-9901328D01*
X16663111Y-9900671D01*
X16664052Y-9900519D01*
X16665367Y-9900180D01*
X16665670Y-9899710D01*
X16666348Y-9899053D01*
X16667289Y-9898901D01*
X16668602Y-9898469D01*
X16668907Y-9897866D01*
X16669505Y-9896633D01*
X16670526Y-9895664D01*
X16671779Y-9894379D01*
X16672144Y-9893463D01*
X16672645Y-9892506D01*
X16672953Y-9892428D01*
X16673610Y-9891750D01*
X16673762Y-9890809D01*
X16674101Y-9889494D01*
X16674571Y-9889191D01*
X16674994Y-9888448D01*
X16675284Y-9886479D01*
X16675381Y-9883931D01*
X16675266Y-9881183D01*
X16674963Y-9879301D01*
X16674571Y-9878672D01*
X16673879Y-9878003D01*
X16673750Y-9877256D01*
X16673616Y-9876319D01*
X16673054Y-9876898D01*
X16672953Y-9877053D01*
X16672363Y-9877689D01*
X16672165Y-9876885D01*
X16672156Y-9876446D01*
X16671863Y-9875025D01*
X16671392Y-9874626D01*
X16670217Y-9874126D01*
X16669572Y-9873614D01*
X16666156Y-9871251D01*
X16661963Y-9869597D01*
X16657784Y-9868962D01*
X16657719Y-9868961D01*
X16655277Y-9868814D01*
X16653565Y-9868436D01*
X16653128Y-9868152D01*
X16652180Y-9867459D01*
X16650520Y-9867565D01*
X16647922Y-9868519D01*
X16645289Y-9869784D01*
X16641173Y-9872146D01*
X16638302Y-9874507D01*
X16636333Y-9877178D01*
X16635684Y-9878484D01*
X16634761Y-9880220D01*
X16633999Y-9881079D01*
X16633915Y-9881099D01*
X16633451Y-9881791D01*
X16633303Y-9883074D01*
X16633005Y-9884788D01*
X16632494Y-9885550D01*
X16631715Y-9886622D01*
X16631685Y-9886859D01*
X16620503Y-9886859D01*
X16620542Y-9885711D01*
X16620770Y-9883227D01*
X16621084Y-9882302D01*
X16621166Y-9882313D01*
X16621851Y-9882121D01*
X16621975Y-9881504D01*
X16622356Y-9880630D01*
X16622784Y-9880695D01*
X16623408Y-9880433D01*
X16623593Y-9879421D01*
X16624169Y-9877469D01*
X16625015Y-9876339D01*
X16626455Y-9874624D01*
X16627564Y-9872833D01*
X16628544Y-9871424D01*
X16629358Y-9871048D01*
X16629380Y-9871060D01*
X16630008Y-9870838D01*
X16630213Y-9869532D01*
X16630095Y-9868557D01*
X16630316Y-9868171D01*
X16630500Y-9868316D01*
X16631439Y-9868293D01*
X16632244Y-9867709D01*
X16633969Y-9866715D01*
X16634980Y-9866534D01*
X16636267Y-9866271D01*
X16636546Y-9865927D01*
X16637220Y-9865186D01*
X16638797Y-9864292D01*
X16640632Y-9863560D01*
X16641961Y-9863297D01*
X16642930Y-9862803D01*
X16643014Y-9862488D01*
X16643705Y-9861875D01*
X16644989Y-9861679D01*
X16646702Y-9861381D01*
X16647464Y-9860870D01*
X16648558Y-9860287D01*
X16650344Y-9860061D01*
X16652076Y-9859758D01*
X16652736Y-9859049D01*
X16653016Y-9858628D01*
X16653533Y-9859251D01*
X16654187Y-9859910D01*
X16654330Y-9859454D01*
X16655070Y-9859006D01*
X16656988Y-9858678D01*
X16659646Y-9858475D01*
X16662607Y-9858406D01*
X16665433Y-9858478D01*
G37*
%TO.C,R24*%
D15*
X13927750Y-9694222D02*
X13927750Y-9643278D01*
X14032250Y-9694222D02*
X14032250Y-9643278D01*
%TO.C,R5*%
X15867750Y-9803726D02*
X15867750Y-9756274D01*
X15972250Y-9803726D02*
X15972250Y-9756274D01*
%TO.C,C32*%
X12666500Y-10546125D02*
X12666500Y-10493875D01*
X12813500Y-10546125D02*
X12813500Y-10493875D01*
%TO.C,C42*%
X12876500Y-9353875D02*
X12876500Y-9406125D01*
X13023500Y-9353875D02*
X13023500Y-9406125D01*
%TD*%
M02*
