%TF.GenerationSoftware,KiCad,Pcbnew,10.0.6-10.0.6~ubuntu24.04.1*%
%TF.CreationDate,2026-10-10T12:11:59+02:00*%
%TF.ProjectId,TireTempSensor_v2.0,54697265-5465-46d7-9053-656e736f725f,rev?*%
%TF.SameCoordinates,Original*%
%TF.FileFunction,Copper,L4,Bot*%
%TF.FilePolarity,Positive*%
%FSLAX45Y45*%
G04 Gerber Fmt 4.5, Leading zero omitted, Abs format (unit mm)*
G04 Created by KiCad (PCBNEW 10.0.6-10.0.6~ubuntu24.04.1) date 2026-10-10 12:11:59*
%MOMM*%
%LPD*%
G01*
G04 APERTURE LIST*
G04 Aperture macros list*
%AMRoundRect*
0 Rectangle with rounded corners*
0 $1 Rounding radius*
0 $2 $3 $4 $5 $6 $7 $8 $9 X,Y pos of 4 corners*
0 Add a 4 corners polygon primitive as box body*
4,1,4,$2,$3,$4,$5,$6,$7,$8,$9,$2,$3,0*
0 Add four circle primitives for the rounded corners*
1,1,$1+$1,$2,$3*
1,1,$1+$1,$4,$5*
1,1,$1+$1,$6,$7*
1,1,$1+$1,$8,$9*
0 Add four rect primitives between the rounded corners*
20,1,$1+$1,$2,$3,$4,$5,0*
20,1,$1+$1,$4,$5,$6,$7,0*
20,1,$1+$1,$6,$7,$8,$9,0*
20,1,$1+$1,$8,$9,$2,$3,0*%
%AMRotRect*
0 Rectangle, with rotation*
0 The origin of the aperture is its center*
0 $1 length*
0 $2 width*
0 $3 Rotation angle, in degrees counterclockwise*
0 Add horizontal line*
21,1,$1,$2,0,0,$3*%
G04 Aperture macros list end*
%TA.AperFunction,ComponentPad*%
%ADD10C,4.500000*%
%TD*%
%TA.AperFunction,ComponentPad*%
%ADD11RoundRect,0.250000X-0.550000X0.550000X-0.550000X-0.550000X0.550000X-0.550000X0.550000X0.550000X0*%
%TD*%
%TA.AperFunction,ComponentPad*%
%ADD12RotRect,1.192000X1.192000X45.000000*%
%TD*%
%TA.AperFunction,ComponentPad*%
%ADD13C,1.192000*%
%TD*%
%TA.AperFunction,SMDPad,CuDef*%
%ADD14C,1.000000*%
%TD*%
%TA.AperFunction,SMDPad,CuDef*%
%ADD15R,1.000000X1.000000*%
%TD*%
%TA.AperFunction,ViaPad*%
%ADD16C,0.800000*%
%TD*%
%TA.AperFunction,ViaPad*%
%ADD17C,0.500000*%
%TD*%
%TA.AperFunction,ViaPad*%
%ADD18C,0.450000*%
%TD*%
%TA.AperFunction,Conductor*%
%ADD19C,0.750000*%
%TD*%
%TA.AperFunction,Conductor*%
%ADD20C,0.200000*%
%TD*%
%TA.AperFunction,Conductor*%
%ADD21C,0.300000*%
%TD*%
%TA.AperFunction,Conductor*%
%ADD22C,0.250000*%
%TD*%
%TA.AperFunction,Conductor*%
%ADD23C,0.130000*%
%TD*%
G04 APERTURE END LIST*
D10*
%TO.P,H4,1,1*%
%TO.N,GND*%
X16726000Y-9235000D03*
%TD*%
D11*
%TO.P,J5,1,Pin_1*%
%TO.N,/CAN+*%
X10277500Y-9060000D03*
%TD*%
D10*
%TO.P,H2,1,1*%
%TO.N,GND*%
X16730000Y-10610000D03*
%TD*%
D11*
%TO.P,J1,1,Pin_1*%
%TO.N,GND*%
X10317500Y-10660000D03*
%TD*%
%TO.P,J4,1,Pin_1*%
%TO.N,/CAN-*%
X10277500Y-9360000D03*
%TD*%
%TO.P,J2,1,Pin_1*%
%TO.N,+24V*%
X10317500Y-10400000D03*
%TD*%
D10*
%TO.P,H3,1,1*%
%TO.N,unconnected-(H3-Pad1)*%
X9290000Y-9230000D03*
%TD*%
%TO.P,H1,1,1*%
%TO.N,GND*%
X9290000Y-10580000D03*
%TD*%
D12*
%TO.P,IC2,1,SCL*%
%TO.N,/SCL*%
X16100000Y-9400000D03*
D13*
%TO.P,IC2,2,SDA*%
%TO.N,/SDA*%
X16100000Y-9759210D03*
%TO.P,IC2,3,VDD*%
%TO.N,Net-(IC2-VDD)*%
X15740790Y-9759210D03*
%TO.P,IC2,4,GND*%
%TO.N,GND*%
X15740790Y-9400000D03*
%TD*%
D14*
%TO.P,TP3,1,1*%
%TO.N,/OSC IN*%
X14830000Y-10140000D03*
%TD*%
D15*
%TO.P,T10,1,1*%
%TO.N,+5V*%
X12860000Y-10230000D03*
%TD*%
%TO.P,T14,1,1*%
%TO.N,+3V3*%
X13570000Y-10482000D03*
%TD*%
D14*
%TO.P,TP2,1,1*%
%TO.N,/SDA*%
X14270000Y-9089000D03*
%TD*%
%TO.P,TP1,1,1*%
%TO.N,/SCL*%
X15330000Y-9000000D03*
%TD*%
D15*
%TO.P,T15,1,1*%
%TO.N,+2V6*%
X14045000Y-10015000D03*
%TD*%
D16*
%TO.N,GND*%
X12910000Y-9745000D03*
X15090000Y-10535000D03*
X12965000Y-10755000D03*
X16410000Y-9250000D03*
X12435000Y-8990000D03*
D17*
X14477500Y-9045000D03*
D16*
X13410000Y-10030000D03*
X13000000Y-10866000D03*
X16070000Y-10150000D03*
X12435000Y-9185000D03*
X13840000Y-10710000D03*
X12945000Y-9115000D03*
X12655000Y-10765000D03*
X12910000Y-9630000D03*
X13820000Y-9140000D03*
X15366062Y-9907062D03*
X12635000Y-9250000D03*
X12690000Y-10876000D03*
X12300000Y-8990000D03*
X13420000Y-10630000D03*
X16020000Y-9090000D03*
X13100000Y-10260000D03*
X12390000Y-10876000D03*
X13073000Y-10567000D03*
X12355000Y-10765000D03*
X15190000Y-10730000D03*
D17*
X16273500Y-10510000D03*
D16*
X15460000Y-10655000D03*
X12300000Y-9185000D03*
X14280000Y-9980000D03*
X13350000Y-9735000D03*
X12910000Y-9875000D03*
X13640000Y-10200000D03*
X13850000Y-10900000D03*
X12760000Y-9120000D03*
%TO.N,/OSC IN*%
X15010000Y-10110000D03*
X16110000Y-9150000D03*
%TO.N,/NRST*%
X15195256Y-10630138D03*
X16180000Y-9960000D03*
X16070000Y-10260000D03*
%TO.N,+2V6*%
X13990000Y-10200000D03*
X15205000Y-9245000D03*
%TO.N,+3V3*%
X14950000Y-9690000D03*
X15090000Y-9608551D03*
D17*
X15510000Y-9080000D03*
X14115000Y-9300000D03*
D16*
X13840000Y-10500000D03*
D17*
X15230000Y-10455000D03*
D16*
X12840000Y-9980000D03*
X15400000Y-9390000D03*
X14154497Y-9085503D03*
%TO.N,Net-(U2-VOUT)*%
X14124000Y-10413750D03*
X13840000Y-10400000D03*
%TO.N,+24V*%
X13090000Y-10460000D03*
%TO.N,+5V*%
X12850000Y-10170000D03*
X12850000Y-10170000D03*
X12670000Y-9550000D03*
D17*
%TO.N,/SCL*%
X15256391Y-9018609D03*
%TO.N,/SDA*%
X14200000Y-9320000D03*
%TO.N,/SWCLK*%
X15590000Y-10640000D03*
X14140000Y-9820000D03*
%TO.N,/SWDIO*%
X15650000Y-10820000D03*
X14160000Y-9610000D03*
D16*
%TO.N,/GND_ISO*%
X9130000Y-9990000D03*
X10200000Y-9540000D03*
X9320000Y-9540000D03*
X11040000Y-10720000D03*
X10580000Y-10170000D03*
X11260000Y-10720000D03*
X10365000Y-10190000D03*
X10180000Y-10190000D03*
X10800000Y-9960000D03*
X10010000Y-9540000D03*
X9830000Y-9540000D03*
X11350000Y-9050000D03*
X10630000Y-9520000D03*
X10760000Y-9050000D03*
X9995000Y-10190000D03*
X9810000Y-10190000D03*
X10760000Y-9390000D03*
X10340000Y-9540000D03*
X10710000Y-10180000D03*
X10840000Y-10720000D03*
X10640000Y-10720000D03*
X9130000Y-9780000D03*
X11020000Y-9050000D03*
X9320000Y-10210000D03*
%TO.N,/CAN RX*%
X14041391Y-9083609D03*
X12470000Y-9810000D03*
%TO.N,Net-(C35-Pad1)*%
X11020000Y-10220000D03*
X11400000Y-10680000D03*
%TO.N,/Power Supply 3.3v 2.6v/BOOT_+5V*%
X13340000Y-9260000D03*
X13860000Y-9680000D03*
D17*
%TO.N,/STBY_CAN*%
X14170000Y-9940000D03*
D16*
X12470000Y-9580000D03*
%TO.N,/Power Supply 3.3v 2.6v/VO_+3.3V*%
X13280000Y-10760000D03*
X12900000Y-10060000D03*
%TO.N,/URAT_TX*%
X16410000Y-9040000D03*
X15460000Y-10430000D03*
X15679497Y-10119498D03*
%TO.N,/URAT_RX*%
X14985000Y-9060000D03*
X15490000Y-10125000D03*
D18*
%TO.N,/CAN+*%
X9430000Y-10190000D03*
%TO.N,/CAN-*%
X9420000Y-9570000D03*
%TD*%
%TO.N,GND*%
D19*
X13060000Y-10580000D02*
X10337500Y-10580000D01*
X10297500Y-10620000D02*
X10337500Y-10580000D01*
X13073000Y-10567000D02*
X13060000Y-10580000D01*
X9260000Y-10540000D02*
X9590000Y-10870000D01*
X9590000Y-10870000D02*
X10137500Y-10870000D01*
X10297500Y-10710000D02*
X10297500Y-10620000D01*
X10137500Y-10870000D02*
X10297500Y-10710000D01*
%TO.N,/OSC IN*%
D20*
X14980000Y-10140000D02*
X14830000Y-10140000D01*
X15010000Y-10110000D02*
X14980000Y-10140000D01*
%TO.N,/NRST*%
X15800000Y-10900000D02*
X16070000Y-10630000D01*
X16070000Y-10630000D02*
X16070000Y-10260000D01*
X16180000Y-10150000D02*
X16070000Y-10260000D01*
X16180000Y-9960000D02*
X16180000Y-10150000D01*
X15190000Y-10900000D02*
X15800000Y-10900000D01*
X15190867Y-10630138D02*
X15105000Y-10716005D01*
X15105000Y-10716005D02*
X15105000Y-10815000D01*
X15195256Y-10630138D02*
X15190867Y-10630138D01*
X15105000Y-10815000D02*
X15190000Y-10900000D01*
%TO.N,+2V6*%
D21*
X14040000Y-9570000D02*
X14040000Y-10020000D01*
X14045000Y-10145000D02*
X13990000Y-10200000D01*
X15205000Y-9245000D02*
X15175000Y-9275000D01*
X15175000Y-9275000D02*
X14335000Y-9275000D01*
X14045000Y-10015000D02*
X14045000Y-10145000D01*
X14335000Y-9275000D02*
X14040000Y-9570000D01*
%TO.N,+3V3*%
D20*
X14950000Y-9690000D02*
X15031449Y-9608551D01*
D21*
X13120000Y-9980000D02*
X13310000Y-10170000D01*
X15230000Y-10455000D02*
X15225000Y-10460000D01*
X15225000Y-10460000D02*
X15040000Y-10460000D01*
X15000000Y-10500000D02*
X13840000Y-10500000D01*
X15040000Y-10460000D02*
X15000000Y-10500000D01*
X12840000Y-9980000D02*
X13120000Y-9980000D01*
X13822000Y-10482000D02*
X13840000Y-10500000D01*
D20*
X14115000Y-9125000D02*
X14154497Y-9085503D01*
D21*
X13310000Y-10170000D02*
X13310000Y-10330000D01*
X13310000Y-10330000D02*
X13462000Y-10482000D01*
X13570000Y-10482000D02*
X13822000Y-10482000D01*
D20*
X15510000Y-9280000D02*
X15510000Y-9080000D01*
X14115000Y-9300000D02*
X14115000Y-9125000D01*
X15031449Y-9608551D02*
X15090000Y-9608551D01*
D21*
X13462000Y-10482000D02*
X13570000Y-10482000D01*
D20*
X15400000Y-9390000D02*
X15510000Y-9280000D01*
%TO.N,Net-(U2-VOUT)*%
D21*
X14124000Y-10413750D02*
X14110250Y-10400000D01*
X14124000Y-10413750D02*
X13988750Y-10413750D01*
X13975000Y-10400000D02*
X13840000Y-10400000D01*
X13988750Y-10413750D02*
X13975000Y-10400000D01*
%TO.N,+24V*%
D19*
X13090000Y-10460000D02*
X10357500Y-10460000D01*
X10357500Y-10460000D02*
X10297500Y-10400000D01*
%TO.N,+5V*%
D21*
X12850000Y-10170000D02*
X12760000Y-10080000D01*
X12760000Y-9640000D02*
X12670000Y-9550000D01*
X12850000Y-10170000D02*
X12860000Y-10180000D01*
X12760000Y-10080000D02*
X12760000Y-9640000D01*
X12860000Y-10180000D02*
X12860000Y-10230000D01*
%TO.N,/SCL*%
D20*
X15295000Y-8980000D02*
X15680000Y-8980000D01*
X15680000Y-8980000D02*
X16100000Y-9400000D01*
X15256391Y-9018609D02*
X15295000Y-8980000D01*
%TO.N,/SDA*%
X14291000Y-9089000D02*
X14390000Y-8990000D01*
X14390000Y-8990000D02*
X15150000Y-8990000D01*
X15475000Y-9025000D02*
X15565000Y-9025000D01*
X16200000Y-9660000D02*
X16200000Y-9740000D01*
X15150000Y-8990000D02*
X15270000Y-9110000D01*
X15565000Y-9025000D02*
X16200000Y-9660000D01*
X14270000Y-9089000D02*
X14270000Y-9250000D01*
X16180790Y-9759210D02*
X16100000Y-9759210D01*
X14270000Y-9250000D02*
X14200000Y-9320000D01*
X15270000Y-9110000D02*
X15390000Y-9110000D01*
X15390000Y-9110000D02*
X15475000Y-9025000D01*
X16200000Y-9740000D02*
X16180790Y-9759210D01*
%TO.N,/SWCLK*%
X15380000Y-10740000D02*
X15310000Y-10670000D01*
X15310000Y-10170000D02*
X15000000Y-9860000D01*
X15590000Y-10640000D02*
X15490000Y-10740000D01*
X15310000Y-10670000D02*
X15310000Y-10170000D01*
X14180000Y-9860000D02*
X14140000Y-9820000D01*
X15490000Y-10740000D02*
X15380000Y-10740000D01*
X15000000Y-9860000D02*
X14180000Y-9860000D01*
%TO.N,/SWDIO*%
X15420000Y-10550000D02*
X15390000Y-10520000D01*
X15390000Y-10520000D02*
X15390000Y-10030000D01*
X15650000Y-10820000D02*
X15650000Y-10595000D01*
X15130000Y-9770000D02*
X14320000Y-9770000D01*
X15390000Y-10030000D02*
X15130000Y-9770000D01*
X15650000Y-10595000D02*
X15605000Y-10550000D01*
X14320000Y-9770000D02*
X14160000Y-9610000D01*
X15605000Y-10550000D02*
X15420000Y-10550000D01*
%TO.N,/CAN RX*%
X12470000Y-9725000D02*
X12470000Y-9810000D01*
X12385000Y-9640000D02*
X12470000Y-9725000D01*
X12740000Y-9030000D02*
X12385000Y-9385000D01*
X13987782Y-9030000D02*
X12740000Y-9030000D01*
X14041391Y-9083609D02*
X13987782Y-9030000D01*
X12385000Y-9385000D02*
X12385000Y-9640000D01*
%TO.N,/Power Supply 3.3v 2.6v/BOOT_+5V*%
D21*
X13340000Y-9595000D02*
X13340000Y-9260000D01*
X13425000Y-9680000D02*
X13340000Y-9595000D01*
X13860000Y-9680000D02*
X13425000Y-9680000D01*
%TO.N,/STBY_CAN*%
D20*
X12545000Y-9580000D02*
X12590000Y-9535000D01*
X14170000Y-10195000D02*
X14065000Y-10300000D01*
X14170000Y-9940000D02*
X14170000Y-10195000D01*
X12590000Y-9455000D02*
X12645000Y-9400000D01*
X13560000Y-10300000D02*
X13075000Y-9815000D01*
X12645000Y-9400000D02*
X12930000Y-9400000D01*
X14065000Y-10300000D02*
X13560000Y-10300000D01*
X12590000Y-9535000D02*
X12590000Y-9455000D01*
X12930000Y-9400000D02*
X13075000Y-9545000D01*
X12470000Y-9580000D02*
X12545000Y-9580000D01*
X13075000Y-9545000D02*
X13075000Y-9815000D01*
%TO.N,/Power Supply 3.3v 2.6v/VO_+3.3V*%
D22*
X12900000Y-10060000D02*
X12900000Y-10080000D01*
X12900000Y-10060000D02*
X13050000Y-10060000D01*
X13230000Y-10240000D02*
X13230000Y-10710000D01*
X13050000Y-10060000D02*
X13230000Y-10240000D01*
X13230000Y-10710000D02*
X13280000Y-10760000D01*
%TO.N,/URAT_TX*%
D20*
X16340000Y-9110000D02*
X16340000Y-9670000D01*
X15630000Y-10320000D02*
X15679497Y-10270503D01*
X15679497Y-10270503D02*
X15679497Y-10119498D01*
X16410000Y-9040000D02*
X16340000Y-9110000D01*
X15460000Y-10370000D02*
X15510000Y-10320000D01*
X16340000Y-9670000D02*
X16040000Y-9970000D01*
X15460000Y-10430000D02*
X15460000Y-10370000D01*
X15510000Y-10320000D02*
X15630000Y-10320000D01*
X15679497Y-10119498D02*
X15828995Y-9970000D01*
X15828995Y-9970000D02*
X16040000Y-9970000D01*
%TO.N,/URAT_RX*%
X15490000Y-9932005D02*
X15275000Y-9717005D01*
X15275000Y-9717005D02*
X15275000Y-9171569D01*
X15275000Y-9171569D02*
X15163431Y-9060000D01*
X15490000Y-10125000D02*
X15490000Y-9932005D01*
X15163431Y-9060000D02*
X14985000Y-9060000D01*
%TO.N,/CAN+*%
D23*
X10410000Y-9172500D02*
X10277500Y-9040000D01*
X9430000Y-10190000D02*
X9430000Y-10140000D01*
X10537500Y-9252751D02*
X10457249Y-9172500D01*
X9667500Y-9902500D02*
X10202249Y-9902500D01*
X9430000Y-10140000D02*
X9667500Y-9902500D01*
X10457249Y-9172500D02*
X10410000Y-9172500D01*
X10202249Y-9902500D02*
X10537500Y-9567249D01*
X10537500Y-9567249D02*
X10537500Y-9252751D01*
%TO.N,/CAN-*%
X10187751Y-9867500D02*
X10502500Y-9552751D01*
X10442751Y-9207500D02*
X10410000Y-9207500D01*
X10502500Y-9552751D02*
X10502500Y-9267249D01*
X10410000Y-9207500D02*
X10277500Y-9340000D01*
X9667500Y-9867500D02*
X10187751Y-9867500D01*
X10502500Y-9267249D02*
X10442751Y-9207500D01*
X9420000Y-9570000D02*
X9420000Y-9620000D01*
X9420000Y-9620000D02*
X9667500Y-9867500D01*
%TD*%
%TA.AperFunction,Conductor*%
%TO.N,/GND_ISO*%
G36*
X11350146Y-10638985D02*
G01*
X11351582Y-10642450D01*
X11350925Y-10644900D01*
X11344042Y-10656821D01*
X11344042Y-10656822D01*
X11339950Y-10672094D01*
X11339950Y-10687906D01*
X11344042Y-10703178D01*
X11344042Y-10703179D01*
X11351947Y-10716871D01*
X11351948Y-10716871D01*
X11351948Y-10716872D01*
X11363128Y-10728052D01*
X11363129Y-10728052D01*
X11363129Y-10728052D01*
X11376821Y-10735958D01*
X11376821Y-10735958D01*
X11376822Y-10735958D01*
X11388866Y-10739185D01*
X11392094Y-10740050D01*
X11392094Y-10740050D01*
X11392094Y-10740050D01*
X11407906Y-10740050D01*
X11407906Y-10740050D01*
X11423178Y-10735958D01*
X11436872Y-10728052D01*
X11448052Y-10716872D01*
X11452792Y-10708662D01*
X11455958Y-10703179D01*
X11455958Y-10703179D01*
X11455958Y-10703178D01*
X11460050Y-10687906D01*
X11460050Y-10687906D01*
X11460050Y-10672094D01*
X11460050Y-10672094D01*
X11455958Y-10656822D01*
X11455958Y-10656821D01*
X11449075Y-10644900D01*
X11448585Y-10641182D01*
X11450868Y-10638207D01*
X11453318Y-10637550D01*
X11475100Y-10637550D01*
X11478565Y-10638985D01*
X11480000Y-10642450D01*
X11480000Y-10950022D01*
X11478565Y-10953487D01*
X11475105Y-10954922D01*
X10514905Y-10955872D01*
X10511439Y-10954441D01*
X10510000Y-10950977D01*
X10510000Y-10642450D01*
X10511435Y-10638985D01*
X10514900Y-10637550D01*
X11346682Y-10637550D01*
X11350146Y-10638985D01*
G37*
%TD.AperFunction*%
%TA.AperFunction,Conductor*%
G36*
X11478564Y-8903202D02*
G01*
X11480000Y-8906666D01*
X11480000Y-9915100D01*
X11478565Y-9918565D01*
X11475100Y-9920000D01*
X11250000Y-9920000D01*
X11250000Y-10005100D01*
X11248565Y-10008565D01*
X11245100Y-10010000D01*
X10860000Y-10010000D01*
X10860000Y-10195100D01*
X10858565Y-10198565D01*
X10855100Y-10200000D01*
X10660000Y-10200000D01*
X10660000Y-10397550D01*
X10658565Y-10401015D01*
X10655100Y-10402450D01*
X10514900Y-10402450D01*
X10511435Y-10401015D01*
X10510000Y-10397550D01*
X10510000Y-10270000D01*
X9094900Y-10270000D01*
X9091435Y-10268565D01*
X9090000Y-10265100D01*
X9090000Y-9504900D01*
X9091435Y-9501435D01*
X9094900Y-9500000D01*
X9401542Y-9500000D01*
X9405007Y-9501435D01*
X9406442Y-9504900D01*
X9405007Y-9508365D01*
X9402498Y-9509706D01*
X9401755Y-9509854D01*
X9401755Y-9509854D01*
X9401754Y-9509854D01*
X9390372Y-9514569D01*
X9390372Y-9514569D01*
X9390371Y-9514569D01*
X9387767Y-9516309D01*
X9380127Y-9521414D01*
X9371414Y-9530127D01*
X9364569Y-9540372D01*
X9359854Y-9551754D01*
X9359854Y-9551755D01*
X9358646Y-9557825D01*
X9357450Y-9563839D01*
X9357450Y-9576161D01*
X9359045Y-9584180D01*
X9359854Y-9588245D01*
X9359854Y-9588246D01*
X9364569Y-9599628D01*
X9364569Y-9599628D01*
X9364569Y-9599629D01*
X9368148Y-9604984D01*
X9371414Y-9609873D01*
X9372015Y-9610474D01*
X9373450Y-9613939D01*
X9373450Y-9626129D01*
X9376622Y-9637968D01*
X9376622Y-9637968D01*
X9382751Y-9648582D01*
X9615704Y-9881535D01*
X9617139Y-9885000D01*
X9615704Y-9888465D01*
X9392751Y-10111418D01*
X9392751Y-10111418D01*
X9386622Y-10122032D01*
X9386622Y-10122032D01*
X9384527Y-10129854D01*
X9384527Y-10129854D01*
X9383450Y-10133871D01*
X9383450Y-10146061D01*
X9382015Y-10149526D01*
X9381414Y-10150127D01*
X9374569Y-10160372D01*
X9369854Y-10171754D01*
X9369854Y-10171755D01*
X9368646Y-10177825D01*
X9367450Y-10183839D01*
X9367450Y-10196161D01*
X9368214Y-10200000D01*
X9369854Y-10208245D01*
X9369854Y-10208246D01*
X9374569Y-10219628D01*
X9374569Y-10219628D01*
X9374569Y-10219629D01*
X9381414Y-10229873D01*
X9390127Y-10238586D01*
X9400371Y-10245431D01*
X9400372Y-10245431D01*
X9411754Y-10250146D01*
X9411754Y-10250146D01*
X9411755Y-10250146D01*
X9423839Y-10252550D01*
X9423840Y-10252550D01*
X9436160Y-10252550D01*
X9436161Y-10252550D01*
X9448245Y-10250146D01*
X9459629Y-10245431D01*
X9469873Y-10238586D01*
X9478586Y-10229873D01*
X9485431Y-10219629D01*
X9490146Y-10208245D01*
X9492550Y-10196161D01*
X9492550Y-10183839D01*
X9490146Y-10171755D01*
X9485431Y-10160371D01*
X9483671Y-10157738D01*
X9482940Y-10154060D01*
X9484281Y-10151551D01*
X9685346Y-9950485D01*
X9688811Y-9949050D01*
X10208378Y-9949050D01*
X10208378Y-9949050D01*
X10220217Y-9945878D01*
X10230831Y-9939749D01*
X10574749Y-9595831D01*
X10580878Y-9585216D01*
X10584050Y-9573378D01*
X10584050Y-9573378D01*
X10584050Y-9246623D01*
X10584050Y-9246622D01*
X10581045Y-9235407D01*
X10581045Y-9235406D01*
X10581045Y-9235407D01*
X10580878Y-9234784D01*
X10580878Y-9234784D01*
X10578116Y-9230000D01*
X10574749Y-9224169D01*
X10566082Y-9215502D01*
X10565912Y-9215331D01*
X10565911Y-9215330D01*
X10485831Y-9135251D01*
X10475217Y-9129122D01*
X10475216Y-9129122D01*
X10463378Y-9125950D01*
X10463377Y-9125950D01*
X10431311Y-9125950D01*
X10427847Y-9124515D01*
X10411435Y-9108104D01*
X10410000Y-9104639D01*
X10410000Y-8907030D01*
X10411435Y-8903565D01*
X10414898Y-8902130D01*
X11475098Y-8901768D01*
X11478564Y-8903202D01*
G37*
%TD.AperFunction*%
%TA.AperFunction,Conductor*%
G36*
X10429840Y-9260421D02*
G01*
X10454515Y-9285095D01*
X10455950Y-9288560D01*
X10455950Y-9531440D01*
X10454515Y-9534905D01*
X10169905Y-9819515D01*
X10166440Y-9820950D01*
X9688811Y-9820950D01*
X9685347Y-9819515D01*
X9474281Y-9608449D01*
X9472846Y-9604984D01*
X9473672Y-9602262D01*
X9475431Y-9599628D01*
X9480146Y-9588246D01*
X9480146Y-9588246D01*
X9480146Y-9588245D01*
X9482550Y-9576161D01*
X9482550Y-9563839D01*
X9480146Y-9551755D01*
X9475431Y-9540371D01*
X9468586Y-9530127D01*
X9459873Y-9521414D01*
X9449629Y-9514569D01*
X9449628Y-9514569D01*
X9449628Y-9514569D01*
X9438246Y-9509854D01*
X9438245Y-9509854D01*
X9438245Y-9509854D01*
X9437502Y-9509706D01*
X9434384Y-9507622D01*
X9433652Y-9503944D01*
X9435735Y-9500826D01*
X9438458Y-9500000D01*
X10410000Y-9500000D01*
X10410000Y-9275361D01*
X10411435Y-9271896D01*
X10422911Y-9260421D01*
X10426376Y-9258986D01*
X10429840Y-9260421D01*
G37*
%TD.AperFunction*%
%TD*%
%TA.AperFunction,Conductor*%
%TO.N,GND*%
G36*
X16700120Y-8900056D02*
G01*
X16730892Y-8901568D01*
X16731158Y-8901588D01*
X16738445Y-8902354D01*
X16738638Y-8902378D01*
X16765579Y-8906375D01*
X16765875Y-8906428D01*
X16772501Y-8907837D01*
X16772656Y-8907872D01*
X16799695Y-8914645D01*
X16800013Y-8914737D01*
X16805434Y-8916498D01*
X16805566Y-8916543D01*
X16832871Y-8926313D01*
X16833211Y-8926449D01*
X16834608Y-8927071D01*
X16836635Y-8927974D01*
X16836730Y-8928017D01*
X16864750Y-8941270D01*
X16865170Y-8941494D01*
X16876883Y-8948515D01*
X16894216Y-8958904D01*
X16894616Y-8959171D01*
X16908214Y-8969256D01*
X16921813Y-8979342D01*
X16922184Y-8979646D01*
X16925399Y-8982560D01*
X16947274Y-9002386D01*
X16947614Y-9002726D01*
X16967236Y-9024376D01*
X16969544Y-9026923D01*
X16970354Y-9027816D01*
X16970658Y-9028187D01*
X16971966Y-9029950D01*
X16990829Y-9055384D01*
X16991096Y-9055784D01*
X17003035Y-9075703D01*
X17008294Y-9084477D01*
X17008505Y-9084829D01*
X17008731Y-9085251D01*
X17019515Y-9108052D01*
X17021979Y-9113263D01*
X17022026Y-9113365D01*
X17023550Y-9116788D01*
X17023687Y-9117130D01*
X17033456Y-9144433D01*
X17033503Y-9144569D01*
X17035262Y-9149984D01*
X17035355Y-9150307D01*
X17042126Y-9177335D01*
X17042165Y-9177507D01*
X17043571Y-9184123D01*
X17043625Y-9184423D01*
X17047621Y-9211355D01*
X17047647Y-9211562D01*
X17048412Y-9218839D01*
X17048432Y-9219111D01*
X17049944Y-9249880D01*
X17049950Y-9250120D01*
X17049950Y-10599880D01*
X17049944Y-10600120D01*
X17048432Y-10630889D01*
X17048412Y-10631161D01*
X17047647Y-10638438D01*
X17047621Y-10638645D01*
X17043625Y-10665577D01*
X17043571Y-10665877D01*
X17042165Y-10672493D01*
X17042126Y-10672664D01*
X17035355Y-10699692D01*
X17035262Y-10700016D01*
X17033503Y-10705431D01*
X17033456Y-10705567D01*
X17023687Y-10732870D01*
X17023550Y-10733212D01*
X17022026Y-10736635D01*
X17021979Y-10736737D01*
X17008732Y-10764747D01*
X17008505Y-10765171D01*
X16991096Y-10794216D01*
X16990829Y-10794616D01*
X16970659Y-10821812D01*
X16970354Y-10822184D01*
X16947614Y-10847274D01*
X16947274Y-10847614D01*
X16922184Y-10870354D01*
X16921812Y-10870659D01*
X16894616Y-10890829D01*
X16894216Y-10891096D01*
X16865171Y-10908505D01*
X16864747Y-10908732D01*
X16836737Y-10921979D01*
X16836635Y-10922026D01*
X16833212Y-10923550D01*
X16832870Y-10923687D01*
X16805567Y-10933456D01*
X16805431Y-10933503D01*
X16800016Y-10935262D01*
X16799692Y-10935355D01*
X16772664Y-10942126D01*
X16772492Y-10942165D01*
X16765877Y-10943571D01*
X16765577Y-10943625D01*
X16738645Y-10947621D01*
X16738438Y-10947647D01*
X16731161Y-10948412D01*
X16730889Y-10948432D01*
X16700120Y-10949944D01*
X16699880Y-10949950D01*
X16499979Y-10949950D01*
X16499979Y-10949950D01*
X16420728Y-10950028D01*
X12204905Y-10954200D01*
X12201439Y-10952768D01*
X12200000Y-10949305D01*
X12200000Y-10522450D01*
X12201435Y-10518985D01*
X12204900Y-10517550D01*
X13072119Y-10517550D01*
X13073387Y-10517717D01*
X13082094Y-10520050D01*
X13082094Y-10520050D01*
X13097906Y-10520050D01*
X13097906Y-10520050D01*
X13113178Y-10515958D01*
X13126872Y-10508052D01*
X13138052Y-10496872D01*
X13139722Y-10493979D01*
X13145958Y-10483179D01*
X13145958Y-10483179D01*
X13145958Y-10483178D01*
X13150050Y-10467906D01*
X13150050Y-10467906D01*
X13150050Y-10452094D01*
X13150050Y-10452094D01*
X13147291Y-10441797D01*
X13145958Y-10436822D01*
X13145958Y-10436822D01*
X13145958Y-10436821D01*
X13138052Y-10423129D01*
X13138052Y-10423129D01*
X13138052Y-10423128D01*
X13126872Y-10411948D01*
X13126871Y-10411948D01*
X13126871Y-10411948D01*
X13113179Y-10404042D01*
X13113178Y-10404042D01*
X13097906Y-10399950D01*
X13097906Y-10399950D01*
X13082094Y-10399950D01*
X13082094Y-10399950D01*
X13073387Y-10402283D01*
X13072119Y-10402450D01*
X12204900Y-10402450D01*
X12201435Y-10401015D01*
X12200000Y-10397550D01*
X12200000Y-10344900D01*
X12201435Y-10341435D01*
X12204900Y-10340000D01*
X12720000Y-10340000D01*
X12720000Y-10099105D01*
X12721435Y-10095640D01*
X12724900Y-10094205D01*
X12728365Y-10095640D01*
X12729143Y-10096655D01*
X12729268Y-10096871D01*
X12731953Y-10101521D01*
X12788541Y-10158109D01*
X12789976Y-10161574D01*
X12789950Y-10161975D01*
X12789950Y-10178025D01*
X12789950Y-10281975D01*
X12791113Y-10287823D01*
X12792534Y-10289950D01*
X12795545Y-10294455D01*
X12797788Y-10295954D01*
X12802177Y-10298887D01*
X12808025Y-10300050D01*
X12808025Y-10300050D01*
X12911974Y-10300050D01*
X12911975Y-10300050D01*
X12917823Y-10298887D01*
X12924455Y-10294455D01*
X12928887Y-10287823D01*
X12930050Y-10281975D01*
X12930050Y-10178025D01*
X12928887Y-10172177D01*
X12925108Y-10166521D01*
X12924455Y-10165545D01*
X12919291Y-10162094D01*
X12917823Y-10161113D01*
X12917823Y-10161113D01*
X12917823Y-10161113D01*
X12912323Y-10160019D01*
X12909205Y-10157936D01*
X12908546Y-10156482D01*
X12906321Y-10148179D01*
X12905958Y-10146822D01*
X12905958Y-10146822D01*
X12905958Y-10146822D01*
X12900606Y-10137553D01*
X12898052Y-10133129D01*
X12898052Y-10133129D01*
X12898052Y-10133128D01*
X12893338Y-10128415D01*
X12891903Y-10124950D01*
X12893338Y-10121485D01*
X12896803Y-10120050D01*
X12907906Y-10120050D01*
X12907906Y-10120050D01*
X12923178Y-10115958D01*
X12930741Y-10111592D01*
X12936871Y-10108052D01*
X12936871Y-10108052D01*
X12936872Y-10108052D01*
X12948052Y-10096872D01*
X12949133Y-10095000D01*
X12952108Y-10092717D01*
X12953376Y-10092550D01*
X13034488Y-10092550D01*
X13037952Y-10093985D01*
X13196015Y-10252048D01*
X13197450Y-10255512D01*
X13197450Y-10714286D01*
X13199668Y-10722564D01*
X13199668Y-10722564D01*
X13203953Y-10729986D01*
X13219241Y-10745274D01*
X13220676Y-10748739D01*
X13220509Y-10750007D01*
X13219950Y-10752094D01*
X13219950Y-10767906D01*
X13224042Y-10783178D01*
X13224042Y-10783179D01*
X13231947Y-10796871D01*
X13231948Y-10796871D01*
X13231948Y-10796872D01*
X13243128Y-10808052D01*
X13243129Y-10808052D01*
X13243129Y-10808052D01*
X13256821Y-10815958D01*
X13256821Y-10815958D01*
X13256822Y-10815958D01*
X13268866Y-10819185D01*
X13272094Y-10820050D01*
X13272094Y-10820050D01*
X13272094Y-10820050D01*
X13287906Y-10820050D01*
X13287906Y-10820050D01*
X13303178Y-10815958D01*
X13316872Y-10808052D01*
X13328052Y-10796872D01*
X13335958Y-10783178D01*
X13340050Y-10767906D01*
X13340050Y-10767906D01*
X13340050Y-10752094D01*
X13340050Y-10752094D01*
X13335958Y-10736822D01*
X13335958Y-10736821D01*
X13328052Y-10723129D01*
X13328052Y-10723129D01*
X13328052Y-10723128D01*
X13316872Y-10711948D01*
X13316871Y-10711948D01*
X13316871Y-10711948D01*
X13303179Y-10704042D01*
X13303178Y-10704042D01*
X13287906Y-10699950D01*
X13287906Y-10699950D01*
X13272094Y-10699950D01*
X13272094Y-10699950D01*
X13270007Y-10700509D01*
X13266288Y-10700020D01*
X13265274Y-10699241D01*
X13263985Y-10697953D01*
X13262550Y-10694488D01*
X13262550Y-10235714D01*
X13262550Y-10235714D01*
X13260332Y-10227436D01*
X13260332Y-10227436D01*
X13256046Y-10220014D01*
X13069986Y-10033954D01*
X13062564Y-10029668D01*
X13062564Y-10029668D01*
X13054286Y-10027450D01*
X13054285Y-10027450D01*
X12953376Y-10027450D01*
X12949911Y-10026015D01*
X12949133Y-10025000D01*
X12948052Y-10023128D01*
X12948052Y-10023128D01*
X12948052Y-10023128D01*
X12947902Y-10022933D01*
X12946931Y-10019310D01*
X12948807Y-10016063D01*
X12951789Y-10015050D01*
X13103452Y-10015050D01*
X13106917Y-10016485D01*
X13273515Y-10183083D01*
X13274950Y-10186548D01*
X13274950Y-10334614D01*
X13276380Y-10339950D01*
X13277339Y-10343529D01*
X13277339Y-10343529D01*
X13281104Y-10350050D01*
X13281953Y-10351521D01*
X13440479Y-10510047D01*
X13446509Y-10513529D01*
X13448471Y-10514661D01*
X13450700Y-10515259D01*
X13457385Y-10517050D01*
X13457386Y-10517050D01*
X13457386Y-10517050D01*
X13466614Y-10517050D01*
X13495050Y-10517050D01*
X13498515Y-10518485D01*
X13499950Y-10521950D01*
X13499950Y-10533975D01*
X13501113Y-10539823D01*
X13502614Y-10542069D01*
X13505545Y-10546455D01*
X13507934Y-10548052D01*
X13512177Y-10550887D01*
X13518025Y-10552050D01*
X13518025Y-10552050D01*
X13621974Y-10552050D01*
X13621975Y-10552050D01*
X13627823Y-10550887D01*
X13634455Y-10546455D01*
X13638887Y-10539823D01*
X13640050Y-10533975D01*
X13640050Y-10521950D01*
X13641485Y-10518485D01*
X13644950Y-10517050D01*
X13778640Y-10517050D01*
X13782105Y-10518485D01*
X13783373Y-10520682D01*
X13784042Y-10523178D01*
X13784042Y-10523179D01*
X13791947Y-10536871D01*
X13791948Y-10536871D01*
X13791948Y-10536872D01*
X13803128Y-10548052D01*
X13803129Y-10548052D01*
X13803129Y-10548052D01*
X13816821Y-10555958D01*
X13816821Y-10555958D01*
X13816822Y-10555958D01*
X13825108Y-10558178D01*
X13832094Y-10560050D01*
X13832094Y-10560050D01*
X13832094Y-10560050D01*
X13847906Y-10560050D01*
X13847906Y-10560050D01*
X13863178Y-10555958D01*
X13876872Y-10548052D01*
X13888052Y-10536872D01*
X13888052Y-10536872D01*
X13888279Y-10536645D01*
X13888374Y-10536739D01*
X13891226Y-10535092D01*
X13891866Y-10535050D01*
X15004615Y-10535050D01*
X15009072Y-10533856D01*
X15013529Y-10532661D01*
X15015369Y-10531599D01*
X15021521Y-10528047D01*
X15053083Y-10496485D01*
X15056548Y-10495050D01*
X15207956Y-10495050D01*
X15210406Y-10495707D01*
X15212424Y-10496872D01*
X15212611Y-10496980D01*
X15215476Y-10497747D01*
X15224069Y-10500050D01*
X15224069Y-10500050D01*
X15235931Y-10500050D01*
X15241660Y-10498515D01*
X15247389Y-10496980D01*
X15257661Y-10491049D01*
X15266049Y-10482661D01*
X15270806Y-10474421D01*
X15273782Y-10472138D01*
X15277500Y-10472628D01*
X15279783Y-10475603D01*
X15279950Y-10476871D01*
X15279950Y-10673956D01*
X15281998Y-10681599D01*
X15281998Y-10681599D01*
X15283990Y-10685050D01*
X15284594Y-10686096D01*
X15285954Y-10688451D01*
X15285954Y-10688451D01*
X15285954Y-10688451D01*
X15355954Y-10758451D01*
X15361549Y-10764046D01*
X15368401Y-10768002D01*
X15371948Y-10768952D01*
X15376044Y-10770050D01*
X15376044Y-10770050D01*
X15493956Y-10770050D01*
X15496623Y-10769335D01*
X15501599Y-10768002D01*
X15508451Y-10764046D01*
X15514046Y-10758451D01*
X15586012Y-10686485D01*
X15589477Y-10685050D01*
X15595931Y-10685050D01*
X15602781Y-10683215D01*
X15607389Y-10681980D01*
X15612600Y-10678971D01*
X15616318Y-10678481D01*
X15619293Y-10680764D01*
X15619950Y-10683215D01*
X15619950Y-10784310D01*
X15618515Y-10787775D01*
X15613951Y-10792339D01*
X15613951Y-10792339D01*
X15608020Y-10802611D01*
X15608020Y-10802612D01*
X15604950Y-10814069D01*
X15604950Y-10825931D01*
X15608020Y-10837388D01*
X15608020Y-10837389D01*
X15612874Y-10845796D01*
X15613951Y-10847661D01*
X15622339Y-10856049D01*
X15628181Y-10859422D01*
X15630579Y-10860807D01*
X15632862Y-10863782D01*
X15632372Y-10867500D01*
X15629397Y-10869783D01*
X15628129Y-10869950D01*
X15204477Y-10869950D01*
X15201012Y-10868515D01*
X15136485Y-10803988D01*
X15135050Y-10800523D01*
X15135050Y-10730482D01*
X15136485Y-10727017D01*
X15174280Y-10689222D01*
X15177745Y-10687787D01*
X15179013Y-10687954D01*
X15187350Y-10690188D01*
X15187350Y-10690188D01*
X15203162Y-10690188D01*
X15203162Y-10690188D01*
X15218434Y-10686096D01*
X15220059Y-10685158D01*
X15232127Y-10678190D01*
X15232127Y-10678190D01*
X15232127Y-10678190D01*
X15243308Y-10667010D01*
X15251214Y-10653316D01*
X15255306Y-10638044D01*
X15255306Y-10638044D01*
X15255306Y-10622232D01*
X15255306Y-10622232D01*
X15251214Y-10606960D01*
X15251213Y-10606959D01*
X15243308Y-10593267D01*
X15243308Y-10593267D01*
X15243308Y-10593266D01*
X15232127Y-10582086D01*
X15232127Y-10582086D01*
X15232127Y-10582085D01*
X15218434Y-10574180D01*
X15218434Y-10574180D01*
X15203162Y-10570088D01*
X15203162Y-10570088D01*
X15187350Y-10570088D01*
X15187350Y-10570088D01*
X15172078Y-10574180D01*
X15172077Y-10574180D01*
X15158385Y-10582085D01*
X15158384Y-10582086D01*
X15147204Y-10593266D01*
X15147203Y-10593267D01*
X15139298Y-10606959D01*
X15139298Y-10606960D01*
X15135206Y-10622232D01*
X15135206Y-10638044D01*
X15135585Y-10639458D01*
X15135095Y-10643176D01*
X15134317Y-10644191D01*
X15086549Y-10691959D01*
X15080954Y-10697554D01*
X15080954Y-10697554D01*
X15076998Y-10704406D01*
X15076998Y-10704406D01*
X15074950Y-10712049D01*
X15074950Y-10818956D01*
X15076998Y-10826599D01*
X15076998Y-10826599D01*
X15080954Y-10833451D01*
X15171549Y-10924046D01*
X15176565Y-10926942D01*
X15178401Y-10928002D01*
X15178401Y-10928002D01*
X15184429Y-10929617D01*
X15186043Y-10930050D01*
X15186043Y-10930050D01*
X15186044Y-10930050D01*
X15803956Y-10930050D01*
X15806623Y-10929335D01*
X15811599Y-10928002D01*
X15818451Y-10924046D01*
X15824046Y-10918451D01*
X16094046Y-10648451D01*
X16098002Y-10641599D01*
X16100050Y-10633957D01*
X16100050Y-10633957D01*
X16100050Y-10596241D01*
X16485000Y-10596241D01*
X16485000Y-10623759D01*
X16488081Y-10651103D01*
X16488081Y-10651103D01*
X16494204Y-10677931D01*
X16503293Y-10703906D01*
X16503293Y-10703906D01*
X16515232Y-10728698D01*
X16515232Y-10728698D01*
X16529872Y-10751997D01*
X16547029Y-10773511D01*
X16547030Y-10773513D01*
X16549688Y-10776170D01*
X16627469Y-10698388D01*
X16641612Y-10712530D01*
X16563830Y-10790312D01*
X16566487Y-10792970D01*
X16566489Y-10792971D01*
X16588002Y-10810127D01*
X16611302Y-10824768D01*
X16611302Y-10824768D01*
X16636094Y-10836707D01*
X16636094Y-10836707D01*
X16662069Y-10845796D01*
X16662068Y-10845796D01*
X16688897Y-10851919D01*
X16716241Y-10855000D01*
X16743759Y-10855000D01*
X16771103Y-10851919D01*
X16771103Y-10851919D01*
X16797931Y-10845796D01*
X16823906Y-10836707D01*
X16823906Y-10836707D01*
X16848698Y-10824768D01*
X16848698Y-10824768D01*
X16871997Y-10810127D01*
X16893513Y-10792969D01*
X16896170Y-10790312D01*
X16896170Y-10790312D01*
X16818388Y-10712530D01*
X16832530Y-10698388D01*
X16910312Y-10776170D01*
X16910312Y-10776170D01*
X16912969Y-10773513D01*
X16930127Y-10751997D01*
X16944768Y-10728698D01*
X16944768Y-10728698D01*
X16956707Y-10703906D01*
X16956707Y-10703906D01*
X16965796Y-10677931D01*
X16971919Y-10651103D01*
X16971919Y-10651103D01*
X16975000Y-10623759D01*
X16975000Y-10596241D01*
X16971919Y-10568897D01*
X16971919Y-10568897D01*
X16965796Y-10542069D01*
X16956707Y-10516094D01*
X16956707Y-10516094D01*
X16944768Y-10491302D01*
X16944768Y-10491302D01*
X16930127Y-10468003D01*
X16912971Y-10446489D01*
X16912970Y-10446487D01*
X16910312Y-10443830D01*
X16832530Y-10521612D01*
X16818388Y-10507469D01*
X16896170Y-10429688D01*
X16893513Y-10427030D01*
X16893511Y-10427029D01*
X16871997Y-10409873D01*
X16848698Y-10395232D01*
X16848698Y-10395232D01*
X16823906Y-10383293D01*
X16823906Y-10383293D01*
X16797931Y-10374204D01*
X16797931Y-10374204D01*
X16771103Y-10368081D01*
X16743759Y-10365000D01*
X16716241Y-10365000D01*
X16688897Y-10368081D01*
X16688897Y-10368081D01*
X16662069Y-10374204D01*
X16636094Y-10383293D01*
X16636094Y-10383293D01*
X16611302Y-10395232D01*
X16611302Y-10395232D01*
X16588002Y-10409873D01*
X16566488Y-10427030D01*
X16563830Y-10429688D01*
X16641612Y-10507470D01*
X16627469Y-10521612D01*
X16549688Y-10443830D01*
X16547030Y-10446488D01*
X16529872Y-10468003D01*
X16515232Y-10491302D01*
X16515232Y-10491302D01*
X16503293Y-10516094D01*
X16503293Y-10516094D01*
X16494204Y-10542069D01*
X16488081Y-10568897D01*
X16488081Y-10568897D01*
X16485000Y-10596241D01*
X16100050Y-10596241D01*
X16100050Y-10314819D01*
X16101485Y-10311355D01*
X16102500Y-10310576D01*
X16106872Y-10308052D01*
X16118052Y-10296872D01*
X16122623Y-10288954D01*
X16125958Y-10283179D01*
X16125958Y-10283179D01*
X16125958Y-10283178D01*
X16130050Y-10267906D01*
X16130050Y-10267906D01*
X16130050Y-10252094D01*
X16128743Y-10247218D01*
X16129233Y-10243500D01*
X16130011Y-10242486D01*
X16204046Y-10168451D01*
X16204895Y-10166980D01*
X16207716Y-10162094D01*
X16208002Y-10161599D01*
X16208002Y-10161599D01*
X16208002Y-10161599D01*
X16210050Y-10153956D01*
X16210050Y-10014819D01*
X16211485Y-10011355D01*
X16212500Y-10010576D01*
X16216872Y-10008052D01*
X16228052Y-9996872D01*
X16235958Y-9983178D01*
X16240050Y-9967906D01*
X16240050Y-9967906D01*
X16240050Y-9952094D01*
X16240050Y-9952094D01*
X16237345Y-9941998D01*
X16235958Y-9936822D01*
X16235958Y-9936822D01*
X16235958Y-9936821D01*
X16228052Y-9923129D01*
X16228052Y-9923129D01*
X16228052Y-9923128D01*
X16216872Y-9911948D01*
X16216871Y-9911948D01*
X16216871Y-9911948D01*
X16203179Y-9904042D01*
X16203178Y-9904042D01*
X16187906Y-9899950D01*
X16187906Y-9899950D01*
X16172094Y-9899950D01*
X16172094Y-9899950D01*
X16163056Y-9902372D01*
X16159338Y-9901882D01*
X16157055Y-9898907D01*
X16157544Y-9895189D01*
X16158323Y-9894174D01*
X16364046Y-9688451D01*
X16368002Y-9681599D01*
X16370050Y-9673957D01*
X16370050Y-9673957D01*
X16370050Y-9221241D01*
X16481000Y-9221241D01*
X16481000Y-9248759D01*
X16484081Y-9276103D01*
X16484081Y-9276103D01*
X16490204Y-9302931D01*
X16499293Y-9328906D01*
X16499293Y-9328906D01*
X16511232Y-9353698D01*
X16511232Y-9353698D01*
X16525872Y-9376997D01*
X16543029Y-9398511D01*
X16543030Y-9398513D01*
X16545688Y-9401170D01*
X16623469Y-9323388D01*
X16637612Y-9337530D01*
X16559830Y-9415312D01*
X16562487Y-9417970D01*
X16562489Y-9417971D01*
X16584002Y-9435127D01*
X16607302Y-9449768D01*
X16607302Y-9449768D01*
X16632094Y-9461707D01*
X16632094Y-9461707D01*
X16658069Y-9470796D01*
X16658068Y-9470796D01*
X16684897Y-9476919D01*
X16712241Y-9480000D01*
X16739759Y-9480000D01*
X16767103Y-9476919D01*
X16767103Y-9476919D01*
X16793931Y-9470796D01*
X16819906Y-9461707D01*
X16819906Y-9461707D01*
X16844698Y-9449768D01*
X16844698Y-9449768D01*
X16867997Y-9435127D01*
X16889513Y-9417969D01*
X16892170Y-9415312D01*
X16892170Y-9415312D01*
X16814388Y-9337530D01*
X16828530Y-9323388D01*
X16906312Y-9401170D01*
X16906312Y-9401170D01*
X16908969Y-9398513D01*
X16926127Y-9376997D01*
X16940768Y-9353698D01*
X16940768Y-9353698D01*
X16952707Y-9328906D01*
X16952707Y-9328906D01*
X16961796Y-9302931D01*
X16967919Y-9276103D01*
X16967919Y-9276103D01*
X16971000Y-9248759D01*
X16971000Y-9221241D01*
X16967919Y-9193897D01*
X16967919Y-9193897D01*
X16961796Y-9167069D01*
X16952707Y-9141094D01*
X16952707Y-9141094D01*
X16940768Y-9116302D01*
X16940768Y-9116302D01*
X16926127Y-9093003D01*
X16908971Y-9071489D01*
X16908970Y-9071487D01*
X16906312Y-9068830D01*
X16828530Y-9146612D01*
X16814388Y-9132469D01*
X16892170Y-9054688D01*
X16889513Y-9052030D01*
X16889511Y-9052029D01*
X16867997Y-9034873D01*
X16844698Y-9020232D01*
X16844698Y-9020232D01*
X16819906Y-9008293D01*
X16819906Y-9008293D01*
X16793931Y-8999204D01*
X16793931Y-8999204D01*
X16767103Y-8993081D01*
X16739759Y-8990000D01*
X16712241Y-8990000D01*
X16684897Y-8993081D01*
X16684897Y-8993081D01*
X16658069Y-8999204D01*
X16632094Y-9008293D01*
X16632094Y-9008293D01*
X16607302Y-9020232D01*
X16607302Y-9020232D01*
X16584002Y-9034873D01*
X16562488Y-9052030D01*
X16559830Y-9054688D01*
X16637612Y-9132470D01*
X16623469Y-9146612D01*
X16545688Y-9068830D01*
X16543030Y-9071488D01*
X16525872Y-9093003D01*
X16511232Y-9116302D01*
X16511232Y-9116302D01*
X16499293Y-9141094D01*
X16499293Y-9141094D01*
X16490204Y-9167069D01*
X16484081Y-9193897D01*
X16484081Y-9193897D01*
X16481000Y-9221241D01*
X16370050Y-9221241D01*
X16370050Y-9124477D01*
X16371485Y-9121012D01*
X16392485Y-9100012D01*
X16395950Y-9098577D01*
X16397218Y-9098744D01*
X16402094Y-9100050D01*
X16402094Y-9100050D01*
X16417906Y-9100050D01*
X16417906Y-9100050D01*
X16433178Y-9095958D01*
X16446872Y-9088052D01*
X16458052Y-9076872D01*
X16459722Y-9073979D01*
X16465958Y-9063179D01*
X16465958Y-9063179D01*
X16465958Y-9063178D01*
X16467599Y-9057052D01*
X16469116Y-9051390D01*
X16470050Y-9047906D01*
X16470050Y-9047906D01*
X16470050Y-9032094D01*
X16470050Y-9032094D01*
X16468136Y-9024950D01*
X16465958Y-9016822D01*
X16465958Y-9016822D01*
X16465958Y-9016821D01*
X16458052Y-9003129D01*
X16458052Y-9003129D01*
X16458052Y-9003128D01*
X16446872Y-8991948D01*
X16446871Y-8991948D01*
X16446871Y-8991948D01*
X16433179Y-8984042D01*
X16433178Y-8984042D01*
X16417906Y-8979950D01*
X16417906Y-8979950D01*
X16402094Y-8979950D01*
X16402094Y-8979950D01*
X16386822Y-8984042D01*
X16386821Y-8984042D01*
X16373129Y-8991948D01*
X16373128Y-8991948D01*
X16361948Y-9003128D01*
X16361947Y-9003129D01*
X16354042Y-9016821D01*
X16354042Y-9016822D01*
X16349950Y-9032094D01*
X16349950Y-9047906D01*
X16351256Y-9052782D01*
X16350767Y-9056500D01*
X16349988Y-9057515D01*
X16321549Y-9085954D01*
X16315954Y-9091549D01*
X16315954Y-9091549D01*
X16311998Y-9098401D01*
X16311998Y-9098401D01*
X16309950Y-9106044D01*
X16309950Y-9655523D01*
X16308515Y-9658988D01*
X16238415Y-9729088D01*
X16234950Y-9730523D01*
X16231485Y-9729088D01*
X16230050Y-9725623D01*
X16230050Y-9656044D01*
X16229184Y-9652813D01*
X16228002Y-9648401D01*
X16228002Y-9648401D01*
X16228002Y-9648401D01*
X16225089Y-9643356D01*
X16224046Y-9641549D01*
X16218451Y-9635954D01*
X16095477Y-9512980D01*
X16094042Y-9509515D01*
X16095477Y-9506051D01*
X16098942Y-9504615D01*
X16099898Y-9504710D01*
X16100000Y-9504730D01*
X16107823Y-9503174D01*
X16112781Y-9499861D01*
X16199861Y-9412781D01*
X16203174Y-9407823D01*
X16204730Y-9400000D01*
X16203174Y-9392177D01*
X16199861Y-9387219D01*
X16112781Y-9300139D01*
X16107823Y-9296826D01*
X16100000Y-9295270D01*
X16092177Y-9296826D01*
X16087219Y-9300139D01*
X16068392Y-9318966D01*
X16064927Y-9320401D01*
X16061463Y-9318966D01*
X15884591Y-9142094D01*
X16049950Y-9142094D01*
X16049950Y-9157906D01*
X16054042Y-9173178D01*
X16054042Y-9173179D01*
X16061947Y-9186871D01*
X16061948Y-9186871D01*
X16061948Y-9186872D01*
X16073128Y-9198052D01*
X16073129Y-9198052D01*
X16073129Y-9198052D01*
X16086821Y-9205958D01*
X16086821Y-9205958D01*
X16086822Y-9205958D01*
X16094922Y-9208128D01*
X16102094Y-9210050D01*
X16102094Y-9210050D01*
X16102094Y-9210050D01*
X16117906Y-9210050D01*
X16117906Y-9210050D01*
X16133178Y-9205958D01*
X16146872Y-9198052D01*
X16158052Y-9186872D01*
X16165958Y-9173178D01*
X16170050Y-9157906D01*
X16170050Y-9157906D01*
X16170050Y-9142094D01*
X16170050Y-9142094D01*
X16167353Y-9132028D01*
X16165958Y-9126822D01*
X16165958Y-9126822D01*
X16165958Y-9126821D01*
X16158052Y-9113129D01*
X16158052Y-9113129D01*
X16158052Y-9113128D01*
X16146872Y-9101948D01*
X16146871Y-9101948D01*
X16146871Y-9101948D01*
X16133179Y-9094042D01*
X16133178Y-9094042D01*
X16117906Y-9089950D01*
X16117906Y-9089950D01*
X16102094Y-9089950D01*
X16102094Y-9089950D01*
X16086822Y-9094042D01*
X16086821Y-9094042D01*
X16073129Y-9101948D01*
X16073128Y-9101948D01*
X16061948Y-9113128D01*
X16061947Y-9113129D01*
X16054042Y-9126821D01*
X16054042Y-9126822D01*
X16049950Y-9142094D01*
X15884591Y-9142094D01*
X15698451Y-8955954D01*
X15691599Y-8951998D01*
X15683956Y-8949950D01*
X15683956Y-8949950D01*
X15381045Y-8949950D01*
X15377580Y-8948515D01*
X15374654Y-8945588D01*
X15367807Y-8941014D01*
X15363181Y-8937923D01*
X15363181Y-8937922D01*
X15363181Y-8937922D01*
X15350433Y-8932642D01*
X15350432Y-8932642D01*
X15336900Y-8929950D01*
X15336899Y-8929950D01*
X15323101Y-8929950D01*
X15323100Y-8929950D01*
X15309568Y-8932642D01*
X15309567Y-8932642D01*
X15296819Y-8937922D01*
X15285346Y-8945588D01*
X15275589Y-8955346D01*
X15275588Y-8955346D01*
X15272698Y-8959672D01*
X15272089Y-8960414D01*
X15260379Y-8972124D01*
X15256914Y-8973559D01*
X15250460Y-8973559D01*
X15239002Y-8976629D01*
X15239002Y-8976629D01*
X15228729Y-8982560D01*
X15228729Y-8982560D01*
X15220342Y-8990948D01*
X15220342Y-8990948D01*
X15214411Y-9001220D01*
X15214411Y-9001221D01*
X15214347Y-9001457D01*
X15212064Y-9004432D01*
X15208345Y-9004921D01*
X15206150Y-9003653D01*
X15168451Y-8965954D01*
X15161599Y-8961998D01*
X15153956Y-8959950D01*
X15153956Y-8959950D01*
X14386044Y-8959950D01*
X14386044Y-8959950D01*
X14378401Y-8961998D01*
X14378401Y-8961998D01*
X14371549Y-8965954D01*
X14371549Y-8965954D01*
X14310460Y-9027043D01*
X14306995Y-9028478D01*
X14304273Y-9027652D01*
X14303181Y-9026923D01*
X14303181Y-9026922D01*
X14303181Y-9026922D01*
X14290433Y-9021642D01*
X14290432Y-9021642D01*
X14276900Y-9018950D01*
X14276899Y-9018950D01*
X14263101Y-9018950D01*
X14263100Y-9018950D01*
X14249568Y-9021642D01*
X14249567Y-9021642D01*
X14236819Y-9026922D01*
X14225346Y-9034588D01*
X14215588Y-9044346D01*
X14211644Y-9050249D01*
X14208526Y-9052333D01*
X14204848Y-9051601D01*
X14203326Y-9049976D01*
X14202550Y-9048632D01*
X14202550Y-9048631D01*
X14202549Y-9048631D01*
X14191369Y-9037451D01*
X14191369Y-9037450D01*
X14191368Y-9037450D01*
X14177676Y-9029545D01*
X14177676Y-9029545D01*
X14162403Y-9025453D01*
X14162403Y-9025453D01*
X14146592Y-9025453D01*
X14146591Y-9025453D01*
X14131319Y-9029545D01*
X14131319Y-9029545D01*
X14117626Y-9037450D01*
X14117626Y-9037451D01*
X14106446Y-9048631D01*
X14106445Y-9048632D01*
X14102734Y-9055059D01*
X14099759Y-9057342D01*
X14096041Y-9056852D01*
X14094247Y-9055059D01*
X14089443Y-9046738D01*
X14078262Y-9035557D01*
X14078262Y-9035557D01*
X14078262Y-9035557D01*
X14064569Y-9027651D01*
X14064569Y-9027651D01*
X14049297Y-9023559D01*
X14049297Y-9023559D01*
X14033485Y-9023559D01*
X14028609Y-9024866D01*
X14024891Y-9024376D01*
X14023876Y-9023597D01*
X14006233Y-9005954D01*
X14006232Y-9005954D01*
X14004179Y-9004768D01*
X14002922Y-9004042D01*
X14002247Y-9003653D01*
X13999381Y-9001998D01*
X13999380Y-9001998D01*
X13991738Y-8999950D01*
X13991738Y-8999950D01*
X12736044Y-8999950D01*
X12736044Y-8999950D01*
X12728401Y-9001998D01*
X12728401Y-9001998D01*
X12725535Y-9003653D01*
X12724860Y-9004042D01*
X12724032Y-9004520D01*
X12721549Y-9005954D01*
X12721549Y-9005954D01*
X12360954Y-9366549D01*
X12360954Y-9366549D01*
X12356998Y-9373401D01*
X12356998Y-9373401D01*
X12354950Y-9381044D01*
X12354950Y-9643956D01*
X12356998Y-9651599D01*
X12356998Y-9651599D01*
X12358990Y-9655050D01*
X12359564Y-9656044D01*
X12360954Y-9658451D01*
X12360954Y-9658451D01*
X12438515Y-9736012D01*
X12439950Y-9739477D01*
X12439950Y-9755181D01*
X12438515Y-9758645D01*
X12437500Y-9759424D01*
X12433129Y-9761948D01*
X12433128Y-9761948D01*
X12421948Y-9773128D01*
X12421947Y-9773129D01*
X12414042Y-9786821D01*
X12414042Y-9786822D01*
X12409950Y-9802094D01*
X12409950Y-9817906D01*
X12414042Y-9833178D01*
X12414042Y-9833179D01*
X12421947Y-9846871D01*
X12421948Y-9846871D01*
X12421948Y-9846872D01*
X12433128Y-9858052D01*
X12433129Y-9858052D01*
X12433129Y-9858052D01*
X12446821Y-9865958D01*
X12446821Y-9865958D01*
X12446822Y-9865958D01*
X12448790Y-9866485D01*
X12462094Y-9870050D01*
X12462094Y-9870050D01*
X12462094Y-9870050D01*
X12477906Y-9870050D01*
X12477906Y-9870050D01*
X12493178Y-9865958D01*
X12506872Y-9858052D01*
X12518052Y-9846872D01*
X12524445Y-9835799D01*
X12525958Y-9833179D01*
X12525958Y-9833179D01*
X12525958Y-9833178D01*
X12530050Y-9817906D01*
X12530050Y-9817906D01*
X12530050Y-9802094D01*
X12530050Y-9802094D01*
X12525958Y-9786822D01*
X12525958Y-9786821D01*
X12518052Y-9773129D01*
X12518052Y-9773129D01*
X12518052Y-9773128D01*
X12506872Y-9761948D01*
X12506871Y-9761948D01*
X12506871Y-9761948D01*
X12502500Y-9759424D01*
X12500217Y-9756449D01*
X12500050Y-9755181D01*
X12500050Y-9721044D01*
X12499235Y-9718002D01*
X12499235Y-9718002D01*
X12498002Y-9713401D01*
X12498002Y-9713401D01*
X12494911Y-9708047D01*
X12494046Y-9706549D01*
X12416485Y-9628988D01*
X12415050Y-9625523D01*
X12415050Y-9621803D01*
X12416485Y-9618338D01*
X12419950Y-9616903D01*
X12423415Y-9618338D01*
X12433128Y-9628052D01*
X12433129Y-9628052D01*
X12433129Y-9628052D01*
X12446821Y-9635958D01*
X12446821Y-9635958D01*
X12446822Y-9635958D01*
X12458866Y-9639185D01*
X12462094Y-9640050D01*
X12462094Y-9640050D01*
X12462094Y-9640050D01*
X12477906Y-9640050D01*
X12477906Y-9640050D01*
X12493178Y-9635958D01*
X12494170Y-9635385D01*
X12506871Y-9628052D01*
X12506871Y-9628052D01*
X12506872Y-9628052D01*
X12518052Y-9616872D01*
X12520576Y-9612500D01*
X12523551Y-9610217D01*
X12524819Y-9610050D01*
X12548956Y-9610050D01*
X12551623Y-9609335D01*
X12556599Y-9608002D01*
X12563451Y-9604046D01*
X12569046Y-9598451D01*
X12603873Y-9563624D01*
X12607338Y-9562189D01*
X12610802Y-9563624D01*
X12612071Y-9565821D01*
X12614042Y-9573178D01*
X12614042Y-9573179D01*
X12621947Y-9586871D01*
X12621948Y-9586871D01*
X12621948Y-9586872D01*
X12633128Y-9598052D01*
X12633129Y-9598052D01*
X12633129Y-9598052D01*
X12646821Y-9605958D01*
X12646821Y-9605958D01*
X12646822Y-9605958D01*
X12656417Y-9608529D01*
X12662094Y-9610050D01*
X12662094Y-9610050D01*
X12678227Y-9610050D01*
X12678227Y-9610184D01*
X12681407Y-9611035D01*
X12681891Y-9611459D01*
X12723515Y-9653083D01*
X12724950Y-9656548D01*
X12724950Y-9913120D01*
X12723515Y-9916585D01*
X12720050Y-9918020D01*
X12716585Y-9916585D01*
X12700000Y-9900000D01*
X12204900Y-9900000D01*
X12201435Y-9898565D01*
X12200000Y-9895100D01*
X12200000Y-8906418D01*
X12201435Y-8902953D01*
X12204898Y-8901518D01*
X16500021Y-8900050D01*
X16699880Y-8900050D01*
X16700120Y-8900056D01*
G37*
%TD.AperFunction*%
%TA.AperFunction,Conductor*%
G36*
X16121103Y-9938323D02*
G01*
X16122539Y-9941788D01*
X16122372Y-9943056D01*
X16119950Y-9952094D01*
X16119950Y-9967906D01*
X16124042Y-9983178D01*
X16124042Y-9983179D01*
X16131947Y-9996871D01*
X16131948Y-9996871D01*
X16131948Y-9996872D01*
X16143128Y-10008052D01*
X16147500Y-10010576D01*
X16149783Y-10013551D01*
X16149950Y-10014819D01*
X16149950Y-10135523D01*
X16148515Y-10138988D01*
X16087515Y-10199988D01*
X16084050Y-10201423D01*
X16082782Y-10201256D01*
X16077906Y-10199950D01*
X16077906Y-10199950D01*
X16062094Y-10199950D01*
X16062094Y-10199950D01*
X16046822Y-10204042D01*
X16046821Y-10204042D01*
X16033129Y-10211948D01*
X16033128Y-10211948D01*
X16021948Y-10223128D01*
X16021947Y-10223129D01*
X16014042Y-10236821D01*
X16014042Y-10236822D01*
X16009950Y-10252094D01*
X16009950Y-10267906D01*
X16014042Y-10283178D01*
X16014042Y-10283179D01*
X16021947Y-10296871D01*
X16021948Y-10296871D01*
X16021948Y-10296872D01*
X16033128Y-10308052D01*
X16037500Y-10310576D01*
X16039783Y-10313551D01*
X16039950Y-10314819D01*
X16039950Y-10615523D01*
X16038515Y-10618988D01*
X15788988Y-10868515D01*
X15785523Y-10869950D01*
X15671871Y-10869950D01*
X15668406Y-10868515D01*
X15666971Y-10865050D01*
X15668406Y-10861585D01*
X15669421Y-10860807D01*
X15670639Y-10860103D01*
X15677661Y-10856049D01*
X15686049Y-10847661D01*
X15691980Y-10837389D01*
X15694871Y-10826599D01*
X15695050Y-10825931D01*
X15695050Y-10814069D01*
X15691980Y-10802612D01*
X15691980Y-10802611D01*
X15687133Y-10794216D01*
X15686049Y-10792339D01*
X15681485Y-10787775D01*
X15680050Y-10784310D01*
X15680050Y-10591044D01*
X15678855Y-10586585D01*
X15678002Y-10583401D01*
X15678002Y-10583401D01*
X15678002Y-10583401D01*
X15675494Y-10579057D01*
X15674046Y-10576549D01*
X15668451Y-10570954D01*
X15623451Y-10525954D01*
X15619991Y-10523956D01*
X15616599Y-10521998D01*
X15608956Y-10519950D01*
X15608956Y-10519950D01*
X15434477Y-10519950D01*
X15431012Y-10518515D01*
X15421485Y-10508988D01*
X15420050Y-10505523D01*
X15420050Y-10484762D01*
X15421485Y-10481297D01*
X15424950Y-10479862D01*
X15427400Y-10480518D01*
X15436821Y-10485958D01*
X15436821Y-10485958D01*
X15436822Y-10485958D01*
X15448866Y-10489185D01*
X15452094Y-10490050D01*
X15452094Y-10490050D01*
X15452094Y-10490050D01*
X15467906Y-10490050D01*
X15467906Y-10490050D01*
X15483178Y-10485958D01*
X15496872Y-10478052D01*
X15508052Y-10466872D01*
X15513991Y-10456585D01*
X15515958Y-10453179D01*
X15515958Y-10453179D01*
X15515958Y-10453178D01*
X15520050Y-10437906D01*
X15520050Y-10437906D01*
X15520050Y-10422094D01*
X15520050Y-10422094D01*
X15517867Y-10413949D01*
X15515958Y-10406822D01*
X15515958Y-10406822D01*
X15515958Y-10406821D01*
X15508052Y-10393129D01*
X15508052Y-10393129D01*
X15508052Y-10393128D01*
X15497175Y-10382252D01*
X15495740Y-10378787D01*
X15497175Y-10375322D01*
X15508982Y-10363515D01*
X15521012Y-10351485D01*
X15524477Y-10350050D01*
X15633956Y-10350050D01*
X15636623Y-10349335D01*
X15641599Y-10348002D01*
X15648451Y-10344046D01*
X15654046Y-10338451D01*
X15703543Y-10288954D01*
X15704290Y-10287661D01*
X15707500Y-10282101D01*
X15709547Y-10274459D01*
X15709547Y-10174317D01*
X15710983Y-10170852D01*
X15711997Y-10170074D01*
X15716369Y-10167550D01*
X15727549Y-10156369D01*
X15732105Y-10148479D01*
X15735455Y-10142676D01*
X15735455Y-10142676D01*
X15735455Y-10142676D01*
X15739547Y-10127404D01*
X15739547Y-10127404D01*
X15739547Y-10111592D01*
X15738241Y-10106716D01*
X15738730Y-10102998D01*
X15739509Y-10101983D01*
X15840007Y-10001485D01*
X15843472Y-10000050D01*
X16043956Y-10000050D01*
X16046623Y-9999335D01*
X16051599Y-9998002D01*
X16058451Y-9994046D01*
X16064046Y-9988451D01*
X16114174Y-9938323D01*
X16117639Y-9936888D01*
X16121103Y-9938323D01*
G37*
%TD.AperFunction*%
%TA.AperFunction,Conductor*%
G36*
X13976770Y-9061485D02*
G01*
X13981379Y-9066094D01*
X13982814Y-9069559D01*
X13982647Y-9070827D01*
X13981341Y-9075703D01*
X13981341Y-9091515D01*
X13985433Y-9106787D01*
X13985433Y-9106788D01*
X13993338Y-9120480D01*
X13993339Y-9120480D01*
X13993339Y-9120481D01*
X14004519Y-9131661D01*
X14004520Y-9131661D01*
X14004520Y-9131662D01*
X14018212Y-9139567D01*
X14018212Y-9139567D01*
X14018212Y-9139567D01*
X14025278Y-9141460D01*
X14033485Y-9143659D01*
X14033485Y-9143659D01*
X14033485Y-9143659D01*
X14049297Y-9143659D01*
X14049297Y-9143659D01*
X14064569Y-9139567D01*
X14067280Y-9138002D01*
X14077600Y-9132044D01*
X14081318Y-9131554D01*
X14084293Y-9133837D01*
X14084950Y-9136287D01*
X14084950Y-9264310D01*
X14083515Y-9267775D01*
X14078951Y-9272339D01*
X14078951Y-9272339D01*
X14073020Y-9282611D01*
X14073020Y-9282612D01*
X14069950Y-9294069D01*
X14069950Y-9305931D01*
X14069950Y-9305931D01*
X14073020Y-9317388D01*
X14073020Y-9317389D01*
X14075931Y-9322430D01*
X14078951Y-9327661D01*
X14087339Y-9336049D01*
X14097611Y-9341980D01*
X14100476Y-9342747D01*
X14109069Y-9345050D01*
X14109069Y-9345050D01*
X14120931Y-9345050D01*
X14126660Y-9343515D01*
X14132389Y-9341980D01*
X14142661Y-9336049D01*
X14148490Y-9330220D01*
X14151955Y-9328785D01*
X14155420Y-9330220D01*
X14156688Y-9332417D01*
X14158020Y-9337389D01*
X14158020Y-9337389D01*
X14163951Y-9347661D01*
X14172339Y-9356049D01*
X14182611Y-9361980D01*
X14184856Y-9362581D01*
X14186906Y-9363131D01*
X14189882Y-9365414D01*
X14190371Y-9369132D01*
X14189103Y-9371329D01*
X14011953Y-9548479D01*
X14011952Y-9548479D01*
X14009921Y-9551998D01*
X14007339Y-9556471D01*
X14007338Y-9556471D01*
X14004950Y-9565385D01*
X14004950Y-9940050D01*
X14003515Y-9943515D01*
X14000050Y-9944950D01*
X13993025Y-9944950D01*
X13987177Y-9946113D01*
X13980545Y-9950545D01*
X13976113Y-9957177D01*
X13974950Y-9963025D01*
X13974950Y-10066975D01*
X13976113Y-10072823D01*
X13976663Y-10073645D01*
X13980545Y-10079455D01*
X13983201Y-10081230D01*
X13987177Y-10083887D01*
X13993025Y-10085050D01*
X14005050Y-10085050D01*
X14008515Y-10086485D01*
X14009950Y-10089950D01*
X14009950Y-10128452D01*
X14008515Y-10131917D01*
X14001891Y-10138541D01*
X13998426Y-10139976D01*
X13998026Y-10139950D01*
X13997906Y-10139950D01*
X13982094Y-10139950D01*
X13982094Y-10139950D01*
X13966822Y-10144042D01*
X13966821Y-10144042D01*
X13953129Y-10151948D01*
X13953128Y-10151948D01*
X13941948Y-10163128D01*
X13941947Y-10163129D01*
X13934042Y-10176821D01*
X13934042Y-10176822D01*
X13929950Y-10192094D01*
X13929950Y-10207906D01*
X13934042Y-10223178D01*
X13934042Y-10223179D01*
X13941947Y-10236871D01*
X13941948Y-10236871D01*
X13941948Y-10236872D01*
X13953128Y-10248052D01*
X13953129Y-10248052D01*
X13953129Y-10248052D01*
X13966821Y-10255958D01*
X13966821Y-10255958D01*
X13966822Y-10255958D01*
X13978866Y-10259185D01*
X13982094Y-10260050D01*
X13982094Y-10260050D01*
X13982094Y-10260050D01*
X13997906Y-10260050D01*
X13997906Y-10260050D01*
X14013178Y-10255958D01*
X14026872Y-10248052D01*
X14038052Y-10236872D01*
X14045958Y-10223178D01*
X14050050Y-10207906D01*
X14050050Y-10207906D01*
X14050050Y-10191773D01*
X14050184Y-10191773D01*
X14051035Y-10188592D01*
X14051458Y-10188110D01*
X14073047Y-10166521D01*
X14077661Y-10158529D01*
X14078887Y-10153956D01*
X14080050Y-10149614D01*
X14080050Y-10089950D01*
X14081485Y-10086485D01*
X14084950Y-10085050D01*
X14096974Y-10085050D01*
X14096975Y-10085050D01*
X14102823Y-10083887D01*
X14109455Y-10079455D01*
X14113887Y-10072823D01*
X14115050Y-10066975D01*
X14115050Y-9963025D01*
X14113887Y-9957177D01*
X14110490Y-9952094D01*
X14109455Y-9950545D01*
X14105479Y-9947888D01*
X14102823Y-9946113D01*
X14096975Y-9944950D01*
X14096974Y-9944950D01*
X14079950Y-9944950D01*
X14076485Y-9943515D01*
X14075050Y-9940050D01*
X14075050Y-9586548D01*
X14076485Y-9583083D01*
X14348083Y-9311485D01*
X14351548Y-9310050D01*
X15179615Y-9310050D01*
X15184072Y-9308856D01*
X15188529Y-9307661D01*
X15191526Y-9305931D01*
X15192575Y-9305325D01*
X15196293Y-9304835D01*
X15197094Y-9305050D01*
X15197094Y-9305050D01*
X15212906Y-9305050D01*
X15212906Y-9305050D01*
X15228178Y-9300958D01*
X15229596Y-9300139D01*
X15237600Y-9295518D01*
X15241318Y-9295029D01*
X15244293Y-9297312D01*
X15244950Y-9299762D01*
X15244950Y-9720961D01*
X15246998Y-9728604D01*
X15250719Y-9735050D01*
X15250954Y-9735456D01*
X15250954Y-9735456D01*
X15250954Y-9735457D01*
X15458515Y-9943017D01*
X15459950Y-9946482D01*
X15459950Y-10070181D01*
X15458515Y-10073645D01*
X15457500Y-10074424D01*
X15453129Y-10076948D01*
X15453128Y-10076948D01*
X15441948Y-10088128D01*
X15441947Y-10088129D01*
X15434042Y-10101821D01*
X15434042Y-10101822D01*
X15429950Y-10117094D01*
X15429950Y-10132906D01*
X15434042Y-10148178D01*
X15434042Y-10148179D01*
X15441947Y-10161871D01*
X15441948Y-10161871D01*
X15441948Y-10161872D01*
X15453128Y-10173052D01*
X15453129Y-10173052D01*
X15453129Y-10173052D01*
X15466821Y-10180958D01*
X15466821Y-10180958D01*
X15466822Y-10180958D01*
X15478131Y-10183988D01*
X15482094Y-10185050D01*
X15482094Y-10185050D01*
X15482094Y-10185050D01*
X15497906Y-10185050D01*
X15497906Y-10185050D01*
X15513178Y-10180958D01*
X15526872Y-10173052D01*
X15538052Y-10161872D01*
X15543781Y-10151948D01*
X15545958Y-10148179D01*
X15545958Y-10148179D01*
X15545958Y-10148178D01*
X15550050Y-10132906D01*
X15550050Y-10132906D01*
X15550050Y-10117094D01*
X15550050Y-10117094D01*
X15547871Y-10108963D01*
X15545958Y-10101822D01*
X15545958Y-10101822D01*
X15545958Y-10101821D01*
X15538052Y-10088129D01*
X15538052Y-10088129D01*
X15538052Y-10088128D01*
X15526872Y-10076948D01*
X15526871Y-10076948D01*
X15526871Y-10076948D01*
X15522500Y-10074424D01*
X15520217Y-10071449D01*
X15520050Y-10070181D01*
X15520050Y-9928049D01*
X15518732Y-9923129D01*
X15518002Y-9920406D01*
X15518002Y-9920406D01*
X15518002Y-9920406D01*
X15514046Y-9913554D01*
X15351857Y-9751365D01*
X15661140Y-9751365D01*
X15661140Y-9767055D01*
X15662348Y-9773128D01*
X15664201Y-9782443D01*
X15664201Y-9782444D01*
X15667024Y-9789260D01*
X15670205Y-9796939D01*
X15678922Y-9809984D01*
X15690016Y-9821078D01*
X15703061Y-9829795D01*
X15717557Y-9835799D01*
X15732945Y-9838860D01*
X15732945Y-9838860D01*
X15748634Y-9838860D01*
X15748635Y-9838860D01*
X15764023Y-9835799D01*
X15778518Y-9829795D01*
X15791564Y-9821078D01*
X15802658Y-9809984D01*
X15811375Y-9796939D01*
X15817379Y-9782443D01*
X15820440Y-9767055D01*
X15820440Y-9751365D01*
X15817379Y-9735977D01*
X15811375Y-9721482D01*
X15802658Y-9708436D01*
X15791564Y-9697342D01*
X15778518Y-9688625D01*
X15778518Y-9688625D01*
X15778518Y-9688625D01*
X15764023Y-9682621D01*
X15764023Y-9682621D01*
X15757817Y-9681387D01*
X15748635Y-9679560D01*
X15732945Y-9679560D01*
X15725286Y-9681084D01*
X15717557Y-9682621D01*
X15717556Y-9682621D01*
X15703062Y-9688625D01*
X15690016Y-9697342D01*
X15678921Y-9708436D01*
X15670205Y-9721482D01*
X15664201Y-9735977D01*
X15664201Y-9735977D01*
X15663003Y-9741998D01*
X15661140Y-9751365D01*
X15351857Y-9751365D01*
X15306485Y-9705993D01*
X15305050Y-9702528D01*
X15305050Y-9167612D01*
X15304148Y-9164245D01*
X15303002Y-9159970D01*
X15303002Y-9159970D01*
X15303002Y-9159969D01*
X15300494Y-9155625D01*
X15299046Y-9153118D01*
X15294343Y-9148415D01*
X15292908Y-9144950D01*
X15294343Y-9141485D01*
X15297808Y-9140050D01*
X15393956Y-9140050D01*
X15396623Y-9139335D01*
X15401599Y-9138002D01*
X15408451Y-9134046D01*
X15414046Y-9128451D01*
X15457177Y-9085320D01*
X15460642Y-9083885D01*
X15464107Y-9085320D01*
X15465375Y-9087517D01*
X15468020Y-9097389D01*
X15468020Y-9097389D01*
X15473951Y-9107661D01*
X15478515Y-9112225D01*
X15479950Y-9115690D01*
X15479950Y-9265523D01*
X15478515Y-9268988D01*
X15417515Y-9329988D01*
X15414050Y-9331423D01*
X15412782Y-9331256D01*
X15407906Y-9329950D01*
X15407906Y-9329950D01*
X15392094Y-9329950D01*
X15392094Y-9329950D01*
X15376822Y-9334042D01*
X15376821Y-9334042D01*
X15363129Y-9341948D01*
X15363128Y-9341948D01*
X15351948Y-9353128D01*
X15351947Y-9353129D01*
X15344042Y-9366821D01*
X15344042Y-9366822D01*
X15339950Y-9382094D01*
X15339950Y-9397906D01*
X15344042Y-9413178D01*
X15344042Y-9413179D01*
X15351947Y-9426871D01*
X15351948Y-9426871D01*
X15351948Y-9426872D01*
X15363128Y-9438052D01*
X15363129Y-9438052D01*
X15363129Y-9438052D01*
X15376821Y-9445958D01*
X15376821Y-9445958D01*
X15376822Y-9445958D01*
X15388866Y-9449185D01*
X15392094Y-9450050D01*
X15392094Y-9450050D01*
X15392094Y-9450050D01*
X15407906Y-9450050D01*
X15407906Y-9450050D01*
X15423178Y-9445958D01*
X15436872Y-9438052D01*
X15448052Y-9426872D01*
X15455958Y-9413178D01*
X15456809Y-9410000D01*
X15457502Y-9407415D01*
X15459489Y-9400000D01*
X15460050Y-9397906D01*
X15460050Y-9397906D01*
X15460050Y-9390000D01*
X15661619Y-9390000D01*
X15709823Y-9390000D01*
X15708290Y-9395721D01*
X15708290Y-9404279D01*
X15709823Y-9410000D01*
X15661619Y-9410000D01*
X15664249Y-9423218D01*
X15664249Y-9423219D01*
X15670249Y-9437704D01*
X15678960Y-9450742D01*
X15690048Y-9461829D01*
X15703085Y-9470541D01*
X15717571Y-9476541D01*
X15717571Y-9476541D01*
X15730790Y-9479170D01*
X15730790Y-9430967D01*
X15736511Y-9432500D01*
X15745068Y-9432500D01*
X15750790Y-9430967D01*
X15750790Y-9479170D01*
X15764008Y-9476541D01*
X15764009Y-9476541D01*
X15778494Y-9470541D01*
X15791532Y-9461829D01*
X15802619Y-9450742D01*
X15811330Y-9437704D01*
X15817331Y-9423219D01*
X15817331Y-9423218D01*
X15819960Y-9410000D01*
X15771757Y-9410000D01*
X15773290Y-9404279D01*
X15773290Y-9395721D01*
X15771757Y-9390000D01*
X15819960Y-9390000D01*
X15817331Y-9376782D01*
X15817331Y-9376781D01*
X15811330Y-9362296D01*
X15802619Y-9349258D01*
X15791532Y-9338171D01*
X15778494Y-9329459D01*
X15764009Y-9323459D01*
X15764007Y-9323459D01*
X15750790Y-9320830D01*
X15750790Y-9369033D01*
X15745068Y-9367500D01*
X15736511Y-9367500D01*
X15730790Y-9369033D01*
X15730790Y-9320830D01*
X15730790Y-9320830D01*
X15717572Y-9323459D01*
X15717571Y-9323459D01*
X15703085Y-9329459D01*
X15690048Y-9338171D01*
X15678960Y-9349258D01*
X15670249Y-9362296D01*
X15664249Y-9376781D01*
X15664249Y-9376782D01*
X15661619Y-9390000D01*
X15460050Y-9390000D01*
X15460050Y-9382094D01*
X15458743Y-9377218D01*
X15459233Y-9373500D01*
X15460011Y-9372486D01*
X15534046Y-9298451D01*
X15535882Y-9295270D01*
X15538002Y-9291599D01*
X15540050Y-9283956D01*
X15540050Y-9115690D01*
X15541485Y-9112225D01*
X15546049Y-9107661D01*
X15546049Y-9107661D01*
X15551980Y-9097389D01*
X15553973Y-9089950D01*
X15555050Y-9085931D01*
X15555050Y-9074069D01*
X15553973Y-9070050D01*
X15553735Y-9069163D01*
X15554225Y-9065445D01*
X15557200Y-9063162D01*
X15560918Y-9063652D01*
X15561933Y-9064430D01*
X16168515Y-9671012D01*
X16169950Y-9674477D01*
X16169950Y-9704689D01*
X16168515Y-9708153D01*
X16165050Y-9709589D01*
X16161585Y-9708153D01*
X16150774Y-9697342D01*
X16146464Y-9694463D01*
X16137728Y-9688625D01*
X16137728Y-9688625D01*
X16137728Y-9688625D01*
X16123233Y-9682621D01*
X16123233Y-9682621D01*
X16117027Y-9681387D01*
X16107845Y-9679560D01*
X16092155Y-9679560D01*
X16084496Y-9681084D01*
X16076767Y-9682621D01*
X16076766Y-9682621D01*
X16062272Y-9688625D01*
X16049226Y-9697342D01*
X16038132Y-9708436D01*
X16029415Y-9721482D01*
X16023411Y-9735977D01*
X16023411Y-9735977D01*
X16022213Y-9741998D01*
X16020350Y-9751365D01*
X16020350Y-9767055D01*
X16021558Y-9773128D01*
X16023411Y-9782443D01*
X16023411Y-9782444D01*
X16026234Y-9789260D01*
X16029415Y-9796939D01*
X16038132Y-9809984D01*
X16049226Y-9821078D01*
X16062272Y-9829795D01*
X16076767Y-9835799D01*
X16092155Y-9838860D01*
X16092155Y-9838860D01*
X16107845Y-9838860D01*
X16107845Y-9838860D01*
X16114286Y-9837579D01*
X16117964Y-9836847D01*
X16121642Y-9837579D01*
X16123726Y-9840697D01*
X16122994Y-9844376D01*
X16122385Y-9845118D01*
X16028988Y-9938515D01*
X16025523Y-9939950D01*
X15825039Y-9939950D01*
X15817396Y-9941998D01*
X15817396Y-9941998D01*
X15812283Y-9944950D01*
X15811848Y-9945201D01*
X15810544Y-9945954D01*
X15810544Y-9945954D01*
X15697012Y-10059486D01*
X15693547Y-10060921D01*
X15692279Y-10060754D01*
X15687403Y-10059448D01*
X15687403Y-10059448D01*
X15671592Y-10059448D01*
X15671591Y-10059448D01*
X15656319Y-10063540D01*
X15656319Y-10063540D01*
X15642626Y-10071445D01*
X15642626Y-10071446D01*
X15631446Y-10082626D01*
X15631445Y-10082627D01*
X15623540Y-10096319D01*
X15623540Y-10096319D01*
X15619447Y-10111591D01*
X15619447Y-10127404D01*
X15623540Y-10142676D01*
X15623540Y-10142676D01*
X15631445Y-10156368D01*
X15631445Y-10156369D01*
X15631445Y-10156369D01*
X15642626Y-10167550D01*
X15646997Y-10170073D01*
X15649280Y-10173049D01*
X15649447Y-10174317D01*
X15649447Y-10256026D01*
X15648012Y-10259491D01*
X15618988Y-10288515D01*
X15615523Y-10289950D01*
X15506043Y-10289950D01*
X15498401Y-10291998D01*
X15498401Y-10291998D01*
X15491549Y-10295954D01*
X15491549Y-10295954D01*
X15435954Y-10351549D01*
X15435954Y-10351549D01*
X15431998Y-10358401D01*
X15431998Y-10358401D01*
X15429950Y-10366044D01*
X15429950Y-10375181D01*
X15428515Y-10378645D01*
X15427499Y-10379425D01*
X15427399Y-10379482D01*
X15423680Y-10379971D01*
X15420706Y-10377687D01*
X15420050Y-10375238D01*
X15420050Y-10026044D01*
X15419184Y-10022813D01*
X15418002Y-10018401D01*
X15418002Y-10018401D01*
X15418002Y-10018401D01*
X15414046Y-10011549D01*
X15148451Y-9745954D01*
X15148451Y-9745954D01*
X15147433Y-9745367D01*
X15146811Y-9745007D01*
X15141599Y-9741998D01*
X15141599Y-9741998D01*
X15133956Y-9739950D01*
X15133956Y-9739950D01*
X14996803Y-9739950D01*
X14993338Y-9738515D01*
X14991903Y-9735050D01*
X14993338Y-9731585D01*
X14994400Y-9730523D01*
X14998052Y-9726872D01*
X15003825Y-9716872D01*
X15005958Y-9713179D01*
X15005958Y-9713179D01*
X15005958Y-9713178D01*
X15010050Y-9697906D01*
X15010050Y-9697906D01*
X15010050Y-9682094D01*
X15008743Y-9677218D01*
X15009233Y-9673500D01*
X15010011Y-9672486D01*
X15036047Y-9646450D01*
X15039511Y-9645015D01*
X15042976Y-9646450D01*
X15053128Y-9656603D01*
X15053129Y-9656603D01*
X15053129Y-9656603D01*
X15066821Y-9664508D01*
X15066821Y-9664508D01*
X15066822Y-9664508D01*
X15075453Y-9666821D01*
X15082094Y-9668601D01*
X15082094Y-9668601D01*
X15082094Y-9668601D01*
X15097906Y-9668601D01*
X15097906Y-9668601D01*
X15113178Y-9664508D01*
X15126872Y-9656603D01*
X15138052Y-9645422D01*
X15144622Y-9634042D01*
X15145958Y-9631729D01*
X15145958Y-9631729D01*
X15145958Y-9631729D01*
X15150050Y-9616457D01*
X15150050Y-9616457D01*
X15150050Y-9600645D01*
X15150050Y-9600645D01*
X15147897Y-9592611D01*
X15145958Y-9585372D01*
X15145958Y-9585372D01*
X15145958Y-9585372D01*
X15138052Y-9571680D01*
X15138052Y-9571679D01*
X15138052Y-9571679D01*
X15126872Y-9560499D01*
X15126871Y-9560499D01*
X15126871Y-9560498D01*
X15113179Y-9552593D01*
X15113178Y-9552593D01*
X15097906Y-9548501D01*
X15097906Y-9548501D01*
X15082094Y-9548501D01*
X15082094Y-9548501D01*
X15066822Y-9552593D01*
X15066821Y-9552593D01*
X15053129Y-9560498D01*
X15053128Y-9560499D01*
X15041948Y-9571679D01*
X15041948Y-9571679D01*
X15040636Y-9573951D01*
X15039424Y-9576051D01*
X15036449Y-9578334D01*
X15035181Y-9578501D01*
X15027493Y-9578501D01*
X15019850Y-9580549D01*
X15019850Y-9580549D01*
X15014688Y-9583529D01*
X15014688Y-9583529D01*
X15012998Y-9584505D01*
X15012998Y-9584505D01*
X14967515Y-9629988D01*
X14964050Y-9631423D01*
X14962782Y-9631256D01*
X14957906Y-9629950D01*
X14957906Y-9629950D01*
X14942094Y-9629950D01*
X14942094Y-9629950D01*
X14926822Y-9634042D01*
X14926821Y-9634042D01*
X14913129Y-9641948D01*
X14913128Y-9641948D01*
X14901948Y-9653128D01*
X14901947Y-9653129D01*
X14894042Y-9666821D01*
X14894042Y-9666822D01*
X14889950Y-9682094D01*
X14889950Y-9697906D01*
X14894042Y-9713178D01*
X14894042Y-9713179D01*
X14901947Y-9726871D01*
X14901948Y-9726872D01*
X14906662Y-9731585D01*
X14908097Y-9735050D01*
X14906662Y-9738515D01*
X14903197Y-9739950D01*
X14334477Y-9739950D01*
X14331012Y-9738515D01*
X14206485Y-9613988D01*
X14205050Y-9610523D01*
X14205050Y-9604069D01*
X14201980Y-9592612D01*
X14201980Y-9592611D01*
X14197800Y-9585372D01*
X14196049Y-9582339D01*
X14187661Y-9573951D01*
X14183727Y-9571680D01*
X14177389Y-9568020D01*
X14177388Y-9568020D01*
X14165931Y-9564950D01*
X14165931Y-9564950D01*
X14154069Y-9564950D01*
X14154069Y-9564950D01*
X14142611Y-9568020D01*
X14142611Y-9568020D01*
X14132339Y-9573951D01*
X14132339Y-9573951D01*
X14123951Y-9582339D01*
X14123951Y-9582339D01*
X14118020Y-9592611D01*
X14118020Y-9592612D01*
X14114950Y-9604069D01*
X14114950Y-9615931D01*
X14118020Y-9627388D01*
X14118020Y-9627389D01*
X14122967Y-9635958D01*
X14123951Y-9637661D01*
X14132339Y-9646049D01*
X14142611Y-9651980D01*
X14145476Y-9652747D01*
X14154069Y-9655050D01*
X14154069Y-9655050D01*
X14160523Y-9655050D01*
X14163988Y-9656485D01*
X14301549Y-9794046D01*
X14308401Y-9798002D01*
X14314429Y-9799617D01*
X14316043Y-9800050D01*
X14316043Y-9800050D01*
X14316044Y-9800050D01*
X14323956Y-9800050D01*
X15115523Y-9800050D01*
X15118988Y-9801485D01*
X15358515Y-10041012D01*
X15359950Y-10044477D01*
X15359950Y-10523956D01*
X15361046Y-10528047D01*
X15361998Y-10531599D01*
X15363990Y-10535050D01*
X15364736Y-10536341D01*
X15365954Y-10538451D01*
X15365954Y-10538451D01*
X15365954Y-10538451D01*
X15395954Y-10568451D01*
X15401549Y-10574046D01*
X15408401Y-10578002D01*
X15411948Y-10578952D01*
X15416044Y-10580050D01*
X15416044Y-10580050D01*
X15590523Y-10580050D01*
X15593988Y-10581485D01*
X15599088Y-10586585D01*
X15600523Y-10590050D01*
X15599088Y-10593515D01*
X15595623Y-10594950D01*
X15584069Y-10594950D01*
X15572611Y-10598020D01*
X15572611Y-10598020D01*
X15562339Y-10603951D01*
X15562339Y-10603951D01*
X15553951Y-10612339D01*
X15553951Y-10612339D01*
X15548020Y-10622611D01*
X15548020Y-10622612D01*
X15544950Y-10634069D01*
X15544950Y-10640523D01*
X15543515Y-10643988D01*
X15478988Y-10708515D01*
X15475523Y-10709950D01*
X15394477Y-10709950D01*
X15391012Y-10708515D01*
X15341485Y-10658988D01*
X15340050Y-10655523D01*
X15340050Y-10166044D01*
X15338932Y-10161872D01*
X15338002Y-10158401D01*
X15338002Y-10158401D01*
X15338002Y-10158401D01*
X15334046Y-10151549D01*
X15018451Y-9835954D01*
X15011599Y-9831998D01*
X15003956Y-9829950D01*
X15003956Y-9829950D01*
X14194477Y-9829950D01*
X14191012Y-9828515D01*
X14186485Y-9823988D01*
X14185050Y-9820523D01*
X14185050Y-9814069D01*
X14181980Y-9802612D01*
X14181980Y-9802611D01*
X14180390Y-9799859D01*
X14176049Y-9792339D01*
X14167661Y-9783951D01*
X14165050Y-9782444D01*
X14157389Y-9778020D01*
X14157388Y-9778020D01*
X14145931Y-9774950D01*
X14145931Y-9774950D01*
X14134069Y-9774950D01*
X14134069Y-9774950D01*
X14122611Y-9778020D01*
X14122611Y-9778020D01*
X14112339Y-9783951D01*
X14112339Y-9783951D01*
X14103951Y-9792339D01*
X14103951Y-9792339D01*
X14098020Y-9802611D01*
X14098020Y-9802612D01*
X14094950Y-9814069D01*
X14094950Y-9825931D01*
X14098020Y-9837388D01*
X14098020Y-9837389D01*
X14098870Y-9838860D01*
X14103951Y-9847661D01*
X14112339Y-9856049D01*
X14122611Y-9861980D01*
X14125476Y-9862747D01*
X14134069Y-9865050D01*
X14134069Y-9865050D01*
X14140523Y-9865050D01*
X14143988Y-9866485D01*
X14155954Y-9878451D01*
X14161549Y-9884046D01*
X14165002Y-9886040D01*
X14167285Y-9889015D01*
X14166796Y-9892733D01*
X14163821Y-9895016D01*
X14152611Y-9898020D01*
X14152611Y-9898020D01*
X14142339Y-9903951D01*
X14142339Y-9903951D01*
X14133951Y-9912339D01*
X14133951Y-9912339D01*
X14128020Y-9922611D01*
X14128020Y-9922612D01*
X14124950Y-9934069D01*
X14124950Y-9945931D01*
X14128020Y-9957388D01*
X14128020Y-9957389D01*
X14133951Y-9967661D01*
X14138515Y-9972225D01*
X14139950Y-9975690D01*
X14139950Y-10180523D01*
X14138515Y-10183988D01*
X14053988Y-10268515D01*
X14050523Y-10269950D01*
X13574477Y-10269950D01*
X13571012Y-10268515D01*
X13106485Y-9803988D01*
X13105050Y-9800523D01*
X13105050Y-9541044D01*
X13104388Y-9538574D01*
X13104057Y-9537339D01*
X13103002Y-9533401D01*
X13099046Y-9526549D01*
X12948451Y-9375954D01*
X12941599Y-9371998D01*
X12933956Y-9369950D01*
X12933956Y-9369950D01*
X12641044Y-9369950D01*
X12641044Y-9369950D01*
X12633401Y-9371998D01*
X12633401Y-9371998D01*
X12626549Y-9375954D01*
X12626549Y-9375954D01*
X12565954Y-9436549D01*
X12565954Y-9436549D01*
X12561998Y-9443401D01*
X12561998Y-9443401D01*
X12559950Y-9451044D01*
X12559950Y-9520523D01*
X12558515Y-9523988D01*
X12533988Y-9548515D01*
X12530523Y-9549950D01*
X12524819Y-9549950D01*
X12521355Y-9548515D01*
X12520576Y-9547500D01*
X12518052Y-9543128D01*
X12506872Y-9531948D01*
X12506871Y-9531948D01*
X12506871Y-9531948D01*
X12493179Y-9524042D01*
X12493178Y-9524042D01*
X12477906Y-9519950D01*
X12477906Y-9519950D01*
X12462094Y-9519950D01*
X12462094Y-9519950D01*
X12446822Y-9524042D01*
X12446821Y-9524042D01*
X12433129Y-9531948D01*
X12433128Y-9531948D01*
X12423415Y-9541662D01*
X12419950Y-9543097D01*
X12416485Y-9541662D01*
X12415050Y-9538197D01*
X12415050Y-9399477D01*
X12416485Y-9396012D01*
X12560403Y-9252094D01*
X13279950Y-9252094D01*
X13279950Y-9267906D01*
X13284042Y-9283178D01*
X13284042Y-9283179D01*
X13291947Y-9296871D01*
X13291948Y-9296872D01*
X13303355Y-9308279D01*
X13303261Y-9308374D01*
X13304908Y-9311226D01*
X13304950Y-9311866D01*
X13304950Y-9599615D01*
X13305226Y-9600645D01*
X13307020Y-9607339D01*
X13307197Y-9608002D01*
X13307339Y-9608529D01*
X13308490Y-9610523D01*
X13311953Y-9616521D01*
X13403479Y-9708047D01*
X13410322Y-9711998D01*
X13411471Y-9712661D01*
X13413400Y-9713178D01*
X13420385Y-9715050D01*
X13420386Y-9715050D01*
X13420386Y-9715050D01*
X13429614Y-9715050D01*
X13808134Y-9715050D01*
X13811599Y-9716485D01*
X13811863Y-9716786D01*
X13811948Y-9716872D01*
X13823128Y-9728052D01*
X13823129Y-9728052D01*
X13823129Y-9728052D01*
X13836821Y-9735958D01*
X13836821Y-9735958D01*
X13836822Y-9735958D01*
X13848866Y-9739185D01*
X13852094Y-9740050D01*
X13852094Y-9740050D01*
X13852094Y-9740050D01*
X13867906Y-9740050D01*
X13867906Y-9740050D01*
X13883178Y-9735958D01*
X13896872Y-9728052D01*
X13908052Y-9716872D01*
X13914012Y-9706549D01*
X13915958Y-9703179D01*
X13915958Y-9703179D01*
X13915958Y-9703178D01*
X13920050Y-9687906D01*
X13920050Y-9687906D01*
X13920050Y-9672094D01*
X13920050Y-9672094D01*
X13916394Y-9658451D01*
X13915958Y-9656822D01*
X13915958Y-9656822D01*
X13915958Y-9656821D01*
X13908052Y-9643129D01*
X13908052Y-9643129D01*
X13908052Y-9643128D01*
X13896872Y-9631948D01*
X13896871Y-9631948D01*
X13896871Y-9631948D01*
X13883179Y-9624042D01*
X13883178Y-9624042D01*
X13867906Y-9619950D01*
X13867906Y-9619950D01*
X13852094Y-9619950D01*
X13852094Y-9619950D01*
X13836822Y-9624042D01*
X13836821Y-9624042D01*
X13823129Y-9631948D01*
X13823128Y-9631948D01*
X13811721Y-9643356D01*
X13811626Y-9643261D01*
X13808774Y-9644908D01*
X13808134Y-9644950D01*
X13441548Y-9644950D01*
X13438083Y-9643515D01*
X13376485Y-9581917D01*
X13375050Y-9578452D01*
X13375050Y-9311866D01*
X13376485Y-9308401D01*
X13376786Y-9308137D01*
X13381992Y-9302931D01*
X13388052Y-9296872D01*
X13395509Y-9283956D01*
X13395958Y-9283179D01*
X13395958Y-9283179D01*
X13395958Y-9283178D01*
X13400050Y-9267906D01*
X13400050Y-9267906D01*
X13400050Y-9252094D01*
X13400050Y-9252094D01*
X13397436Y-9242339D01*
X13395958Y-9236822D01*
X13395958Y-9236822D01*
X13395958Y-9236821D01*
X13388052Y-9223129D01*
X13388052Y-9223129D01*
X13388052Y-9223128D01*
X13376872Y-9211948D01*
X13376871Y-9211948D01*
X13376871Y-9211948D01*
X13363179Y-9204042D01*
X13363178Y-9204042D01*
X13347906Y-9199950D01*
X13347906Y-9199950D01*
X13332094Y-9199950D01*
X13332094Y-9199950D01*
X13316822Y-9204042D01*
X13316821Y-9204042D01*
X13303129Y-9211948D01*
X13303128Y-9211948D01*
X13291948Y-9223128D01*
X13291947Y-9223129D01*
X13284042Y-9236821D01*
X13284042Y-9236822D01*
X13279950Y-9252094D01*
X12560403Y-9252094D01*
X12751012Y-9061485D01*
X12754477Y-9060050D01*
X13973305Y-9060050D01*
X13976770Y-9061485D01*
G37*
%TD.AperFunction*%
%TA.AperFunction,Conductor*%
G36*
X12918988Y-9431485D02*
G01*
X13043515Y-9556012D01*
X13044950Y-9559477D01*
X13044950Y-9818956D01*
X13046998Y-9826599D01*
X13046998Y-9826599D01*
X13049884Y-9831599D01*
X13049884Y-9831599D01*
X13050953Y-9833450D01*
X13050954Y-9833451D01*
X13050954Y-9833451D01*
X13541549Y-10324046D01*
X13546565Y-10326942D01*
X13548401Y-10328002D01*
X13548401Y-10328002D01*
X13554429Y-10329617D01*
X13556043Y-10330050D01*
X13556043Y-10330050D01*
X13556044Y-10330050D01*
X14068956Y-10330050D01*
X14071623Y-10329335D01*
X14076599Y-10328002D01*
X14083451Y-10324046D01*
X14089046Y-10318451D01*
X14194046Y-10213451D01*
X14197564Y-10207358D01*
X14197564Y-10207358D01*
X14197564Y-10207358D01*
X14198002Y-10206599D01*
X14199389Y-10201423D01*
X14200050Y-10198956D01*
X14200050Y-10133100D01*
X14759950Y-10133100D01*
X14759950Y-10146900D01*
X14762642Y-10160432D01*
X14762642Y-10160433D01*
X14767922Y-10173181D01*
X14767922Y-10173181D01*
X14770355Y-10176821D01*
X14775588Y-10184654D01*
X14785346Y-10194412D01*
X14789910Y-10197461D01*
X14796819Y-10202078D01*
X14809567Y-10207358D01*
X14809568Y-10207358D01*
X14809568Y-10207358D01*
X14823100Y-10210050D01*
X14823101Y-10210050D01*
X14836899Y-10210050D01*
X14850433Y-10207358D01*
X14863181Y-10202078D01*
X14874654Y-10194411D01*
X14884411Y-10184654D01*
X14892077Y-10173181D01*
X14892121Y-10173075D01*
X14892149Y-10173047D01*
X14892191Y-10172968D01*
X14892215Y-10172981D01*
X14894773Y-10170423D01*
X14896648Y-10170050D01*
X14983956Y-10170050D01*
X14987539Y-10169090D01*
X14991599Y-10168002D01*
X14991599Y-10168002D01*
X14991757Y-10167960D01*
X14994293Y-10167960D01*
X14997844Y-10168911D01*
X15002094Y-10170050D01*
X15002094Y-10170050D01*
X15017906Y-10170050D01*
X15017906Y-10170050D01*
X15033178Y-10165958D01*
X15033894Y-10165545D01*
X15046046Y-10158529D01*
X15046872Y-10158052D01*
X15058052Y-10146872D01*
X15063432Y-10137553D01*
X15065958Y-10133179D01*
X15065958Y-10133179D01*
X15065958Y-10133178D01*
X15070050Y-10117906D01*
X15070050Y-10117906D01*
X15070050Y-10102094D01*
X15070050Y-10102094D01*
X15067493Y-10092550D01*
X15065958Y-10086822D01*
X15065958Y-10086822D01*
X15065958Y-10086821D01*
X15058052Y-10073129D01*
X15058052Y-10073129D01*
X15058052Y-10073128D01*
X15046872Y-10061948D01*
X15046871Y-10061948D01*
X15046871Y-10061948D01*
X15033179Y-10054042D01*
X15033178Y-10054042D01*
X15017906Y-10049950D01*
X15017906Y-10049950D01*
X15002094Y-10049950D01*
X15002094Y-10049950D01*
X14986822Y-10054042D01*
X14986821Y-10054042D01*
X14973129Y-10061948D01*
X14973128Y-10061948D01*
X14961948Y-10073128D01*
X14961947Y-10073129D01*
X14954042Y-10086821D01*
X14954042Y-10086822D01*
X14949950Y-10102094D01*
X14949950Y-10105050D01*
X14948515Y-10108515D01*
X14945050Y-10109950D01*
X14896648Y-10109950D01*
X14893184Y-10108515D01*
X14892192Y-10107031D01*
X14892191Y-10107032D01*
X14892185Y-10107021D01*
X14892121Y-10106925D01*
X14892077Y-10106819D01*
X14886923Y-10099105D01*
X14884412Y-10095346D01*
X14874654Y-10085588D01*
X14865475Y-10079455D01*
X14863181Y-10077923D01*
X14863181Y-10077922D01*
X14863181Y-10077922D01*
X14850433Y-10072642D01*
X14850432Y-10072642D01*
X14836900Y-10069950D01*
X14836899Y-10069950D01*
X14823101Y-10069950D01*
X14823100Y-10069950D01*
X14809568Y-10072642D01*
X14809567Y-10072642D01*
X14796819Y-10077922D01*
X14785346Y-10085588D01*
X14775588Y-10095346D01*
X14767922Y-10106819D01*
X14762642Y-10119567D01*
X14762642Y-10119568D01*
X14759950Y-10133100D01*
X14200050Y-10133100D01*
X14200050Y-9975690D01*
X14201485Y-9972225D01*
X14206049Y-9967661D01*
X14206049Y-9967661D01*
X14211980Y-9957389D01*
X14214673Y-9947339D01*
X14215050Y-9945931D01*
X14215050Y-9934069D01*
X14212118Y-9923128D01*
X14211980Y-9922611D01*
X14206049Y-9912339D01*
X14197661Y-9903951D01*
X14189421Y-9899194D01*
X14187138Y-9896218D01*
X14187627Y-9892500D01*
X14190603Y-9890217D01*
X14191871Y-9890050D01*
X14985523Y-9890050D01*
X14988988Y-9891485D01*
X15278515Y-10181012D01*
X15279950Y-10184477D01*
X15279950Y-10433129D01*
X15278515Y-10436594D01*
X15275050Y-10438029D01*
X15271585Y-10436594D01*
X15270806Y-10435579D01*
X15267600Y-10430026D01*
X15266049Y-10427339D01*
X15257661Y-10418951D01*
X15247389Y-10413020D01*
X15247388Y-10413020D01*
X15235931Y-10409950D01*
X15235931Y-10409950D01*
X15224069Y-10409950D01*
X15224069Y-10409950D01*
X15212611Y-10413020D01*
X15212611Y-10413020D01*
X15202339Y-10418951D01*
X15202339Y-10418951D01*
X15197775Y-10423515D01*
X15194310Y-10424950D01*
X15035385Y-10424950D01*
X15030402Y-10426285D01*
X15027910Y-10426953D01*
X15026567Y-10427313D01*
X15026471Y-10427339D01*
X15018479Y-10431953D01*
X15018478Y-10431953D01*
X14986917Y-10463515D01*
X14983452Y-10464950D01*
X14169553Y-10464950D01*
X14166088Y-10463515D01*
X14164653Y-10460050D01*
X14166088Y-10456585D01*
X14172052Y-10450622D01*
X14179958Y-10436928D01*
X14184050Y-10421656D01*
X14184050Y-10421656D01*
X14184050Y-10405844D01*
X14184050Y-10405844D01*
X14182471Y-10399950D01*
X14179958Y-10390572D01*
X14179958Y-10390572D01*
X14179958Y-10390571D01*
X14172052Y-10376879D01*
X14172052Y-10376879D01*
X14172052Y-10376878D01*
X14160872Y-10365698D01*
X14160871Y-10365698D01*
X14160871Y-10365698D01*
X14147179Y-10357792D01*
X14147178Y-10357792D01*
X14131906Y-10353700D01*
X14131906Y-10353700D01*
X14116094Y-10353700D01*
X14116094Y-10353700D01*
X14100822Y-10357792D01*
X14100821Y-10357792D01*
X14087129Y-10365698D01*
X14087128Y-10365698D01*
X14075721Y-10377106D01*
X14075626Y-10377011D01*
X14072774Y-10378658D01*
X14072134Y-10378700D01*
X14005298Y-10378700D01*
X14001833Y-10377265D01*
X13996521Y-10371953D01*
X13988529Y-10367339D01*
X13988529Y-10367339D01*
X13979615Y-10364950D01*
X13979614Y-10364950D01*
X13891866Y-10364950D01*
X13888401Y-10363515D01*
X13888137Y-10363214D01*
X13876872Y-10351948D01*
X13876872Y-10351948D01*
X13876871Y-10351948D01*
X13876871Y-10351948D01*
X13863179Y-10344042D01*
X13863178Y-10344042D01*
X13847906Y-10339950D01*
X13847906Y-10339950D01*
X13832094Y-10339950D01*
X13832094Y-10339950D01*
X13816822Y-10344042D01*
X13816821Y-10344042D01*
X13803129Y-10351948D01*
X13803128Y-10351948D01*
X13791948Y-10363128D01*
X13791947Y-10363129D01*
X13784042Y-10376821D01*
X13784042Y-10376822D01*
X13779950Y-10392094D01*
X13779950Y-10407906D01*
X13784042Y-10423178D01*
X13784042Y-10423179D01*
X13791947Y-10436871D01*
X13791948Y-10436872D01*
X13793662Y-10438585D01*
X13795097Y-10442050D01*
X13793662Y-10445515D01*
X13790197Y-10446950D01*
X13644950Y-10446950D01*
X13641485Y-10445515D01*
X13640050Y-10442050D01*
X13640050Y-10430026D01*
X13640050Y-10430025D01*
X13638887Y-10424177D01*
X13636230Y-10420201D01*
X13634455Y-10417545D01*
X13629073Y-10413949D01*
X13627823Y-10413113D01*
X13621975Y-10411950D01*
X13518025Y-10411950D01*
X13512177Y-10413113D01*
X13505545Y-10417545D01*
X13501556Y-10423515D01*
X13501113Y-10424177D01*
X13499950Y-10430025D01*
X13499950Y-10430026D01*
X13499950Y-10442050D01*
X13498515Y-10445515D01*
X13495050Y-10446950D01*
X13478548Y-10446950D01*
X13475083Y-10445515D01*
X13346485Y-10316917D01*
X13345050Y-10313452D01*
X13345050Y-10165385D01*
X13345050Y-10165385D01*
X13342661Y-10156472D01*
X13342661Y-10156471D01*
X13341783Y-10154951D01*
X13341783Y-10154950D01*
X13341783Y-10154950D01*
X13338047Y-10148479D01*
X13141521Y-9951953D01*
X13133529Y-9947339D01*
X13133529Y-9947339D01*
X13124615Y-9944950D01*
X13124614Y-9944950D01*
X12891866Y-9944950D01*
X12888401Y-9943515D01*
X12888137Y-9943214D01*
X12876872Y-9931948D01*
X12876872Y-9931948D01*
X12876871Y-9931948D01*
X12876871Y-9931948D01*
X12863179Y-9924042D01*
X12863178Y-9924042D01*
X12847906Y-9919950D01*
X12847906Y-9919950D01*
X12832094Y-9919950D01*
X12832094Y-9919950D01*
X12816822Y-9924042D01*
X12816821Y-9924042D01*
X12803128Y-9931948D01*
X12802933Y-9932098D01*
X12799310Y-9933069D01*
X12796062Y-9931193D01*
X12795050Y-9928211D01*
X12795050Y-9635385D01*
X12792661Y-9626472D01*
X12792661Y-9626471D01*
X12791841Y-9625050D01*
X12791259Y-9624042D01*
X12790824Y-9623289D01*
X12788047Y-9618479D01*
X12731459Y-9561891D01*
X12730024Y-9558426D01*
X12730050Y-9558026D01*
X12730050Y-9542094D01*
X12730050Y-9542094D01*
X12725958Y-9526822D01*
X12725958Y-9526821D01*
X12718052Y-9513129D01*
X12718052Y-9513129D01*
X12718052Y-9513128D01*
X12706872Y-9501948D01*
X12706871Y-9501948D01*
X12706871Y-9501948D01*
X12693179Y-9494042D01*
X12693178Y-9494042D01*
X12677906Y-9489950D01*
X12677906Y-9489950D01*
X12662094Y-9489950D01*
X12662094Y-9489950D01*
X12646822Y-9494042D01*
X12646821Y-9494042D01*
X12633129Y-9501948D01*
X12633128Y-9501948D01*
X12628415Y-9506662D01*
X12624950Y-9508097D01*
X12621485Y-9506662D01*
X12620050Y-9503197D01*
X12620050Y-9469477D01*
X12621485Y-9466012D01*
X12656012Y-9431485D01*
X12659477Y-9430050D01*
X12915523Y-9430050D01*
X12918988Y-9431485D01*
G37*
%TD.AperFunction*%
%TA.AperFunction,Conductor*%
G36*
X14933703Y-9021485D02*
G01*
X14935138Y-9024950D01*
X14934482Y-9027400D01*
X14929042Y-9036821D01*
X14929042Y-9036822D01*
X14924950Y-9052094D01*
X14924950Y-9067906D01*
X14929042Y-9083178D01*
X14929042Y-9083179D01*
X14936947Y-9096871D01*
X14936948Y-9096871D01*
X14936948Y-9096872D01*
X14948128Y-9108052D01*
X14948129Y-9108052D01*
X14948129Y-9108052D01*
X14961821Y-9115958D01*
X14961821Y-9115958D01*
X14961822Y-9115958D01*
X14966197Y-9117130D01*
X14977094Y-9120050D01*
X14977094Y-9120050D01*
X14977094Y-9120050D01*
X14992906Y-9120050D01*
X14992906Y-9120050D01*
X15008178Y-9115958D01*
X15013079Y-9113128D01*
X15021871Y-9108052D01*
X15021871Y-9108052D01*
X15021872Y-9108052D01*
X15033052Y-9096872D01*
X15035576Y-9092500D01*
X15038551Y-9090217D01*
X15039819Y-9090050D01*
X15148955Y-9090050D01*
X15152419Y-9091485D01*
X15243515Y-9182581D01*
X15244950Y-9186045D01*
X15244950Y-9190238D01*
X15243515Y-9193703D01*
X15240050Y-9195138D01*
X15237600Y-9194482D01*
X15228179Y-9189042D01*
X15228178Y-9189042D01*
X15212906Y-9184950D01*
X15212906Y-9184950D01*
X15197094Y-9184950D01*
X15197094Y-9184950D01*
X15181822Y-9189042D01*
X15181821Y-9189042D01*
X15168129Y-9196948D01*
X15168128Y-9196948D01*
X15156948Y-9208128D01*
X15156947Y-9208129D01*
X15149042Y-9221821D01*
X15149042Y-9221822D01*
X15145158Y-9236318D01*
X15142875Y-9239294D01*
X15140425Y-9239950D01*
X14330385Y-9239950D01*
X14321471Y-9242339D01*
X14321471Y-9242339D01*
X14313479Y-9246953D01*
X14308415Y-9252017D01*
X14304950Y-9253452D01*
X14301485Y-9252017D01*
X14300050Y-9248552D01*
X14300050Y-9155649D01*
X14301485Y-9152184D01*
X14302969Y-9151192D01*
X14302968Y-9151191D01*
X14302979Y-9151185D01*
X14303075Y-9151122D01*
X14303181Y-9151078D01*
X14314654Y-9143411D01*
X14324411Y-9133654D01*
X14332077Y-9122181D01*
X14337358Y-9109433D01*
X14340050Y-9095899D01*
X14340050Y-9084477D01*
X14341485Y-9081012D01*
X14401012Y-9021485D01*
X14404477Y-9020050D01*
X14930238Y-9020050D01*
X14933703Y-9021485D01*
G37*
%TD.AperFunction*%
%TD*%
M02*
