%TF.GenerationSoftware,KiCad,Pcbnew,10.0.6-10.0.6~ubuntu24.04.1*%
%TF.CreationDate,2026-10-10T12:11:59+02:00*%
%TF.ProjectId,TireTempSensor_v2.0,54697265-5465-46d7-9053-656e736f725f,rev?*%
%TF.SameCoordinates,Original*%
%TF.FileFunction,Copper,L2,Inr*%
%TF.FilePolarity,Positive*%
%FSLAX45Y45*%
G04 Gerber Fmt 4.5, Leading zero omitted, Abs format (unit mm)*
G04 Created by KiCad (PCBNEW 10.0.6-10.0.6~ubuntu24.04.1) date 2026-10-10 12:11:59*
%MOMM*%
%LPD*%
G01*
G04 APERTURE LIST*
G04 Aperture macros list*
%AMRoundRect*
0 Rectangle with rounded corners*
0 $1 Rounding radius*
0 $2 $3 $4 $5 $6 $7 $8 $9 X,Y pos of 4 corners*
0 Add a 4 corners polygon primitive as box body*
4,1,4,$2,$3,$4,$5,$6,$7,$8,$9,$2,$3,0*
0 Add four circle primitives for the rounded corners*
1,1,$1+$1,$2,$3*
1,1,$1+$1,$4,$5*
1,1,$1+$1,$6,$7*
1,1,$1+$1,$8,$9*
0 Add four rect primitives between the rounded corners*
20,1,$1+$1,$2,$3,$4,$5,0*
20,1,$1+$1,$4,$5,$6,$7,0*
20,1,$1+$1,$6,$7,$8,$9,0*
20,1,$1+$1,$8,$9,$2,$3,0*%
%AMRotRect*
0 Rectangle, with rotation*
0 The origin of the aperture is its center*
0 $1 length*
0 $2 width*
0 $3 Rotation angle, in degrees counterclockwise*
0 Add horizontal line*
21,1,$1,$2,0,0,$3*%
G04 Aperture macros list end*
%TA.AperFunction,ComponentPad*%
%ADD10C,4.500000*%
%TD*%
%TA.AperFunction,ComponentPad*%
%ADD11RoundRect,0.250000X-0.550000X0.550000X-0.550000X-0.550000X0.550000X-0.550000X0.550000X0.550000X0*%
%TD*%
%TA.AperFunction,ComponentPad*%
%ADD12RotRect,1.192000X1.192000X45.000000*%
%TD*%
%TA.AperFunction,ComponentPad*%
%ADD13C,1.192000*%
%TD*%
%TA.AperFunction,ViaPad*%
%ADD14C,0.800000*%
%TD*%
%TA.AperFunction,ViaPad*%
%ADD15C,0.500000*%
%TD*%
%TA.AperFunction,ViaPad*%
%ADD16C,0.450000*%
%TD*%
%TA.AperFunction,Conductor*%
%ADD17C,0.200000*%
%TD*%
%TA.AperFunction,Conductor*%
%ADD18C,0.500000*%
%TD*%
G04 APERTURE END LIST*
D10*
%TO.N,GND*%
%TO.C,H4*%
X16726000Y-9235000D03*
%TD*%
D11*
%TO.N,/CAN+*%
%TO.C,J5*%
X10277500Y-9060000D03*
%TD*%
D10*
%TO.N,GND*%
%TO.C,H2*%
X16730000Y-10610000D03*
%TD*%
D11*
%TO.N,GND*%
%TO.C,J1*%
X10317500Y-10660000D03*
%TD*%
%TO.N,/CAN-*%
%TO.C,J4*%
X10277500Y-9360000D03*
%TD*%
%TO.N,+24V*%
%TO.C,J2*%
X10317500Y-10400000D03*
%TD*%
D10*
%TO.N,unconnected-(H3-Pad1)*%
%TO.C,H3*%
X9290000Y-9230000D03*
%TD*%
%TO.N,GND*%
%TO.C,H1*%
X9290000Y-10580000D03*
%TD*%
D12*
%TO.N,/SCL*%
%TO.C,IC2*%
X16100000Y-9400000D03*
D13*
%TO.N,/SDA*%
X16100000Y-9759210D03*
%TO.N,Net-(IC2-VDD)*%
X15740790Y-9759210D03*
%TO.N,GND*%
X15740790Y-9400000D03*
%TD*%
D14*
%TO.N,GND*%
X12910000Y-9745000D03*
X15090000Y-10535000D03*
X12965000Y-10755000D03*
X16410000Y-9250000D03*
X12435000Y-8990000D03*
D15*
X14477500Y-9045000D03*
D14*
X13410000Y-10030000D03*
X13000000Y-10866000D03*
X16070000Y-10150000D03*
X12435000Y-9185000D03*
X13840000Y-10710000D03*
X12945000Y-9115000D03*
X12655000Y-10765000D03*
X12910000Y-9630000D03*
X13820000Y-9140000D03*
X15366062Y-9907062D03*
X12635000Y-9250000D03*
X12690000Y-10876000D03*
X12300000Y-8990000D03*
X13420000Y-10630000D03*
X16020000Y-9090000D03*
X13100000Y-10260000D03*
X12390000Y-10876000D03*
X13073000Y-10567000D03*
X12355000Y-10765000D03*
X15190000Y-10730000D03*
D15*
X16273500Y-10510000D03*
D14*
X15460000Y-10655000D03*
X12300000Y-9185000D03*
X14280000Y-9980000D03*
X13350000Y-9735000D03*
X12910000Y-9875000D03*
X13640000Y-10200000D03*
X13850000Y-10900000D03*
X12760000Y-9120000D03*
%TO.N,/OSC IN*%
X15010000Y-10110000D03*
X16110000Y-9150000D03*
%TO.N,/NRST*%
X15195256Y-10630138D03*
X16180000Y-9960000D03*
X16070000Y-10260000D03*
%TO.N,+3V3*%
X14950000Y-9690000D03*
X15090000Y-9608551D03*
X14154497Y-9085503D03*
%TO.N,+5V*%
X12850000Y-10170000D03*
X12850000Y-10170000D03*
%TO.N,/GND_ISO*%
X9130000Y-9990000D03*
X10200000Y-9540000D03*
X9320000Y-9540000D03*
X11040000Y-10720000D03*
X10580000Y-10170000D03*
X11260000Y-10720000D03*
X10365000Y-10190000D03*
X10180000Y-10190000D03*
X10800000Y-9960000D03*
X10010000Y-9540000D03*
X9830000Y-9540000D03*
X11350000Y-9050000D03*
X10630000Y-9520000D03*
X10760000Y-9050000D03*
X9995000Y-10190000D03*
X9810000Y-10190000D03*
X10760000Y-9390000D03*
X10340000Y-9540000D03*
X10710000Y-10180000D03*
X10840000Y-10720000D03*
X10640000Y-10720000D03*
X9130000Y-9780000D03*
X11020000Y-9050000D03*
X9320000Y-10210000D03*
%TO.N,/CAN RX*%
X14041391Y-9083609D03*
X12470000Y-9810000D03*
%TO.N,Net-(C35-Pad1)*%
X11020000Y-10220000D03*
X11400000Y-10680000D03*
%TO.N,/Power Supply 3.3v 2.6v/VO_+3.3V*%
X12900000Y-10060000D03*
%TO.N,/URAT_TX*%
X16410000Y-9040000D03*
X15460000Y-10430000D03*
X15679497Y-10119498D03*
%TO.N,/URAT_RX*%
X14985000Y-9060000D03*
X15490000Y-10125000D03*
D16*
%TO.N,/CAN+*%
X9430000Y-10190000D03*
%TO.N,/CAN-*%
X9420000Y-9570000D03*
%TD*%
%TO.N,/OSC IN*%
D17*
X16010000Y-9250000D02*
X16010000Y-9330000D01*
X16010000Y-9330000D02*
X15620000Y-9720000D01*
X16110000Y-9150000D02*
X16010000Y-9250000D01*
X15030000Y-10050000D02*
X14990000Y-10090000D01*
X15010000Y-10070000D02*
X15030000Y-10050000D01*
X15360000Y-9720000D02*
X15030000Y-10050000D01*
X15620000Y-9720000D02*
X15360000Y-9720000D01*
X15010000Y-10110000D02*
X15010000Y-10070000D01*
%TO.N,Net-(C35-Pad1)*%
D18*
X11020000Y-10300000D02*
X11020000Y-10220000D01*
X11081875Y-10361875D02*
X11400000Y-10680000D01*
X11081875Y-10361875D02*
X11020000Y-10300000D01*
%TD*%
%TA.AperFunction,Conductor*%
%TO.N,/GND_ISO*%
G36*
X11478564Y-8903202D02*
G01*
X11480000Y-8906666D01*
X11480000Y-9915100D01*
X11478565Y-9918565D01*
X11475100Y-9920000D01*
X11250000Y-9920000D01*
X11250000Y-10005100D01*
X11248565Y-10008565D01*
X11245100Y-10010000D01*
X10860000Y-10010000D01*
X10860000Y-10195100D01*
X10858565Y-10198565D01*
X10855100Y-10200000D01*
X10660000Y-10200000D01*
X10660000Y-10610000D01*
X11264260Y-10610000D01*
X11267725Y-10611435D01*
X11338515Y-10682225D01*
X11339950Y-10685690D01*
X11339950Y-10687906D01*
X11344042Y-10703178D01*
X11344042Y-10703179D01*
X11351947Y-10716871D01*
X11351948Y-10716871D01*
X11351948Y-10716872D01*
X11363128Y-10728052D01*
X11363129Y-10728052D01*
X11363129Y-10728052D01*
X11376821Y-10735958D01*
X11376821Y-10735958D01*
X11376822Y-10735958D01*
X11388866Y-10739185D01*
X11392094Y-10740050D01*
X11392094Y-10740050D01*
X11392094Y-10740050D01*
X11407906Y-10740050D01*
X11407906Y-10740050D01*
X11423178Y-10735958D01*
X11436872Y-10728052D01*
X11448052Y-10716872D01*
X11449722Y-10713979D01*
X11455958Y-10703179D01*
X11455958Y-10703179D01*
X11455958Y-10703178D01*
X11460050Y-10687906D01*
X11460050Y-10687906D01*
X11460050Y-10672094D01*
X11460050Y-10672094D01*
X11455958Y-10656822D01*
X11455958Y-10656821D01*
X11448052Y-10643129D01*
X11448052Y-10643129D01*
X11448052Y-10643128D01*
X11436872Y-10631948D01*
X11436871Y-10631948D01*
X11436871Y-10631948D01*
X11423179Y-10624042D01*
X11423178Y-10624042D01*
X11407906Y-10619950D01*
X11407906Y-10619950D01*
X11405690Y-10619950D01*
X11402225Y-10618515D01*
X11402075Y-10618365D01*
X11400640Y-10614900D01*
X11402075Y-10611435D01*
X11405540Y-10610000D01*
X11475100Y-10610000D01*
X11478565Y-10611435D01*
X11480000Y-10614900D01*
X11480000Y-10950022D01*
X11478565Y-10953487D01*
X11475105Y-10954922D01*
X10514905Y-10955872D01*
X10511439Y-10954441D01*
X10510000Y-10950977D01*
X10510000Y-10270000D01*
X9094900Y-10270000D01*
X9091435Y-10268565D01*
X9090000Y-10265100D01*
X9090000Y-10183839D01*
X9367450Y-10183839D01*
X9367450Y-10196161D01*
X9368214Y-10200000D01*
X9369854Y-10208245D01*
X9369854Y-10208246D01*
X9374569Y-10219628D01*
X9374569Y-10219628D01*
X9374569Y-10219629D01*
X9381414Y-10229873D01*
X9390127Y-10238586D01*
X9400371Y-10245431D01*
X9400372Y-10245431D01*
X9411754Y-10250146D01*
X9411754Y-10250146D01*
X9411755Y-10250146D01*
X9423839Y-10252550D01*
X9423840Y-10252550D01*
X9436160Y-10252550D01*
X9436161Y-10252550D01*
X9448245Y-10250146D01*
X9459629Y-10245431D01*
X9469873Y-10238586D01*
X9478586Y-10229873D01*
X9485431Y-10219629D01*
X9490146Y-10208245D01*
X9492550Y-10196161D01*
X9492550Y-10183839D01*
X9490146Y-10171755D01*
X9485431Y-10160371D01*
X9478586Y-10150127D01*
X9469873Y-10141414D01*
X9459629Y-10134569D01*
X9459628Y-10134569D01*
X9459628Y-10134569D01*
X9448246Y-10129854D01*
X9448245Y-10129854D01*
X9443371Y-10128884D01*
X9436161Y-10127450D01*
X9423839Y-10127450D01*
X9417825Y-10128646D01*
X9411755Y-10129854D01*
X9411754Y-10129854D01*
X9400372Y-10134569D01*
X9400372Y-10134569D01*
X9400371Y-10134569D01*
X9397767Y-10136309D01*
X9390127Y-10141414D01*
X9381414Y-10150127D01*
X9374569Y-10160372D01*
X9369854Y-10171754D01*
X9369854Y-10171755D01*
X9368646Y-10177825D01*
X9367450Y-10183839D01*
X9090000Y-10183839D01*
X9090000Y-9504900D01*
X9091435Y-9501435D01*
X9094900Y-9500000D01*
X9401542Y-9500000D01*
X9405007Y-9501435D01*
X9406442Y-9504900D01*
X9405007Y-9508365D01*
X9402498Y-9509706D01*
X9401755Y-9509854D01*
X9401755Y-9509854D01*
X9401754Y-9509854D01*
X9390372Y-9514569D01*
X9390372Y-9514569D01*
X9390371Y-9514569D01*
X9387767Y-9516309D01*
X9380127Y-9521414D01*
X9371414Y-9530127D01*
X9364569Y-9540372D01*
X9359854Y-9551754D01*
X9359854Y-9551755D01*
X9358646Y-9557825D01*
X9357450Y-9563839D01*
X9357450Y-9576161D01*
X9359045Y-9584180D01*
X9359854Y-9588245D01*
X9359854Y-9588246D01*
X9364569Y-9599628D01*
X9364569Y-9599628D01*
X9364569Y-9599629D01*
X9371414Y-9609873D01*
X9380127Y-9618586D01*
X9390371Y-9625431D01*
X9390372Y-9625431D01*
X9401754Y-9630146D01*
X9401754Y-9630146D01*
X9401755Y-9630146D01*
X9413839Y-9632550D01*
X9413840Y-9632550D01*
X9426160Y-9632550D01*
X9426161Y-9632550D01*
X9438245Y-9630146D01*
X9449629Y-9625431D01*
X9459873Y-9618586D01*
X9468586Y-9609873D01*
X9475431Y-9599629D01*
X9480146Y-9588245D01*
X9482550Y-9576161D01*
X9482550Y-9563839D01*
X9480146Y-9551755D01*
X9475431Y-9540371D01*
X9468586Y-9530127D01*
X9459873Y-9521414D01*
X9449629Y-9514569D01*
X9449628Y-9514569D01*
X9449628Y-9514569D01*
X9438246Y-9509854D01*
X9438245Y-9509854D01*
X9438245Y-9509854D01*
X9437502Y-9509706D01*
X9434384Y-9507622D01*
X9433652Y-9503944D01*
X9435735Y-9500826D01*
X9438458Y-9500000D01*
X10410000Y-9500000D01*
X10410000Y-8907030D01*
X10411435Y-8903565D01*
X10414898Y-8902130D01*
X11475098Y-8901768D01*
X11478564Y-8903202D01*
G37*
%TD.AperFunction*%
%TD*%
%TA.AperFunction,Conductor*%
%TO.N,GND*%
G36*
X16700120Y-8900056D02*
G01*
X16730892Y-8901568D01*
X16731158Y-8901588D01*
X16738445Y-8902354D01*
X16738638Y-8902378D01*
X16765579Y-8906375D01*
X16765875Y-8906428D01*
X16772501Y-8907837D01*
X16772656Y-8907872D01*
X16799695Y-8914645D01*
X16800013Y-8914737D01*
X16805434Y-8916498D01*
X16805566Y-8916543D01*
X16832871Y-8926313D01*
X16833211Y-8926449D01*
X16834608Y-8927071D01*
X16836635Y-8927974D01*
X16836730Y-8928017D01*
X16864750Y-8941270D01*
X16865170Y-8941494D01*
X16878343Y-8949390D01*
X16894216Y-8958904D01*
X16894616Y-8959171D01*
X16908214Y-8969256D01*
X16921813Y-8979342D01*
X16922184Y-8979646D01*
X16926818Y-8983846D01*
X16947274Y-9002386D01*
X16947614Y-9002726D01*
X16970354Y-9027816D01*
X16970658Y-9028187D01*
X16972377Y-9030505D01*
X16990829Y-9055384D01*
X16991096Y-9055784D01*
X17008505Y-9084829D01*
X17008731Y-9085251D01*
X17019515Y-9108052D01*
X17021979Y-9113263D01*
X17022026Y-9113365D01*
X17023550Y-9116788D01*
X17023687Y-9117130D01*
X17033456Y-9144433D01*
X17033503Y-9144569D01*
X17035262Y-9149984D01*
X17035355Y-9150307D01*
X17042126Y-9177335D01*
X17042165Y-9177507D01*
X17043571Y-9184123D01*
X17043625Y-9184423D01*
X17047621Y-9211355D01*
X17047647Y-9211562D01*
X17048412Y-9218839D01*
X17048432Y-9219111D01*
X17049944Y-9249880D01*
X17049950Y-9250120D01*
X17049950Y-10599880D01*
X17049944Y-10600120D01*
X17048432Y-10630889D01*
X17048412Y-10631161D01*
X17047647Y-10638438D01*
X17047621Y-10638645D01*
X17043625Y-10665577D01*
X17043571Y-10665877D01*
X17042165Y-10672493D01*
X17042126Y-10672664D01*
X17035355Y-10699692D01*
X17035262Y-10700016D01*
X17033503Y-10705431D01*
X17033456Y-10705567D01*
X17023687Y-10732870D01*
X17023550Y-10733212D01*
X17022026Y-10736635D01*
X17021979Y-10736737D01*
X17008732Y-10764747D01*
X17008505Y-10765171D01*
X16991096Y-10794216D01*
X16990829Y-10794616D01*
X16970659Y-10821812D01*
X16970354Y-10822184D01*
X16947614Y-10847274D01*
X16947274Y-10847614D01*
X16922184Y-10870354D01*
X16921812Y-10870659D01*
X16894616Y-10890829D01*
X16894216Y-10891096D01*
X16865171Y-10908505D01*
X16864747Y-10908732D01*
X16836737Y-10921979D01*
X16836635Y-10922026D01*
X16833212Y-10923550D01*
X16832870Y-10923687D01*
X16805567Y-10933456D01*
X16805431Y-10933503D01*
X16800016Y-10935262D01*
X16799692Y-10935355D01*
X16772664Y-10942126D01*
X16772492Y-10942165D01*
X16765877Y-10943571D01*
X16765577Y-10943625D01*
X16738645Y-10947621D01*
X16738438Y-10947647D01*
X16731161Y-10948412D01*
X16730889Y-10948432D01*
X16700120Y-10949944D01*
X16699880Y-10949950D01*
X16499979Y-10949950D01*
X16499979Y-10949950D01*
X16420728Y-10950028D01*
X12204905Y-10954200D01*
X12201439Y-10952768D01*
X12200000Y-10949305D01*
X12200000Y-10814727D01*
X15609950Y-10814727D01*
X15609950Y-10825273D01*
X15612679Y-10835459D01*
X15612679Y-10835459D01*
X15617952Y-10844591D01*
X15625409Y-10852048D01*
X15628751Y-10853978D01*
X15634541Y-10857321D01*
X15634541Y-10857321D01*
X15634541Y-10857321D01*
X15642575Y-10859473D01*
X15644727Y-10860050D01*
X15644727Y-10860050D01*
X15644727Y-10860050D01*
X15655273Y-10860050D01*
X15655273Y-10860050D01*
X15665459Y-10857321D01*
X15674591Y-10852048D01*
X15682048Y-10844591D01*
X15687321Y-10835459D01*
X15690050Y-10825273D01*
X15690050Y-10825273D01*
X15690050Y-10814727D01*
X15690050Y-10814727D01*
X15687321Y-10804541D01*
X15687321Y-10804541D01*
X15682418Y-10796049D01*
X15682048Y-10795409D01*
X15674591Y-10787952D01*
X15674088Y-10787661D01*
X15665459Y-10782679D01*
X15665458Y-10782679D01*
X15655273Y-10779950D01*
X15655273Y-10779950D01*
X15644727Y-10779950D01*
X15644727Y-10779950D01*
X15634541Y-10782679D01*
X15634541Y-10782679D01*
X15625409Y-10787952D01*
X15625409Y-10787952D01*
X15617952Y-10795409D01*
X15617952Y-10795409D01*
X15612679Y-10804541D01*
X15612679Y-10804541D01*
X15609950Y-10814727D01*
X12200000Y-10814727D01*
X12200000Y-10754069D01*
X13234950Y-10754069D01*
X13234950Y-10765931D01*
X13238020Y-10777388D01*
X13238020Y-10777389D01*
X13241075Y-10782679D01*
X13243951Y-10787661D01*
X13252339Y-10796049D01*
X13262611Y-10801980D01*
X13265476Y-10802747D01*
X13274069Y-10805050D01*
X13274069Y-10805050D01*
X13285931Y-10805050D01*
X13291660Y-10803515D01*
X13297389Y-10801980D01*
X13307661Y-10796049D01*
X13316049Y-10787661D01*
X13321980Y-10777389D01*
X13323515Y-10771660D01*
X13325050Y-10765931D01*
X13325050Y-10754069D01*
X13321980Y-10742612D01*
X13321980Y-10742611D01*
X13320390Y-10739859D01*
X13316049Y-10732339D01*
X13307661Y-10723951D01*
X13297389Y-10718020D01*
X13297388Y-10718020D01*
X13285931Y-10714950D01*
X13285931Y-10714950D01*
X13274069Y-10714950D01*
X13274069Y-10714950D01*
X13262611Y-10718020D01*
X13262611Y-10718020D01*
X13252339Y-10723951D01*
X13252339Y-10723951D01*
X13243951Y-10732339D01*
X13243951Y-10732339D01*
X13238020Y-10742611D01*
X13238020Y-10742612D01*
X13234950Y-10754069D01*
X12200000Y-10754069D01*
X12200000Y-10622232D01*
X15135206Y-10622232D01*
X15135206Y-10638044D01*
X15139298Y-10653316D01*
X15139298Y-10653317D01*
X15147203Y-10667009D01*
X15147204Y-10667009D01*
X15147204Y-10667010D01*
X15158384Y-10678190D01*
X15158385Y-10678190D01*
X15158385Y-10678190D01*
X15172077Y-10686096D01*
X15172077Y-10686096D01*
X15172077Y-10686096D01*
X15184122Y-10689323D01*
X15187350Y-10690188D01*
X15187350Y-10690188D01*
X15187350Y-10690188D01*
X15203162Y-10690188D01*
X15203162Y-10690188D01*
X15218434Y-10686096D01*
X15220059Y-10685158D01*
X15232127Y-10678190D01*
X15232127Y-10678190D01*
X15232127Y-10678190D01*
X15243308Y-10667010D01*
X15251214Y-10653316D01*
X15255306Y-10638044D01*
X15255306Y-10638044D01*
X15255306Y-10634727D01*
X15549950Y-10634727D01*
X15549950Y-10645273D01*
X15552679Y-10655459D01*
X15552679Y-10655459D01*
X15556353Y-10661822D01*
X15557952Y-10664591D01*
X15565409Y-10672048D01*
X15568751Y-10673978D01*
X15574541Y-10677321D01*
X15574541Y-10677321D01*
X15574541Y-10677321D01*
X15582575Y-10679473D01*
X15584727Y-10680050D01*
X15584727Y-10680050D01*
X15584727Y-10680050D01*
X15595273Y-10680050D01*
X15595273Y-10680050D01*
X15605459Y-10677321D01*
X15614591Y-10672048D01*
X15622048Y-10664591D01*
X15627321Y-10655459D01*
X15630050Y-10645273D01*
X15630050Y-10645273D01*
X15630050Y-10634727D01*
X15630050Y-10634727D01*
X15627321Y-10624541D01*
X15627321Y-10624541D01*
X15622048Y-10615409D01*
X15614591Y-10607952D01*
X15605459Y-10602679D01*
X15605458Y-10602679D01*
X15598582Y-10600837D01*
X15595273Y-10599950D01*
X15595273Y-10599950D01*
X15584727Y-10599950D01*
X15584727Y-10599950D01*
X15574541Y-10602679D01*
X15574541Y-10602679D01*
X15565409Y-10607952D01*
X15565409Y-10607952D01*
X15557952Y-10615409D01*
X15557952Y-10615409D01*
X15552679Y-10624541D01*
X15552679Y-10624541D01*
X15549950Y-10634727D01*
X15255306Y-10634727D01*
X15255306Y-10622232D01*
X15255306Y-10622232D01*
X15253957Y-10617197D01*
X15251214Y-10606960D01*
X15251213Y-10606959D01*
X15251213Y-10606959D01*
X15245025Y-10596241D01*
X16485000Y-10596241D01*
X16485000Y-10623759D01*
X16488081Y-10651103D01*
X16488081Y-10651103D01*
X16494204Y-10677931D01*
X16503293Y-10703906D01*
X16503293Y-10703906D01*
X16515232Y-10728698D01*
X16515232Y-10728698D01*
X16529872Y-10751997D01*
X16547029Y-10773511D01*
X16547030Y-10773513D01*
X16549688Y-10776170D01*
X16627469Y-10698388D01*
X16641612Y-10712530D01*
X16563830Y-10790312D01*
X16566487Y-10792970D01*
X16566489Y-10792971D01*
X16588002Y-10810127D01*
X16611302Y-10824768D01*
X16611302Y-10824768D01*
X16636094Y-10836707D01*
X16636094Y-10836707D01*
X16662069Y-10845796D01*
X16662068Y-10845796D01*
X16688897Y-10851919D01*
X16716241Y-10855000D01*
X16743759Y-10855000D01*
X16771103Y-10851919D01*
X16771103Y-10851919D01*
X16797931Y-10845796D01*
X16823906Y-10836707D01*
X16823906Y-10836707D01*
X16848698Y-10824768D01*
X16848698Y-10824768D01*
X16871997Y-10810127D01*
X16893513Y-10792969D01*
X16896170Y-10790312D01*
X16896170Y-10790312D01*
X16818388Y-10712530D01*
X16832530Y-10698388D01*
X16910312Y-10776170D01*
X16910312Y-10776170D01*
X16912969Y-10773513D01*
X16930127Y-10751997D01*
X16944768Y-10728698D01*
X16944768Y-10728698D01*
X16956707Y-10703906D01*
X16956707Y-10703906D01*
X16965796Y-10677931D01*
X16971919Y-10651103D01*
X16971919Y-10651103D01*
X16975000Y-10623759D01*
X16975000Y-10596241D01*
X16971919Y-10568897D01*
X16971919Y-10568897D01*
X16965796Y-10542069D01*
X16956707Y-10516094D01*
X16956707Y-10516094D01*
X16944768Y-10491302D01*
X16944768Y-10491302D01*
X16930127Y-10468003D01*
X16912971Y-10446489D01*
X16912970Y-10446487D01*
X16910312Y-10443830D01*
X16832530Y-10521612D01*
X16818388Y-10507469D01*
X16896170Y-10429688D01*
X16893513Y-10427030D01*
X16893511Y-10427029D01*
X16871997Y-10409873D01*
X16848698Y-10395232D01*
X16848698Y-10395232D01*
X16823906Y-10383293D01*
X16823906Y-10383293D01*
X16797931Y-10374204D01*
X16797931Y-10374204D01*
X16771103Y-10368081D01*
X16743759Y-10365000D01*
X16716241Y-10365000D01*
X16688897Y-10368081D01*
X16688897Y-10368081D01*
X16662069Y-10374204D01*
X16636094Y-10383293D01*
X16636094Y-10383293D01*
X16611302Y-10395232D01*
X16611302Y-10395232D01*
X16588002Y-10409873D01*
X16566488Y-10427030D01*
X16563830Y-10429688D01*
X16641612Y-10507470D01*
X16627469Y-10521612D01*
X16549688Y-10443830D01*
X16547030Y-10446488D01*
X16529872Y-10468003D01*
X16515232Y-10491302D01*
X16515232Y-10491302D01*
X16503293Y-10516094D01*
X16503293Y-10516094D01*
X16494204Y-10542069D01*
X16488081Y-10568897D01*
X16488081Y-10568897D01*
X16485000Y-10596241D01*
X15245025Y-10596241D01*
X15243308Y-10593267D01*
X15243308Y-10593267D01*
X15243308Y-10593266D01*
X15232127Y-10582086D01*
X15232127Y-10582086D01*
X15232127Y-10582085D01*
X15218434Y-10574180D01*
X15218434Y-10574180D01*
X15203162Y-10570088D01*
X15203162Y-10570088D01*
X15187350Y-10570088D01*
X15187350Y-10570088D01*
X15172078Y-10574180D01*
X15172077Y-10574180D01*
X15158385Y-10582085D01*
X15158384Y-10582086D01*
X15147204Y-10593266D01*
X15147203Y-10593267D01*
X15139298Y-10606959D01*
X15139298Y-10606960D01*
X15135206Y-10622232D01*
X12200000Y-10622232D01*
X12200000Y-10454069D01*
X13044950Y-10454069D01*
X13044950Y-10465931D01*
X13048020Y-10477388D01*
X13048020Y-10477389D01*
X13053597Y-10487048D01*
X13053951Y-10487661D01*
X13062339Y-10496049D01*
X13072611Y-10501980D01*
X13075476Y-10502747D01*
X13084069Y-10505050D01*
X13084069Y-10505050D01*
X13095931Y-10505050D01*
X13101660Y-10503515D01*
X13107389Y-10501980D01*
X13117661Y-10496049D01*
X13119641Y-10494069D01*
X13794950Y-10494069D01*
X13794950Y-10505931D01*
X13798020Y-10517388D01*
X13798020Y-10517389D01*
X13800713Y-10522053D01*
X13803951Y-10527661D01*
X13812339Y-10536049D01*
X13822611Y-10541980D01*
X13825476Y-10542747D01*
X13834069Y-10545050D01*
X13834069Y-10545050D01*
X13845931Y-10545050D01*
X13851660Y-10543515D01*
X13857389Y-10541980D01*
X13867661Y-10536049D01*
X13876049Y-10527661D01*
X13881980Y-10517389D01*
X13884756Y-10507028D01*
X13885050Y-10505931D01*
X13885050Y-10494069D01*
X13881980Y-10482612D01*
X13881980Y-10482611D01*
X13876049Y-10472339D01*
X13867661Y-10463951D01*
X13857389Y-10458020D01*
X13857388Y-10458020D01*
X13845931Y-10454950D01*
X13845931Y-10454950D01*
X13834069Y-10454950D01*
X13834069Y-10454950D01*
X13822611Y-10458020D01*
X13822611Y-10458020D01*
X13812339Y-10463951D01*
X13812339Y-10463951D01*
X13803951Y-10472339D01*
X13803951Y-10472339D01*
X13798020Y-10482611D01*
X13798020Y-10482612D01*
X13794950Y-10494069D01*
X13119641Y-10494069D01*
X13126049Y-10487661D01*
X13131980Y-10477389D01*
X13134798Y-10466872D01*
X13135050Y-10465931D01*
X13135050Y-10454069D01*
X13131980Y-10442612D01*
X13131980Y-10442611D01*
X13126049Y-10432339D01*
X13117661Y-10423951D01*
X13107389Y-10418020D01*
X13107388Y-10418020D01*
X13095931Y-10414950D01*
X13095931Y-10414950D01*
X13084069Y-10414950D01*
X13084069Y-10414950D01*
X13072611Y-10418020D01*
X13072611Y-10418020D01*
X13062339Y-10423951D01*
X13062339Y-10423951D01*
X13053951Y-10432339D01*
X13053951Y-10432339D01*
X13048020Y-10442611D01*
X13048020Y-10442612D01*
X13044950Y-10454069D01*
X12200000Y-10454069D01*
X12200000Y-10394069D01*
X13794950Y-10394069D01*
X13794950Y-10405931D01*
X13798020Y-10417388D01*
X13798020Y-10417389D01*
X13803586Y-10427029D01*
X13803951Y-10427661D01*
X13812339Y-10436049D01*
X13818388Y-10439541D01*
X13821626Y-10441411D01*
X13822611Y-10441980D01*
X13825476Y-10442747D01*
X13834069Y-10445050D01*
X13834069Y-10445050D01*
X13845931Y-10445050D01*
X13851660Y-10443515D01*
X13857389Y-10441980D01*
X13867661Y-10436049D01*
X13876049Y-10427661D01*
X13881980Y-10417389D01*
X13883346Y-10412290D01*
X13884544Y-10407819D01*
X14078950Y-10407819D01*
X14078950Y-10419681D01*
X14082020Y-10431138D01*
X14082020Y-10431139D01*
X14084855Y-10436049D01*
X14087951Y-10441411D01*
X14096339Y-10449799D01*
X14106611Y-10455730D01*
X14109476Y-10456497D01*
X14118069Y-10458800D01*
X14118069Y-10458800D01*
X14129931Y-10458800D01*
X14135660Y-10457265D01*
X14141389Y-10455730D01*
X14151661Y-10449799D01*
X14151733Y-10449727D01*
X15189950Y-10449727D01*
X15189950Y-10460273D01*
X15192679Y-10470459D01*
X15192679Y-10470459D01*
X15196680Y-10477389D01*
X15197952Y-10479591D01*
X15205409Y-10487048D01*
X15208751Y-10488978D01*
X15214541Y-10492321D01*
X15214541Y-10492321D01*
X15214541Y-10492321D01*
X15221065Y-10494069D01*
X15224727Y-10495050D01*
X15224727Y-10495050D01*
X15224727Y-10495050D01*
X15235273Y-10495050D01*
X15235273Y-10495050D01*
X15245459Y-10492321D01*
X15254591Y-10487048D01*
X15262048Y-10479591D01*
X15267321Y-10470459D01*
X15270050Y-10460273D01*
X15270050Y-10460273D01*
X15270050Y-10449727D01*
X15270050Y-10449727D01*
X15267822Y-10441411D01*
X15267321Y-10439541D01*
X15267321Y-10439541D01*
X15267321Y-10439541D01*
X15263162Y-10432339D01*
X15262048Y-10430409D01*
X15254591Y-10422952D01*
X15253105Y-10422094D01*
X15399950Y-10422094D01*
X15399950Y-10437906D01*
X15404042Y-10453178D01*
X15404042Y-10453179D01*
X15411947Y-10466871D01*
X15411948Y-10466871D01*
X15411948Y-10466872D01*
X15423128Y-10478052D01*
X15423129Y-10478052D01*
X15423129Y-10478052D01*
X15436821Y-10485958D01*
X15436821Y-10485958D01*
X15436822Y-10485958D01*
X15448866Y-10489185D01*
X15452094Y-10490050D01*
X15452094Y-10490050D01*
X15452094Y-10490050D01*
X15467906Y-10490050D01*
X15467906Y-10490050D01*
X15483178Y-10485958D01*
X15488974Y-10482612D01*
X15496871Y-10478052D01*
X15496871Y-10478052D01*
X15496872Y-10478052D01*
X15508052Y-10466872D01*
X15515958Y-10453178D01*
X15520050Y-10437906D01*
X15520050Y-10437906D01*
X15520050Y-10422094D01*
X15520050Y-10422094D01*
X15515958Y-10406822D01*
X15515958Y-10406821D01*
X15508052Y-10393129D01*
X15508052Y-10393129D01*
X15508052Y-10393128D01*
X15496872Y-10381948D01*
X15496871Y-10381948D01*
X15496871Y-10381948D01*
X15483179Y-10374042D01*
X15483178Y-10374042D01*
X15467906Y-10369950D01*
X15467906Y-10369950D01*
X15452094Y-10369950D01*
X15452094Y-10369950D01*
X15436822Y-10374042D01*
X15436821Y-10374042D01*
X15423129Y-10381948D01*
X15423128Y-10381948D01*
X15411948Y-10393128D01*
X15411947Y-10393129D01*
X15404042Y-10406821D01*
X15404042Y-10406822D01*
X15399950Y-10422094D01*
X15253105Y-10422094D01*
X15245459Y-10417679D01*
X15245458Y-10417679D01*
X15235273Y-10414950D01*
X15235273Y-10414950D01*
X15224727Y-10414950D01*
X15224727Y-10414950D01*
X15214541Y-10417679D01*
X15214541Y-10417679D01*
X15205409Y-10422952D01*
X15205409Y-10422952D01*
X15197952Y-10430409D01*
X15197952Y-10430409D01*
X15192679Y-10439541D01*
X15192679Y-10439541D01*
X15189950Y-10449727D01*
X14151733Y-10449727D01*
X14160049Y-10441411D01*
X14165980Y-10431139D01*
X14168173Y-10422952D01*
X14169050Y-10419681D01*
X14169050Y-10407819D01*
X14165980Y-10396362D01*
X14165980Y-10396361D01*
X14160049Y-10386089D01*
X14151661Y-10377701D01*
X14141389Y-10371770D01*
X14141388Y-10371770D01*
X14129931Y-10368700D01*
X14129931Y-10368700D01*
X14118069Y-10368700D01*
X14118069Y-10368700D01*
X14106611Y-10371770D01*
X14106611Y-10371770D01*
X14096339Y-10377701D01*
X14096339Y-10377701D01*
X14087951Y-10386089D01*
X14087951Y-10386089D01*
X14082020Y-10396361D01*
X14082020Y-10396362D01*
X14078950Y-10407819D01*
X13884544Y-10407819D01*
X13884970Y-10406230D01*
X13884970Y-10406230D01*
X13885050Y-10405931D01*
X13885050Y-10394069D01*
X13881980Y-10382612D01*
X13881980Y-10382611D01*
X13879145Y-10377701D01*
X13876049Y-10372339D01*
X13867661Y-10363951D01*
X13857389Y-10358020D01*
X13857388Y-10358020D01*
X13845931Y-10354950D01*
X13845931Y-10354950D01*
X13834069Y-10354950D01*
X13834069Y-10354950D01*
X13822611Y-10358020D01*
X13822611Y-10358020D01*
X13812339Y-10363951D01*
X13812339Y-10363951D01*
X13803951Y-10372339D01*
X13803951Y-10372339D01*
X13798020Y-10382611D01*
X13798020Y-10382612D01*
X13794950Y-10394069D01*
X12200000Y-10394069D01*
X12200000Y-10344900D01*
X12201435Y-10341435D01*
X12204900Y-10340000D01*
X12720000Y-10340000D01*
X12720000Y-10252094D01*
X16009950Y-10252094D01*
X16009950Y-10267906D01*
X16014042Y-10283178D01*
X16014042Y-10283179D01*
X16021947Y-10296871D01*
X16021948Y-10296871D01*
X16021948Y-10296872D01*
X16033128Y-10308052D01*
X16033129Y-10308052D01*
X16033129Y-10308052D01*
X16046821Y-10315958D01*
X16046821Y-10315958D01*
X16046822Y-10315958D01*
X16058866Y-10319185D01*
X16062094Y-10320050D01*
X16062094Y-10320050D01*
X16062094Y-10320050D01*
X16077906Y-10320050D01*
X16077906Y-10320050D01*
X16093178Y-10315958D01*
X16106872Y-10308052D01*
X16118052Y-10296872D01*
X16125958Y-10283178D01*
X16130050Y-10267906D01*
X16130050Y-10267906D01*
X16130050Y-10252094D01*
X16130050Y-10252094D01*
X16128162Y-10245050D01*
X16125958Y-10236822D01*
X16125958Y-10236822D01*
X16125958Y-10236821D01*
X16118052Y-10223129D01*
X16118052Y-10223129D01*
X16118052Y-10223128D01*
X16106872Y-10211948D01*
X16106871Y-10211948D01*
X16106871Y-10211948D01*
X16093179Y-10204042D01*
X16093178Y-10204042D01*
X16077906Y-10199950D01*
X16077906Y-10199950D01*
X16062094Y-10199950D01*
X16062094Y-10199950D01*
X16046822Y-10204042D01*
X16046821Y-10204042D01*
X16033129Y-10211948D01*
X16033128Y-10211948D01*
X16021948Y-10223128D01*
X16021947Y-10223129D01*
X16014042Y-10236821D01*
X16014042Y-10236822D01*
X16009950Y-10252094D01*
X12720000Y-10252094D01*
X12720000Y-10162094D01*
X12789950Y-10162094D01*
X12789950Y-10177906D01*
X12794042Y-10193178D01*
X12794042Y-10193179D01*
X12801947Y-10206871D01*
X12801948Y-10206871D01*
X12801948Y-10206872D01*
X12813128Y-10218052D01*
X12813129Y-10218052D01*
X12813129Y-10218052D01*
X12826821Y-10225958D01*
X12826821Y-10225958D01*
X12826822Y-10225958D01*
X12838866Y-10229185D01*
X12842094Y-10230050D01*
X12842094Y-10230050D01*
X12842094Y-10230050D01*
X12857906Y-10230050D01*
X12857906Y-10230050D01*
X12873178Y-10225958D01*
X12878079Y-10223128D01*
X12886871Y-10218052D01*
X12886871Y-10218052D01*
X12886872Y-10218052D01*
X12898052Y-10206872D01*
X12905444Y-10194069D01*
X13944950Y-10194069D01*
X13944950Y-10205931D01*
X13948020Y-10217388D01*
X13948020Y-10217389D01*
X13952967Y-10225958D01*
X13953951Y-10227661D01*
X13962339Y-10236049D01*
X13972611Y-10241980D01*
X13975476Y-10242747D01*
X13984069Y-10245050D01*
X13984069Y-10245050D01*
X13995931Y-10245050D01*
X14001660Y-10243515D01*
X14007389Y-10241980D01*
X14017661Y-10236049D01*
X14026049Y-10227661D01*
X14031980Y-10217389D01*
X14034798Y-10206872D01*
X14035050Y-10205931D01*
X14035050Y-10194069D01*
X14031980Y-10182612D01*
X14031980Y-10182611D01*
X14029263Y-10177906D01*
X14026049Y-10172339D01*
X14017661Y-10163951D01*
X14014445Y-10162094D01*
X14007389Y-10158020D01*
X14007388Y-10158020D01*
X13995931Y-10154950D01*
X13995931Y-10154950D01*
X13984069Y-10154950D01*
X13984069Y-10154950D01*
X13972611Y-10158020D01*
X13972611Y-10158020D01*
X13962339Y-10163951D01*
X13962339Y-10163951D01*
X13953951Y-10172339D01*
X13953951Y-10172339D01*
X13948020Y-10182611D01*
X13948020Y-10182612D01*
X13944950Y-10194069D01*
X12905444Y-10194069D01*
X12905958Y-10193178D01*
X12908789Y-10182611D01*
X12910050Y-10177906D01*
X12910050Y-10162094D01*
X12910050Y-10162094D01*
X12908516Y-10156369D01*
X12905958Y-10146822D01*
X12905958Y-10146822D01*
X12905958Y-10146821D01*
X12898052Y-10133129D01*
X12898052Y-10133129D01*
X12898052Y-10133128D01*
X12893338Y-10128415D01*
X12891903Y-10124950D01*
X12893338Y-10121485D01*
X12896803Y-10120050D01*
X12907906Y-10120050D01*
X12907906Y-10120050D01*
X12923178Y-10115958D01*
X12930741Y-10111592D01*
X12936871Y-10108052D01*
X12936871Y-10108052D01*
X12936872Y-10108052D01*
X12942830Y-10102094D01*
X14949950Y-10102094D01*
X14949950Y-10117906D01*
X14954042Y-10133178D01*
X14954042Y-10133179D01*
X14961947Y-10146871D01*
X14961948Y-10146871D01*
X14961948Y-10146872D01*
X14973128Y-10158052D01*
X14973129Y-10158052D01*
X14973129Y-10158052D01*
X14986821Y-10165958D01*
X14986821Y-10165958D01*
X14986822Y-10165958D01*
X14992761Y-10167549D01*
X15002094Y-10170050D01*
X15002094Y-10170050D01*
X15002094Y-10170050D01*
X15017906Y-10170050D01*
X15017906Y-10170050D01*
X15033178Y-10165958D01*
X15046872Y-10158052D01*
X15058052Y-10146872D01*
X15065958Y-10133178D01*
X15070050Y-10117906D01*
X15070050Y-10117906D01*
X15070050Y-10117094D01*
X15429950Y-10117094D01*
X15429950Y-10132906D01*
X15434042Y-10148178D01*
X15434042Y-10148179D01*
X15441947Y-10161871D01*
X15441948Y-10161871D01*
X15441948Y-10161872D01*
X15453128Y-10173052D01*
X15453129Y-10173052D01*
X15453129Y-10173052D01*
X15466821Y-10180958D01*
X15466821Y-10180958D01*
X15466822Y-10180958D01*
X15472994Y-10182612D01*
X15482094Y-10185050D01*
X15482094Y-10185050D01*
X15482094Y-10185050D01*
X15497906Y-10185050D01*
X15497906Y-10185050D01*
X15513178Y-10180958D01*
X15515621Y-10179547D01*
X15526871Y-10173052D01*
X15526871Y-10173052D01*
X15526872Y-10173052D01*
X15538052Y-10161872D01*
X15545958Y-10148178D01*
X15550050Y-10132906D01*
X15550050Y-10132906D01*
X15550050Y-10117094D01*
X15548829Y-10112539D01*
X15548575Y-10111591D01*
X15619447Y-10111591D01*
X15619447Y-10127404D01*
X15623540Y-10142676D01*
X15623540Y-10142676D01*
X15631445Y-10156368D01*
X15631445Y-10156369D01*
X15631445Y-10156369D01*
X15642626Y-10167550D01*
X15642626Y-10167550D01*
X15642626Y-10167550D01*
X15656319Y-10175455D01*
X15656319Y-10175455D01*
X15656319Y-10175455D01*
X15668364Y-10178683D01*
X15671591Y-10179547D01*
X15671591Y-10179548D01*
X15671592Y-10179548D01*
X15687403Y-10179548D01*
X15687403Y-10179547D01*
X15702676Y-10175455D01*
X15716369Y-10167550D01*
X15727549Y-10156369D01*
X15729219Y-10153477D01*
X15735455Y-10142676D01*
X15735455Y-10142676D01*
X15735455Y-10142676D01*
X15739547Y-10127404D01*
X15739547Y-10127404D01*
X15739547Y-10111592D01*
X15739547Y-10111591D01*
X15737795Y-10105050D01*
X15735455Y-10096319D01*
X15735455Y-10096319D01*
X15735455Y-10096319D01*
X15727550Y-10082627D01*
X15727550Y-10082626D01*
X15727549Y-10082626D01*
X15716369Y-10071446D01*
X15716369Y-10071445D01*
X15716368Y-10071445D01*
X15702676Y-10063540D01*
X15702676Y-10063540D01*
X15687403Y-10059448D01*
X15687403Y-10059448D01*
X15671592Y-10059448D01*
X15671591Y-10059448D01*
X15656319Y-10063540D01*
X15656319Y-10063540D01*
X15642626Y-10071445D01*
X15642626Y-10071446D01*
X15631446Y-10082626D01*
X15631445Y-10082627D01*
X15623540Y-10096319D01*
X15623540Y-10096319D01*
X15619447Y-10111591D01*
X15548575Y-10111591D01*
X15546823Y-10105050D01*
X15545958Y-10101822D01*
X15545958Y-10101822D01*
X15545958Y-10101821D01*
X15538052Y-10088129D01*
X15538052Y-10088129D01*
X15538052Y-10088128D01*
X15526872Y-10076948D01*
X15526871Y-10076948D01*
X15526871Y-10076948D01*
X15513179Y-10069042D01*
X15513178Y-10069042D01*
X15497906Y-10064950D01*
X15497906Y-10064950D01*
X15482094Y-10064950D01*
X15482094Y-10064950D01*
X15466822Y-10069042D01*
X15466821Y-10069042D01*
X15453129Y-10076948D01*
X15453128Y-10076948D01*
X15441948Y-10088128D01*
X15441947Y-10088129D01*
X15434042Y-10101821D01*
X15434042Y-10101822D01*
X15429950Y-10117094D01*
X15070050Y-10117094D01*
X15070050Y-10102094D01*
X15070050Y-10102094D01*
X15066308Y-10088129D01*
X15065958Y-10086822D01*
X15065958Y-10086822D01*
X15065958Y-10086821D01*
X15058052Y-10073129D01*
X15058052Y-10073129D01*
X15058052Y-10073128D01*
X15057175Y-10072252D01*
X15055740Y-10068787D01*
X15057175Y-10065322D01*
X15170403Y-9952094D01*
X16119950Y-9952094D01*
X16119950Y-9967906D01*
X16124042Y-9983178D01*
X16124042Y-9983179D01*
X16131947Y-9996871D01*
X16131948Y-9996871D01*
X16131948Y-9996872D01*
X16143128Y-10008052D01*
X16143129Y-10008052D01*
X16143129Y-10008052D01*
X16156821Y-10015958D01*
X16156821Y-10015958D01*
X16156822Y-10015958D01*
X16168866Y-10019185D01*
X16172094Y-10020050D01*
X16172094Y-10020050D01*
X16172094Y-10020050D01*
X16187906Y-10020050D01*
X16187906Y-10020050D01*
X16203178Y-10015958D01*
X16216872Y-10008052D01*
X16228052Y-9996872D01*
X16229722Y-9993979D01*
X16235958Y-9983179D01*
X16235958Y-9983179D01*
X16235958Y-9983178D01*
X16240050Y-9967906D01*
X16240050Y-9967906D01*
X16240050Y-9952094D01*
X16240050Y-9952094D01*
X16235958Y-9936822D01*
X16235958Y-9936821D01*
X16228052Y-9923129D01*
X16228052Y-9923129D01*
X16228052Y-9923128D01*
X16216872Y-9911948D01*
X16216871Y-9911948D01*
X16216871Y-9911948D01*
X16203179Y-9904042D01*
X16203178Y-9904042D01*
X16187906Y-9899950D01*
X16187906Y-9899950D01*
X16172094Y-9899950D01*
X16172094Y-9899950D01*
X16156822Y-9904042D01*
X16156821Y-9904042D01*
X16143129Y-9911948D01*
X16143128Y-9911948D01*
X16131948Y-9923128D01*
X16131947Y-9923129D01*
X16124042Y-9936821D01*
X16124042Y-9936822D01*
X16119950Y-9952094D01*
X15170403Y-9952094D01*
X15371012Y-9751485D01*
X15374477Y-9750050D01*
X15623956Y-9750050D01*
X15626623Y-9749335D01*
X15631599Y-9748002D01*
X15638451Y-9744046D01*
X15644046Y-9738451D01*
X15659284Y-9723213D01*
X15662749Y-9721778D01*
X15666214Y-9723213D01*
X15667649Y-9726678D01*
X15667276Y-9728553D01*
X15664201Y-9735976D01*
X15664201Y-9735977D01*
X15663788Y-9738052D01*
X15661140Y-9751365D01*
X15661140Y-9767055D01*
X15662348Y-9773128D01*
X15664201Y-9782443D01*
X15664201Y-9782444D01*
X15666014Y-9786822D01*
X15670205Y-9796939D01*
X15678922Y-9809984D01*
X15690016Y-9821078D01*
X15703061Y-9829795D01*
X15717557Y-9835799D01*
X15732945Y-9838860D01*
X15732945Y-9838860D01*
X15748634Y-9838860D01*
X15748635Y-9838860D01*
X15764023Y-9835799D01*
X15778518Y-9829795D01*
X15791564Y-9821078D01*
X15802658Y-9809984D01*
X15811375Y-9796939D01*
X15817379Y-9782443D01*
X15820440Y-9767055D01*
X15820440Y-9751365D01*
X16020350Y-9751365D01*
X16020350Y-9767055D01*
X16021558Y-9773128D01*
X16023411Y-9782443D01*
X16023411Y-9782444D01*
X16025224Y-9786822D01*
X16029415Y-9796939D01*
X16038132Y-9809984D01*
X16049226Y-9821078D01*
X16062272Y-9829795D01*
X16076767Y-9835799D01*
X16092155Y-9838860D01*
X16092155Y-9838860D01*
X16107844Y-9838860D01*
X16107845Y-9838860D01*
X16123233Y-9835799D01*
X16137728Y-9829795D01*
X16150774Y-9821078D01*
X16161868Y-9809984D01*
X16170585Y-9796939D01*
X16176589Y-9782443D01*
X16179650Y-9767055D01*
X16179650Y-9751365D01*
X16176589Y-9735977D01*
X16170585Y-9721482D01*
X16161868Y-9708436D01*
X16150774Y-9697342D01*
X16137728Y-9688625D01*
X16137728Y-9688625D01*
X16137728Y-9688625D01*
X16123233Y-9682621D01*
X16123233Y-9682621D01*
X16117027Y-9681387D01*
X16107845Y-9679560D01*
X16092155Y-9679560D01*
X16084496Y-9681084D01*
X16076767Y-9682621D01*
X16076766Y-9682621D01*
X16062272Y-9688625D01*
X16049226Y-9697342D01*
X16038132Y-9708436D01*
X16029415Y-9721482D01*
X16023411Y-9735977D01*
X16023411Y-9735977D01*
X16022998Y-9738052D01*
X16020350Y-9751365D01*
X15820440Y-9751365D01*
X15817379Y-9735977D01*
X15811375Y-9721482D01*
X15802658Y-9708436D01*
X15791564Y-9697342D01*
X15778518Y-9688625D01*
X15778518Y-9688625D01*
X15778518Y-9688625D01*
X15764023Y-9682621D01*
X15764023Y-9682621D01*
X15757817Y-9681387D01*
X15748635Y-9679560D01*
X15732945Y-9679560D01*
X15725286Y-9681084D01*
X15717557Y-9682621D01*
X15717556Y-9682621D01*
X15710132Y-9685696D01*
X15706382Y-9685696D01*
X15703730Y-9683044D01*
X15703730Y-9679294D01*
X15704792Y-9677705D01*
X15987020Y-9395477D01*
X15990484Y-9394042D01*
X15993949Y-9395477D01*
X15995384Y-9398942D01*
X15995290Y-9399898D01*
X15995270Y-9400000D01*
X15996826Y-9407823D01*
X16000139Y-9412781D01*
X16087219Y-9499861D01*
X16092177Y-9503174D01*
X16100000Y-9504730D01*
X16107823Y-9503174D01*
X16112781Y-9499861D01*
X16199861Y-9412781D01*
X16203174Y-9407823D01*
X16204730Y-9400000D01*
X16203174Y-9392177D01*
X16199861Y-9387219D01*
X16112781Y-9300139D01*
X16107823Y-9296826D01*
X16100000Y-9295270D01*
X16092177Y-9296826D01*
X16087219Y-9300139D01*
X16048094Y-9339264D01*
X16044629Y-9340699D01*
X16041164Y-9339264D01*
X16039729Y-9335799D01*
X16039896Y-9334531D01*
X16040050Y-9333956D01*
X16040050Y-9264477D01*
X16041485Y-9261012D01*
X16081256Y-9221241D01*
X16481000Y-9221241D01*
X16481000Y-9248759D01*
X16484081Y-9276103D01*
X16484081Y-9276103D01*
X16490204Y-9302931D01*
X16499293Y-9328906D01*
X16499293Y-9328906D01*
X16511232Y-9353698D01*
X16511232Y-9353698D01*
X16525872Y-9376997D01*
X16543029Y-9398511D01*
X16543030Y-9398513D01*
X16545688Y-9401170D01*
X16623469Y-9323388D01*
X16637612Y-9337530D01*
X16559830Y-9415312D01*
X16562487Y-9417970D01*
X16562489Y-9417971D01*
X16584002Y-9435127D01*
X16607302Y-9449768D01*
X16607302Y-9449768D01*
X16632094Y-9461707D01*
X16632094Y-9461707D01*
X16658069Y-9470796D01*
X16658068Y-9470796D01*
X16684897Y-9476919D01*
X16712241Y-9480000D01*
X16739759Y-9480000D01*
X16767103Y-9476919D01*
X16767103Y-9476919D01*
X16793931Y-9470796D01*
X16819906Y-9461707D01*
X16819906Y-9461707D01*
X16844698Y-9449768D01*
X16844698Y-9449768D01*
X16867997Y-9435127D01*
X16889513Y-9417969D01*
X16892170Y-9415312D01*
X16892170Y-9415312D01*
X16814388Y-9337530D01*
X16828530Y-9323388D01*
X16906312Y-9401170D01*
X16906312Y-9401170D01*
X16908969Y-9398513D01*
X16926127Y-9376997D01*
X16940768Y-9353698D01*
X16940768Y-9353698D01*
X16952707Y-9328906D01*
X16952707Y-9328906D01*
X16961796Y-9302931D01*
X16967919Y-9276103D01*
X16967919Y-9276103D01*
X16971000Y-9248759D01*
X16971000Y-9221241D01*
X16967919Y-9193897D01*
X16967919Y-9193897D01*
X16961796Y-9167069D01*
X16952707Y-9141094D01*
X16952707Y-9141094D01*
X16940768Y-9116302D01*
X16940768Y-9116302D01*
X16926127Y-9093003D01*
X16908971Y-9071489D01*
X16908970Y-9071487D01*
X16906312Y-9068830D01*
X16828530Y-9146612D01*
X16814388Y-9132469D01*
X16892170Y-9054688D01*
X16889513Y-9052030D01*
X16889511Y-9052029D01*
X16867997Y-9034873D01*
X16844698Y-9020232D01*
X16844698Y-9020232D01*
X16819906Y-9008293D01*
X16819906Y-9008293D01*
X16793931Y-8999204D01*
X16793931Y-8999204D01*
X16767103Y-8993081D01*
X16739759Y-8990000D01*
X16712241Y-8990000D01*
X16684897Y-8993081D01*
X16684897Y-8993081D01*
X16658069Y-8999204D01*
X16632094Y-9008293D01*
X16632094Y-9008293D01*
X16607302Y-9020232D01*
X16607302Y-9020232D01*
X16584002Y-9034873D01*
X16562488Y-9052030D01*
X16559830Y-9054688D01*
X16637612Y-9132470D01*
X16623469Y-9146612D01*
X16545688Y-9068830D01*
X16543030Y-9071488D01*
X16525872Y-9093003D01*
X16511232Y-9116302D01*
X16511232Y-9116302D01*
X16499293Y-9141094D01*
X16499293Y-9141094D01*
X16490204Y-9167069D01*
X16484081Y-9193897D01*
X16484081Y-9193897D01*
X16481000Y-9221241D01*
X16081256Y-9221241D01*
X16092485Y-9210012D01*
X16095950Y-9208577D01*
X16097218Y-9208744D01*
X16102094Y-9210050D01*
X16102094Y-9210050D01*
X16117906Y-9210050D01*
X16117906Y-9210050D01*
X16133178Y-9205958D01*
X16146872Y-9198052D01*
X16158052Y-9186872D01*
X16165958Y-9173178D01*
X16170050Y-9157906D01*
X16170050Y-9157906D01*
X16170050Y-9142094D01*
X16170050Y-9142094D01*
X16167353Y-9132028D01*
X16165958Y-9126822D01*
X16165958Y-9126822D01*
X16165958Y-9126821D01*
X16158052Y-9113129D01*
X16158052Y-9113129D01*
X16158052Y-9113128D01*
X16146872Y-9101948D01*
X16146871Y-9101948D01*
X16146871Y-9101948D01*
X16133179Y-9094042D01*
X16133178Y-9094042D01*
X16117906Y-9089950D01*
X16117906Y-9089950D01*
X16102094Y-9089950D01*
X16102094Y-9089950D01*
X16086822Y-9094042D01*
X16086821Y-9094042D01*
X16073129Y-9101948D01*
X16073128Y-9101948D01*
X16061948Y-9113128D01*
X16061947Y-9113129D01*
X16054042Y-9126821D01*
X16054042Y-9126822D01*
X16049950Y-9142094D01*
X16049950Y-9157906D01*
X16051256Y-9162782D01*
X16050767Y-9166500D01*
X16049988Y-9167515D01*
X15991549Y-9225954D01*
X15985954Y-9231549D01*
X15985954Y-9231549D01*
X15981998Y-9238401D01*
X15981998Y-9238401D01*
X15979950Y-9246044D01*
X15979950Y-9315523D01*
X15978515Y-9318988D01*
X15608988Y-9688515D01*
X15605523Y-9689950D01*
X15356043Y-9689950D01*
X15348401Y-9691998D01*
X15348401Y-9691998D01*
X15341549Y-9695954D01*
X15341549Y-9695954D01*
X15011549Y-10025954D01*
X14979325Y-10058177D01*
X14978311Y-10058956D01*
X14973128Y-10061948D01*
X14961948Y-10073128D01*
X14961947Y-10073129D01*
X14954042Y-10086821D01*
X14954042Y-10086822D01*
X14949950Y-10102094D01*
X12942830Y-10102094D01*
X12948052Y-10096872D01*
X12953099Y-10088129D01*
X12955958Y-10083179D01*
X12955958Y-10083179D01*
X12955958Y-10083178D01*
X12960050Y-10067906D01*
X12960050Y-10067906D01*
X12960050Y-10052094D01*
X12960050Y-10052094D01*
X12955958Y-10036822D01*
X12955958Y-10036821D01*
X12948052Y-10023129D01*
X12948052Y-10023129D01*
X12948052Y-10023128D01*
X12936872Y-10011948D01*
X12936871Y-10011948D01*
X12936871Y-10011948D01*
X12923179Y-10004042D01*
X12923178Y-10004042D01*
X12907906Y-9999950D01*
X12907906Y-9999950D01*
X12892094Y-9999950D01*
X12892094Y-9999950D01*
X12888656Y-10000871D01*
X12884938Y-10000382D01*
X12882655Y-9997406D01*
X12882655Y-9994870D01*
X12884489Y-9988023D01*
X12885050Y-9985931D01*
X12885050Y-9974069D01*
X12881980Y-9962612D01*
X12881980Y-9962611D01*
X12880390Y-9959859D01*
X12876049Y-9952339D01*
X12867661Y-9943951D01*
X12858479Y-9938650D01*
X12857389Y-9938020D01*
X12857388Y-9938020D01*
X12845931Y-9934950D01*
X12845931Y-9934950D01*
X12834069Y-9934950D01*
X12834069Y-9934950D01*
X12822611Y-9938020D01*
X12822611Y-9938020D01*
X12812339Y-9943951D01*
X12812339Y-9943951D01*
X12803951Y-9952339D01*
X12803951Y-9952339D01*
X12798020Y-9962611D01*
X12798020Y-9962612D01*
X12794950Y-9974069D01*
X12794950Y-9985931D01*
X12798020Y-9997388D01*
X12798020Y-9997389D01*
X12803951Y-10007661D01*
X12812339Y-10016049D01*
X12822611Y-10021980D01*
X12825476Y-10022747D01*
X12834069Y-10025050D01*
X12842352Y-10025050D01*
X12845816Y-10026485D01*
X12847252Y-10029950D01*
X12846595Y-10032400D01*
X12844042Y-10036821D01*
X12844042Y-10036822D01*
X12839950Y-10052094D01*
X12839950Y-10067906D01*
X12844042Y-10083178D01*
X12844042Y-10083179D01*
X12851947Y-10096871D01*
X12851948Y-10096872D01*
X12856662Y-10101585D01*
X12858097Y-10105050D01*
X12856662Y-10108515D01*
X12853197Y-10109950D01*
X12842094Y-10109950D01*
X12826822Y-10114042D01*
X12826821Y-10114042D01*
X12813129Y-10121948D01*
X12813128Y-10121948D01*
X12801948Y-10133128D01*
X12801947Y-10133129D01*
X12794042Y-10146821D01*
X12794042Y-10146822D01*
X12789950Y-10162094D01*
X12720000Y-10162094D01*
X12720000Y-9934727D01*
X14129950Y-9934727D01*
X14129950Y-9945273D01*
X14132679Y-9955459D01*
X14132679Y-9955459D01*
X14137952Y-9964591D01*
X14145409Y-9972048D01*
X14148751Y-9973978D01*
X14154541Y-9977321D01*
X14154541Y-9977321D01*
X14154541Y-9977321D01*
X14162575Y-9979473D01*
X14164727Y-9980050D01*
X14164727Y-9980050D01*
X14164727Y-9980050D01*
X14175273Y-9980050D01*
X14175273Y-9980050D01*
X14185459Y-9977321D01*
X14194591Y-9972048D01*
X14202048Y-9964591D01*
X14207321Y-9955459D01*
X14210050Y-9945273D01*
X14210050Y-9945273D01*
X14210050Y-9934727D01*
X14210050Y-9934727D01*
X14207321Y-9924541D01*
X14207321Y-9924541D01*
X14202048Y-9915409D01*
X14194591Y-9907952D01*
X14185459Y-9902679D01*
X14185458Y-9902679D01*
X14175273Y-9899950D01*
X14175273Y-9899950D01*
X14164727Y-9899950D01*
X14164727Y-9899950D01*
X14154541Y-9902679D01*
X14154541Y-9902679D01*
X14145409Y-9907952D01*
X14145409Y-9907952D01*
X14137952Y-9915409D01*
X14137952Y-9915409D01*
X14132679Y-9924541D01*
X14132679Y-9924541D01*
X14129950Y-9934727D01*
X12720000Y-9934727D01*
X12720000Y-9920000D01*
X12700000Y-9900000D01*
X12204900Y-9900000D01*
X12201435Y-9898565D01*
X12200000Y-9895100D01*
X12200000Y-9802094D01*
X12409950Y-9802094D01*
X12409950Y-9817906D01*
X12414042Y-9833178D01*
X12414042Y-9833179D01*
X12421947Y-9846871D01*
X12421948Y-9846871D01*
X12421948Y-9846872D01*
X12433128Y-9858052D01*
X12433129Y-9858052D01*
X12433129Y-9858052D01*
X12446821Y-9865958D01*
X12446821Y-9865958D01*
X12446822Y-9865958D01*
X12458866Y-9869185D01*
X12462094Y-9870050D01*
X12462094Y-9870050D01*
X12462094Y-9870050D01*
X12477906Y-9870050D01*
X12477906Y-9870050D01*
X12493178Y-9865958D01*
X12506872Y-9858052D01*
X12518052Y-9846872D01*
X12525958Y-9833178D01*
X12530050Y-9817906D01*
X12530050Y-9817906D01*
X12530050Y-9814727D01*
X14099950Y-9814727D01*
X14099950Y-9825273D01*
X14102679Y-9835459D01*
X14102679Y-9835459D01*
X14107952Y-9844591D01*
X14115409Y-9852048D01*
X14118751Y-9853978D01*
X14124541Y-9857321D01*
X14124541Y-9857321D01*
X14124541Y-9857321D01*
X14127269Y-9858052D01*
X14134727Y-9860050D01*
X14134727Y-9860050D01*
X14134727Y-9860050D01*
X14145273Y-9860050D01*
X14145273Y-9860050D01*
X14155459Y-9857321D01*
X14164591Y-9852048D01*
X14172048Y-9844591D01*
X14177321Y-9835459D01*
X14180050Y-9825273D01*
X14180050Y-9825273D01*
X14180050Y-9814727D01*
X14180050Y-9814727D01*
X14178779Y-9809984D01*
X14177321Y-9804541D01*
X14177321Y-9804541D01*
X14177321Y-9804541D01*
X14172931Y-9796939D01*
X14172048Y-9795409D01*
X14164591Y-9787952D01*
X14162633Y-9786821D01*
X14155459Y-9782679D01*
X14155458Y-9782679D01*
X14145273Y-9779950D01*
X14145273Y-9779950D01*
X14134727Y-9779950D01*
X14134727Y-9779950D01*
X14124541Y-9782679D01*
X14124541Y-9782679D01*
X14115409Y-9787952D01*
X14115409Y-9787952D01*
X14107952Y-9795409D01*
X14107952Y-9795409D01*
X14102679Y-9804541D01*
X14102679Y-9804541D01*
X14099950Y-9814727D01*
X12530050Y-9814727D01*
X12530050Y-9802094D01*
X12530050Y-9802094D01*
X12525958Y-9786822D01*
X12525958Y-9786821D01*
X12518052Y-9773129D01*
X12518052Y-9773129D01*
X12518052Y-9773128D01*
X12506872Y-9761948D01*
X12506871Y-9761948D01*
X12506871Y-9761948D01*
X12493179Y-9754042D01*
X12493178Y-9754042D01*
X12477906Y-9749950D01*
X12477906Y-9749950D01*
X12462094Y-9749950D01*
X12462094Y-9749950D01*
X12446822Y-9754042D01*
X12446821Y-9754042D01*
X12433129Y-9761948D01*
X12433128Y-9761948D01*
X12421948Y-9773128D01*
X12421947Y-9773129D01*
X12414042Y-9786821D01*
X12414042Y-9786822D01*
X12409950Y-9802094D01*
X12200000Y-9802094D01*
X12200000Y-9674069D01*
X13814950Y-9674069D01*
X13814950Y-9685931D01*
X13818020Y-9697388D01*
X13818020Y-9697389D01*
X13818319Y-9697906D01*
X13823951Y-9707661D01*
X13832339Y-9716049D01*
X13839858Y-9720391D01*
X13842261Y-9721778D01*
X13842611Y-9721980D01*
X13845476Y-9722747D01*
X13854069Y-9725050D01*
X13854069Y-9725050D01*
X13865931Y-9725050D01*
X13872787Y-9723213D01*
X13877389Y-9721980D01*
X13887661Y-9716049D01*
X13896049Y-9707661D01*
X13901980Y-9697389D01*
X13903973Y-9689950D01*
X13905050Y-9685931D01*
X13905050Y-9682094D01*
X14889950Y-9682094D01*
X14889950Y-9697906D01*
X14894042Y-9713178D01*
X14894042Y-9713179D01*
X14901947Y-9726871D01*
X14901948Y-9726871D01*
X14901948Y-9726872D01*
X14913128Y-9738052D01*
X14913129Y-9738052D01*
X14913129Y-9738052D01*
X14926821Y-9745958D01*
X14926821Y-9745958D01*
X14926822Y-9745958D01*
X14938866Y-9749185D01*
X14942094Y-9750050D01*
X14942094Y-9750050D01*
X14942094Y-9750050D01*
X14957906Y-9750050D01*
X14957906Y-9750050D01*
X14973178Y-9745958D01*
X14986872Y-9738052D01*
X14998052Y-9726872D01*
X15005958Y-9713178D01*
X15010050Y-9697906D01*
X15010050Y-9697906D01*
X15010050Y-9682094D01*
X15010050Y-9682094D01*
X15008874Y-9677704D01*
X15005958Y-9666822D01*
X15005958Y-9666822D01*
X15005958Y-9666821D01*
X14998052Y-9653129D01*
X14998052Y-9653129D01*
X14998052Y-9653128D01*
X14986872Y-9641948D01*
X14986871Y-9641948D01*
X14986871Y-9641948D01*
X14973179Y-9634042D01*
X14973178Y-9634042D01*
X14957906Y-9629950D01*
X14957906Y-9629950D01*
X14942094Y-9629950D01*
X14942094Y-9629950D01*
X14926822Y-9634042D01*
X14926821Y-9634042D01*
X14913129Y-9641948D01*
X14913128Y-9641948D01*
X14901948Y-9653128D01*
X14901947Y-9653129D01*
X14894042Y-9666821D01*
X14894042Y-9666822D01*
X14889950Y-9682094D01*
X13905050Y-9682094D01*
X13905050Y-9674069D01*
X13901980Y-9662612D01*
X13901980Y-9662611D01*
X13898511Y-9656602D01*
X13896049Y-9652339D01*
X13887661Y-9643951D01*
X13884191Y-9641948D01*
X13877389Y-9638020D01*
X13877388Y-9638020D01*
X13865931Y-9634950D01*
X13865931Y-9634950D01*
X13854069Y-9634950D01*
X13854069Y-9634950D01*
X13842611Y-9638020D01*
X13842611Y-9638020D01*
X13832339Y-9643951D01*
X13832339Y-9643951D01*
X13823951Y-9652339D01*
X13823951Y-9652339D01*
X13818020Y-9662611D01*
X13818020Y-9662612D01*
X13814950Y-9674069D01*
X12200000Y-9674069D01*
X12200000Y-9574069D01*
X12424950Y-9574069D01*
X12424950Y-9585931D01*
X12428020Y-9597388D01*
X12428020Y-9597389D01*
X12432257Y-9604727D01*
X12433951Y-9607661D01*
X12442339Y-9616049D01*
X12452611Y-9621980D01*
X12455476Y-9622747D01*
X12464069Y-9625050D01*
X12464069Y-9625050D01*
X12475931Y-9625050D01*
X12481660Y-9623515D01*
X12487389Y-9621980D01*
X12497661Y-9616049D01*
X12506049Y-9607661D01*
X12507743Y-9604727D01*
X14119950Y-9604727D01*
X14119950Y-9615273D01*
X14122679Y-9625459D01*
X14122679Y-9625459D01*
X14125272Y-9629950D01*
X14127952Y-9634591D01*
X14135409Y-9642048D01*
X14138705Y-9643951D01*
X14144541Y-9647321D01*
X14144541Y-9647321D01*
X14144541Y-9647321D01*
X14152575Y-9649473D01*
X14154727Y-9650050D01*
X14154727Y-9650050D01*
X14154727Y-9650050D01*
X14165273Y-9650050D01*
X14165273Y-9650050D01*
X14175459Y-9647321D01*
X14184591Y-9642048D01*
X14192048Y-9634591D01*
X14197321Y-9625459D01*
X14200050Y-9615273D01*
X14200050Y-9615273D01*
X14200050Y-9604727D01*
X14200050Y-9604727D01*
X14199210Y-9601592D01*
X14198956Y-9600645D01*
X15029950Y-9600645D01*
X15029950Y-9616457D01*
X15034042Y-9631729D01*
X15034042Y-9631729D01*
X15041947Y-9645422D01*
X15041948Y-9645422D01*
X15041948Y-9645422D01*
X15053128Y-9656603D01*
X15053129Y-9656603D01*
X15053129Y-9656603D01*
X15066821Y-9664508D01*
X15066821Y-9664508D01*
X15066822Y-9664508D01*
X15075453Y-9666821D01*
X15082094Y-9668601D01*
X15082094Y-9668601D01*
X15082094Y-9668601D01*
X15097906Y-9668601D01*
X15097906Y-9668601D01*
X15113178Y-9664508D01*
X15126872Y-9656603D01*
X15138052Y-9645422D01*
X15144622Y-9634042D01*
X15145958Y-9631729D01*
X15145958Y-9631729D01*
X15145958Y-9631729D01*
X15150050Y-9616457D01*
X15150050Y-9616457D01*
X15150050Y-9600645D01*
X15150050Y-9600645D01*
X15146139Y-9586049D01*
X15145958Y-9585372D01*
X15145958Y-9585372D01*
X15145958Y-9585372D01*
X15138052Y-9571680D01*
X15138052Y-9571679D01*
X15138052Y-9571679D01*
X15126872Y-9560499D01*
X15126871Y-9560499D01*
X15126871Y-9560498D01*
X15113179Y-9552593D01*
X15113178Y-9552593D01*
X15097906Y-9548501D01*
X15097906Y-9548501D01*
X15082094Y-9548501D01*
X15082094Y-9548501D01*
X15066822Y-9552593D01*
X15066821Y-9552593D01*
X15053129Y-9560498D01*
X15053128Y-9560499D01*
X15041948Y-9571679D01*
X15041947Y-9571680D01*
X15034042Y-9585372D01*
X15034042Y-9585372D01*
X15029950Y-9600645D01*
X14198956Y-9600645D01*
X14197321Y-9594541D01*
X14197321Y-9594541D01*
X14192418Y-9586049D01*
X14192048Y-9585409D01*
X14184591Y-9577952D01*
X14184088Y-9577661D01*
X14175459Y-9572679D01*
X14175458Y-9572679D01*
X14165273Y-9569950D01*
X14165273Y-9569950D01*
X14154727Y-9569950D01*
X14154727Y-9569950D01*
X14144541Y-9572679D01*
X14144541Y-9572679D01*
X14135409Y-9577952D01*
X14135409Y-9577952D01*
X14127952Y-9585409D01*
X14127952Y-9585409D01*
X14122679Y-9594541D01*
X14122679Y-9594541D01*
X14119950Y-9604727D01*
X12507743Y-9604727D01*
X12511980Y-9597389D01*
X12515018Y-9586049D01*
X12515050Y-9585931D01*
X12515050Y-9574069D01*
X12511980Y-9562612D01*
X12511980Y-9562611D01*
X12506196Y-9552593D01*
X12506049Y-9552339D01*
X12497779Y-9544069D01*
X12624950Y-9544069D01*
X12624950Y-9555931D01*
X12628020Y-9567388D01*
X12628020Y-9567389D01*
X12631877Y-9574069D01*
X12633951Y-9577661D01*
X12642339Y-9586049D01*
X12652611Y-9591980D01*
X12655476Y-9592747D01*
X12664069Y-9595050D01*
X12664069Y-9595050D01*
X12675931Y-9595050D01*
X12681660Y-9593515D01*
X12687389Y-9591980D01*
X12697661Y-9586049D01*
X12706049Y-9577661D01*
X12711980Y-9567389D01*
X12713826Y-9560498D01*
X12715050Y-9555931D01*
X12715050Y-9544069D01*
X12711980Y-9532612D01*
X12711980Y-9532611D01*
X12706049Y-9522339D01*
X12697661Y-9513951D01*
X12687389Y-9508020D01*
X12687388Y-9508020D01*
X12675931Y-9504950D01*
X12675931Y-9504950D01*
X12664069Y-9504950D01*
X12664069Y-9504950D01*
X12652611Y-9508020D01*
X12652611Y-9508020D01*
X12642339Y-9513951D01*
X12642339Y-9513951D01*
X12633951Y-9522339D01*
X12633951Y-9522339D01*
X12628020Y-9532611D01*
X12628020Y-9532612D01*
X12624950Y-9544069D01*
X12497779Y-9544069D01*
X12497661Y-9543951D01*
X12487389Y-9538020D01*
X12487388Y-9538020D01*
X12475931Y-9534950D01*
X12475931Y-9534950D01*
X12464069Y-9534950D01*
X12464069Y-9534950D01*
X12452611Y-9538020D01*
X12452611Y-9538020D01*
X12442339Y-9543951D01*
X12442339Y-9543951D01*
X12433951Y-9552339D01*
X12433951Y-9552339D01*
X12428020Y-9562611D01*
X12428020Y-9562612D01*
X12424950Y-9574069D01*
X12200000Y-9574069D01*
X12200000Y-9384069D01*
X15354950Y-9384069D01*
X15354950Y-9395931D01*
X15358020Y-9407388D01*
X15358020Y-9407389D01*
X15361133Y-9412781D01*
X15363951Y-9417661D01*
X15372339Y-9426049D01*
X15382611Y-9431980D01*
X15385476Y-9432747D01*
X15394069Y-9435050D01*
X15394069Y-9435050D01*
X15405931Y-9435050D01*
X15411660Y-9433515D01*
X15417389Y-9431980D01*
X15427661Y-9426049D01*
X15436049Y-9417661D01*
X15441980Y-9407389D01*
X15443987Y-9399898D01*
X15445050Y-9395931D01*
X15445050Y-9390000D01*
X15661619Y-9390000D01*
X15709823Y-9390000D01*
X15708290Y-9395721D01*
X15708290Y-9404279D01*
X15709823Y-9410000D01*
X15661619Y-9410000D01*
X15664249Y-9423218D01*
X15664249Y-9423219D01*
X15670249Y-9437704D01*
X15678960Y-9450742D01*
X15690048Y-9461829D01*
X15703085Y-9470541D01*
X15717571Y-9476541D01*
X15717571Y-9476541D01*
X15730790Y-9479170D01*
X15730790Y-9430967D01*
X15736511Y-9432500D01*
X15745068Y-9432500D01*
X15750790Y-9430967D01*
X15750790Y-9479170D01*
X15764008Y-9476541D01*
X15764009Y-9476541D01*
X15778494Y-9470541D01*
X15791532Y-9461829D01*
X15802619Y-9450742D01*
X15811330Y-9437704D01*
X15817331Y-9423219D01*
X15817331Y-9423218D01*
X15819960Y-9410000D01*
X15771757Y-9410000D01*
X15773290Y-9404279D01*
X15773290Y-9395721D01*
X15771757Y-9390000D01*
X15819960Y-9390000D01*
X15817331Y-9376782D01*
X15817331Y-9376781D01*
X15811330Y-9362296D01*
X15802619Y-9349258D01*
X15791532Y-9338171D01*
X15778494Y-9329459D01*
X15764009Y-9323459D01*
X15764007Y-9323459D01*
X15750790Y-9320830D01*
X15750790Y-9369033D01*
X15745068Y-9367500D01*
X15736511Y-9367500D01*
X15730790Y-9369033D01*
X15730790Y-9320830D01*
X15730790Y-9320830D01*
X15717572Y-9323459D01*
X15717571Y-9323459D01*
X15703085Y-9329459D01*
X15690048Y-9338171D01*
X15678960Y-9349258D01*
X15670249Y-9362296D01*
X15664249Y-9376781D01*
X15664249Y-9376782D01*
X15661619Y-9390000D01*
X15445050Y-9390000D01*
X15445050Y-9384069D01*
X15442747Y-9375476D01*
X15441980Y-9372611D01*
X15436049Y-9362339D01*
X15427661Y-9353951D01*
X15417389Y-9348020D01*
X15417388Y-9348020D01*
X15405931Y-9344950D01*
X15405931Y-9344950D01*
X15394069Y-9344950D01*
X15394069Y-9344950D01*
X15382611Y-9348020D01*
X15382611Y-9348020D01*
X15372339Y-9353951D01*
X15372339Y-9353951D01*
X15363951Y-9362339D01*
X15363951Y-9362339D01*
X15358020Y-9372611D01*
X15358020Y-9372612D01*
X15354950Y-9384069D01*
X12200000Y-9384069D01*
X12200000Y-9254069D01*
X13294950Y-9254069D01*
X13294950Y-9265931D01*
X13298020Y-9277388D01*
X13298020Y-9277389D01*
X13301075Y-9282679D01*
X13303951Y-9287661D01*
X13312339Y-9296049D01*
X13322611Y-9301980D01*
X13325476Y-9302747D01*
X13334069Y-9305050D01*
X13334069Y-9305050D01*
X13345931Y-9305050D01*
X13353838Y-9302931D01*
X13357389Y-9301980D01*
X13367661Y-9296049D01*
X13368654Y-9295056D01*
X14077450Y-9295056D01*
X14077450Y-9304944D01*
X14080009Y-9314494D01*
X14080009Y-9314494D01*
X14083667Y-9320830D01*
X14084952Y-9323056D01*
X14091944Y-9330048D01*
X14095078Y-9331857D01*
X14100506Y-9334991D01*
X14100506Y-9334991D01*
X14100506Y-9334991D01*
X14102894Y-9335631D01*
X14110056Y-9337550D01*
X14110056Y-9337550D01*
X14119944Y-9337550D01*
X14124719Y-9336271D01*
X14129494Y-9334991D01*
X14138056Y-9330048D01*
X14145047Y-9323056D01*
X14149856Y-9314727D01*
X14159950Y-9314727D01*
X14159950Y-9315160D01*
X14159950Y-9325273D01*
X14162679Y-9335459D01*
X14162679Y-9335459D01*
X14166224Y-9341599D01*
X14167952Y-9344591D01*
X14175409Y-9352048D01*
X14178266Y-9353698D01*
X14184541Y-9357321D01*
X14184541Y-9357321D01*
X14184541Y-9357321D01*
X14192575Y-9359473D01*
X14194727Y-9360050D01*
X14194727Y-9360050D01*
X14194727Y-9360050D01*
X14205273Y-9360050D01*
X14205273Y-9360050D01*
X14215459Y-9357321D01*
X14224591Y-9352048D01*
X14232048Y-9344591D01*
X14237321Y-9335459D01*
X14240050Y-9325273D01*
X14240050Y-9325273D01*
X14240050Y-9314727D01*
X14240050Y-9314727D01*
X14237428Y-9304944D01*
X14237321Y-9304541D01*
X14237321Y-9304541D01*
X14237321Y-9304541D01*
X14232418Y-9296049D01*
X14232048Y-9295409D01*
X14224591Y-9287952D01*
X14222634Y-9286822D01*
X14215459Y-9282679D01*
X14215458Y-9282679D01*
X14205273Y-9279950D01*
X14205273Y-9279950D01*
X14194727Y-9279950D01*
X14194727Y-9279950D01*
X14184541Y-9282679D01*
X14184541Y-9282679D01*
X14175409Y-9287952D01*
X14175409Y-9287952D01*
X14167952Y-9295409D01*
X14167952Y-9295409D01*
X14162679Y-9304541D01*
X14162679Y-9304541D01*
X14162191Y-9306363D01*
X14162189Y-9306371D01*
X14159950Y-9314727D01*
X14149856Y-9314727D01*
X14149991Y-9314494D01*
X14152550Y-9304944D01*
X14152550Y-9295057D01*
X14152550Y-9295056D01*
X14150386Y-9286980D01*
X14149991Y-9285506D01*
X14149991Y-9285506D01*
X14149991Y-9285506D01*
X14146783Y-9279950D01*
X14145047Y-9276944D01*
X14138056Y-9269953D01*
X14129494Y-9265009D01*
X14129494Y-9265009D01*
X14119944Y-9262450D01*
X14119943Y-9262450D01*
X14110056Y-9262450D01*
X14110056Y-9262450D01*
X14100506Y-9265009D01*
X14100506Y-9265009D01*
X14091944Y-9269953D01*
X14091944Y-9269953D01*
X14084953Y-9276944D01*
X14084952Y-9276944D01*
X14080009Y-9285506D01*
X14080009Y-9285506D01*
X14077450Y-9295056D01*
X13368654Y-9295056D01*
X13376049Y-9287661D01*
X13381980Y-9277389D01*
X13383972Y-9269953D01*
X13385050Y-9265931D01*
X13385050Y-9254069D01*
X13381980Y-9242612D01*
X13381980Y-9242611D01*
X13379935Y-9239069D01*
X15159950Y-9239069D01*
X15159950Y-9250931D01*
X15163020Y-9262388D01*
X15163020Y-9262389D01*
X15167387Y-9269953D01*
X15168951Y-9272661D01*
X15177339Y-9281049D01*
X15187611Y-9286980D01*
X15190154Y-9287661D01*
X15199069Y-9290050D01*
X15199069Y-9290050D01*
X15210931Y-9290050D01*
X15216660Y-9288515D01*
X15222389Y-9286980D01*
X15232661Y-9281049D01*
X15241049Y-9272661D01*
X15246980Y-9262389D01*
X15249209Y-9254069D01*
X15250050Y-9250931D01*
X15250050Y-9239069D01*
X15246980Y-9227612D01*
X15246980Y-9227611D01*
X15243302Y-9221241D01*
X15241049Y-9217339D01*
X15232661Y-9208951D01*
X15231033Y-9208011D01*
X15222389Y-9203020D01*
X15222388Y-9203020D01*
X15210931Y-9199950D01*
X15210931Y-9199950D01*
X15199069Y-9199950D01*
X15199069Y-9199950D01*
X15187611Y-9203020D01*
X15187611Y-9203020D01*
X15177339Y-9208951D01*
X15177339Y-9208951D01*
X15168951Y-9217339D01*
X15168951Y-9217339D01*
X15163020Y-9227611D01*
X15163020Y-9227612D01*
X15159950Y-9239069D01*
X13379935Y-9239069D01*
X13376049Y-9232339D01*
X13367661Y-9223951D01*
X13357389Y-9218020D01*
X13357388Y-9218020D01*
X13345931Y-9214950D01*
X13345931Y-9214950D01*
X13334069Y-9214950D01*
X13334069Y-9214950D01*
X13322611Y-9218020D01*
X13322611Y-9218020D01*
X13312339Y-9223951D01*
X13312339Y-9223951D01*
X13303951Y-9232339D01*
X13303951Y-9232339D01*
X13298020Y-9242611D01*
X13298020Y-9242612D01*
X13294950Y-9254069D01*
X12200000Y-9254069D01*
X12200000Y-9075703D01*
X13981341Y-9075703D01*
X13981341Y-9091515D01*
X13985433Y-9106787D01*
X13985433Y-9106788D01*
X13993338Y-9120480D01*
X13993339Y-9120480D01*
X13993339Y-9120481D01*
X14004519Y-9131661D01*
X14004520Y-9131661D01*
X14004520Y-9131662D01*
X14018212Y-9139567D01*
X14018212Y-9139567D01*
X14018212Y-9139567D01*
X14025278Y-9141460D01*
X14033485Y-9143659D01*
X14033485Y-9143659D01*
X14033485Y-9143659D01*
X14049297Y-9143659D01*
X14049297Y-9143659D01*
X14064569Y-9139567D01*
X14078262Y-9131661D01*
X14089443Y-9120481D01*
X14093154Y-9114053D01*
X14096129Y-9111770D01*
X14099847Y-9112259D01*
X14101641Y-9114053D01*
X14106445Y-9122373D01*
X14106445Y-9122374D01*
X14106445Y-9122374D01*
X14117626Y-9133555D01*
X14117626Y-9133555D01*
X14117626Y-9133555D01*
X14131319Y-9141460D01*
X14131319Y-9141460D01*
X14131319Y-9141460D01*
X14142412Y-9144433D01*
X14146591Y-9145552D01*
X14146591Y-9145553D01*
X14146592Y-9145553D01*
X14162403Y-9145553D01*
X14162403Y-9145552D01*
X14177676Y-9141460D01*
X14191369Y-9133555D01*
X14202549Y-9122374D01*
X14207751Y-9113365D01*
X14210455Y-9108681D01*
X14210455Y-9108681D01*
X14210455Y-9108681D01*
X14214547Y-9093409D01*
X14214547Y-9093409D01*
X14214547Y-9077597D01*
X14214547Y-9077596D01*
X14212911Y-9071489D01*
X14210455Y-9062324D01*
X14210455Y-9062324D01*
X14210455Y-9062324D01*
X14205778Y-9054223D01*
X14204549Y-9052094D01*
X14924950Y-9052094D01*
X14924950Y-9067906D01*
X14929042Y-9083178D01*
X14929042Y-9083179D01*
X14936947Y-9096871D01*
X14936948Y-9096871D01*
X14936948Y-9096872D01*
X14948128Y-9108052D01*
X14948129Y-9108052D01*
X14948129Y-9108052D01*
X14961821Y-9115958D01*
X14961821Y-9115958D01*
X14961822Y-9115958D01*
X14966197Y-9117130D01*
X14977094Y-9120050D01*
X14977094Y-9120050D01*
X14977094Y-9120050D01*
X14992906Y-9120050D01*
X14992906Y-9120050D01*
X15008178Y-9115958D01*
X15013079Y-9113128D01*
X15021871Y-9108052D01*
X15021871Y-9108052D01*
X15021872Y-9108052D01*
X15033052Y-9096872D01*
X15035286Y-9093003D01*
X15040958Y-9083179D01*
X15040958Y-9083179D01*
X15040958Y-9083178D01*
X15042453Y-9077596D01*
X15043134Y-9075056D01*
X15472450Y-9075056D01*
X15472450Y-9084944D01*
X15475009Y-9094494D01*
X15475009Y-9094494D01*
X15478277Y-9100154D01*
X15479952Y-9103056D01*
X15486944Y-9110048D01*
X15489927Y-9111770D01*
X15495506Y-9114991D01*
X15495506Y-9114991D01*
X15495506Y-9114991D01*
X15497894Y-9115631D01*
X15505056Y-9117550D01*
X15505056Y-9117550D01*
X15514944Y-9117550D01*
X15519719Y-9116271D01*
X15524494Y-9114991D01*
X15533056Y-9110048D01*
X15540047Y-9103056D01*
X15544991Y-9094494D01*
X15547526Y-9085035D01*
X15547550Y-9084944D01*
X15547550Y-9075056D01*
X15544991Y-9065506D01*
X15544991Y-9065506D01*
X15540047Y-9056944D01*
X15533056Y-9049953D01*
X15524494Y-9045009D01*
X15524494Y-9045009D01*
X15514944Y-9042450D01*
X15514943Y-9042450D01*
X15505056Y-9042450D01*
X15505056Y-9042450D01*
X15495506Y-9045009D01*
X15495506Y-9045009D01*
X15486944Y-9049953D01*
X15486944Y-9049953D01*
X15479953Y-9056944D01*
X15479952Y-9056944D01*
X15475009Y-9065506D01*
X15475009Y-9065506D01*
X15472450Y-9075056D01*
X15043134Y-9075056D01*
X15043560Y-9073467D01*
X15045050Y-9067906D01*
X15045050Y-9067906D01*
X15045050Y-9052094D01*
X15045050Y-9052094D01*
X15044122Y-9048631D01*
X15040958Y-9036822D01*
X15040958Y-9036822D01*
X15040958Y-9036821D01*
X15033052Y-9023129D01*
X15033052Y-9023129D01*
X15033052Y-9023128D01*
X15023260Y-9013336D01*
X15216341Y-9013336D01*
X15216341Y-9023882D01*
X15219070Y-9034068D01*
X15219070Y-9034068D01*
X15224343Y-9043200D01*
X15231800Y-9050657D01*
X15234176Y-9052029D01*
X15240932Y-9055930D01*
X15240932Y-9055930D01*
X15240932Y-9055930D01*
X15246202Y-9057342D01*
X15251118Y-9058659D01*
X15251118Y-9058659D01*
X15251118Y-9058659D01*
X15261664Y-9058659D01*
X15261664Y-9058659D01*
X15271850Y-9055930D01*
X15280982Y-9050657D01*
X15288439Y-9043200D01*
X15293712Y-9034068D01*
X15294240Y-9032094D01*
X16349950Y-9032094D01*
X16349950Y-9047906D01*
X16354042Y-9063178D01*
X16354042Y-9063179D01*
X16361947Y-9076871D01*
X16361948Y-9076871D01*
X16361948Y-9076872D01*
X16373128Y-9088052D01*
X16373129Y-9088052D01*
X16373129Y-9088052D01*
X16386821Y-9095958D01*
X16386821Y-9095958D01*
X16386822Y-9095958D01*
X16390233Y-9096872D01*
X16402094Y-9100050D01*
X16402094Y-9100050D01*
X16402094Y-9100050D01*
X16417906Y-9100050D01*
X16417906Y-9100050D01*
X16433178Y-9095958D01*
X16446872Y-9088052D01*
X16458052Y-9076872D01*
X16460018Y-9073467D01*
X16465958Y-9063179D01*
X16465958Y-9063179D01*
X16465958Y-9063178D01*
X16467628Y-9056944D01*
X16469116Y-9051390D01*
X16470050Y-9047906D01*
X16470050Y-9047906D01*
X16470050Y-9032094D01*
X16470050Y-9032094D01*
X16468270Y-9025453D01*
X16465958Y-9016822D01*
X16465958Y-9016822D01*
X16465958Y-9016821D01*
X16458052Y-9003129D01*
X16458052Y-9003129D01*
X16458052Y-9003128D01*
X16446872Y-8991948D01*
X16446871Y-8991948D01*
X16446871Y-8991948D01*
X16433179Y-8984042D01*
X16433178Y-8984042D01*
X16417906Y-8979950D01*
X16417906Y-8979950D01*
X16402094Y-8979950D01*
X16402094Y-8979950D01*
X16386822Y-8984042D01*
X16386821Y-8984042D01*
X16373129Y-8991948D01*
X16373128Y-8991948D01*
X16361948Y-9003128D01*
X16361947Y-9003129D01*
X16354042Y-9016821D01*
X16354042Y-9016822D01*
X16349950Y-9032094D01*
X15294240Y-9032094D01*
X15294924Y-9029545D01*
X15296441Y-9023882D01*
X15296441Y-9023882D01*
X15296441Y-9013336D01*
X15296441Y-9013336D01*
X15293951Y-9004042D01*
X15293712Y-9003150D01*
X15293711Y-9003150D01*
X15293711Y-9003150D01*
X15288439Y-8994018D01*
X15280982Y-8986561D01*
X15271850Y-8981288D01*
X15271849Y-8981288D01*
X15261664Y-8978559D01*
X15261664Y-8978559D01*
X15251118Y-8978559D01*
X15251118Y-8978559D01*
X15240932Y-8981288D01*
X15240932Y-8981288D01*
X15231799Y-8986561D01*
X15231799Y-8986561D01*
X15224343Y-8994018D01*
X15224343Y-8994018D01*
X15219070Y-9003150D01*
X15219070Y-9003151D01*
X15216341Y-9013336D01*
X15023260Y-9013336D01*
X15021872Y-9011948D01*
X15021871Y-9011948D01*
X15021871Y-9011948D01*
X15008179Y-9004042D01*
X15008178Y-9004042D01*
X14992906Y-8999950D01*
X14992906Y-8999950D01*
X14977094Y-8999950D01*
X14977094Y-8999950D01*
X14961822Y-9004042D01*
X14961821Y-9004042D01*
X14948129Y-9011948D01*
X14948128Y-9011948D01*
X14936948Y-9023128D01*
X14936947Y-9023129D01*
X14929042Y-9036821D01*
X14929042Y-9036822D01*
X14924950Y-9052094D01*
X14204549Y-9052094D01*
X14202550Y-9048632D01*
X14202550Y-9048631D01*
X14202549Y-9048631D01*
X14191369Y-9037451D01*
X14191369Y-9037450D01*
X14191368Y-9037450D01*
X14177676Y-9029545D01*
X14177676Y-9029545D01*
X14162403Y-9025453D01*
X14162403Y-9025453D01*
X14146592Y-9025453D01*
X14146591Y-9025453D01*
X14131319Y-9029545D01*
X14131319Y-9029545D01*
X14117626Y-9037450D01*
X14117626Y-9037451D01*
X14106446Y-9048631D01*
X14106445Y-9048632D01*
X14102734Y-9055059D01*
X14099759Y-9057342D01*
X14096041Y-9056852D01*
X14094247Y-9055059D01*
X14089443Y-9046738D01*
X14078262Y-9035557D01*
X14078262Y-9035557D01*
X14078262Y-9035557D01*
X14064569Y-9027651D01*
X14064569Y-9027651D01*
X14049297Y-9023559D01*
X14049297Y-9023559D01*
X14033485Y-9023559D01*
X14033485Y-9023559D01*
X14018213Y-9027651D01*
X14018212Y-9027651D01*
X14004520Y-9035557D01*
X14004519Y-9035557D01*
X13993339Y-9046737D01*
X13993338Y-9046738D01*
X13985433Y-9060430D01*
X13985433Y-9060431D01*
X13981341Y-9075703D01*
X12200000Y-9075703D01*
X12200000Y-8906418D01*
X12201435Y-8902953D01*
X12204898Y-8901518D01*
X16500021Y-8900050D01*
X16699880Y-8900050D01*
X16700120Y-8900056D01*
G37*
%TD.AperFunction*%
%TD*%
M02*
