M48
; DRILL file KiCad 10.0.6-10.0.6~ubuntu24.04.1 date 2026-10-10T12:11:59
; FORMAT={-:-/ absolute / metric / decimal}
; #@! TF.CreationDate,2026-10-10T12:11:59+02:00
; #@! TF.GenerationSoftware,Kicad,Pcbnew,10.0.6-10.0.6~ubuntu24.04.1
; #@! TF.FileFunction,Plated,1,4,PTH
FMAT,2
METRIC
; #@! TA.AperFunction,Plated,PTH,ViaDrill
T1C0.200
; #@! TA.AperFunction,Plated,PTH,ViaDrill
T2C0.250
; #@! TA.AperFunction,Plated,PTH,ViaDrill
T3C0.300
; #@! TA.AperFunction,Plated,PTH,ViaDrill
T4C0.400
; #@! TA.AperFunction,Plated,PTH,ComponentDrill
T5C0.600
; #@! TA.AperFunction,Plated,PTH,ComponentDrill
T6C0.650
; #@! TA.AperFunction,Plated,PTH,ComponentDrill
T7C2.700
%
G90
G05
T1
X94.2Y-95.7
X94.3Y-101.9
T2
X141.15Y-93.0
X155.1Y-90.8
T3
X141.4Y-98.2
X141.6Y-96.1
X141.7Y-99.4
X142.0Y-93.2
X144.775Y-90.45
X152.3Y-104.55
X152.564Y-90.186
X155.9Y-106.4
X156.5Y-108.2
X162.735Y-105.1
T4
X91.3Y-97.8
X91.3Y-99.9
X93.2Y-95.4
X93.2Y-102.1
X98.1Y-101.9
X98.3Y-95.4
X99.95Y-101.9
X100.1Y-95.4
X101.8Y-101.9
X102.0Y-95.4
X103.4Y-95.4
X103.65Y-101.9
X105.8Y-101.7
X106.3Y-95.2
X106.4Y-107.2
X107.1Y-101.8
X107.6Y-90.5
X107.6Y-93.9
X108.0Y-99.6
X108.4Y-107.2
X110.2Y-90.5
X110.2Y-102.2
X110.4Y-107.2
X112.6Y-107.2
X113.5Y-90.5
X114.0Y-106.8
X123.0Y-89.9
X123.0Y-91.85
X123.55Y-107.65
X123.9Y-108.76
X124.35Y-89.9
X124.35Y-91.85
X124.7Y-95.8
X124.7Y-98.1
X126.35Y-92.5
X126.55Y-107.65
X126.7Y-95.5
X126.9Y-108.76
X127.6Y-91.2
X128.4Y-99.8
X128.5Y-101.7
X128.5Y-101.7
X129.0Y-100.6
X129.1Y-96.3
X129.1Y-97.45
X129.1Y-98.75
X129.45Y-91.15
X129.65Y-107.55
X130.0Y-108.66
X130.73Y-105.67
X130.9Y-104.6
X131.0Y-102.6
X132.8Y-107.6
X133.4Y-92.6
X133.5Y-97.35
X134.1Y-100.3
X134.2Y-106.3
X136.4Y-102.0
X138.2Y-91.4
X138.4Y-104.0
X138.4Y-105.0
X138.4Y-107.1
X138.5Y-109.0
X138.6Y-96.8
X139.9Y-102.0
X140.414Y-90.836
X141.24Y-104.137
X141.545Y-90.855
X142.8Y-99.8
X149.5Y-96.9
X149.85Y-90.6
X150.1Y-101.1
X150.9Y-96.086
X150.9Y-105.35
X151.9Y-107.3
X151.953Y-106.301
X152.05Y-92.45
X153.661Y-99.071
X154.0Y-93.9
X154.6Y-104.3
X154.6Y-106.55
X154.9Y-101.25
X156.795Y-101.195
X160.2Y-90.9
X160.7Y-101.5
X160.7Y-102.6
X161.1Y-91.5
X161.8Y-99.6
X164.1Y-90.4
X164.1Y-92.5
T5
X102.775Y-90.6
X102.775Y-93.6
X103.175Y-104.0
X103.175Y-106.6
T6
X157.408Y-94.0
X157.408Y-97.592
X161.0Y-94.0
X161.0Y-97.592
T7
X92.9Y-92.3
X92.9Y-105.8
X167.26Y-92.35
X167.3Y-106.1
M30
