%TF.GenerationSoftware,KiCad,Pcbnew,10.0.6-10.0.6~ubuntu24.04.1*%
%TF.CreationDate,2026-10-10T12:11:59+02:00*%
%TF.ProjectId,TireTempSensor_v2.0,54697265-5465-46d7-9053-656e736f725f,rev?*%
%TF.SameCoordinates,Original*%
%TF.FileFunction,Soldermask,Top*%
%TF.FilePolarity,Negative*%
%FSLAX45Y45*%
G04 Gerber Fmt 4.5, Leading zero omitted, Abs format (unit mm)*
G04 Created by KiCad (PCBNEW 10.0.6-10.0.6~ubuntu24.04.1) date 2026-10-10 12:11:59*
%MOMM*%
%LPD*%
G01*
G04 APERTURE LIST*
G04 Aperture macros list*
%AMRoundRect*
0 Rectangle with rounded corners*
0 $1 Rounding radius*
0 $2 $3 $4 $5 $6 $7 $8 $9 X,Y pos of 4 corners*
0 Add a 4 corners polygon primitive as box body*
4,1,4,$2,$3,$4,$5,$6,$7,$8,$9,$2,$3,0*
0 Add four circle primitives for the rounded corners*
1,1,$1+$1,$2,$3*
1,1,$1+$1,$4,$5*
1,1,$1+$1,$6,$7*
1,1,$1+$1,$8,$9*
0 Add four rect primitives between the rounded corners*
20,1,$1+$1,$2,$3,$4,$5,0*
20,1,$1+$1,$4,$5,$6,$7,0*
20,1,$1+$1,$6,$7,$8,$9,0*
20,1,$1+$1,$8,$9,$2,$3,0*%
%AMRotRect*
0 Rectangle, with rotation*
0 The origin of the aperture is its center*
0 $1 length*
0 $2 width*
0 $3 Rotation angle, in degrees counterclockwise*
0 Add horizontal line*
21,1,$1,$2,0,0,$3*%
G04 Aperture macros list end*
%ADD10C,0.000000*%
%ADD11RoundRect,0.225000X-0.225000X-0.250000X0.225000X-0.250000X0.225000X0.250000X-0.225000X0.250000X0*%
%ADD12RoundRect,0.250000X0.475000X-0.337500X0.475000X0.337500X-0.475000X0.337500X-0.475000X-0.337500X0*%
%ADD13RoundRect,0.250000X-0.275000X-0.350000X0.275000X-0.350000X0.275000X0.350000X-0.275000X0.350000X0*%
%ADD14RoundRect,0.237500X0.250000X0.237500X-0.250000X0.237500X-0.250000X-0.237500X0.250000X-0.237500X0*%
%ADD15RoundRect,0.237500X-0.287500X-0.237500X0.287500X-0.237500X0.287500X0.237500X-0.287500X0.237500X0*%
%ADD16RoundRect,0.237500X0.237500X-0.250000X0.237500X0.250000X-0.237500X0.250000X-0.237500X-0.250000X0*%
%ADD17RoundRect,0.250000X-0.475000X0.337500X-0.475000X-0.337500X0.475000X-0.337500X0.475000X0.337500X0*%
%ADD18R,1.900000X0.800000*%
%ADD19RoundRect,0.218750X-0.256250X0.218750X-0.256250X-0.218750X0.256250X-0.218750X0.256250X0.218750X0*%
%ADD20RoundRect,0.237500X0.237500X-0.287500X0.237500X0.287500X-0.237500X0.287500X-0.237500X-0.287500X0*%
%ADD21RoundRect,0.200000X0.200000X0.275000X-0.200000X0.275000X-0.200000X-0.275000X0.200000X-0.275000X0*%
%ADD22R,1.150000X0.600000*%
%ADD23RoundRect,0.135000X0.226274X0.035355X0.035355X0.226274X-0.226274X-0.035355X-0.035355X-0.226274X0*%
%ADD24RoundRect,0.250000X0.337500X0.475000X-0.337500X0.475000X-0.337500X-0.475000X0.337500X-0.475000X0*%
%ADD25RoundRect,0.237500X-0.237500X0.300000X-0.237500X-0.300000X0.237500X-0.300000X0.237500X0.300000X0*%
%ADD26C,4.500000*%
%ADD27RoundRect,0.125000X0.530330X-0.353553X-0.353553X0.530330X-0.530330X0.353553X0.353553X-0.530330X0*%
%ADD28RoundRect,0.125000X0.530330X0.353553X0.353553X0.530330X-0.530330X-0.353553X-0.353553X-0.530330X0*%
%ADD29C,1.500000*%
%ADD30RoundRect,0.250000X-0.550000X0.550000X-0.550000X-0.550000X0.550000X-0.550000X0.550000X0.550000X0*%
%ADD31RoundRect,0.200000X0.275000X-0.200000X0.275000X0.200000X-0.275000X0.200000X-0.275000X-0.200000X0*%
%ADD32RoundRect,0.218750X-0.218750X-0.256250X0.218750X-0.256250X0.218750X0.256250X-0.218750X0.256250X0*%
%ADD33RoundRect,0.237500X-0.250000X-0.237500X0.250000X-0.237500X0.250000X0.237500X-0.250000X0.237500X0*%
%ADD34R,2.790000X0.740000*%
%ADD35RoundRect,0.150000X0.150000X-0.512500X0.150000X0.512500X-0.150000X0.512500X-0.150000X-0.512500X0*%
%ADD36RoundRect,0.250000X-0.337500X-0.475000X0.337500X-0.475000X0.337500X0.475000X-0.337500X0.475000X0*%
%ADD37RoundRect,0.237500X0.287500X0.237500X-0.287500X0.237500X-0.287500X-0.237500X0.287500X-0.237500X0*%
%ADD38RoundRect,0.150000X0.875000X0.150000X-0.875000X0.150000X-0.875000X-0.150000X0.875000X-0.150000X0*%
%ADD39RoundRect,0.237500X-0.237500X0.250000X-0.237500X-0.250000X0.237500X-0.250000X0.237500X0.250000X0*%
%ADD40RoundRect,0.237500X-0.237500X0.287500X-0.237500X-0.287500X0.237500X-0.287500X0.237500X0.287500X0*%
%ADD41RoundRect,0.225000X0.017678X-0.335876X0.335876X-0.017678X-0.017678X0.335876X-0.335876X0.017678X0*%
%ADD42R,3.600000X1.150000*%
%ADD43R,1.560000X0.650000*%
%ADD44R,1.400000X1.200000*%
%ADD45RoundRect,0.237500X0.237500X-0.300000X0.237500X0.300000X-0.237500X0.300000X-0.237500X-0.300000X0*%
%ADD46R,0.475000X0.450000*%
%ADD47RoundRect,0.225000X-0.250000X0.225000X-0.250000X-0.225000X0.250000X-0.225000X0.250000X0.225000X0*%
%ADD48R,2.200000X1.200000*%
%ADD49RoundRect,0.225000X-0.375000X0.225000X-0.375000X-0.225000X0.375000X-0.225000X0.375000X0.225000X0*%
%ADD50RoundRect,0.225000X0.250000X-0.225000X0.250000X0.225000X-0.250000X0.225000X-0.250000X-0.225000X0*%
%ADD51RoundRect,0.237500X-0.300000X-0.237500X0.300000X-0.237500X0.300000X0.237500X-0.300000X0.237500X0*%
%ADD52RotRect,1.192000X1.192000X45.000000*%
%ADD53C,1.192000*%
G04 APERTURE END LIST*
D10*
%TO.C,G\u002A\u002A\u002A*%
G36*
X10243928Y-7156481D02*
G01*
X10246696Y-7156548D01*
X10249141Y-7156677D01*
X10251401Y-7156881D01*
X10253613Y-7157173D01*
X10255916Y-7157564D01*
X10258448Y-7158068D01*
X10258701Y-7158121D01*
X10265403Y-7159835D01*
X10271860Y-7162086D01*
X10278049Y-7164860D01*
X10283944Y-7168145D01*
X10289522Y-7171926D01*
X10294758Y-7176190D01*
X10298906Y-7180168D01*
X10302988Y-7184745D01*
X10306612Y-7189582D01*
X10309792Y-7194709D01*
X10312543Y-7200159D01*
X10314878Y-7205961D01*
X10316810Y-7212147D01*
X10318354Y-7218748D01*
X10319524Y-7225795D01*
X10319654Y-7226788D01*
X10319682Y-7227134D01*
X10319708Y-7227739D01*
X10319734Y-7228614D01*
X10319758Y-7229772D01*
X10319781Y-7231224D01*
X10319804Y-7232982D01*
X10319825Y-7235057D01*
X10319845Y-7237463D01*
X10319864Y-7240210D01*
X10319883Y-7243310D01*
X10319901Y-7246775D01*
X10319917Y-7250618D01*
X10319933Y-7254849D01*
X10319949Y-7259481D01*
X10319963Y-7264526D01*
X10319977Y-7269995D01*
X10319990Y-7275901D01*
X10320003Y-7282254D01*
X10320015Y-7289068D01*
X10320026Y-7296353D01*
X10320037Y-7304122D01*
X10320048Y-7312386D01*
X10320058Y-7321158D01*
X10320067Y-7330449D01*
X10320076Y-7340270D01*
X10320085Y-7350635D01*
X10320093Y-7361554D01*
X10320101Y-7373040D01*
X10320109Y-7385104D01*
X10320116Y-7395606D01*
X10320213Y-7561574D01*
X10321784Y-7562152D01*
X10322481Y-7562403D01*
X10323653Y-7562821D01*
X10325209Y-7563373D01*
X10327058Y-7564026D01*
X10329109Y-7564749D01*
X10331272Y-7565510D01*
X10331378Y-7565547D01*
X10339399Y-7568365D01*
X10339403Y-7581073D01*
X10339403Y-7584168D01*
X10339399Y-7586715D01*
X10339389Y-7588766D01*
X10339370Y-7590373D01*
X10339341Y-7591587D01*
X10339299Y-7592462D01*
X10339243Y-7593047D01*
X10339170Y-7593397D01*
X10339077Y-7593562D01*
X10338964Y-7593595D01*
X10338882Y-7593572D01*
X10338497Y-7593431D01*
X10337581Y-7593102D01*
X10336170Y-7592599D01*
X10334300Y-7591934D01*
X10332006Y-7591119D01*
X10329324Y-7590168D01*
X10326289Y-7589091D01*
X10322936Y-7587903D01*
X10319301Y-7586616D01*
X10315420Y-7585242D01*
X10311327Y-7583794D01*
X10307059Y-7582285D01*
X10303254Y-7580940D01*
X10301372Y-7580264D01*
X10299680Y-7579638D01*
X10298260Y-7579093D01*
X10297195Y-7578661D01*
X10296567Y-7578374D01*
X10296434Y-7578286D01*
X10296422Y-7577970D01*
X10296409Y-7577071D01*
X10296396Y-7575605D01*
X10296384Y-7573589D01*
X10296372Y-7571040D01*
X10296360Y-7567974D01*
X10296349Y-7564409D01*
X10296337Y-7560361D01*
X10296326Y-7555847D01*
X10296316Y-7550883D01*
X10296305Y-7545486D01*
X10296295Y-7539673D01*
X10296286Y-7533461D01*
X10296277Y-7526867D01*
X10296268Y-7519906D01*
X10296260Y-7512597D01*
X10296252Y-7504955D01*
X10296245Y-7496997D01*
X10296239Y-7488740D01*
X10296233Y-7480201D01*
X10296227Y-7471397D01*
X10296222Y-7462344D01*
X10296218Y-7453058D01*
X10296214Y-7443558D01*
X10296211Y-7433858D01*
X10296209Y-7423977D01*
X10296207Y-7413931D01*
X10296206Y-7404102D01*
X10296205Y-7390039D01*
X10296203Y-7376550D01*
X10296200Y-7363639D01*
X10296195Y-7351305D01*
X10296190Y-7339549D01*
X10296184Y-7328373D01*
X10296176Y-7317778D01*
X10296168Y-7307765D01*
X10296158Y-7298334D01*
X10296148Y-7289488D01*
X10296136Y-7281227D01*
X10296124Y-7273551D01*
X10296110Y-7266463D01*
X10296096Y-7259964D01*
X10296080Y-7254053D01*
X10296064Y-7248733D01*
X10296046Y-7244004D01*
X10296028Y-7239868D01*
X10296008Y-7236325D01*
X10295988Y-7233377D01*
X10295966Y-7231025D01*
X10295944Y-7229269D01*
X10295920Y-7228112D01*
X10295896Y-7227553D01*
X10295894Y-7227538D01*
X10295695Y-7225815D01*
X10295515Y-7224473D01*
X10295319Y-7223312D01*
X10295068Y-7222129D01*
X10294725Y-7220724D01*
X10294372Y-7219356D01*
X10292728Y-7214153D01*
X10290591Y-7209242D01*
X10287989Y-7204652D01*
X10284949Y-7200413D01*
X10281498Y-7196557D01*
X10277662Y-7193112D01*
X10273469Y-7190110D01*
X10268946Y-7187580D01*
X10264163Y-7185568D01*
X10259142Y-7184049D01*
X10253772Y-7182924D01*
X10248161Y-7182199D01*
X10242416Y-7181878D01*
X10236644Y-7181967D01*
X10230955Y-7182471D01*
X10225454Y-7183396D01*
X10224348Y-7183641D01*
X10220400Y-7184725D01*
X10216388Y-7186148D01*
X10212514Y-7187827D01*
X10208980Y-7189681D01*
X10208147Y-7190178D01*
X10203879Y-7193148D01*
X10199991Y-7196570D01*
X10196496Y-7200417D01*
X10193411Y-7204665D01*
X10190752Y-7209285D01*
X10188533Y-7214253D01*
X10186772Y-7219542D01*
X10185483Y-7225126D01*
X10184909Y-7228881D01*
X10184882Y-7229356D01*
X10184857Y-7230343D01*
X10184833Y-7231846D01*
X10184810Y-7233868D01*
X10184788Y-7236414D01*
X10184768Y-7239487D01*
X10184748Y-7243091D01*
X10184730Y-7247230D01*
X10184713Y-7251909D01*
X10184697Y-7257130D01*
X10184683Y-7262898D01*
X10184669Y-7269217D01*
X10184657Y-7276091D01*
X10184646Y-7283523D01*
X10184636Y-7291517D01*
X10184627Y-7300077D01*
X10184619Y-7309208D01*
X10184612Y-7318913D01*
X10184607Y-7329196D01*
X10184602Y-7340060D01*
X10184599Y-7351511D01*
X10184596Y-7363551D01*
X10184595Y-7376184D01*
X10184595Y-7385118D01*
X10184594Y-7394691D01*
X10184593Y-7404114D01*
X10184591Y-7413367D01*
X10184588Y-7422434D01*
X10184584Y-7431297D01*
X10184580Y-7439937D01*
X10184575Y-7448338D01*
X10184569Y-7456481D01*
X10184562Y-7464349D01*
X10184555Y-7471923D01*
X10184547Y-7479187D01*
X10184539Y-7486122D01*
X10184530Y-7492711D01*
X10184521Y-7498936D01*
X10184511Y-7504779D01*
X10184500Y-7510222D01*
X10184489Y-7515248D01*
X10184478Y-7519839D01*
X10184466Y-7523978D01*
X10184454Y-7527645D01*
X10184441Y-7530825D01*
X10184428Y-7533498D01*
X10184415Y-7535648D01*
X10184402Y-7537256D01*
X10184388Y-7538305D01*
X10184374Y-7538776D01*
X10184370Y-7538803D01*
X10184047Y-7538704D01*
X10183220Y-7538425D01*
X10181948Y-7537987D01*
X10180291Y-7537411D01*
X10178311Y-7536718D01*
X10176066Y-7535930D01*
X10173619Y-7535066D01*
X10172444Y-7534651D01*
X10160743Y-7530509D01*
X10160655Y-7383824D01*
X10160648Y-7370667D01*
X10160642Y-7358109D01*
X10160638Y-7346150D01*
X10160636Y-7334790D01*
X10160635Y-7324026D01*
X10160636Y-7313859D01*
X10160639Y-7304288D01*
X10160643Y-7295313D01*
X10160649Y-7286932D01*
X10160657Y-7279145D01*
X10160666Y-7271951D01*
X10160677Y-7265350D01*
X10160690Y-7259341D01*
X10160705Y-7253924D01*
X10160721Y-7249096D01*
X10160738Y-7244859D01*
X10160758Y-7241211D01*
X10160779Y-7238152D01*
X10160801Y-7235680D01*
X10160826Y-7233796D01*
X10160852Y-7232498D01*
X10160876Y-7231838D01*
X10161451Y-7225087D01*
X10162368Y-7218791D01*
X10163644Y-7212904D01*
X10165293Y-7207377D01*
X10167331Y-7202163D01*
X10169772Y-7197216D01*
X10172632Y-7192488D01*
X10174245Y-7190162D01*
X10178651Y-7184558D01*
X10183410Y-7179429D01*
X10188507Y-7174784D01*
X10193927Y-7170633D01*
X10199655Y-7166987D01*
X10205677Y-7163855D01*
X10211976Y-7161249D01*
X10218539Y-7159178D01*
X10220361Y-7158710D01*
X10223409Y-7158006D01*
X10226214Y-7157456D01*
X10228925Y-7157045D01*
X10231686Y-7156757D01*
X10234643Y-7156574D01*
X10237943Y-7156482D01*
X10240699Y-7156462D01*
X10243928Y-7156481D01*
G37*
G36*
X10243969Y-7202994D02*
G01*
X10248889Y-7203640D01*
X10249100Y-7203680D01*
X10253190Y-7204682D01*
X10256859Y-7206056D01*
X10260187Y-7207845D01*
X10263255Y-7210093D01*
X10266070Y-7212763D01*
X10268689Y-7215954D01*
X10270885Y-7219525D01*
X10272666Y-7223496D01*
X10274039Y-7227885D01*
X10275014Y-7232710D01*
X10275049Y-7232939D01*
X10275081Y-7233206D01*
X10275112Y-7233572D01*
X10275141Y-7234052D01*
X10275169Y-7234659D01*
X10275196Y-7235410D01*
X10275221Y-7236317D01*
X10275245Y-7237396D01*
X10275267Y-7238660D01*
X10275288Y-7240126D01*
X10275308Y-7241806D01*
X10275326Y-7243715D01*
X10275343Y-7245868D01*
X10275360Y-7248280D01*
X10275375Y-7250964D01*
X10275389Y-7253935D01*
X10275401Y-7257209D01*
X10275413Y-7260798D01*
X10275424Y-7264718D01*
X10275434Y-7268984D01*
X10275443Y-7273609D01*
X10275452Y-7278608D01*
X10275459Y-7283996D01*
X10275466Y-7289786D01*
X10275472Y-7295995D01*
X10275477Y-7302635D01*
X10275482Y-7309722D01*
X10275486Y-7317270D01*
X10275489Y-7325293D01*
X10275492Y-7333806D01*
X10275494Y-7342823D01*
X10275496Y-7352360D01*
X10275498Y-7362430D01*
X10275499Y-7373047D01*
X10275500Y-7384227D01*
X10275500Y-7395984D01*
X10275500Y-7403427D01*
X10275500Y-7414731D01*
X10275499Y-7425744D01*
X10275496Y-7436455D01*
X10275493Y-7446852D01*
X10275489Y-7456921D01*
X10275484Y-7466651D01*
X10275478Y-7476028D01*
X10275472Y-7485042D01*
X10275464Y-7493679D01*
X10275456Y-7501927D01*
X10275447Y-7509774D01*
X10275437Y-7517207D01*
X10275427Y-7524214D01*
X10275416Y-7530783D01*
X10275404Y-7536901D01*
X10275391Y-7542556D01*
X10275378Y-7547735D01*
X10275364Y-7552427D01*
X10275350Y-7556618D01*
X10275334Y-7560297D01*
X10275319Y-7563451D01*
X10275303Y-7566067D01*
X10275286Y-7568134D01*
X10275269Y-7569639D01*
X10275251Y-7570570D01*
X10275233Y-7570914D01*
X10275231Y-7570915D01*
X10274854Y-7570813D01*
X10273917Y-7570508D01*
X10272427Y-7570001D01*
X10270387Y-7569295D01*
X10267803Y-7568391D01*
X10264680Y-7567290D01*
X10261022Y-7565995D01*
X10256901Y-7564531D01*
X10251650Y-7562663D01*
X10251500Y-7398701D01*
X10251489Y-7386839D01*
X10251479Y-7375562D01*
X10251469Y-7364855D01*
X10251459Y-7354704D01*
X10251449Y-7345093D01*
X10251440Y-7336008D01*
X10251430Y-7327433D01*
X10251421Y-7319353D01*
X10251411Y-7311755D01*
X10251402Y-7304622D01*
X10251392Y-7297940D01*
X10251382Y-7291694D01*
X10251372Y-7285869D01*
X10251361Y-7280450D01*
X10251351Y-7275422D01*
X10251339Y-7270771D01*
X10251327Y-7266480D01*
X10251315Y-7262537D01*
X10251301Y-7258925D01*
X10251287Y-7255629D01*
X10251273Y-7252635D01*
X10251257Y-7249928D01*
X10251240Y-7247493D01*
X10251223Y-7245314D01*
X10251204Y-7243378D01*
X10251185Y-7241668D01*
X10251164Y-7240171D01*
X10251142Y-7238871D01*
X10251118Y-7237754D01*
X10251094Y-7236804D01*
X10251068Y-7236006D01*
X10251040Y-7235346D01*
X10251011Y-7234808D01*
X10250980Y-7234379D01*
X10250948Y-7234042D01*
X10250913Y-7233783D01*
X10250878Y-7233587D01*
X10250840Y-7233439D01*
X10250803Y-7233330D01*
X10249843Y-7231569D01*
X10248477Y-7230011D01*
X10246864Y-7228829D01*
X10246336Y-7228565D01*
X10245558Y-7228252D01*
X10244793Y-7228045D01*
X10243886Y-7227923D01*
X10242680Y-7227865D01*
X10241149Y-7227848D01*
X10238842Y-7227901D01*
X10237001Y-7228099D01*
X10235503Y-7228483D01*
X10234222Y-7229092D01*
X10233037Y-7229964D01*
X10232276Y-7230673D01*
X10231024Y-7232114D01*
X10230166Y-7233513D01*
X10230026Y-7233839D01*
X10229982Y-7233962D01*
X10229940Y-7234105D01*
X10229901Y-7234286D01*
X10229863Y-7234520D01*
X10229828Y-7234822D01*
X10229795Y-7235208D01*
X10229763Y-7235695D01*
X10229734Y-7236297D01*
X10229706Y-7237031D01*
X10229680Y-7237913D01*
X10229656Y-7238958D01*
X10229633Y-7240183D01*
X10229612Y-7241602D01*
X10229592Y-7243232D01*
X10229573Y-7245089D01*
X10229556Y-7247188D01*
X10229540Y-7249545D01*
X10229526Y-7252176D01*
X10229512Y-7255097D01*
X10229500Y-7258324D01*
X10229488Y-7261872D01*
X10229477Y-7265757D01*
X10229467Y-7269996D01*
X10229458Y-7274603D01*
X10229450Y-7279595D01*
X10229442Y-7284987D01*
X10229434Y-7290795D01*
X10229428Y-7297036D01*
X10229421Y-7303724D01*
X10229415Y-7310876D01*
X10229409Y-7318507D01*
X10229403Y-7326634D01*
X10229398Y-7335272D01*
X10229392Y-7344436D01*
X10229387Y-7354144D01*
X10229381Y-7364409D01*
X10229376Y-7375250D01*
X10229372Y-7382386D01*
X10229295Y-7529434D01*
X10234472Y-7531268D01*
X10236284Y-7531908D01*
X10238045Y-7532527D01*
X10239619Y-7533077D01*
X10240870Y-7533511D01*
X10241524Y-7533735D01*
X10243400Y-7534368D01*
X10243400Y-7559792D01*
X10240924Y-7558899D01*
X10240253Y-7558659D01*
X10239065Y-7558236D01*
X10237408Y-7557647D01*
X10235331Y-7556910D01*
X10232882Y-7556042D01*
X10230109Y-7555060D01*
X10227062Y-7553981D01*
X10223789Y-7552822D01*
X10220338Y-7551600D01*
X10216758Y-7550334D01*
X10215647Y-7549941D01*
X10192846Y-7541876D01*
X10192767Y-7529243D01*
X10192755Y-7526556D01*
X10192751Y-7524064D01*
X10192756Y-7521828D01*
X10192768Y-7519912D01*
X10192788Y-7518377D01*
X10192815Y-7517284D01*
X10192848Y-7516697D01*
X10192868Y-7516611D01*
X10193192Y-7516707D01*
X10193996Y-7516974D01*
X10195193Y-7517383D01*
X10196698Y-7517905D01*
X10198425Y-7518510D01*
X10198996Y-7518711D01*
X10200774Y-7519336D01*
X10202357Y-7519887D01*
X10203658Y-7520335D01*
X10204592Y-7520649D01*
X10205073Y-7520802D01*
X10205117Y-7520811D01*
X10205129Y-7520514D01*
X10205140Y-7519636D01*
X10205152Y-7518194D01*
X10205163Y-7516207D01*
X10205175Y-7513693D01*
X10205187Y-7510671D01*
X10205199Y-7507159D01*
X10205211Y-7503176D01*
X10205223Y-7498739D01*
X10205234Y-7493867D01*
X10205246Y-7488579D01*
X10205258Y-7482892D01*
X10205269Y-7476826D01*
X10205280Y-7470398D01*
X10205291Y-7463627D01*
X10205301Y-7456531D01*
X10205312Y-7449129D01*
X10205321Y-7441438D01*
X10205331Y-7433478D01*
X10205340Y-7425266D01*
X10205349Y-7416821D01*
X10205357Y-7408162D01*
X10205364Y-7399306D01*
X10205371Y-7390272D01*
X10205378Y-7381078D01*
X10205380Y-7377025D01*
X10205387Y-7365910D01*
X10205394Y-7355380D01*
X10205401Y-7345417D01*
X10205408Y-7336007D01*
X10205415Y-7327133D01*
X10205422Y-7318779D01*
X10205429Y-7310929D01*
X10205437Y-7303568D01*
X10205444Y-7296679D01*
X10205452Y-7290246D01*
X10205461Y-7284254D01*
X10205470Y-7278686D01*
X10205480Y-7273527D01*
X10205490Y-7268760D01*
X10205501Y-7264369D01*
X10205513Y-7260339D01*
X10205525Y-7256654D01*
X10205539Y-7253297D01*
X10205553Y-7250253D01*
X10205569Y-7247506D01*
X10205586Y-7245039D01*
X10205603Y-7242837D01*
X10205622Y-7240884D01*
X10205643Y-7239164D01*
X10205664Y-7237661D01*
X10205688Y-7236358D01*
X10205712Y-7235240D01*
X10205738Y-7234292D01*
X10205766Y-7233496D01*
X10205796Y-7232838D01*
X10205827Y-7232300D01*
X10205860Y-7231868D01*
X10205895Y-7231524D01*
X10205932Y-7231254D01*
X10205971Y-7231041D01*
X10205983Y-7230989D01*
X10207125Y-7226830D01*
X10208570Y-7223126D01*
X10210353Y-7219793D01*
X10211847Y-7217604D01*
X10214946Y-7213935D01*
X10218352Y-7210775D01*
X10222043Y-7208133D01*
X10225996Y-7206018D01*
X10230188Y-7204438D01*
X10234596Y-7203402D01*
X10239197Y-7202918D01*
X10243969Y-7202994D01*
G37*
%TD*%
D11*
%TO.C,C17*%
X15602500Y-9560000D03*
X15757500Y-9560000D03*
%TD*%
D12*
%TO.C,C43*%
X13970000Y-9413750D03*
X13970000Y-9206250D03*
%TD*%
D13*
%TO.C,FB5*%
X10725000Y-10480000D03*
X10955000Y-10480000D03*
%TD*%
D12*
%TO.C,C48*%
X14124000Y-10413750D03*
X14124000Y-10206250D03*
%TD*%
D14*
%TO.C,R22*%
X13781250Y-10090000D03*
X13598750Y-10090000D03*
%TD*%
D15*
%TO.C,F4*%
X13752500Y-10242500D03*
X13927500Y-10242500D03*
%TD*%
D16*
%TO.C,R14*%
X13592000Y-10766250D03*
X13592000Y-10583750D03*
%TD*%
D17*
%TO.C,C41*%
X13160000Y-9280000D03*
X13160000Y-9487500D03*
%TD*%
D18*
%TO.C,D9*%
X11120000Y-9755000D03*
X11120000Y-9565000D03*
X10820000Y-9660000D03*
%TD*%
D19*
%TO.C,FB3*%
X15380000Y-9071250D03*
X15380000Y-9228750D03*
%TD*%
D20*
%TO.C,F5*%
X12770000Y-9467500D03*
X12770000Y-9292500D03*
%TD*%
D12*
%TO.C,C47*%
X14110000Y-10793750D03*
X14110000Y-10586250D03*
%TD*%
D21*
%TO.C,R6*%
X16442500Y-9500000D03*
X16277500Y-9500000D03*
%TD*%
D22*
%TO.C,D8*%
X15330000Y-10265000D03*
X15330000Y-10360000D03*
X15330000Y-10455000D03*
X15590000Y-10455000D03*
X15590000Y-10360000D03*
X15590000Y-10265000D03*
%TD*%
D17*
%TO.C,C46*%
X12940000Y-10336250D03*
X12940000Y-10543750D03*
%TD*%
D23*
%TO.C,R3*%
X15366062Y-9907062D03*
X15293938Y-9834938D03*
%TD*%
D24*
%TO.C,C44*%
X9443750Y-9876250D03*
X9236250Y-9876250D03*
%TD*%
D11*
%TO.C,C2*%
X15182500Y-10058000D03*
X15337500Y-10058000D03*
%TD*%
D25*
%TO.C,C40*%
X13340000Y-9393750D03*
X13340000Y-9566250D03*
%TD*%
D26*
%TO.C,H4*%
X16726000Y-9235000D03*
%TD*%
D21*
%TO.C,R4*%
X14912500Y-10630000D03*
X14747500Y-10630000D03*
%TD*%
D27*
%TO.C,U1*%
X14814160Y-10103207D03*
X14870728Y-10046638D03*
X14927297Y-9990070D03*
X14983866Y-9933501D03*
X15040434Y-9876933D03*
X15097003Y-9820364D03*
X15153571Y-9763796D03*
X15210140Y-9707227D03*
D28*
X15210140Y-9512773D03*
X15153571Y-9456204D03*
X15097003Y-9399636D03*
X15040434Y-9343067D03*
X14983866Y-9286499D03*
X14927297Y-9229930D03*
X14870728Y-9173362D03*
X14814160Y-9116793D03*
D27*
X14619706Y-9116793D03*
X14563137Y-9173362D03*
X14506568Y-9229930D03*
X14450000Y-9286499D03*
X14393431Y-9343067D03*
X14336863Y-9399636D03*
X14280294Y-9456204D03*
X14223726Y-9512773D03*
D28*
X14223726Y-9707227D03*
X14280294Y-9763796D03*
X14336863Y-9820364D03*
X14393431Y-9876933D03*
X14450000Y-9933501D03*
X14506568Y-9990070D03*
X14563137Y-10046638D03*
X14619706Y-10103207D03*
%TD*%
D29*
%TO.C,J5*%
X9677500Y-9060000D03*
D30*
X10277500Y-9060000D03*
%TD*%
D25*
%TO.C,C28*%
X13240000Y-9733750D03*
X13240000Y-9906250D03*
%TD*%
D24*
%TO.C,C51*%
X9443750Y-10080000D03*
X9236250Y-10080000D03*
%TD*%
D31*
%TO.C,R11*%
X15400000Y-9652500D03*
X15400000Y-9487500D03*
%TD*%
D22*
%TO.C,D7*%
X15330000Y-10640000D03*
X15330000Y-10735000D03*
X15330000Y-10830000D03*
X15590000Y-10830000D03*
X15590000Y-10735000D03*
X15590000Y-10640000D03*
%TD*%
D32*
%TO.C,D2*%
X14452750Y-10630000D03*
X14610250Y-10630000D03*
%TD*%
D33*
%TO.C,R21*%
X10978750Y-9400000D03*
X11161250Y-9400000D03*
%TD*%
D21*
%TO.C,R9*%
X14912500Y-10780000D03*
X14747500Y-10780000D03*
%TD*%
D34*
%TO.C,J3*%
X16273500Y-10831000D03*
X15866500Y-10831000D03*
X16273500Y-10704000D03*
X15866500Y-10704000D03*
X16273500Y-10577000D03*
X15866500Y-10577000D03*
X16273500Y-10450000D03*
X15866500Y-10450000D03*
X16273500Y-10323000D03*
X15866500Y-10323000D03*
X16273500Y-10196000D03*
X15866500Y-10196000D03*
X16273500Y-10069000D03*
X15866500Y-10069000D03*
%TD*%
D35*
%TO.C,U2*%
X13745000Y-10636250D03*
X13840000Y-10636250D03*
X13935000Y-10636250D03*
X13935000Y-10408750D03*
X13745000Y-10408750D03*
%TD*%
D25*
%TO.C,C30*%
X16260000Y-9073750D03*
X16260000Y-9246250D03*
%TD*%
D12*
%TO.C,C45*%
X13420000Y-10753750D03*
X13420000Y-10546250D03*
%TD*%
D32*
%TO.C,D6*%
X14454000Y-10330000D03*
X14611500Y-10330000D03*
%TD*%
%TO.C,D4*%
X14454000Y-10480000D03*
X14611500Y-10480000D03*
%TD*%
D13*
%TO.C,FB7*%
X12525000Y-10240000D03*
X12755000Y-10240000D03*
%TD*%
D26*
%TO.C,H2*%
X16730000Y-10610000D03*
%TD*%
D29*
%TO.C,J1*%
X9717500Y-10660000D03*
D30*
X10317500Y-10660000D03*
%TD*%
D17*
%TO.C,C35*%
X11140000Y-10306250D03*
X11140000Y-10513750D03*
%TD*%
D12*
%TO.C,C38*%
X12760000Y-9883750D03*
X12760000Y-9676250D03*
%TD*%
D36*
%TO.C,C50*%
X9236250Y-9670000D03*
X9443750Y-9670000D03*
%TD*%
D21*
%TO.C,R7*%
X14915000Y-10480000D03*
X14750000Y-10480000D03*
%TD*%
D13*
%TO.C,FB6*%
X10725000Y-10310000D03*
X10955000Y-10310000D03*
%TD*%
D37*
%TO.C,F3*%
X13927500Y-10800000D03*
X13752500Y-10800000D03*
%TD*%
D12*
%TO.C,C33*%
X12540000Y-10623750D03*
X12540000Y-10416250D03*
%TD*%
D38*
%TO.C,U7*%
X12310000Y-10481500D03*
X12310000Y-10354500D03*
X12310000Y-10227500D03*
X12310000Y-10100500D03*
X12310000Y-9973500D03*
X12310000Y-9846500D03*
X12310000Y-9719500D03*
X12310000Y-9592500D03*
X12310000Y-9465500D03*
X12310000Y-9338500D03*
X11380000Y-9338500D03*
X11380000Y-9465500D03*
X11380000Y-9592500D03*
X11380000Y-9719500D03*
X11380000Y-9846500D03*
X11380000Y-9973500D03*
X11380000Y-10100500D03*
X11380000Y-10227500D03*
X11380000Y-10354500D03*
X11380000Y-10481500D03*
%TD*%
D39*
%TO.C,R25*%
X9610000Y-9958750D03*
X9610000Y-10141250D03*
%TD*%
D17*
%TO.C,C34*%
X11140000Y-9920000D03*
X11140000Y-10127500D03*
%TD*%
D32*
%TO.C,D5*%
X14453750Y-10780000D03*
X14611250Y-10780000D03*
%TD*%
D29*
%TO.C,J4*%
X9677500Y-9360000D03*
D30*
X10277500Y-9360000D03*
%TD*%
D12*
%TO.C,C26*%
X13060000Y-9863750D03*
X13060000Y-9656250D03*
%TD*%
D40*
%TO.C,D16*%
X13450000Y-10202500D03*
X13450000Y-10377500D03*
%TD*%
D21*
%TO.C,R10*%
X14915250Y-10330000D03*
X14750250Y-10330000D03*
%TD*%
D41*
%TO.C,C3*%
X14285199Y-9194801D03*
X14394801Y-9085199D03*
%TD*%
D42*
%TO.C,L4*%
X13640000Y-9567500D03*
X13640000Y-9272500D03*
%TD*%
D39*
%TO.C,R26*%
X9610000Y-9623750D03*
X9610000Y-9806250D03*
%TD*%
D43*
%TO.C,IC4*%
X13490000Y-9735000D03*
X13490000Y-9830000D03*
X13490000Y-9925000D03*
X13760000Y-9925000D03*
X13760000Y-9830000D03*
X13760000Y-9735000D03*
%TD*%
D44*
%TO.C,Y1*%
X15655000Y-9210000D03*
X15875000Y-9210000D03*
X15875000Y-9050000D03*
X15655000Y-9050000D03*
%TD*%
D45*
%TO.C,C39*%
X12580000Y-9886250D03*
X12580000Y-9713750D03*
%TD*%
D29*
%TO.C,J2*%
X9717500Y-10400000D03*
D30*
X10317500Y-10400000D03*
%TD*%
D46*
%TO.C,IC1*%
X13168800Y-10185000D03*
X13168800Y-10120000D03*
X13168800Y-10055000D03*
X12951200Y-10055000D03*
X12951200Y-10185000D03*
%TD*%
D25*
%TO.C,C36*%
X10560000Y-10303750D03*
X10560000Y-10476250D03*
%TD*%
D26*
%TO.C,H3*%
X9290000Y-9230000D03*
%TD*%
D47*
%TO.C,C11*%
X15540000Y-9802500D03*
X15540000Y-9957500D03*
%TD*%
D48*
%TO.C,FL2*%
X9830000Y-9725000D03*
X9830000Y-9975000D03*
X10570000Y-9975000D03*
X10570000Y-9725000D03*
%TD*%
D15*
%TO.C,F6*%
X13122500Y-10380000D03*
X13297500Y-10380000D03*
%TD*%
D16*
%TO.C,R23*%
X13940000Y-10091250D03*
X13940000Y-9908750D03*
%TD*%
D49*
%TO.C,D1*%
X13200000Y-10535000D03*
X13200000Y-10865000D03*
%TD*%
D13*
%TO.C,FB8*%
X12525000Y-10060000D03*
X12755000Y-10060000D03*
%TD*%
D45*
%TO.C,C37*%
X10960000Y-10092500D03*
X10960000Y-9920000D03*
%TD*%
D50*
%TO.C,C31*%
X13300000Y-10227500D03*
X13300000Y-10072500D03*
%TD*%
D51*
%TO.C,C29*%
X16333750Y-9840000D03*
X16506250Y-9840000D03*
%TD*%
D40*
%TO.C,D13*%
X13596000Y-10252500D03*
X13596000Y-10427500D03*
%TD*%
D47*
%TO.C,C1*%
X15093000Y-10203500D03*
X15093000Y-10358500D03*
%TD*%
D16*
%TO.C,R24*%
X13980000Y-9760000D03*
X13980000Y-9577500D03*
%TD*%
D31*
%TO.C,R5*%
X15920000Y-9862500D03*
X15920000Y-9697500D03*
%TD*%
D12*
%TO.C,C32*%
X12740000Y-10623750D03*
X12740000Y-10416250D03*
%TD*%
D26*
%TO.C,H1*%
X9290000Y-10580000D03*
%TD*%
D17*
%TO.C,C42*%
X12950000Y-9276250D03*
X12950000Y-9483750D03*
%TD*%
D52*
%TO.C,IC2*%
X16100000Y-9400000D03*
D53*
X16100000Y-9759210D03*
X15740790Y-9759210D03*
X15740790Y-9400000D03*
%TD*%
M02*
